<?xml version="1.0" encoding="UTF-8"?>
<svg width="208px" height="106px" viewBox="0 0 208 106" version="1.1" xmlns="http://www.w3.org/2000/svg" xmlns:xlink="http://www.w3.org/1999/xlink">
    <title>aws</title>
    <g id="文档首页" stroke="none" stroke-width="1" fill="none" fill-rule="evenodd">
        <g id="应用集成" transform="translate(-844.000000, -679.000000)">
            <g id="编组-11" transform="translate(844.000000, 679.000000)">
                <rect id="矩形备份-8" fill-opacity="0" fill="#FFFFFF" x="0" y="0" width="208" height="106" rx="4"></rect>
                <g id="aws" transform="translate(71.000000, 33.000000)" fill-rule="nonzero">
                    <path d="M18.0192354,16.2186949 L18.783368,17.7390504 C18.9644407,17.9986774 19.0330447,18.2123697 18.9891803,18.3801272 C18.9453158,18.5478848 18.7914594,18.7560795 18.5276111,19.0047111 C17.8367587,19.568808 17.4125893,19.9068384 17.2551029,20.0188023 C17.0188732,20.1867483 16.999346,20.2719345 16.7451582,20.2719345 C16.4894013,20.2719345 16.2352135,20.2719345 15.9810256,20.0188023 C15.810521,19.8500476 15.5558102,19.5120172 15.216893,19.0047111 C14.8769299,18.4984468 14.6222191,18.0765599 14.4527605,17.7390504 C12.6671694,19.0047111 9.58119216,20.1393618 7.8281863,20.2719345 C6.07518043,20.4045071 4.86131805,20.1161696 3.5337734,18.8539572 C2.20622876,17.5917448 1.83345599,16.9009078 1.96774467,14.6999019 C2.10203336,12.498896 2.7334463,11.4060588 4.00752356,10.3935301 C5.53578865,9.12786934 8.04540472,8.66470574 8.84515248,8.6052863 C9.64490023,8.54586686 10.5213214,8.51085592 11.734922,8.73808379 C12.9485226,8.96531166 13.3940809,9.12775667 14.1582135,9.38088882 L14.1970036,7.35281913 C14.3373529,5.80391961 13.9973898,4.62159452 13.1771142,3.80584385 C12.3568385,2.99009318 11.1603613,2.63168467 9.58768238,2.73061833 C8.58414356,2.77241625 7.8276633,2.8776926 7.31824159,3.04644736 C6.0446589,3.46925522 5.28052635,3.72290823 5.02584395,3.80740639 C4.64382034,3.93415363 4.38602803,4.02968369 4.26171138,4.06053854 C4.13739474,4.09139339 3.95218094,4.09054697 3.83552203,4.03592348 C3.71886312,3.98129998 3.49757882,3.80740639 3.49757882,3.30114206 L3.49757882,2.54018303 C3.49757882,2.28705088 3.49757882,2.03391869 3.75176664,1.78078658 C4.00595446,1.52765443 4.04204935,1.47755301 4.42701952,1.26343041 C4.8119897,1.04930781 6.09246906,0.485279043 7.06405373,0.260431068 C8.0356384,0.0355830928 8.34461582,-0.0226989862 9.86639612,0.00729892005 C11.3881764,0.0372968263 14.0277924,0.205577029 15.7252687,1.78078658 C17.422745,3.35599614 17.4941509,3.47632504 17.5092907,7.09968698 C17.5193839,9.51526161 17.5193839,11.8799118 17.5092907,14.1936376 C17.6787493,15.0374114 17.8487308,15.7124305 18.0192354,16.2186949 Z M10.8847165,16.9796539 C11.6494762,16.7107882 12.345747,16.2782263 12.9244954,15.7124306 C13.1786832,15.4592984 13.4328711,14.9530341 13.6870589,14.4467697 C13.8575635,13.9394637 14.0144605,12.9127956 14.1577498,11.3667653 C13.3328223,11.2293415 12.5809114,11.1184726 11.9020173,11.0341584 C10.8836761,10.9076872 11.0155852,10.9187741 9.86639612,10.8997945 C8.71720701,10.8808148 7.58073771,11.1414927 6.55567809,11.6591909 C5.53061848,12.1768892 5.27320628,13.3631012 5.19852572,14.0085736 C5.12384517,14.6540459 5.359999,15.6273155 6.16176219,16.4570424 C6.96352538,17.2867692 7.8281863,17.4844047 8.59231886,17.4844047 C9.35645142,17.4859182 10.1205839,17.2327861 10.8847165,16.9796539 Z M25.66213,19.512538 C25.4063731,19.2594059 25.1521853,19.0047112 25.1521853,18.751579 L20.0436834,2.14317249 C19.8823534,1.73644667 19.8016884,1.44689659 19.8016884,1.27452225 C19.8016884,1.01596073 20.0574453,0.766695404 20.0574453,0.766695404 C20.0574453,0.766695404 20.3116331,0.513563196 20.5658209,0.513563196 L22.8597876,0.513563196 C23.1139754,0.513563196 23.3681633,0.513563196 23.6239202,0.766695404 C23.878108,1.0213901 23.9735311,1.19983404 24.1431046,1.55752371 C24.2561537,1.79598348 25.526628,6.51428577 27.9545276,15.7124306 C30.2457665,6.59199131 31.4287501,1.89478016 31.5034784,1.62079711 C31.6155709,1.20982254 31.6863906,1.01324779 32.0309473,0.766695404 C32.375504,0.520143016 32.540892,0.513563196 33.0508367,0.513563196 C33.3907999,0.513563196 33.9849509,0.513563196 34.8332897,0.513563196 C35.0874775,0.513563196 35.3432344,0.513563196 35.8531791,0.766695404 C36.0226377,0.936491867 36.1920962,1.19014486 36.3615548,1.52765439 L39.9280297,15.9655627 C42.3981836,6.61394543 43.6722609,1.80130933 43.7502615,1.52765439 C43.8672625,1.11717199 44.0044493,1.02139006 44.2602063,0.766695404 C44.5143941,0.513563196 44.7685819,0.513563196 45.0243388,0.513563196 L47.0625486,0.513563196 C47.3167364,0.513563196 47.5709243,0.766695404 47.5709243,0.766695404 C47.5709243,0.766695404 47.804007,0.846384537 47.8266812,1.27452225 C47.8493554,1.70265996 47.7789087,1.79489583 47.6439607,2.14578194 C47.5539955,2.37970601 45.746151,7.91549255 42.2204274,18.7531415 C42.0071184,19.1563782 41.8376599,19.4095104 41.7120517,19.512538 C41.5236394,19.6670795 41.5542214,19.6902179 40.9479192,19.7656702 C40.5437177,19.8159717 39.8643144,19.8159717 38.9097093,19.7656702 C38.5697462,19.7656702 38.2297831,19.6812928 37.8898199,19.512538 C37.7203614,19.3437833 37.5509028,19.0901303 37.3814442,18.751579 L33.8149693,4.81993502 L30.5026822,18.751579 C30.5026822,19.0047111 30.2469253,19.2594058 29.9927375,19.512538 C29.7385497,19.7656702 29.4827928,19.7656702 28.972848,19.7656702 L26.4278316,19.7656702 C26.1720747,19.7656702 25.9163179,19.7656702 25.66213,19.512538 Z M51.9031008,20.0188023 C50.8847805,19.7656702 50.1934352,19.5474748 49.3549463,19.2594058 C48.8775012,19.0176459 48.5807292,18.5254848 48.5908137,17.9921825 L48.5908137,16.7265217 C48.5908137,16.2186949 48.8450016,15.9655627 49.1007584,15.9655627 C49.271263,15.9655627 49.6107032,16.0499401 50.1190788,16.2186949 C50.8832114,16.471827 51.6473439,16.7249592 52.6672334,16.9796539 C53.431366,17.232786 54.4496863,17.232786 55.4695757,17.232786 C56.4894652,17.232786 57.7619734,16.9796539 58.7802938,16.471827 C59.5459954,15.9655627 60.0559401,15.2061663 60.0559401,14.4452072 C60.0559401,13.9389429 60.1330284,13.3811374 59.5459954,12.9264143 C58.9589624,12.4716911 54.4677936,11.3982197 53.2979939,10.9719619 C52.1281941,10.5457041 50.6290236,9.88570328 49.6091341,8.61847995 C48.9350257,7.74949665 48.5761121,6.67887995 48.5908137,5.58089401 C48.5908137,4.81993498 48.8450016,3.80740635 49.1007584,3.29957951 C49.5610593,2.58898065 50.168839,1.9847907 50.8832114,1.52765439 C51.647344,1.02139006 52.4130455,0.766695364 53.1771781,0.513563216 C53.9413107,0.260431068 54.959631,0.00729888038 55.7237636,0.00729892005 C56.4878962,0.00729895973 57.233926,-0.0603703366 58.7818628,0.260431068 C60.3297997,0.581232473 61.5842052,1.0213901 61.838393,1.27452225 C62.0941499,1.52765439 62.0941499,1.78078658 62.09415,2.03391873 C62.09415,2.28705088 62.09415,2.53862052 62.09415,3.04644736 C62.09415,3.5542742 61.8383931,3.80740639 61.5842052,3.80740639 C61.3284483,3.80740639 60.9395506,3.60410031 60.6320966,3.51406008 C60.3246427,3.42401984 58.0177303,2.79331517 56.4894652,2.79331521 C55.4695757,2.79331521 54.3024192,2.74065482 53.4313659,3.30114206 C52.5603126,3.8616293 52.1572887,4.56680284 52.1572887,5.58089401 C52.1572887,6.08715835 52.4130455,6.59342265 52.9214212,7.09968698 C53.6855538,7.60595132 54.4496863,8.11377816 55.4695757,8.36534776 L58.526106,9.38100149 C59.8001832,9.63257109 61.0742605,10.3935301 62.09415,11.4060588 C62.8582825,12.4201499 63.107619,13.7250396 63.1124704,14.4452072 C63.1173217,15.1653747 63.1699135,15.6631203 62.6190521,16.8618627 C62.0681906,18.0606051 61.7660039,18.4011441 61.0336407,18.9689966 C60.3012776,19.536849 59.794134,19.9105571 58.4831924,20.1817584 C57.6092314,20.3625592 56.4384679,20.4263609 54.9709019,20.3731634 C53.6045814,20.3056774 52.5819811,20.1875571 51.9031008,20.0188023 Z" id="形状" fill="#252F3E"></path>
                    <path d="M62.5169528,30.8075385 C54.9366279,37.2004675 43.9621984,40.7826087 34.5562208,40.7826087 C22.0117615,40.7826087 9.73239257,35.4101473 0.324837023,25.6916947 C-0.459388923,24.9248433 0.324837023,23.9013744 1.10906297,24.4131089 C11.5612012,31.319273 23.3198566,34.8999135 35.3404467,34.8999135 C44.224133,34.8999135 53.1078193,32.8529757 61.4707922,28.7621014 C62.7773095,28.2488663 63.8218921,29.7840696 62.5153749,30.8075385 L62.5169528,30.8075385 Z" id="路径" fill="#FF9900"></path>
                    <path d="M55.0012698,28.3264315 C54.2185906,28.3264315 54.2185906,27.7962444 54.7409027,27.2676352 C58.9209777,24.354762 65.9745585,25.1484648 66.7572377,26.207261 C67.5414949,27.2676352 66.4968707,34.4172715 62.5771627,37.5936603 C62.0564285,38.1238474 61.2721714,37.8587539 61.7944835,37.0650511 C62.5771627,34.9458806 64.6664112,29.9154149 63.6233649,28.5915251 C62.5771627,27.2660573 57.3524633,28.0613379 55.0012698,28.3264315 Z" id="路径" fill="#FF9900"></path>
                    <path d="M62.5169528,30.8075385 C54.9366279,37.2004675 43.9621984,40.7826087 34.5562208,40.7826087 C22.0117615,40.7826087 9.73239257,35.4101473 0.324837023,25.6916947 C-0.459388923,24.9248433 0.324837023,23.9013744 1.10906297,24.4131089 C11.5612012,31.319273 23.3198566,34.8999135 35.3404467,34.8999135 C44.224133,34.8999135 53.1078193,32.8529757 61.4707922,28.7621014 C62.7773095,28.2488663 63.8218921,29.7840696 62.5153749,30.8075385 L62.5169528,30.8075385 Z" id="路径" fill="#FF9900"></path>
                    <path d="M63.6233649,28.5915251 C62.5771627,27.2660573 57.3524633,28.0613379 55.0012698,28.3264315 C54.2185906,28.3264315 54.2185906,27.7962444 54.7409027,27.2676352 C58.9209777,24.354762 65.9745585,25.1484648 66.7572377,26.207261 C67.5414949,27.2676352 66.4968707,34.4172715 62.5771627,37.5936603 C62.0564285,38.1238474 61.2721714,37.8587539 61.7944835,37.0650511 C62.5771627,34.9458806 64.6664112,29.9154149 63.6233649,28.5915251 L63.6233649,28.5915251 Z" id="路径" fill="#FF9900"></path>
                </g>
            </g>
        </g>
    </g>
</svg>