<?xml version="1.0" encoding="UTF-8"?>
<svg width="208px" height="106px" viewBox="0 0 208 106" version="1.1" xmlns="http://www.w3.org/2000/svg" xmlns:xlink="http://www.w3.org/1999/xlink">
    <title>bitbucket@1x</title>
    <defs>
        <linearGradient x1="108.63338%" y1="30.0969712%" x2="46.9265964%" y2="65.8174868%" id="linearGradient-1">
            <stop stop-color="#0052CC" offset="18%"></stop>
            <stop stop-color="#2684FF" offset="100%"></stop>
        </linearGradient>
    </defs>
    <g id="应用集成" stroke="none" stroke-width="1" fill="none" fill-rule="evenodd">
        <g transform="translate(-659.000000, -1730.000000)" id="编组-8备份-14">
            <g transform="translate(659.000000, 1730.000000)">
                <rect id="矩形备份-8" fill-opacity="0" fill="#FFFFFF" x="0" y="0" width="208" height="106" rx="4"></rect>
                <g id="bitbucket-atlassian-logo" transform="translate(19.000000, 34.000000)" fill-rule="nonzero">
                    <g id="编组" transform="translate(0.000000, 15.585654)">
                        <path d="M1.14041368,0.0949711191 C0.91581473,0.0921376988 0.701430099,0.18870522 0.554768351,0.358832847 C0.408106603,0.528960475 0.344180392,0.755233531 0.380137892,0.976954382 L3.6075086,20.5692613 C3.69051174,21.0641611 4.11688061,21.4280172 4.61867539,21.4322382 L20.1016917,21.4322382 C20.4783269,21.4370219 20.8017321,21.1653615 20.8619675,20.7935427 L24.096941,0.98455714 C24.1328985,0.762836288 24.0689723,0.536563233 23.9223105,0.366435605 C23.7756488,0.196307977 23.5612641,0.0997404566 23.3366652,0.102637231 L1.14041368,0.0949711191 Z M14.7303433,14.255171 L9.78855072,14.255171 L8.45046534,7.2682365 L15.9277777,7.2682365 L14.7303433,14.255171 Z" id="形状" fill="#2684FF"></path>
                        <path d="M23.0629659,7.2682365 L15.9277777,7.2682365 L14.7303433,14.255171 L9.78855072,14.255171 L3.95343408,21.1850847 C4.13838149,21.3450097 4.3741812,21.4339399 4.61867539,21.4360396 L20.1054931,21.4360396 C20.4821282,21.4408233 20.8055335,21.1691629 20.8657689,20.7973441 L23.0629659,7.2682365 Z" id="路径" fill="url(#linearGradient-1)"></path>
                    </g>
                    <g id="编组" transform="translate(36.113100, 0.000000)" fill="#253858">
                        <path d="M25.2753684,1.9843198 C25.2753684,2.97267832 25.7353353,3.75576237 27.5257848,4.10168785 C28.5939722,4.32596921 28.8182536,4.48182575 28.8182536,4.86196364 C28.8182536,5.24210153 28.5939722,5.43217048 27.8412992,5.43217048 C26.9310777,5.41560468 26.039108,5.17400234 25.2449574,4.72891538 L25.2449574,6.33689866 C26.0435808,6.73644852 26.9299045,6.92861604 27.8222923,6.89570136 C29.6963721,6.89570136 30.437641,6.059398 30.437641,4.82014847 M30.437641,4.82014847 C30.437641,3.64932376 29.8180162,3.09812382 28.0655806,2.72178731 C27.1000303,2.50891009 26.8643448,2.29603287 26.8643448,1.98812118 C26.8643448,1.60798328 27.2102703,1.43692123 27.8527033,1.43692123 C28.637641,1.46140544 29.4084938,1.65185143 30.1145238,1.99572393 L30.1145238,0.475172365 C29.4206842,0.152847014 28.663314,-0.00953940461 27.8983199,-1.91524314e-16 C26.1686925,-1.91524314e-16 25.2715671,0.760275784 25.2715671,1.9843198" id="形状"></path>
                        <polygon id="路径" points="49.338097 0.102637231 49.338097 6.78926275 50.7636141 6.78926275 50.7636141 1.69161362 51.364232 3.04490452 53.3827642 6.78926275 55.1732136 6.78926275 55.1732136 0.102637231 53.7476966 0.102637231 53.7476966 4.41720231 53.2079007 3.16654864 51.5885133 0.102637231"></polygon>
                        <rect id="矩形" x="38.7170443" y="0.102637231" width="1.55856536" height="6.6904269"></rect>
                        <path d="M36.9189921,4.81634709 C36.9189921,3.64552238 36.2993673,3.09432244 34.5469316,2.71798593 C33.5813814,2.50510871 33.3456959,2.29223149 33.3456959,1.9843198 C33.3456959,1.6041819 33.6916214,1.43311985 34.3340544,1.43311985 C35.1189921,1.45760407 35.8898449,1.64805005 36.5958749,1.99192255 L36.5958749,0.471370986 C35.9028918,0.150911459 35.1468966,-0.0101597018 34.3834723,-5.42101086e-20 C32.6538449,-5.42101086e-20 31.7567195,0.760275784 31.7567195,1.9843198 C31.7567195,2.97267832 32.2166863,3.75576237 34.0071358,4.10168785 C35.0753233,4.32596921 35.2996047,4.48182575 35.2996047,4.86196364 C35.2996047,5.24210153 35.0753233,5.43217048 34.3226503,5.43217048 C33.4124288,5.41560468 32.5204591,5.17400234 31.7263085,4.72891538 L31.7263085,6.33689866 C32.5249319,6.73644852 33.4112556,6.92861604 34.3036434,6.89570136 C36.1777232,6.89570136 36.9189921,6.059398 36.9189921,4.82014847" id="路径"></path>
                        <polygon id="路径" points="13.171778 0.102637231 13.171778 6.78926275 16.3763404 6.78926275 16.8781224 5.34473876 14.7417475 5.34473876 14.7417475 0.102637231"></polygon>
                        <polygon id="路径" points="6.84628344 0.102637231 6.84628344 1.54716122 8.57971222 1.54716122 8.57971222 6.78926275 10.1458803 6.78926275 10.1458803 1.54716122 11.9971519 1.54716122 11.9971519 0.102637231"></polygon>
                        <path d="M4.5616547,0.102637231 L2.50891009,0.102637231 L0.17486343,6.79306413 L1.95771014,6.79306413 L2.28843011,5.65265045 C3.10250534,5.89151173 3.96805945,5.89151173 4.78213468,5.65265045 L5.11285465,6.79306413 L6.89570136,6.79306413 L4.5616547,0.102637231 Z M3.5352824,4.45901984 C3.24584289,4.4593785 2.95783405,4.41841724 2.67997214,4.33737335 L3.5352824,1.41791434 L4.39059265,4.33737335 C4.11639876,4.41734992 3.83230521,4.45830034 3.54668653,4.45901984 L3.5352824,4.45901984 Z" id="形状"></path>
                        <path d="M21.8959426,0.102637231 L19.843198,0.102637231 L17.5091513,6.79306413 L19.291998,6.79306413 L19.622718,5.65265045 C20.4367932,5.89151173 21.3023473,5.89151173 22.1164226,5.65265045 L22.4471425,6.79306413 L24.2299892,6.79306413 L21.8959426,0.102637231 Z M20.8695703,4.4590269 C20.5801308,4.4593785 20.2921219,4.41841724 20.01426,4.33737335 L20.8695703,1.41791434 L21.7248805,4.33737335 C21.4457963,4.41877627 21.1564817,4.45974117 20.8657689,4.4590269 L20.8695703,4.4590269 Z" id="形状"></path>
                        <path d="M45.8864449,0.102637231 L43.8337003,0.102637231 L41.4996537,6.79306413 L43.2825004,6.79306413 L43.6132204,5.65265045 C44.4272956,5.89151173 45.2928497,5.89151173 46.1069249,5.65265045 L46.4376449,6.79306413 L48.2204916,6.79306413 L45.8864449,0.102637231 Z M44.8562713,4.45901984 C44.5668318,4.4593785 44.2788229,4.41841724 44.000961,4.33737335 L44.8562713,1.41411296 L45.7115815,4.33357197 C45.4339061,4.41590213 45.1458936,4.45814397 44.8562713,4.45901984 Z" id="形状"></path>
                    </g>
                    <g id="编组" transform="translate(36.113100, 13.304826)" fill="#253858">
                        <path d="M8.69375359,1.73723017 C13.1755793,1.73723017 15.3499681,3.94583132 15.3499681,7.49251785 C15.3499681,10.1534831 14.144931,11.7728705 11.6702333,12.3772898 C14.9166109,12.9132842 16.5207928,14.6847268 16.5207928,17.7980561 C16.5207928,21.3105302 14.144931,23.7206045 9.22974802,23.7206045 L0.163459294,23.7206045 L0.163459294,1.73723017 L8.69375359,1.73723017 Z M3.1741514,4.61487401 L3.1741514,11.1684513 L8.29080742,11.1684513 C11.1342389,11.1684513 12.3050636,9.8645783 12.3050636,7.74721024 C12.3050636,5.62984218 11.035403,4.60346987 8.29080742,4.60346987 L3.1741514,4.61487401 Z M3.1741514,13.8484234 L3.1741514,20.6909055 L9.32858387,20.6909055 C12.2062277,20.6909055 13.5101007,19.653129 13.5101007,17.4445279 C13.5101007,15.1028784 12.2708512,13.8332179 9.26396043,13.8332179 L3.1741514,13.8484234 Z" id="形状"></path>
                        <path d="M21.4397771,0.566405459 C21.9830897,0.527526564 22.5165137,0.726472083 22.9016761,1.11163449 C23.2868386,1.4967969 23.4857841,2.03022092 23.4469052,2.57353353 C23.4469052,3.68203975 22.5482833,4.5806616 21.4397771,4.5806616 C20.3312709,4.5806616 19.432649,3.68203975 19.432649,2.57353353 C19.3937701,2.03022092 19.5927157,1.4967969 19.9778781,1.11163449 C20.3630405,0.726472083 20.8964645,0.527526564 21.4397771,0.566405459 Z M19.9686435,6.98693446 L22.8462873,6.98693446 L22.8462873,23.7130017 L19.9686435,23.7130017 L19.9686435,6.98693446 Z" id="形状"></path>
                        <path d="M33.8322724,20.9075841 C34.4405112,20.8894359 35.0454084,20.8104809 35.6379274,20.6718986 L35.6379274,23.4469052 C35.007575,23.6270609 34.3548054,23.7166567 33.6992241,23.7131092 C30.1183252,23.7131092 28.3772936,21.6070378 28.3772936,18.4937084 L28.3772936,9.66310521 L25.6669105,9.66310521 L25.6669105,7.00213997 L28.3772936,7.00213997 L28.3772936,3.4440493 L31.1713071,3.4440493 L31.1713071,6.99073583 L35.6189205,6.99073583 L35.6189205,9.65170108 L31.1713071,9.65170108 L31.1713071,18.429085 C31.1713071,19.9002186 32.0418229,20.9075841 33.8322724,20.9075841 Z" id="路径"></path>
                        <path d="M47.4982296,24.047523 C45.0577443,24.047523 43.1836645,22.9451232 42.1762991,20.7707344 L42.1762991,23.7130017 L39.2986553,23.7130017 L39.2986553,0 L42.195306,0 L42.195306,9.99762656 C43.2672949,7.78902541 45.2744229,6.65241311 47.8479565,6.65241311 C52.2955698,6.65241311 54.5383834,10.4309838 54.5383834,15.3499681 C54.5231779,20.0674793 52.1815284,24.047523 47.4982296,24.047523 Z M47.061071,9.32858387 C44.4761334,9.32858387 42.195306,10.9707796 42.195306,14.6809254 L42.195306,16.0190108 C42.195306,19.732958 44.3012699,21.3713523 46.7569607,21.3713523 C50.0033383,21.3713523 51.675945,19.231176 51.675945,15.3499681 C51.645534,11.3357119 50.0413521,9.32858387 47.061071,9.32858387 Z" id="形状"></path>
                        <path d="M57.53387,6.98693446 L60.4115138,6.98693446 L60.4115138,17.1062051 C60.4115138,20.1168972 61.6165509,21.4549826 64.3573451,21.4549826 C67.0183104,21.4549826 68.8733833,19.68354 68.8733833,16.3041142 L68.8733833,6.98693446 L71.7510271,6.98693446 L71.7510271,23.7130017 L68.8733833,23.7130017 L68.8733833,20.9722075 C67.828833,22.9082222 65.788819,24.0970073 63.5894666,24.0513244 C59.7424711,24.0513244 57.53387,21.3903592 57.53387,16.7906907 L57.53387,6.98693446 Z" id="路径"></path>
                        <path d="M87.9068875,23.2796445 C86.9033235,23.8156389 85.363765,24.0399203 83.8242066,24.0399203 C77.8712472,24.0399203 75.0810351,20.4286103 75.0810351,15.2967488 C75.0810351,10.2447162 77.8560417,6.63340622 83.8242066,6.63340622 C85.1994974,6.59438253 86.5649192,6.87683872 87.8118531,7.45830544 L87.8118531,10.1192707 C86.6234944,9.56356461 85.3218577,9.29282419 84.0104741,9.32858387 C79.6616966,9.32858387 77.8902541,12.0731795 77.8902541,15.3157557 C77.8902541,18.5583319 79.7111146,21.287722 84.0941045,21.287722 C85.3873121,21.321876 86.6758003,21.1182948 87.8954834,20.6871041 L87.9068875,23.2796445 Z" id="路径"></path>
                        <polygon id="路径" points="91.1874775 23.7130017 91.1874775 0 94.0651214 0 94.0651214 14.8253778 101.25733 6.99833859 105.00549 6.99833859 97.1404369 15.2055157 105.33621 23.7130017 101.42079 23.7130017 94.06132 15.8859625 94.06132 23.7130017"></polygon>
                        <path d="M114.870068,24.047523 C108.612999,24.047523 105.872204,20.4362131 105.872204,15.3043515 C105.872204,10.2523189 108.681423,6.64100897 113.767668,6.64100897 C118.918537,6.64100897 120.990288,10.2219079 120.990288,15.3043515 L120.990288,16.6082245 L108.780259,16.6082245 C109.183205,19.4516559 111.023073,21.2915233 114.968904,21.2915233 C116.704202,21.2899419 118.425749,20.9837176 120.055149,20.3867951 L120.055149,23.0477604 C118.682851,23.7814265 116.576887,24.047523 114.870068,24.047523 Z M108.749848,14.1639379 L118.082233,14.1639379 C117.914973,11.0544099 116.508463,9.27916594 113.63462,9.27916594 C110.585914,9.26396043 109.050157,11.2368761 108.749848,14.1487323 L108.749848,14.1639379 Z" id="形状"></path>
                        <path d="M131.025929,20.9075841 C131.634167,20.8894359 132.239065,20.8104809 132.831584,20.6718986 L132.831584,23.4469052 C132.201231,23.6270609 131.548462,23.7166567 130.89288,23.7131092 C127.311981,23.7131092 125.57095,21.6070378 125.57095,18.4937084 L125.57095,9.66310521 L122.860567,9.66310521 L122.860567,7.00213997 L125.57095,7.00213997 L125.57095,3.4440493 L128.380169,3.4440493 L128.380169,6.99073583 L132.827782,6.99073583 L132.827782,9.65170108 L128.380169,9.65170108 L128.380169,18.429085 C128.38397,19.9002186 129.246883,20.9075841 131.025929,20.9075841 Z" id="路径"></path>
                    </g>
                </g>
            </g>
        </g>
    </g>
</svg>