<svg width="208" height="106" viewBox="0 0 208 106" fill="none" xmlns="http://www.w3.org/2000/svg">
<path d="M204 0H4C1.79086 0 0 1.79086 0 4V102C0 104.209 1.79086 106 4 106H204C206.209 106 208 104.209 208 102V4C208 1.79086 206.209 0 204 0Z" fill="white"/>
<g clip-path="url(#clip0_417_6161)">
<path d="M59.6567 61.8168C59.6807 60.5263 59.8255 59.241 60.0892 57.9779L61.6992 48.9333C62.5374 44.1564 64.0543 42.8499 68.545 42.8499H76.289L74.8653 46.307H69.044C66.5624 46.307 66.13 47.3052 65.5712 50.3938L64.4601 56.6379C64.1454 58.0856 63.9364 59.5545 63.8348 61.033C63.8348 62.7213 64.9192 63.0027 67.5271 63.0027H73.2885L71.8315 66.4597H65.8439C61.4863 66.4597 59.6567 65.2739 59.6567 61.8168Z" fill="#203251"/>
<path d="M75.2974 62.594C75.3427 61.4682 75.4784 60.3479 75.7032 59.2441L76.5082 54.6548C77.3731 49.6635 78.5839 48.5447 83.7532 48.5447H85.8888C89.8206 48.5447 91.4641 49.6367 91.4641 52.6315C91.4182 53.7573 91.2825 54.8775 91.0583 55.9814L90.2597 60.5841C89.3948 65.5754 88.184 66.7009 83.0147 66.7009H80.8725C76.9406 66.6808 75.2974 65.5888 75.2974 62.594ZM83.2808 63.532C85.636 63.532 86.0351 62.8151 86.441 60.5372L87.2194 55.9479C87.4145 55.0661 87.5392 54.1699 87.5919 53.268C87.5919 51.928 86.9266 51.6734 84.8975 51.6734H83.5004C81.1453 51.6734 80.7461 52.3903 80.3403 54.6682L79.5419 59.2441C79.3467 60.126 79.222 61.0221 79.1693 61.924C79.1693 63.264 79.8346 63.5186 81.8638 63.5186L83.2808 63.532Z" fill="#203251"/>
<path d="M112.594 48.806C112.579 50.1551 112.446 51.5005 112.195 52.8258L111.529 56.7853C110.139 64.8652 107.937 66.453 101.743 66.453H92.1826L96.3008 42.8432H104.451C110.365 42.8499 112.594 44.3439 112.594 48.806ZM108.442 49.429C108.442 46.7491 107.178 46.307 103.832 46.307H99.8401L96.9594 63.0027H100.891C105.548 63.0027 106.5 62.0647 107.398 56.792L108.063 52.8325C108.282 51.7104 108.409 50.5721 108.442 49.429Z" fill="#203251"/>
<path d="M128.468 52.0486C128.467 52.498 128.426 52.9464 128.348 53.3886L127.902 55.8943C127.403 58.668 126.379 59.6394 123.811 59.6394H116.998L116.838 60.5841C116.753 61.0261 116.702 61.4741 116.685 61.924C116.685 63.0161 117.244 63.264 119.041 63.264H125.268L123.997 66.4128H118.295C114.304 66.4128 112.847 65.3878 112.847 62.862C112.862 62.1296 112.933 61.3994 113.06 60.6779L114.27 53.6901C115.016 49.3821 116.812 48.5112 121.362 48.5112H123.471C126.725 48.5581 128.468 49.429 128.468 52.0486ZM124.596 52.6114C124.596 51.861 124.137 51.6734 122.706 51.6734H120.484C119.06 51.6734 118.375 51.861 118.036 53.737L117.537 56.6044H122.806C122.971 56.6319 123.14 56.6226 123.301 56.5771C123.462 56.5316 123.612 56.4511 123.738 56.3412C123.865 56.2313 123.966 56.0948 124.036 55.9412C124.104 55.7875 124.139 55.6206 124.137 55.4521L124.476 53.4422C124.537 53.1693 124.572 52.8911 124.582 52.6114H124.596Z" fill="#203251"/>
<path d="M128.674 63.3109H135.992C137.203 63.3109 137.422 63.1233 137.635 61.9106L137.915 60.2558C137.969 60.0205 138 59.7804 138.008 59.5389C138.008 59.1302 137.795 59.0699 137.083 59.0699H133.517C130.789 59.0699 129.891 58.5407 129.891 56.7585C129.923 55.8892 130.028 55.0241 130.204 54.1724L130.45 52.7655C131.069 49.1811 132 48.7457 135.5 48.7457H143.337L142.006 51.9012H135.52C134.309 51.9012 134.096 52.0821 133.876 53.3015L133.63 54.7084C133.578 54.9443 133.547 55.1841 133.537 55.4253C133.537 55.8273 133.757 55.8943 134.469 55.8943H138.181C140.909 55.8943 141.807 56.4235 141.807 58.199C141.777 59.0704 141.675 59.9378 141.501 60.7918L141.155 62.7548C140.602 65.9975 139.671 66.4329 136.012 66.4329H129.233L128.674 63.3109Z" fill="#203251"/>
<path d="M146.577 48.7725H150.422L147.355 66.4598H143.51L146.577 48.7725ZM147.761 41.8785H151.753L151.041 45.8983H147.049L147.761 41.8785Z" fill="#203251"/>
<path d="M167.274 52.6449C167.228 53.7707 167.092 54.891 166.868 55.9948L164.945 66.9421C164.207 71.1898 162.377 72.0272 158.818 72.0272H152.125L151.567 68.8449H157.947C160.362 68.8449 160.827 68.6573 161.273 65.9171L161.493 64.6977H157.075C153.143 64.6977 151.5 63.6057 151.5 60.6109C151.545 59.4851 151.681 58.3648 151.906 57.261L152.365 54.6683C153.263 49.677 154.414 48.5581 159.583 48.5581H161.732C165.631 48.5581 167.274 49.6502 167.274 52.6449ZM162.065 61.5355L163.063 55.9479C163.258 55.0661 163.382 54.1699 163.435 53.268C163.435 51.9281 162.77 51.6735 160.741 51.6735H159.344C156.989 51.6735 156.616 52.3903 156.217 54.6683L155.745 57.2342C155.555 58.1171 155.43 59.0128 155.372 59.9141C155.372 61.2541 156.037 61.5087 158.066 61.5087L162.065 61.5355Z" fill="#203251"/>
<path d="M184.958 51.9548C184.886 53.2337 184.721 54.5057 184.465 55.7603L182.609 66.4798H178.764L180.653 55.7603C180.822 54.9481 180.927 54.1237 180.966 53.2948C180.966 52.2027 180.5 51.9548 179.043 51.9548H174.519L172.011 66.4262H168.172L171.239 48.739H179.755C183.72 48.7725 184.958 49.7104 184.958 51.9548Z" fill="#203251"/>
<path d="M48.8389 66.4396H30.1109C30.0202 66.439 29.9306 66.4185 29.8485 66.3795C29.7664 66.3406 29.6936 66.2841 29.6354 66.2139C29.5772 66.1438 29.5348 66.0618 29.5112 65.9735C29.4876 65.8852 29.4834 65.7928 29.4989 65.7027L30.5434 59.7265H49.7902C49.8816 59.7262 49.9718 59.7459 50.0548 59.7845C50.1377 59.823 50.2113 59.8795 50.2702 59.9497C50.3292 60.02 50.3722 60.1024 50.3962 60.1911C50.4201 60.2799 50.4245 60.3728 50.4089 60.4635L49.4509 65.9439C49.4205 66.0845 49.3431 66.2104 49.2318 66.3006C49.1204 66.3909 48.9818 66.4399 48.8389 66.4396Z" fill="url(#paint0_linear_417_6161)"/>
<path d="M52.3586 46.307H32.8989L33.9967 40.1164C34.0205 39.9709 34.0954 39.8388 34.2077 39.7442C34.32 39.6495 34.4623 39.5985 34.6087 39.6005H53.29C53.3812 39.6 53.4713 39.6197 53.554 39.6583C53.6367 39.6969 53.7099 39.7534 53.7684 39.8238C53.8269 39.8943 53.8692 39.9768 53.8923 40.0656C53.9154 40.1544 53.9187 40.2472 53.9021 40.3375L52.9507 45.7911C52.9251 45.9321 52.8524 46.0601 52.7448 46.1539C52.6371 46.2477 52.5009 46.3017 52.3586 46.307Z" fill="url(#paint1_linear_417_6161)"/>
<path d="M31.7213 53.0201H25.0684L26.1594 46.8295C26.1832 46.6834 26.2578 46.5505 26.3699 46.4547C26.4821 46.359 26.6245 46.3066 26.7715 46.3069H32.9122L31.7213 53.0201Z" fill="#0064FF"/>
<path d="M37.8552 53.0201H31.7212L32.8921 46.3204H39.545L38.4606 52.5109C38.433 52.6529 38.3579 52.7811 38.2476 52.8738C38.1374 52.9665 37.9987 53.0182 37.8552 53.0201Z" fill="#00C7F8"/>
<path d="M30.5436 59.7265H24.6225C24.5314 59.7271 24.4412 59.7073 24.3585 59.6688C24.2758 59.6302 24.2026 59.5736 24.1441 59.5032C24.0856 59.4328 24.0433 59.3502 24.0202 59.2614C23.9971 59.1726 23.9938 59.0798 24.0104 58.9895L25.0549 53.0201H31.7078L30.5436 59.7265Z" fill="#00C7F8"/>
</g>
<defs>
<linearGradient id="paint0_linear_417_6161" x1="28.0086" y1="63.0831" x2="52.0655" y2="63.0831" gradientUnits="userSpaceOnUse">
<stop stop-color="#FFA000"/>
<stop offset="0.5" stop-color="#FFB700"/>
<stop offset="1" stop-color="#FFD300"/>
</linearGradient>
<linearGradient id="paint1_linear_417_6161" x1="32.8989" y1="42.9571" x2="53.942" y2="42.9571" gradientUnits="userSpaceOnUse">
<stop offset="0.04" stop-color="#0064FF"/>
<stop offset="0.29" stop-color="#006DFF"/>
<stop offset="0.7" stop-color="#0085FF"/>
<stop offset="1" stop-color="#009BFF"/>
</linearGradient>
<clipPath id="clip0_417_6161">
<rect width="161" height="38" fill="white" transform="translate(24 34)"/>
</clipPath>
</defs>
</svg>
