<?xml version="1.0" encoding="UTF-8"?>
<svg width="208px" height="106px" viewBox="0 0 208 106" version="1.1" xmlns="http://www.w3.org/2000/svg" xmlns:xlink="http://www.w3.org/1999/xlink">
    <title>confluence1</title>
    <g id="文档首页" stroke="none" stroke-width="1" fill="none" fill-rule="evenodd">
        <g id="应用集成" transform="translate(-616.000000, -883.000000)">
            <g id="编组-8备份" transform="translate(616.000000, 883.000000)">
                <rect id="矩形备份-8" fill-opacity="0" fill="#FFFFFF" x="0" y="0" width="208" height="106" rx="4"></rect>
                <g id="Confluence" transform="translate(28.000000, 41.000000)" fill="#205081" fill-rule="nonzero">
                    <path d="M47.7254009,5.60492312 C43.4947257,5.60492312 41.2947747,7.643077 41.2947747,11.3796923 L41.2947747,14.9464615 C41.2947747,18.683077 43.4947257,20.7212309 47.7254009,20.7212309 C51.9560761,20.7212309 54.1560273,18.683077 54.1560273,14.9464615 L54.1560273,11.3796923 C53.9868002,7.64307683 51.7868492,5.60492312 47.7254009,5.60492312 Z M45.1869959,11.3796923 C45.1869959,9.85107693 45.8639039,9.17169236 47.556174,9.17169236 C49.2484441,9.17169236 49.9253521,9.85107693 49.9253521,11.3796923 L49.9253521,15.286154 C49.9253521,16.8147694 49.2484441,17.4941539 47.556174,17.4941539 C45.8639039,17.4941539 45.1869959,16.8147694 45.1869959,15.286154 L45.1869959,11.3796923 Z M64.8173289,5.60492312 C63.2942858,5.60492312 61.0943346,6.11446163 59.2328376,6.96369243 L59.0636105,6.28430769 C59.0636105,6.11446146 58.7251565,5.9446154 58.5559296,5.9446154 L56.3559784,5.9446154 C56.0175244,5.9446154 55.8482974,6.11446163 55.8482974,6.45415392 L55.8482974,20.2116924 C55.8482974,20.5513847 56.0175245,20.7212309 56.3559784,20.7212309 L59.4020645,20.7212309 C59.7405185,20.7212309 59.9097455,20.5513847 59.9097455,20.2116924 L59.9097455,10.7003077 C60.9251075,10.1907692 62.4481508,9.51138465 63.4635127,9.51138465 C64.1404207,9.51138465 64.3096478,9.85107693 64.3096478,10.3606154 L64.3096478,20.0418461 C64.3096478,20.3815384 64.4788749,20.5513847 64.8173289,20.5513847 L67.863415,20.5513847 C68.201869,20.5513847 68.3710961,20.3815384 68.3710961,20.0418461 L68.3710961,10.0209232 C68.3710961,7.13353849 67.186507,5.60492312 64.8173289,5.60492312 L64.8173289,5.60492312 Z M79.0323975,0.339692285 C78.1862624,0.169846058 77.3401273,0 76.4939924,0 C73.2786792,0 71.7556362,1.52861537 71.7556362,4.58584627 L71.7556362,6.28430769 L70.063366,6.28430769 C69.724912,6.28430769 69.5556851,6.45415392 69.5556851,6.7938462 L69.5556851,9.00184614 C69.5556851,9.34153842 69.7249122,9.51138465 70.063366,9.51138465 L71.7556362,9.51138465 L71.7556362,20.0418461 C71.7556362,20.3815384 71.9248633,20.5513847 72.2633173,20.5513847 L75.3094034,20.5513847 C75.6478574,20.5513847 75.8170844,20.3815384 75.8170844,20.0418461 L75.8170844,9.51138465 L78.6939435,9.51138465 C79.0323975,9.51138465 79.2016245,9.34153842 79.2016245,9.00184614 L79.2016245,6.96369243 C79.2016245,6.7938462 79.2016245,6.62400014 79.0323975,6.62400014 C78.8631704,6.45415392 78.8631704,6.45415392 78.6939435,6.45415392 L75.8170844,6.45415392 L75.8170844,4.92553855 C75.8170844,3.9064617 75.9863115,3.39692319 77.1709004,3.39692319 C77.5093544,3.39692319 78.0170355,3.39692319 78.6939435,3.56676924 C78.8631706,3.56676924 79.0323975,3.56676924 79.0323975,3.39692319 C79.2016245,3.39692319 79.2016245,3.22707696 79.2016245,3.0572309 L79.5400785,0.849230796 C79.5400785,0.679384569 79.3708515,0.339692285 79.0323975,0.339692285 L79.0323975,0.339692285 Z M84.4476619,0.339692285 L81.4015756,0.339692285 C81.0631216,0.339692285 80.8938947,0.509538512 80.8938947,0.849230796 L80.8938947,20.2116924 C80.8938947,20.5513847 81.0631218,20.7212309 81.4015756,20.7212309 L84.4476619,20.7212309 C84.7861159,20.7212309 84.9553428,20.5513847 84.9553428,20.2116924 L84.9553428,0.849230796 C84.9553428,0.679384569 84.7861157,0.339692285 84.4476619,0.339692285 L84.4476619,0.339692285 Z M99.0011846,5.9446154 L95.9550983,5.9446154 C95.6166444,5.9446154 95.4474173,6.11446163 95.4474174,6.45415392 L95.4474174,15.9655386 C94.4320555,16.4750771 92.9090122,17.1544616 91.8936503,17.1544616 C91.2167423,17.1544616 91.0475152,16.8147694 91.0475152,16.3052308 L91.0475152,6.62400014 C91.0475152,6.28430786 90.8782881,6.11446163 90.5398341,6.11446163 L87.493748,6.11446163 C87.155294,6.11446163 86.9860669,6.28430786 86.9860669,6.62400014 L86.9860669,16.6449231 C86.9860669,19.5323078 88.170656,21.0609232 90.3706072,21.0609232 C91.8936503,21.0609232 94.0936015,20.5513847 95.9550983,19.7021539 L96.1243254,20.3815386 C96.1243254,20.5513848 96.4627794,20.7212309 96.6320065,20.7212309 L98.8319575,20.7212309 C99.1704115,20.7212309 99.3396386,20.5513847 99.3396386,20.2116924 L99.3396386,6.45415392 C99.5088657,6.28430769 99.3396386,5.9446154 99.0011846,5.9446154 L99.0011846,5.9446154 Z M107.462535,5.60492312 C103.401087,5.60492312 101.370363,7.643077 101.370363,11.3796923 L101.370363,15.1163078 C101.370363,19.0227693 103.401087,20.8910769 107.631762,20.8910769 C109.324032,20.8910769 111.185529,20.5513847 112.708572,20.0418461 C112.877799,20.0418461 113.047026,19.7021539 113.047026,19.5323078 L112.539345,17.3243077 C112.539345,17.1544615 112.370118,16.9846154 112.370118,16.9846154 C112.200891,16.9846154 112.031664,16.8147692 112.031664,16.9846154 C110.677848,17.3243077 109.324032,17.4941539 107.970216,17.4941539 C105.770265,17.4941539 105.431811,16.8147694 105.431811,15.286154 L105.431811,14.7766155 L112.877799,14.7766155 C113.216253,14.7766155 113.38548,14.6067693 113.38548,14.267077 L113.38548,11.5495385 C113.216253,7.643077 111.354756,5.60492312 107.462535,5.60492312 L107.462535,5.60492312 Z M105.262584,11.5495385 L105.262584,11.04 C105.262584,9.68123071 105.939492,9.00184614 107.462535,9.00184614 C109.154805,9.00184614 109.324032,9.85107693 109.324032,11.04 L109.324032,11.5495385 L105.262584,11.5495385 Z M124.046782,5.60492312 C122.523739,5.60492312 120.323788,6.11446163 118.462291,6.96369243 L118.293063,6.28430769 C118.293063,6.11446146 117.954609,5.9446154 117.785383,5.9446154 L115.585431,5.9446154 C115.246977,5.9446154 115.07775,6.11446163 115.07775,6.45415392 L115.07775,20.2116924 C115.07775,20.5513847 115.246978,20.7212309 115.585431,20.7212309 L118.631517,20.7212309 C118.969971,20.7212309 119.139199,20.5513847 119.139199,20.2116924 L119.139199,10.7003077 C120.154561,10.1907692 121.677604,9.51138465 122.692966,9.51138465 C123.369874,9.51138465 123.539101,9.85107693 123.539101,10.3606154 L123.539101,20.0418461 C123.539101,20.3815384 123.708328,20.5513847 124.046782,20.5513847 L127.092868,20.5513847 C127.431322,20.5513847 127.600549,20.3815384 127.600549,20.0418461 L127.600549,10.0209232 C127.431322,7.13353849 126.246733,5.60492312 124.046782,5.60492312 Z M138.938759,17.4941539 C138.938759,17.3243077 138.769532,17.1544616 138.769532,17.1544616 C138.600304,17.1544616 138.431078,16.9846154 138.431078,17.1544616 C137.584942,17.3243079 136.738807,17.4941539 135.892672,17.4941539 C134.031175,17.4941539 133.523494,16.9846154 133.523494,15.286154 L133.523494,11.3796923 C133.523494,9.68123071 134.031175,9.17169236 135.892672,9.17169236 C136.400353,9.17169236 137.584942,9.17169236 138.431078,9.51138465 L138.769532,9.51138465 C138.938759,9.51138465 138.938759,9.34153842 138.938759,9.17169236 L139.277213,6.7938462 C139.277213,6.45415392 139.107986,6.28430769 138.938759,6.28430769 C137.75417,5.9446154 136.400353,5.77476935 135.723445,5.77476935 C131.154316,5.77476935 129.292819,7.47323094 129.292819,11.5495385 L129.292819,15.4560001 C129.292819,19.5323078 131.154316,21.2307692 135.723445,21.2307692 C136.738807,21.2307692 138.092624,21.060923 139.107986,20.7212309 C139.277213,20.7212309 139.44644,20.3815386 139.44644,20.2116924 L138.938759,17.4941539 L138.938759,17.4941539 Z M146.384747,5.60492312 C142.323299,5.60492312 140.292575,7.643077 140.292575,11.3796923 L140.292575,15.1163078 C140.292575,19.0227693 142.323299,20.8910769 146.553974,20.8910769 C148.246244,20.8910769 150.107741,20.5513847 151.630784,20.0418461 C151.800011,20.0418461 151.969238,19.7021539 151.969238,19.5323078 L151.461557,17.3243077 C151.461557,17.1544615 151.29233,16.9846154 151.29233,16.9846154 C151.123103,16.9846154 150.953876,16.8147692 150.953876,16.9846154 C149.60006,17.3243077 148.246244,17.4941539 146.892428,17.4941539 C144.692477,17.4941539 144.354023,16.8147694 144.354023,15.286154 L144.354023,14.7766155 L151.800011,14.7766155 C152.138465,14.7766155 152.307692,14.6067693 152.307692,14.267077 L152.307692,11.5495385 C152.138465,7.643077 150.446195,5.60492312 146.384747,5.60492312 L146.384747,5.60492312 Z M144.354023,11.5495385 L144.354023,11.04 C144.354023,9.68123071 145.030931,9.00184614 146.553974,9.00184614 C148.246244,9.00184614 148.415471,9.85107693 148.415471,11.04 L148.415471,11.5495385 L144.354023,11.5495385 Z M34.969069,4.24615398 C36.153658,4.24615398 37.8459282,4.41600021 39.3689712,4.75569232 C39.5381983,4.75569232 39.7074252,4.75569232 39.7074252,4.58584627 C39.8766523,4.58584627 39.8766523,4.41600004 39.8766523,4.24615398 L40.2151063,1.52861537 C40.2151063,1.18892308 40.0458792,1.01907685 39.8766523,1.01907702 C38.3536093,0.679384739 36.4921122,0.339692285 34.7998421,0.339692285 C30.0614858,0.339692285 27.6923077,2.37784616 27.6923077,6.28430769 L27.6923077,15.1163078 C27.6923077,19.0227693 30.0614858,21.0609232 34.7998421,21.0609232 C36.4921122,21.0609232 38.3536093,20.8910769 39.8766523,20.3815386 C40.2151063,20.3815386 40.2151063,20.0418463 40.2151063,19.8720001 L39.8766523,17.1544616 C39.8766523,16.9846154 39.7074252,16.8147694 39.7074252,16.8147694 C39.5381982,16.8147694 39.3689712,16.6449231 39.3689712,16.6449231 C37.8459282,16.9846154 36.153658,17.1544616 34.969069,17.1544616 C32.5998909,17.1544616 31.7537558,16.4750771 31.753756,14.4369232 L31.753756,6.96369243 C31.753756,4.92553855 32.599891,4.24615398 34.969069,4.24615398 Z" id="形状"></path>
                    <path d="M18.2443438,16.136752 C17.9064856,15.4529914 17.5686274,14.7692306 17.06184,14.2564102 C16.7239819,13.7435896 16.3861237,13.4017093 16.0482655,12.8888889 C15.8793363,12.7179487 16.0482655,12.5470086 16.0482655,12.3760683 L16.3861237,12.034188 C17.9064856,10.4957265 19.4268476,8.78632475 20.7782804,7.07692299 C22.1297133,5.19658115 22.8054297,3.48717939 22.9743589,1.60683756 C22.9743589,1.43589731 22.9743589,1.26495724 22.8054297,1.094017 C22.6365006,1.094017 22.6365006,0.923076923 22.4675715,0.923076923 L22.2986425,0.923076923 C21.1161388,1.43589749 19.933635,1.7777778 18.7511312,1.94871788 C18.582202,1.94871788 18.413273,2.11965812 18.2443438,2.29059819 C17.3996982,4.51282035 15.3725489,6.56410242 13.3453995,8.78632475 C13.3453995,8.78632475 13.1764704,8.95726499 13.0075413,8.95726499 C12.8386123,8.95726499 12.6696831,8.78632475 12.6696831,8.78632475 C10.4736048,6.56410259 8.44645543,4.51282052 7.77073904,2.29059819 C7.77073904,2.11965795 7.43288084,1.94871788 7.26395166,1.94871788 C6.25037707,1.60683756 4.89894411,1.26495724 3.71644034,0.923076923 L3.54751115,0.923076923 C3.37858197,0.923076923 3.37858197,0.923076923 3.20965296,1.094017 C3.04072394,1.26495707 3.04072394,1.43589731 3.04072394,1.60683756 C3.20965312,3.48717939 3.88536952,5.19658115 5.23680231,7.07692299 C6.41930608,8.78632475 8.10859724,10.4957263 9.62895921,12.034188 C12.5007541,14.940171 15.0346907,17.6752137 15.3725489,20.9230769 C15.3725489,21.2649571 15.7104071,21.4358974 15.8793363,21.4358974 L19.2579184,21.4358974 C19.4268476,21.4358974 19.5957766,21.4358974 19.5957768,21.2649573 C19.764706,21.094017 19.764706,20.9230769 19.7647058,20.9230769 C19.7647058,20.2393162 19.5957766,19.7264956 19.4268476,19.042735 C19.4268476,18.8717947 19.5957768,18.8717947 19.5957768,18.8717949 C22.2986425,19.2136752 23.9879337,19.8974358 23.9879335,20.5811965 C23.9879333,21.2649571 22.4675715,22.2905982 19.933635,22.9743589 C19.7647058,22.9743589 19.5957768,23.3162392 19.5957768,23.4871794 C19.5957768,23.8290598 19.764706,24 20.102564,24 L20.2714932,24 C23.6500753,23.1452991 25.8461538,21.9487179 25.8461538,20.4102564 C25.6772247,18.3589743 22.6365007,16.8205128 18.2443438,16.136752 L18.2443438,16.136752 Z M9.29110101,14.4273504 C9.29110101,14.4273504 9.12217183,14.2564102 8.95324281,14.2564102 C8.7843138,14.2564102 8.61538462,14.4273504 8.44645543,14.4273504 C8.10859724,14.940171 7.77073904,15.4529914 7.43288084,16.136752 C2.87179493,16.8205126 0,18.3589742 0,20.2393162 C0,21.7777777 2.19607837,22.9743589 5.5746605,23.8290598 L5.74358969,23.8290598 C6.08144788,23.8290598 6.25037707,23.6581195 6.25037707,23.3162392 C6.25037707,23.1452989 6.08144788,22.8034186 5.9125187,22.8034188 C3.37858197,22.1196582 1.85822,21.094017 1.85822017,20.4102564 C1.85822017,19.7264958 3.54751132,19.042735 6.25037707,18.7008546 C6.41930625,18.7008546 6.41930625,18.8717949 6.41930608,18.8717949 C6.2503769,19.5555555 6.2503769,20.0683761 6.08144788,20.7521367 C6.08144788,20.923077 6.08144788,21.094017 6.25037707,21.094017 C6.41930625,21.2649573 6.41930625,21.2649573 6.58823526,21.2649573 L9.9668174,21.2649573 C10.3046756,21.2649573 10.4736048,21.094017 10.4736048,20.7521367 C10.4736048,19.7264958 10.811463,18.8717949 11.3182504,17.6752137 C11.4871795,17.3333334 11.3182504,16.9914531 11.3182504,16.8205128 C10.9803922,16.1367522 10.3046758,15.4529914 9.29110101,14.4273504 L9.29110101,14.4273504 Z" id="形状"></path>
                    <path d="M12.2967034,6.29370638 C12.4615386,6.46153846 12.6263737,6.46153846 12.6263737,6.46153846 C12.7912089,6.46153846 12.956044,6.46153846 12.956044,6.29370638 C14.1098902,5.11888118 14.7692308,3.77622373 14.7692308,3.44055941 L14.7692308,3.27272733 C14.7692308,2.93706301 14.6043955,2.76923077 14.2747252,2.76923077 L10.6483517,2.76923077 C10.3186814,2.76923077 10.1538462,2.93706301 10.1538462,3.27272733 L10.1538462,3.44055941 C10.4835165,3.94405597 11.1428571,5.28671326 12.2967034,6.29370638 L12.2967034,6.29370638 Z" id="路径"></path>
                </g>
            </g>
        </g>
    </g>
</svg>