<?xml version="1.0" encoding="UTF-8"?>
<svg width="56px" height="56px" viewBox="0 0 56 56" version="1.1" xmlns="http://www.w3.org/2000/svg" xmlns:xlink="http://www.w3.org/1999/xlink">
    <title>discourse@1.5x</title>
    <defs>
        <rect id="path-1" x="0" y="0" width="54" height="54" rx="8"></rect>
    </defs>
    <g id="应用" stroke="none" stroke-width="1" fill="none" fill-rule="evenodd">
        <g id="应用市场" transform="translate(-1277.000000, -1776.000000)">
            <g id="discourse" transform="translate(1278.000000, 1777.000000)">
                <mask id="mask-2" fill="white">
                    <use xlink:href="#path-1"></use>
                </mask>
                <rect stroke="#EAEBEE" x="-0.5" y="-0.5" width="55" height="55" rx="8"></rect>
                <g mask="url(#mask-2)" fill-rule="nonzero" id="路径">
                    <g transform="translate(11.000000, 11.000000)">
                        <path d="M16,32 L0,32 L0,16 C0,7.2 7.2,0 16,0 C24.8,0 32,7.2 32,16 C32,24.8 24.8,32 16,32 Z" fill="#000000"></path>
                        <path d="M12.08,23.92 L5.84,26.16 L6.96,20 C6.16,18.72 5.6,17.28 5.36,15.68 C4.72,10.24 8.56,5.36 13.92,4.72 C19.28,4.08 24.24,7.92 24.88,13.28 C25.52,18.64 21.68,23.6 16.32,24.24 C14.88,24.48 13.44,24.32 12.08,23.92 Z" fill="#E4001E"></path>
                        <path d="M12.48,25.36 L5.92,26.16 L8.4,20.4 C7.84,19.04 7.68,17.44 7.84,15.84 C8.4,10.4 13.28,6.48 18.72,7.04 C24.16,7.6 28.08,12.48 27.52,17.92 C26.96,23.36 22.08,27.28 16.64,26.72 C15.04,26.56 13.68,26.08 12.48,25.36 L12.48,25.36 Z" fill="#00B0F5"></path>
                        <path d="M5.84,26.16 L7.68,20.24 C7.04,18.88 6.64,17.36 6.64,15.76 C6.64,10.32 11.04,5.92 16.48,5.92 C21.92,5.92 26.4,10.32 26.4,15.76 C26.4,21.2 22,25.6 16.56,25.6 C15.04,25.6 13.6,25.28 12.32,24.64 L5.84,26.16 Z" fill="#FF5B00"></path>
                        <path d="M5.84,26.16 L8.32,20.4 C7.76,19.04 7.6,17.44 7.76,15.84 C8.32,10.4 13.2,6.48 18.64,7.04 C20.96,7.28 22.96,8.32 24.48,9.76 C25.68,11.44 26.4,13.44 26.4,15.68 C26.4,21.2 22,25.6 16.56,25.6 C15.04,25.6 13.6,25.28 12.32,24.64 L5.84,26.16 Z" fill="#00AD42"></path>
                        <path d="M5.84,26.16 L8.32,20.4 C7.76,19.04 7.6,17.44 7.76,15.84 C8.32,10.4 13.2,6.48 18.64,7.04 C20.4,7.2 22,7.84 23.36,8.8 C24.24,10.08 24.88,11.6 25.04,13.28 C25.68,18.72 21.84,23.6 16.48,24.24 C14.96,24.4 13.52,24.24 12.16,23.84 L5.84,26.16 L5.84,26.16 Z" fill="#FFF9A4"></path>
                    </g>
                </g>
            </g>
        </g>
    </g>
</svg>