<?xml version="1.0" encoding="UTF-8"?>
<svg width="208px" height="106px" viewBox="0 0 208 106" version="1.1" xmlns="http://www.w3.org/2000/svg" xmlns:xlink="http://www.w3.org/1999/xlink">
    <title>eolinker_logo@1x</title>
    <g id="应用集成" stroke="none" stroke-width="1" fill="none" fill-rule="evenodd">
        <g transform="translate(-646.000000, -1937.000000)" id="xinrenxinshi_docs备份-6">
            <g transform="translate(646.000000, 1937.000000)">
                <rect id="矩形备份-8" fill-opacity="0" fill="#FFFFFF" x="0" y="0" width="208" height="106" rx="4"></rect>
                <g id="logo_dark" transform="translate(33.000000, 38.000000)" fill="#272C42">
                    <path d="M140.892222,17.17 C139.817222,16.295 138.992778,15.845 138.392778,15.845 C137.767778,15.845 137.242778,16.07 136.792778,16.52 C136.392778,16.97 136.192778,17.545 136.192778,18.2444444 L136.192778,24.4444444 L133.442778,24.4444444 L133.442778,13.22 L136.192778,13.22 L136.192778,13.995 C136.892778,13.495 137.617778,13.245 138.342778,13.245 C139.292222,13.245 140.192222,13.47 141.017222,13.92 L141.017222,17.145 L140.892222,17.17 Z M124.042778,21.4444444 C124.642778,21.9444444 125.367778,22.1944444 126.242778,22.1944444 C127.042778,22.1944444 127.767222,22.0194444 128.417222,21.6944444 C129.017222,21.4194444 129.767222,20.9444444 130.692222,20.2194444 L130.817222,20.2194444 L130.817222,23.2194444 C129.392222,24.2444444 127.817222,24.7694444 126.142778,24.7694444 C124.267778,24.7694444 122.792778,24.2194444 121.692778,23.0944444 C120.592778,21.9694444 120.042778,20.5444444 120.042778,18.7694444 C120.042778,17.12 120.592778,15.77 121.692778,14.695 C122.792778,13.62 124.217778,13.095 125.992778,13.095 C127.717222,13.095 129.117222,13.72 130.167222,14.995 C130.592222,15.52 130.942222,16.195 131.192222,16.945 C131.442222,17.7444444 131.567222,18.5444444 131.567222,19.4194444 L122.992778,19.4194444 C123.092778,20.2694444 123.442778,20.9444444 124.042778,21.4444444 Z M128.417222,17.195 C127.817222,16.095 126.917778,15.545 125.742778,15.545 C125.117778,15.545 124.592778,15.695 124.117778,15.97 C123.567778,16.27 123.217778,16.67 123.067778,17.195 L128.417222,17.195 Z M115.467778,24.4444444 L111.017778,19.3944444 L111.017778,24.4444444 L108.267778,24.4444444 L108.267778,8.295 L111.017778,8.295 L111.017778,16.745 L114.892778,13.42 L118.417778,13.42 L113.042778,18.0694444 L118.892778,24.4444444 L115.467778,24.4444444 Z M103.442778,17.57 C103.442778,16.97 103.217778,16.495 102.743333,16.12 C102.318333,15.82 101.768333,15.67 101.143333,15.67 C100.518333,15.67 99.9433333,15.845 99.4183333,16.145 C98.8933333,16.495 98.6433333,16.945 98.6433333,17.57 L98.6433333,24.4444444 L95.8933333,24.4444444 L95.8933333,13.27 L98.6433333,13.27 L98.6433333,13.72 C99.3933333,13.245 100.243333,13.02 101.193333,13.02 C102.568333,13.02 103.742778,13.37 104.667778,14.045 C105.692778,14.82 106.192778,15.82 106.192778,17.095 L106.192778,24.4444444 L103.442778,24.4444444 L103.442778,17.57 Z M89.5688889,10.145 L91.7433333,8.02 L93.9433333,10.145 L91.7433333,12.27 L89.5688889,10.145 Z M85.7688889,24.8944444 C84.8438889,24.8944444 83.9688889,24.6194444 83.1688889,24.0944444 C82.2688889,23.5194444 81.8188889,22.7944444 81.8188889,21.9194444 L81.8188889,8.295 L84.5688889,8.295 L84.5688889,20.8694444 C84.5688889,21.2694444 84.7688889,21.5944444 85.1438889,21.8444444 C85.5188889,22.1194444 85.9438889,22.2444444 86.3688889,22.2444444 C86.7938889,22.2444444 87.4433333,21.8444444 88.3433333,21.0694444 L88.4683333,21.0694444 L88.4683333,24.0194444 C87.3433333,24.5944444 86.4438889,24.8944444 85.7688889,24.8944444 Z M74.1438889,24.7694444 C72.4688889,24.7694444 71.0188889,24.1944444 69.8438889,23.0444444 C68.6438889,21.8944444 68.0438889,20.4944444 68.0438889,18.8694444 C68.0438889,17.27 68.6438889,15.895 69.8188889,14.77 C70.9938889,13.645 72.4438889,13.07 74.1438889,13.07 C75.8438889,13.07 77.2938889,13.645 78.4688889,14.77 C79.6438889,15.895 80.2433333,17.27 80.2433333,18.8694444 C80.2433333,20.4444444 79.6438889,21.8444444 78.4438889,22.9944444 C77.2438889,24.1944444 75.8188889,24.7694444 74.1438889,24.7694444 Z M76.3438889,16.67 C75.7438889,16.07 75.0188889,15.77 74.1688889,15.77 C73.3438889,15.77 72.6438889,16.07 71.9938889,16.695 C71.3938889,17.32 71.0688889,18.0194444 71.0688889,18.8444444 C71.0688889,19.6944444 71.3938889,20.4444444 71.9938889,21.0694444 C72.6438889,21.6944444 73.3438889,22.0194444 74.1688889,22.0194444 C74.9688889,22.0194444 75.6938889,21.6944444 76.3188889,21.0694444 C76.9438889,20.4444444 77.2688889,19.6944444 77.2688889,18.8444444 C77.2688889,17.9944444 76.9688889,17.27 76.3438889,16.67 Z M55.9444444,8.295 L66.2938889,8.295 L66.2938889,10.87 L58.8194444,10.87 L58.8194444,14.67 L64.5688889,14.67 L64.5688889,17.245 L58.8194444,17.245 L58.8194444,21.8694444 L66.7688889,21.8694444 L66.7688889,24.4444444 L55.9444444,24.4444444 L55.9444444,8.295 Z M0.416666667,18.3811111 C0.0522222222,16.2111111 0.0577777778,14.0361111 0.402777778,11.9366667 L38.3022222,11.7194444 C38.6566667,13.8905556 38.6411111,16.0655556 38.2866667,18.1638889 L0.416666667,18.3811111 Z M14.005,0.264444444 L31.895,0.162222222 C33.8883333,1.89111111 35.5511111,4.05388889 36.7233333,6.57888889 L16.1883333,6.69666667 L14.005,0.264444444 Z M27.1116667,29.8583333 L6.95166667,29.9738889 C4.92833333,28.2538889 3.24,26.0883333 2.04222222,23.5572222 L24.9283333,23.4261111 L27.1116667,29.8583333 Z M93.0433333,24.4444444 L90.2938889,24.4444444 L90.2938889,13.42 L93.0433333,13.42 L93.0433333,24.4444444 Z" id="形状"></path>
                </g>
            </g>
        </g>
    </g>
</svg>