<?xml version="1.0" encoding="UTF-8"?>
<svg width="208px" height="106px" viewBox="0 0 208 106" version="1.1" xmlns="http://www.w3.org/2000/svg" xmlns:xlink="http://www.w3.org/1999/xlink">
    <title>discourse</title>
    <g id="应用集成" stroke="none" stroke-width="1" fill="none" fill-rule="evenodd">
        <g transform="translate(-846.000000, -1045.000000)" id="编组-17">
            <g transform="translate(846.000000, 1045.000000)">
                <rect id="蒙版" fill-opacity="0" fill="#FFFFFF" x="0" y="0" width="208" height="106" rx="4"></rect>
                <g id="编组-16" transform="translate(28.000000, 42.000000)" fill="#2984EF" fill-rule="nonzero">
                    <g id="tencent">
                        <path d="M14.4291349,8.7582808 C14.0187016,9.14020548 13.2294068,8.91725452 12.8863267,8.7582808 C11.0937608,7.4126582 9.37351039,5.98731014 7.73170566,4.487316 C5.66901533,2.58738613 4.12199758,3.69632479 3.60842979,4.487316 L3.60842979,19.202079 L5.5827191,19.202079 C6.30466072,19.202079 7.00555447,18.9694345 7.56121799,18.5429196 L12.8863267,14.4561317 C13.3998945,13.9792105 14.1786653,14.2234872 14.4312397,14.4561317 C14.9469122,14.9311142 14.6017273,16.1951491 14.4312397,16.3541229 L8.3441984,22.3931857 C7.95392263,22.7801476 7.40638069,23 6.83296202,23 L2.06141204,23 C1.45102408,23 0.798540405,22.3020666 0.364954479,21.68362 C0.114943612,21.3079655 -0.0115324727,20.8736297 0.000826491575,20.433156 L0.000826491575,3.0623686 C0.000826491575,1.92434938 0.773282973,1.06744224 1.45102408,0.578888845 C1.82988557,0.303592884 2.31398636,0.214412502 2.7917728,0.214412502 L7.73170566,0.214412502 C8.05584271,0.214412502 8.36314148,0.353999187 8.55467701,0.592459772 L14.4312397,7.81025457 C14.6017273,7.96728959 14.8437777,8.38023353 14.4312397,8.7602195 L14.4291349,8.7582808 Z M16.4918252,10.6523946 C16.9043633,10.2724086 17.3526827,10.4934208 17.5231704,10.6523946 C20.6172059,13.3433156 27.2136054,18.8182156 28.8616528,19.1982016 C29.5832241,19.3792402 30.3522621,19.3045308 31.0169538,18.9888215 C31.7367906,18.6398548 31.9535836,17.8469249 31.9535836,17.0985852 L31.9535836,5.90450859 C31.9535836,5.40113003 31.7364868,4.91836856 31.350052,4.56242617 C30.9636173,4.20648378 30.4394993,4.00651742 29.892998,4.00651742 L29.4657264,4.00651742 C28.7437848,4.00651742 28.0428911,4.2391619 27.4872275,4.66567677 L22.1621188,8.75440339 C21.4759586,9.07041214 20.2046678,9.32438235 20.6172059,7.80443846 C21.0276392,6.28643327 25.5992345,2.10658756 27.8303077,0.208596391 C28.3459803,0.0515613708 29.892998,-0.169450879 31.9535836,0.208596391 C34.0162739,0.588582364 34.8750266,2.43810593 35.047619,3.31440011 L35.047619,20.1462278 C35.047619,20.6696779 34.5550991,21.5246463 34.083627,22.2128862 C33.7279615,22.7117372 33.1191734,23.0074855 32.4713609,22.9961226 L28.2470553,22.9961226 C27.32973,22.9953495 26.4600695,22.6196853 25.8728566,21.9705482 L16.49393,11.6023595 C16.3213375,11.4453245 16.0792871,11.0323805 16.49393,10.6523946 L16.4918252,10.6523946 Z" id="形状"></path>
                    </g>
                    <path d="M44.247619,21.3571429 C45.0580952,19.4733333 45.54,17.107619 45.6714286,14.2161905 L47.752381,14.2161905 L47.752381,18.6190476 C47.752381,19.2104762 47.5114286,19.5171429 47.0514286,19.5171429 C46.6571429,19.5171429 46.2190476,19.4733333 45.7590476,19.407619 L46.2409524,21.3133333 L47.6647619,21.3133333 C49.0228571,21.3133333 49.7019048,20.6342857 49.7019048,19.32 L49.7019048,11.5219048 L50.6438095,12.9895238 C51.3447619,12.5733333 51.98,12.0914286 52.5933333,11.5657143 L52.5933333,12.2228571 L58.0914286,12.2228571 C57.96,13.0114286 57.8285714,13.712381 57.6533333,14.3695238 L54.1485714,14.3695238 C54.28,13.887619 54.4333333,13.3838095 54.5866667,12.8142857 L52.6590476,12.6390476 C52.4619048,13.6028571 52.1552381,14.7419048 51.7390476,16.012381 L59.887619,16.012381 C59.8438095,17.9838095 59.712381,19.0790476 59.4933333,19.2980952 C59.2742857,19.5171429 58.8361905,19.6266667 58.1571429,19.6266667 C57.6752381,19.6266667 57.1714286,19.6047619 56.6238095,19.5828571 L57.1495238,21.3352381 L58.0914286,21.3352381 C59.6028571,21.3352381 60.5885714,21.0942857 61.0485714,20.6561905 C61.5304762,20.1742857 61.7933333,18.0933333 61.8809524,14.3695238 L59.5809524,14.3695238 C59.7561905,13.5809524 59.9095238,12.6390476 60.0409524,11.5657143 C60.6542857,12.0038095 61.3771429,12.42 62.187619,12.792381 L63.0638095,10.9742857 C61.5304762,10.4485714 60.3257143,9.74761905 59.4495238,8.87142857 L62.5380952,8.87142857 L62.5380952,7.14095238 L55.9009524,7.14095238 C56.0980952,6.70285714 56.2952381,6.2647619 56.4704762,5.78285714 L61.9247619,5.78285714 L61.9247619,4.07428571 L60.3038095,4.07428571 C60.6542857,3.54857143 60.9828571,2.9352381 61.3114286,2.23428571 L59.4495238,1.53333333 C59.1428571,2.43142857 58.792381,3.28571429 58.3542857,4.07428571 L56.9961905,4.07428571 C57.2152381,3.22 57.412381,2.32190476 57.5438095,1.35809524 L55.5285714,1.11714286 C55.3971429,2.16857143 55.2219048,3.15428571 54.9590476,4.07428571 L54.1704762,4.07428571 C53.8638095,3.15428571 53.5133333,2.34380952 53.1190476,1.6647619 L51.3447619,2.3 C51.7390476,2.86952381 52.067619,3.46095238 52.3304762,4.07428571 L50.9504762,4.07428571 L50.9504762,5.78285714 L54.4114286,5.78285714 C54.2142857,6.24285714 53.9952381,6.70285714 53.7542857,7.14095238 L50.3152381,7.14095238 L50.3152381,8.87142857 L52.5933333,8.87142857 C51.8047619,9.8352381 50.8409524,10.6238095 49.7019048,11.2809524 L49.7019048,1.90571429 L43.7657143,1.90571429 L43.7657143,12.7047619 C43.7438095,15.64 43.3933333,18.0495238 42.7142857,19.9552381 L44.247619,21.3571429 Z M47.752381,7.11904762 L45.7152381,7.11904762 L45.7152381,3.8552381 L47.752381,3.8552381 L47.752381,7.11904762 Z M58.8142857,10.5580952 L53.6447619,10.5580952 C54.0828571,10.032381 54.5209524,9.4847619 54.9371429,8.87142857 L57.4561905,8.87142857 C57.8066667,9.44095238 58.2447619,10.0104762 58.8142857,10.5580952 Z M47.752381,12.2447619 L45.7152381,12.2447619 L45.7152381,9.06857143 L47.752381,9.06857143 L47.752381,12.2447619 Z M58.4638095,18.772381 L58.4638095,17.02 L50.4904762,17.02 L50.4904762,18.772381 L58.4638095,18.772381 Z M69.5257143,6.04571429 L70.9495238,4.6 C70.007619,3.5047619 68.8466667,2.43142857 67.4666667,1.35809524 L66.0209524,2.78190476 C67.5104762,3.92095238 68.6933333,5.01619048 69.5257143,6.04571429 Z M76.2942857,21.4228571 L76.2942857,11.587619 L79.0761905,11.587619 L79.0761905,9.59428571 L76.2942857,9.59428571 L76.2942857,4.07428571 L79.7990476,4.07428571 L79.7990476,9.0247619 C79.7990476,14.3257143 80.3466667,17.852381 81.42,19.5828571 C82.0552381,20.5685714 82.8219048,21.072381 83.72,21.0942857 C84.0485714,21.0942857 84.3333333,20.8752381 84.552381,20.4371429 C84.8590476,19.8457143 85.0561905,18.487619 85.1438095,16.3409524 L83.5228571,15.5742857 C83.5228571,16.4504762 83.4790476,17.1733333 83.4352381,17.7866667 C83.3914286,18.4 83.3257143,18.7066667 83.26,18.7066667 C83.0847619,18.7066667 82.8657143,18.3561905 82.6466667,17.6771429 C82.1209524,16.0780952 81.8580952,13.1866667 81.8580952,9.0247619 L81.8580952,2.08095238 L71.5409524,2.08095238 L71.5409524,4.07428571 L74.2790476,4.07428571 L74.2790476,9.59428571 L71.1685714,9.59428571 L71.1685714,11.587619 L74.2790476,11.587619 L74.2790476,21.4228571 L76.2942857,21.4228571 Z M67.7733333,20.7438095 C69.2628571,19.7361905 70.6866667,18.5752381 72.0009524,17.2828571 L71.4533333,15.092381 C70.7742857,15.7714286 70.1390476,16.3847619 69.547619,16.932381 L69.547619,7.71047619 L64.6409524,7.71047619 L64.6409524,9.70380952 L67.532381,9.70380952 L67.532381,17.6771429 C67.532381,18.1590476 67.3352381,18.5533333 66.9847619,18.8819048 L67.7733333,20.7438095 Z M87.4219048,10.3171429 C91.2333333,8.28 94.3219048,5.87047619 96.6438095,3.06666667 C99.1628571,6.04571429 102.207619,8.4552381 105.778095,10.2952381 L106.917143,8.28 C103.324762,6.57142857 100.170476,4.20571429 97.4104762,1.2047619 L95.8771429,1.2047619 C93.3361905,4.05238095 90.1380952,6.41809524 86.3047619,8.30190476 L87.4219048,10.3171429 Z M105.690476,20.612381 L105.690476,18.5971429 L98.3085714,18.5971429 L98.3085714,13.7780952 L104.113333,13.7780952 L104.113333,11.7847619 L98.3085714,11.7847619 L98.3085714,7.09714286 L96.227619,7.09714286 L96.227619,18.5971429 L92.547619,18.5971429 L92.547619,10.2514286 L90.4885714,10.2514286 L90.4885714,18.5971429 L87.3342857,18.5971429 L87.3342857,20.612381 L105.690476,20.612381 Z M128.318095,20.612381 L128.318095,18.5752381 L121.921905,18.5752381 L121.921905,1.35809524 L119.840952,1.35809524 L119.840952,18.5752381 L117.212381,18.5752381 L117.212381,1.35809524 L115.131429,1.35809524 L115.131429,18.5752381 L108.779048,18.5752381 L108.779048,20.612381 L128.318095,20.612381 Z M112.064762,15.9247619 L113.970476,15.4428571 C113.094286,11.6752381 112.108571,8.32380952 110.991429,5.38857143 L109.217143,5.95809524 C110.35619,9.15619048 111.32,12.4857143 112.064762,15.9247619 Z M124.638095,15.8371429 C125.952381,13.0114286 127.025714,9.72571429 127.858095,5.95809524 L126.018095,5.43238095 C125.098095,9.3752381 124.002857,12.6390476 122.77619,15.18 L124.638095,15.8371429 Z M133.005714,20.4809524 L133.005714,19.1885714 L138.985714,19.1885714 L138.985714,20.4809524 L140.935238,20.4809524 L140.935238,4.14 L137.014286,4.14 L137.014286,1.0952381 L134.977143,1.0952381 L134.977143,4.14 L131.05619,4.14 L131.05619,20.4809524 L133.005714,20.4809524 Z M144.48381,21.4228571 L144.48381,4.05238095 L147.725714,4.05238095 C147.068571,6.33047619 146.389524,8.30190476 145.688571,9.9447619 C147.309524,12.1571429 148.12,13.9314286 148.141905,15.2895238 C148.12,15.8590476 148.054286,16.2095238 147.944762,16.3847619 C147.791429,16.56 147.484762,16.6695238 147.024762,16.7133333 C146.499048,16.7133333 145.885714,16.647619 145.140952,16.56 L145.732381,18.6628571 C147.484762,18.6628571 148.667619,18.4 149.237143,17.8961905 C149.784762,17.4142857 150.069524,16.5380952 150.069524,15.2895238 C150.047619,13.9095238 149.280952,12.1352381 147.747619,9.9447619 C148.514286,8.03904762 149.215238,5.95809524 149.872381,3.70190476 L149.872381,2.19047619 L142.512381,2.19047619 L142.512381,21.4228571 L144.48381,21.4228571 Z M134.977143,10.58 L133.005714,10.58 L133.005714,6.02380952 L134.977143,6.02380952 L134.977143,10.58 Z M138.985714,10.58 L137.014286,10.58 L137.014286,6.02380952 L138.985714,6.02380952 L138.985714,10.58 Z M134.977143,17.3266667 L133.005714,17.3266667 L133.005714,12.42 L134.977143,12.42 L134.977143,17.3266667 Z M138.985714,17.3266667 L137.014286,17.3266667 L137.014286,12.42 L138.985714,12.42 L138.985714,17.3266667 Z" id="腾讯企业邮"></path>
                </g>
            </g>
        </g>
    </g>
</svg>