<?xml version="1.0" encoding="UTF-8"?>
<svg width="208px" height="106px" viewBox="0 0 208 106" version="1.1" xmlns="http://www.w3.org/2000/svg" xmlns:xlink="http://www.w3.org/1999/xlink">
    <title>feilian-logo </title>
    <g id="应用集成" stroke="none" stroke-width="1" fill="none" fill-rule="evenodd">
        <g transform="translate(-382.000000, -2064.000000)" id="zabbix备份-13">
            <g transform="translate(382.000000, 2064.000000)">
                <rect id="蒙版" fill-opacity="0" fill="#FFFFFF" x="0" y="0" width="208" height="106" rx="4"></rect>
                <g id="飞连" transform="translate(79.000000, 25.000000)" fill-rule="nonzero">
                    <path d="M21.6723111,0.769772889 L3.93452889,14.2646311 C1.45748711,16.1508044 0,19.1008222 0,22.2307867 L0,54.2982222 C0,55.7402222 1.67066667,56.5260889 2.76435911,55.5964889 L23.95008,37.5980889 L45.1356889,55.5964889 C46.2295556,56.5260889 47.9002222,55.7424 47.9002222,54.2982222 L47.9002222,22.2307867 C47.9002222,19.09852 46.4426667,16.1485333 43.9656,14.2646311 L26.2278178,0.769772889 C24.8792444,-0.257603733 23.0208844,-0.257603733 21.6723111,0.769772889 Z" id="路径" fill="#00E5E5"></path>
                    <path d="M43.9668444,14.2644444 L26.2289689,0.769583111 C24.8803956,-0.255515244 23.0220356,-0.255515244 21.6734622,0.769583111 L3.93568,14.2644444 C2.62648711,15.2622089 1.61157422,16.5606622 0.937284444,18.0231333 L39.9535111,51.1930222 L45.1369333,55.5964889 C46.2304889,56.5257778 47.9011556,55.7420889 47.9011556,54.2979111 L47.9011556,22.2306 C47.9011556,19.0983333 46.4460889,16.1506178 43.9668444,14.2644444 Z" id="路径" fill="#006EFF"></path>
                </g>
            </g>
        </g>
    </g>
</svg>