<svg width="208" height="106" viewBox="0 0 208 106" fill="none" xmlns="http://www.w3.org/2000/svg">
  <path d="M204 0H4C1.79086 0 0 1.79086 0 4V102C0 104.209 1.79086 106 4 106H204C206.209 106 208 104.209 208 102V4C208 1.79086 206.209 0 204 0Z" fill="white" />
  <path d="M105.49 34.0095C106.572 34.577 107.553 35.317 108.622 35.9095C107.942 36.8215 107.177 37.6669 106.338 38.4345C104.9 37.972 103.39 37.7432 101.883 37.6645C103.124 36.4882 104.718 35.6045 105.49 34.0095V34.0095ZM106.138 35.1957C105.68 35.9179 105.121 36.5715 104.479 37.137C104.654 37.3457 104.833 37.552 105.013 37.7557C105.731 37.1457 106.338 36.4167 106.809 35.6007C106.584 35.4657 106.36 35.3282 106.138 35.1957ZM94.5542 38.0657C95.6242 38.0307 96.703 37.8007 97.763 38.0582C96.848 38.1457 95.9705 38.4532 95.1455 38.8457C94.6217 39.092 94.1755 39.4895 93.6092 39.6445C92.6507 39.9415 91.8087 40.5301 91.2005 41.3282L90.8605 41.4907C90.868 41.367 90.8867 41.1207 90.8955 40.997C90.963 40.7907 91.0117 40.5807 91.0555 40.3695L91.0867 40.3607C91.4455 39.4282 92.303 38.8082 93.1742 38.3857C93.6255 38.2432 94.0917 38.167 94.5542 38.0657ZM104.312 41.4132C105.447 40.7207 106.507 39.9145 107.532 39.0695C108.732 39.9945 109.944 40.9057 111.129 41.8507C108.273 42.8207 105.413 43.7907 102.492 44.552C101.357 44.827 100.213 45.0895 99.0467 45.2145C97.8592 45.337 96.6817 44.9957 95.5867 44.5657C94.2242 43.9907 92.9542 43.2182 91.7292 42.3945C92.8867 42.9445 94.1117 43.3382 95.3792 43.5407C96.3555 43.6495 97.338 43.802 98.3242 43.7032C100.482 43.487 102.484 42.5295 104.312 41.4132V41.4132ZM106.109 40.7382C106.409 40.947 106.71 41.157 106.992 41.3957C106.673 41.5857 106.363 41.7882 106.049 41.982C106.275 42.0882 106.49 42.222 106.707 42.3545L106.985 42.1395C107.27 41.962 107.608 41.7332 107.919 42.002C108.072 42.127 108.22 42.2595 108.394 42.3607C108.599 42.3082 108.789 42.2082 108.987 42.132L109.013 41.9745C108.78 41.832 108.553 41.6845 108.319 41.547C108.306 41.4665 108.294 41.3856 108.284 41.3045C108.554 41.157 108.822 41.0045 109.092 40.8582C108.951 40.7382 108.811 40.6173 108.672 40.4957L108.377 40.4845C108.13 40.6507 107.889 40.8232 107.643 40.987C107.32 40.797 107.018 40.5795 106.715 40.362C106.515 40.492 106.312 40.6145 106.109 40.737V40.7382Z" fill="white" />
  <path d="M91.3329 41.437C91.9254 40.712 92.6917 40.1207 93.5879 39.827C93.0404 40.3945 92.5929 41.0445 92.0854 41.6457L91.3317 41.437H91.3329ZM89.1204 41.8507C89.9154 41.6882 90.7342 41.5007 91.5479 41.6557C89.1504 43.0832 86.6079 44.2557 84.2629 45.772C83.4604 46.2595 82.6754 46.7695 81.8879 47.282C81.9604 47.0207 82.0504 46.767 82.1217 46.507L82.1692 46.477C82.4492 45.9445 82.6917 45.3482 83.1929 44.9795C84.2804 44.1882 85.3779 43.4045 86.5429 42.727C87.3354 42.2707 88.2342 42.052 89.1204 41.8507V41.8507Z" fill="white" />
  <path d="M103.912 35.717C104.548 35.1645 105.044 34.4745 105.452 33.7408C106.607 34.4408 107.73 35.187 108.89 35.8783C108.197 36.8158 107.402 37.6733 106.572 38.4933C107.469 38.7536 108.333 39.1143 109.149 39.5683C109.554 39.7808 109.829 40.1595 110.194 40.427C112.215 41.6395 113.944 43.2845 115.49 45.0483C116.429 46.1266 117.265 47.2895 117.989 48.522C118.414 49.2833 118.819 50.0583 119.148 50.8683C119.397 51.5308 119.615 52.2058 119.779 52.8983C118.883 52.302 117.969 51.7295 116.989 51.2795C117.889 52.0758 118.977 52.6745 119.748 53.6083C119.835 54.6458 119.937 55.7008 119.754 56.7333C119.058 55.9596 118.29 55.2536 117.46 54.6245C117.027 54.312 116.593 53.9745 116.069 53.8333C116.274 54.372 116.764 54.6933 117.175 55.0633C118.079 55.8495 118.99 56.6408 119.745 57.5758C119.715 57.757 119.683 57.9395 119.65 58.1208C119.622 58.6783 119.635 59.2433 119.517 59.792C119.495 60.0545 119.479 60.3158 119.459 60.5758C119.059 59.9845 118.507 59.5183 118.1 58.932L117.982 59.2358L117.902 59.377C117.778 59.0133 117.68 58.5983 117.352 58.3545C116.407 57.5895 115.322 57.0145 114.235 56.477C115.472 57.6208 116.747 58.7308 117.884 59.9783C118.059 60.1783 118.22 60.382 118.393 60.5858C118.296 60.1827 118.196 59.7802 118.094 59.3783C118.25 59.7045 118.395 60.037 118.532 60.3745C118.702 60.7708 118.905 61.152 119.124 61.5245C119.207 61.8495 119.358 62.1533 119.508 62.4495C120.493 64.2833 121.785 65.9245 123.125 67.5083C125.247 69.9958 127.513 72.3583 129.833 74.6608C129.695 74.8995 129.562 75.142 129.433 75.387C128.939 76.312 128.393 77.2108 127.925 78.1495L127.769 78.072C126.272 76.2531 124.771 74.4364 123.268 72.622C123.13 72.4508 122.99 72.282 122.859 72.1095C122.834 72.1145 122.784 72.1258 122.76 72.1333C122.859 72.2708 122.958 72.4095 123.057 72.552C124.504 74.813 125.963 77.0663 127.434 79.312C126.725 80.3783 126.007 81.4395 125.274 82.4908C125.084 82.3758 124.992 82.1683 124.87 81.997C123.795 80.297 122.71 78.6058 121.66 76.8933C120.27 74.6395 118.892 72.377 117.624 70.0533C117.112 69.1624 116.638 68.2499 116.204 67.3183C116.14 67.1855 116.076 67.0526 116.013 66.9195C115.735 66.3114 115.475 65.6949 115.235 65.0708C115.164 64.8958 115.098 64.7208 115.029 64.5483C114.942 64.3158 114.854 64.0858 114.763 63.857L114.343 62.7445C114.23 62.4095 114.114 62.0808 113.987 61.7533C111.672 60.8308 109.449 59.687 107.208 58.6008C107.12 58.8058 107.04 59.012 106.959 59.2158C106.859 59.5083 106.75 59.7958 106.644 60.0845C107.537 60.437 108.46 60.862 108.989 61.7058C108.689 61.6337 108.391 61.5503 108.097 61.4558C107.267 61.2983 106.428 61.132 105.579 61.1445C104.872 61.2145 104.185 61.4283 103.507 61.6308C102.435 62.0058 101.444 62.5608 100.414 63.0295C99.9817 63.0895 99.5442 63.042 99.1117 63.037C100.203 62.2945 101.305 61.5458 102.554 61.087C101.083 61.1933 99.8792 62.1245 98.733 62.9595C98.308 62.9608 97.888 62.952 97.4667 62.922C98.7855 61.8658 100.234 60.9595 101.82 60.357C102.744 60.0445 103.69 59.767 104.668 59.7045C104.868 59.192 105.013 58.662 105.2 58.147L105.294 57.657C104.728 57.357 104.08 57.3108 103.469 57.1583C102.805 57.0183 102.159 56.8083 101.512 56.612L101.435 56.537L100.974 56.4895C100.7 56.917 100.4 57.3458 100.31 57.8545C100.828 58.267 101.41 58.5845 101.954 58.9558C102.229 59.2508 102.362 59.6483 102.532 60.0108C101.767 59.5858 100.993 59.1695 100.147 58.9233C99.63 58.8579 99.107 58.8588 98.5905 58.9258C98.403 58.9808 98.2155 59.0295 98.028 59.0745C96.808 59.4308 95.678 60.0295 94.5642 60.6283C94.1067 60.907 93.5517 60.8933 93.043 61.0008C93.868 60.1308 94.918 59.5358 95.968 58.9858L96.498 58.7395C95.033 58.7995 93.8405 59.7395 92.7817 60.657C92.458 60.9945 91.9705 61.0245 91.5467 61.1445C92.6617 59.6308 94.1805 58.3845 95.9267 57.667C96.7005 57.3833 97.5192 57.312 98.3342 57.2483C98.423 57.0733 98.5217 56.9045 98.618 56.7345C98.7717 56.482 98.9242 56.2258 99.0767 55.972C97.5892 55.632 96.0817 55.3958 94.5742 55.172C93.4517 55.032 92.3217 54.9195 91.1892 55.0345C89.768 55.2545 88.3055 55.172 86.8917 54.9308C85.6455 54.6758 84.3417 54.4195 83.303 53.637C82.8592 53.202 82.2405 53.6083 81.7342 53.707C80.598 54.082 79.5592 54.677 78.4942 55.212C78.1842 55.3833 77.6992 55.3595 77.563 54.977C77.3042 54.352 77.2805 53.6458 77.4105 52.9883L77.5005 52.4058C77.5642 52.2295 77.6255 52.0508 77.6917 51.8758C77.7642 51.687 77.8417 51.4983 77.9167 51.3108C78.3073 50.5635 78.8528 49.908 79.5167 49.3883C80.0867 48.9683 80.8005 48.8383 81.478 48.6895C81.4905 48.347 81.513 48.0058 81.5355 47.6645C81.5917 47.5095 81.6455 47.3558 81.6967 47.1995L81.7467 47.207L81.853 46.717C82.4192 45.3545 83.4105 44.2108 84.528 43.267C86.2467 41.8508 88.5405 41.467 90.703 41.387C90.7105 41.187 90.7205 40.9908 90.7305 40.7933L90.8142 40.8183C90.9892 39.3758 92.383 38.4183 93.6892 38.0508C94.893 37.8645 96.123 37.6933 97.3405 37.8233C98.653 37.927 99.9455 37.5945 101.26 37.6433C101.598 37.7183 101.828 37.4383 102.064 37.2508C102.67 36.7308 103.3 36.2345 103.912 35.717V35.717ZM105.49 34.0095C104.718 35.6045 103.124 36.4883 101.883 37.6645C103.39 37.7433 104.899 37.972 106.338 38.4358C107.177 37.6682 107.942 36.8227 108.622 35.9108C107.553 35.317 106.572 34.577 105.49 34.0095V34.0095ZM96.9742 38.3658C95.6317 38.7258 94.2992 39.3333 93.3492 40.3708C93.0042 40.7295 92.743 41.152 92.4217 41.5283C92.1855 41.8533 91.7292 41.7758 91.4042 41.942C92.6467 42.727 94.0855 43.1845 95.5417 43.3508C96.0617 41.6983 97.3417 40.3633 98.8842 39.6058C101.179 38.5145 103.852 38.2858 106.315 38.882C106.683 38.9758 107.053 39.0495 107.433 39.0845C107.245 38.9508 107.058 38.817 106.838 38.7483C103.67 37.7395 100.203 37.4795 96.9742 38.3658V38.3658ZM94.5542 38.0658C94.0917 38.1658 93.6267 38.2408 93.1755 38.3858C92.303 38.807 91.4455 39.4283 91.0867 40.3608L91.0555 40.3683C91.013 40.5808 90.963 40.7908 90.8955 40.9958L90.8605 41.4895L91.2005 41.327C91.8087 40.5289 92.6507 39.9403 93.6092 39.6433C94.1755 39.4895 94.6217 39.0908 95.1467 38.8458C95.9705 38.452 96.848 38.1445 97.763 38.057C96.703 37.7995 95.6255 38.0308 94.5542 38.0645V38.0658ZM99.0217 39.7483C97.4917 40.4645 96.2542 41.7883 95.723 43.3983C96.4955 43.4695 97.2692 43.6033 98.048 43.5395C99.0194 43.4597 99.9758 43.2504 100.892 42.917C103.123 42.067 105.154 40.7633 106.998 39.2645C104.374 38.4106 101.524 38.5834 99.023 39.7483H99.0217ZM104.312 41.412C102.484 42.5283 100.482 43.487 98.3242 43.702C97.3367 43.8008 96.3555 43.6495 95.3792 43.5395C94.1141 43.3336 92.8849 42.9476 91.7292 42.3933C92.9542 43.2183 94.223 43.9883 95.5867 44.5645C96.6817 44.9945 97.858 45.3358 99.0467 45.2145C100.213 45.0895 101.357 44.827 102.493 44.552C105.413 43.7895 108.272 42.8195 111.129 41.8495C109.944 40.9045 108.733 39.9933 107.532 39.0683C106.507 39.9133 105.447 40.7183 104.312 41.412V41.412ZM108.015 39.2295C108.39 39.6683 108.94 39.857 109.48 39.9983C109.078 39.5983 108.582 39.3108 108.015 39.2295ZM91.333 41.437C91.583 41.507 91.8342 41.5783 92.0867 41.6458C92.5942 41.0458 93.0417 40.3958 93.5892 39.827C92.6917 40.1208 91.9267 40.7145 91.333 41.437V41.437ZM109.523 40.3045C110.128 40.887 110.833 41.352 111.473 41.8933C109.903 42.4845 108.303 42.9883 106.714 43.5183C104.188 44.2658 101.669 45.1108 99.0392 45.3933C97.8605 45.522 96.713 45.1683 95.613 44.797C95.953 46.2358 96.7005 47.5395 97.5667 48.7245C98.7167 50.292 100.037 51.727 101.383 53.127C102.579 54.3583 103.583 55.757 104.714 57.0458C104.988 57.3583 105.374 57.5283 105.74 57.7033C109.943 59.702 114.065 61.972 118.608 63.127C118.767 62.5858 118.894 62.0333 118.94 61.4695C117.688 59.9508 116.283 58.5633 114.808 57.262C114.364 56.8583 113.848 56.5283 113.483 56.0445C115.771 56.8079 117.796 58.206 119.32 60.0758C119.535 59.292 119.379 58.4658 119.602 57.682C118.302 56.1283 116.677 54.892 115.15 53.5733C115.017 53.4396 114.893 53.2977 114.778 53.1483C116.73 53.5633 118.259 54.9483 119.618 56.3233C119.647 55.4358 119.635 54.5483 119.603 53.6608C118.74 52.8145 117.759 52.1058 116.783 51.4008C116.6 51.2615 116.437 51.0994 116.295 50.9183C117.458 51.1945 118.462 51.8533 119.473 52.457C118.569 49.162 116.515 46.2945 114.158 43.867C112.764 42.5095 111.313 41.1295 109.523 40.3045ZM89.1205 41.8508C88.2342 42.0508 87.3355 42.2708 86.543 42.727C85.378 43.4033 84.2805 44.187 83.193 44.9795C82.6917 45.3483 82.4492 45.9433 82.1692 46.477L82.1217 46.5058C82.0492 46.767 81.9592 47.0208 81.888 47.2808C82.6717 46.7655 83.4635 46.2625 84.263 45.772C86.608 44.2558 89.1505 43.0845 91.548 41.6558C90.7355 41.4995 89.9155 41.6895 89.1205 41.8508ZM86.9155 42.1533C85.608 42.6108 84.4155 43.412 83.5455 44.492C84.1255 44.107 84.6805 43.6808 85.268 43.3045C86.1155 42.7695 86.9642 42.1658 87.9867 42.0258C87.6267 42.0395 87.2555 42.022 86.9155 42.1533ZM88.0342 43.8145C85.8642 44.902 83.848 46.2583 81.7892 47.5345C81.6955 47.9158 81.6517 48.307 81.633 48.6983C82.3114 48.5816 83.0014 48.548 83.688 48.5983C84.108 48.602 84.3255 49.0483 84.4342 49.3945C84.7492 50.5633 85.0442 51.7945 84.8242 53.007C84.5355 53.577 83.7267 53.237 83.2242 53.3758C83.8568 53.8541 84.5796 54.1993 85.3492 54.3908C85.7442 54.4758 86.1692 54.6783 86.5667 54.4908C88.0642 53.9108 89.5742 53.3533 91.0317 52.6783C91.8592 52.2858 92.3942 51.5108 92.9442 50.8133C93.8842 49.4883 95.0142 48.1595 96.633 47.6783C96.083 46.7608 95.5955 45.7845 95.4255 44.7158C94.4405 44.2358 93.4605 43.7395 92.538 43.142C92.0392 42.8345 91.5942 42.4433 91.0792 42.1583C90.0405 42.662 89.0705 43.2983 88.0342 43.8145V43.8145ZM93.3692 50.532C92.7242 51.3595 92.1342 52.312 91.1692 52.7995C89.6767 53.522 88.1017 54.0495 86.573 54.6883C87.918 54.9683 89.3005 55.0858 90.668 54.9408C91.5335 54.8219 92.4092 54.7947 93.2805 54.8595C95.2992 55.0845 97.3105 55.3908 99.2917 55.8345C101.092 56.2045 102.798 56.9308 104.619 57.2183C103.407 55.802 102.313 54.282 100.984 52.9683C99.4805 51.352 97.9467 49.732 96.778 47.8495C95.303 48.1945 94.2267 49.3545 93.3692 50.532V50.532ZM81.158 48.917C80.7042 49.0508 80.2355 49.1608 79.8255 49.402C78.113 50.547 77.1892 52.7708 77.6742 54.7808C77.7467 55.1033 78.0717 55.2645 78.363 55.0783C79.758 54.3683 81.148 53.5708 82.7055 53.2758C83.3192 53.1458 83.9505 53.1645 84.5742 53.1408C84.8105 52.5495 84.738 51.9045 84.6905 51.2858C84.5355 50.6595 84.4567 50.0133 84.253 49.4008C84.1592 49.1395 84.0117 48.8195 83.7105 48.7608C82.8555 48.6683 82.003 48.8158 81.158 48.917V48.917ZM115.533 53.5608C115.483 53.7633 115.778 54.012 115.974 53.9358C116.029 53.727 115.729 53.487 115.534 53.5608H115.533ZM99.2442 56.0858C98.9192 56.5358 98.668 57.032 98.3605 57.492C95.8005 57.3095 93.558 59.002 91.998 60.8645C92.228 60.7858 92.4667 60.707 92.648 60.5345C93.363 59.9283 94.0967 59.3258 94.9505 58.922C95.663 58.712 96.3755 58.487 97.1192 58.4195C97.0414 58.5335 96.944 58.633 96.8317 58.7133C95.7292 59.3483 94.5317 59.8608 93.5867 60.732C93.8667 60.682 94.1642 60.6545 94.4167 60.507C95.4092 59.9695 96.4117 59.4445 97.4742 59.0608C98.0717 58.8695 98.6867 58.7458 99.3092 58.662C99.7842 58.7183 100.257 58.792 100.719 58.922C101.207 59.1295 101.679 59.372 102.188 59.5258C101.693 58.8095 100.822 58.5358 100.175 57.9883C100.114 57.377 100.498 56.8795 100.828 56.4083C100.308 56.292 99.7817 56.0333 99.2442 56.0858ZM105.284 58.3833C105.242 58.5237 105.203 58.665 105.167 58.807C105.049 59.1633 104.937 59.5208 104.809 59.8733C102.267 60.0445 99.9192 61.2608 97.928 62.7845C98.0992 62.7895 98.4442 62.8045 98.618 62.8108C99.9805 61.7858 101.52 60.7945 103.289 60.797C102.11 61.557 100.739 62.0033 99.6517 62.9183C100.008 62.9183 100.377 62.9058 100.69 62.7133C102.184 61.9383 103.745 61.2233 105.425 60.9795C106.467 60.892 107.474 61.2308 108.504 61.3045C107.889 60.817 107.179 60.4683 106.447 60.1958C106.595 59.622 106.834 59.077 106.989 58.5045C106.5 58.2595 106.01 58.017 105.527 57.7633C105.443 57.9683 105.365 58.1758 105.284 58.3833V58.3833ZM114.247 61.8833C114.528 62.807 114.909 63.6958 115.243 64.6008C116.098 66.8908 117.24 69.0595 118.452 71.1795C120.61 74.9295 122.899 78.6045 125.254 82.2345C125.848 81.2258 126.655 80.3345 127.167 79.287C125.709 76.9333 124.154 74.637 122.675 72.2945C122.277 71.6408 121.784 71.0383 121.473 70.3333C122 70.6558 122.3 71.2183 122.71 71.6658C124.445 73.7283 126.11 75.8508 127.888 77.8795C128.372 76.7745 129.098 75.7908 129.568 74.682C127.143 72.197 124.705 69.7108 122.493 67.032C121.208 65.4445 119.9 63.8245 119.098 61.932C118.982 62.4045 118.869 62.8795 118.738 63.3495C117.208 62.967 115.722 62.4408 114.248 61.8845L114.247 61.8833Z" fill="#000100" />
  <path d="M106.109 40.737C106.312 40.6145 106.515 40.492 106.715 40.362C107.018 40.5795 107.321 40.797 107.643 40.987C107.889 40.8245 108.13 40.6507 108.377 40.4857L108.672 40.4957L109.092 40.8582C108.821 41.0045 108.554 41.1582 108.286 41.3057C108.294 41.3857 108.306 41.467 108.319 41.547C108.553 41.6845 108.781 41.8332 109.013 41.9745L108.987 42.132C108.788 42.2082 108.599 42.3082 108.394 42.362C108.22 42.2607 108.072 42.127 107.919 42.0007C107.608 41.7345 107.269 41.9632 106.985 42.1407L106.707 42.3545C106.49 42.222 106.275 42.0895 106.049 41.982C106.363 41.7882 106.674 41.587 106.992 41.3957C106.711 41.1582 106.409 40.9482 106.109 40.737V40.737ZM85.0867 47.112C85.7267 45.667 87.248 44.6632 88.8317 44.6582C90.5817 44.5582 92.1992 45.4232 93.5692 46.422C92.5767 47.4307 91.6192 48.5345 90.3367 49.187C89.2242 49.7032 87.9592 50.2157 86.7205 49.8995C86.0305 49.6545 85.1892 49.4695 84.7805 48.807C84.6292 48.232 84.8592 47.6357 85.0867 47.112ZM86.3442 45.7645C85.4755 46.4395 85.0442 47.5057 84.8567 48.5595C85.053 48.9757 85.4442 49.232 85.8617 49.3932C86.4992 49.6395 87.1742 49.9457 87.8767 49.802C88.957 49.6238 89.9895 49.2265 90.9105 48.6345C91.803 48.0132 92.538 47.2045 93.2955 46.437C92.003 45.537 90.523 44.822 88.918 44.7845L88.993 45.172L89.0517 44.9595C89.793 45.2157 90.5117 45.7182 90.7367 46.507C91.193 47.762 90.1555 49.2195 88.8367 49.2795C87.563 49.412 86.3992 48.2357 86.5192 46.9707C87.3005 46.3582 87.9305 45.562 88.7742 45.0307L88.5017 44.8207C87.7255 44.9757 86.9592 45.2507 86.3442 45.7645V45.7645ZM86.8205 47.0882C86.793 47.3107 86.8342 47.5345 86.8492 47.757C86.9717 47.277 87.1992 46.737 87.733 46.6007C88.6117 46.2782 89.5705 47.377 89.0617 48.1907C88.8417 48.6957 88.263 48.8132 87.7655 48.7932C88.2405 48.9407 88.7505 49.112 89.2417 48.9195C90.2267 48.6432 90.8505 47.4445 90.4405 46.4945C90.2005 45.8032 89.5367 45.3695 88.8405 45.2395C88.178 45.867 87.4742 46.4532 86.8205 47.0882V47.0882Z" fill="#000100" />
  <path d="M106.138 35.1957L106.809 35.6007C106.338 36.4167 105.731 37.1457 105.013 37.7557C104.832 37.5518 104.654 37.3455 104.479 37.137C105.123 36.5732 105.677 35.9157 106.138 35.1957V35.1957ZM86.3454 45.7645C86.9579 45.2507 87.7242 44.9757 88.5017 44.8207L88.7742 45.0307C87.9304 45.562 87.3004 46.3582 86.5192 46.9707C86.3992 48.2357 87.5629 49.412 88.8354 49.2795C90.1554 49.2195 91.1917 47.762 90.7354 46.507C90.5104 45.7195 89.7929 45.2157 89.0517 44.9582L88.9929 45.1732C88.9673 45.0438 88.9423 44.9142 88.9179 44.7845C90.5229 44.822 92.0029 45.537 93.2954 46.437C92.5379 47.2045 91.8017 48.0132 90.9104 48.6345C89.9894 49.2265 88.957 49.6239 87.8767 49.802C87.1754 49.9445 86.4992 49.6395 85.8617 49.392C85.4429 49.232 85.0529 48.9745 84.8567 48.5595C85.0442 47.5057 85.4754 46.4395 86.3442 45.7645H86.3454ZM93.3692 50.5332C94.2254 49.3557 95.3017 48.1957 96.7779 47.8495C97.9479 49.7332 99.4792 51.3532 100.984 52.9682C102.313 54.282 103.407 55.802 104.619 57.2182C102.798 56.9307 101.092 56.2045 99.2917 55.8345C97.3076 55.4005 95.3013 55.075 93.2817 54.8595C92.41 54.7946 91.5339 54.8218 90.6679 54.9407C89.3004 55.0857 87.9179 54.9682 86.5729 54.6895C88.1017 54.0495 89.6767 53.522 91.1679 52.8007C92.1342 52.312 92.7242 51.3595 93.3679 50.5332H93.3692Z" fill="#FF5A00" />
  <path d="M96.973 38.3657C100.203 37.4807 103.67 37.7407 106.838 38.7495C107.058 38.817 107.245 38.9507 107.432 39.0845C107.055 39.0469 106.682 38.9796 106.315 38.8832C103.852 38.2857 101.179 38.5157 98.8842 39.607C97.3417 40.3645 96.0605 41.6982 95.5417 43.352C94.0855 43.1845 92.6467 42.7282 91.4042 41.9432C91.7292 41.777 92.1855 41.8545 92.4217 41.5282C92.743 41.1532 93.003 40.7295 93.348 40.372C94.2992 39.3345 95.6305 38.727 96.973 38.367V38.3657ZM86.9155 42.1532C87.2555 42.022 87.628 42.0407 87.9867 42.0257C86.9642 42.1645 86.1155 42.7695 85.268 43.3045C84.6805 43.6795 84.1255 44.107 83.5455 44.492C84.4142 43.412 85.608 42.6107 86.9155 42.152V42.1532ZM88.0342 43.8145C89.0705 43.2982 90.0392 42.662 91.0792 42.1582C91.5942 42.4432 92.0392 42.8345 92.5392 43.142C93.4592 43.7395 94.4405 44.2357 95.4267 44.717C95.5942 45.7832 96.083 46.7607 96.633 47.6782C95.0142 48.1595 93.883 49.4882 92.943 50.8132C92.3955 51.5107 91.8592 52.2857 91.0317 52.677C89.5742 53.352 88.0642 53.9107 86.5667 54.4907C86.1692 54.6782 85.7442 54.4757 85.3492 54.3907C84.5797 54.1993 83.8568 53.8541 83.2242 53.3757C83.7267 53.237 84.5342 53.5757 84.8242 53.0057C85.0442 51.7932 84.7492 50.5632 84.4342 49.3932C84.3255 49.047 84.108 48.602 83.688 48.5982C83.0015 48.548 82.3114 48.5815 81.633 48.6982C81.6505 48.307 81.6955 47.9157 81.7892 47.5357C83.848 46.2582 85.8642 44.9007 88.0342 43.8145ZM85.0855 47.112C84.858 47.637 84.628 48.232 84.7805 48.807C85.1892 49.4695 86.0305 49.6545 86.7205 49.8995C87.958 50.2157 89.2242 49.7032 90.3367 49.187C91.618 48.5332 92.5767 47.4307 93.5705 46.422C92.198 45.4232 90.583 44.5595 88.8317 44.6582C87.248 44.6632 85.7267 45.667 85.0855 47.112ZM114.235 56.477C115.323 57.0145 116.405 57.5895 117.352 58.3545C117.68 58.5982 117.777 59.0132 117.902 59.377C117.984 59.657 118.052 59.9395 118.13 60.222L117.884 59.9782C116.747 58.7307 115.472 57.6207 114.234 56.477H114.235ZM114.248 61.8832C115.72 62.4395 117.208 62.9657 118.738 63.3495C118.869 62.8782 118.982 62.4045 119.098 61.9307C119.9 63.8232 121.208 65.4432 122.493 67.0307C124.705 69.7107 127.143 72.197 129.568 74.6807C129.097 75.7895 128.372 76.7745 127.888 77.8795C126.112 75.8495 124.445 73.727 122.709 71.6645C122.3 71.2182 122 70.6557 121.472 70.3332C121.784 71.037 122.277 71.6395 122.675 72.2945C124.153 74.6357 125.709 76.932 127.168 79.2857C126.655 80.3332 125.848 81.2245 125.255 82.2345C122.899 78.6045 120.61 74.9282 118.452 71.1795C117.24 69.0595 116.098 66.8895 115.242 64.6007C114.91 63.6945 114.528 62.8057 114.248 61.8832V61.8832Z" fill="#0000FF" />
  <path d="M99.0218 39.7495C101.524 38.5848 104.374 38.4123 106.998 39.267C105.154 40.7658 103.123 42.0695 100.892 42.9183C99.9793 43.2533 99.018 43.4595 98.048 43.5408C97.2693 43.6045 96.4955 43.4708 95.723 43.3995C96.2543 41.7895 97.4918 40.4658 99.023 39.7495H99.0218ZM108.016 39.232C108.582 39.312 109.078 39.5983 109.481 39.9995C108.939 39.8583 108.391 39.6695 108.016 39.232ZM109.521 40.3045C111.312 41.1295 112.763 42.5095 114.158 43.867C116.514 46.2945 118.568 49.162 119.472 52.457C118.459 51.8533 117.456 51.1945 116.293 50.9183C116.438 51.0945 116.593 51.2645 116.782 51.4008C117.758 52.1058 118.739 52.8158 119.602 53.6595C119.634 54.547 119.646 55.4358 119.617 56.3245C118.258 54.9495 116.729 53.5645 114.777 53.1495C114.894 53.2958 115.013 53.442 115.149 53.5745C116.676 54.892 118.302 56.1283 119.601 57.682C119.378 58.4658 119.534 59.292 119.321 60.0758C117.796 58.2058 115.771 56.8078 113.482 56.0445C113.847 56.5283 114.363 56.8583 114.807 57.262C116.282 58.5633 117.687 59.9508 118.939 61.4695C118.893 62.032 118.766 62.5858 118.607 63.127C114.066 61.972 109.942 59.702 105.739 57.702C105.373 57.527 104.987 57.3583 104.713 57.0458C103.581 55.7583 102.578 54.3583 101.382 53.127C100.036 51.727 98.7168 50.292 97.5655 48.7245C96.6993 47.5395 95.953 46.237 95.6118 44.797C96.7118 45.167 97.8605 45.522 99.0368 45.3945C101.668 45.1108 104.187 44.2658 106.712 43.5195C108.302 42.9883 109.902 42.4845 111.472 41.8945C110.832 41.352 110.127 40.8883 109.522 40.3045H109.521Z" fill="#000080" />
  <path d="M115.533 53.562C115.729 53.487 116.029 53.727 115.974 53.937C115.778 54.012 115.484 53.7633 115.534 53.562H115.533ZM117.902 59.3783L117.982 59.2358L118.032 59.1508L118.094 59.3795C118.197 59.7795 118.295 60.182 118.394 60.5858C118.22 60.382 118.059 60.1783 117.884 59.9795L118.13 60.222C118.052 59.9383 117.984 59.657 117.902 59.3783V59.3783Z" fill="#000080" />
  <path d="M86.8205 47.0883C87.4742 46.4533 88.1767 45.867 88.8392 45.2395C89.5355 45.3708 90.2005 45.8033 90.4392 46.4933C90.8505 47.4433 90.2267 48.6433 89.2417 48.9195C88.7505 49.112 88.2392 48.9408 87.7655 48.7933C88.263 48.8133 88.8405 48.6958 89.0617 48.1908C89.5692 47.3783 88.6117 46.2783 87.733 46.6008C87.2005 46.7383 86.9705 47.277 86.848 47.757C86.8355 47.5345 86.793 47.3108 86.8205 47.0883V47.0883ZM81.158 48.917C82.003 48.8158 82.8542 48.667 83.7105 48.7608C84.0105 48.8195 84.1605 49.1395 84.253 49.402C84.4567 50.0145 84.5355 50.6595 84.6905 51.2858C84.738 51.9058 84.8092 52.5495 84.5742 53.1408C83.9492 53.1658 83.3192 53.147 82.7055 53.2758C81.148 53.5708 79.758 54.3683 78.363 55.0783C78.0717 55.2658 77.7467 55.1033 77.6742 54.7808C77.1892 52.7708 78.113 50.547 79.8242 49.4033C80.2367 49.1608 80.7042 49.0508 81.158 48.917V48.917ZM99.2442 56.0858C99.7817 56.0333 100.307 56.292 100.828 56.4083C100.498 56.8795 100.115 57.3783 100.174 57.9883C100.822 58.5358 101.693 58.8095 102.188 59.5258C101.679 59.372 101.205 59.1295 100.719 58.922C100.257 58.7979 99.7854 58.711 99.3092 58.662C98.6867 58.7458 98.0717 58.8695 97.4742 59.0608C96.4117 59.4458 95.4092 59.9708 94.4167 60.507C94.1642 60.6558 93.8667 60.682 93.5867 60.732C94.5317 59.8608 95.7292 59.3483 96.8317 58.7133C96.9441 58.633 97.0414 58.5336 97.1192 58.4195C96.3767 58.487 95.6617 58.712 94.9505 58.9208C94.0967 59.3258 93.363 59.9283 92.648 60.5333C92.4667 60.707 92.228 60.7858 91.998 60.8645C93.558 59.002 95.8005 57.3095 98.3605 57.492C98.668 57.032 98.9192 56.5358 99.2442 56.0858V56.0858ZM105.284 58.3833C105.365 58.1758 105.443 57.9695 105.528 57.7633C106.01 58.017 106.5 58.2595 106.988 58.5045C106.835 59.077 106.595 59.622 106.447 60.1958C107.179 60.4683 107.889 60.8183 108.504 61.3045C107.474 61.2308 106.467 60.892 105.425 60.9795C103.745 61.2233 102.184 61.9383 100.69 62.7133C100.378 62.9058 100.007 62.9183 99.6517 62.9183C100.739 62.0033 102.11 61.557 103.289 60.797C101.519 60.7945 99.9805 61.7845 98.6167 62.8108C98.3876 62.8013 98.1584 62.7926 97.9292 62.7845C99.9192 61.262 102.267 60.0445 104.809 59.872C104.937 59.5208 105.049 59.1633 105.165 58.807C105.203 58.6645 105.243 58.5245 105.284 58.3833V58.3833Z" fill="#FFFF00" />
</svg>
