<?xml version="1.0" encoding="UTF-8"?>
<svg width="208px" height="106px" viewBox="0 0 208 106" version="1.1" xmlns="http://www.w3.org/2000/svg" xmlns:xlink="http://www.w3.org/1999/xlink">
    <title>github1</title>
    <g id="应用集成" stroke="none" stroke-width="1" fill="none" fill-rule="evenodd">
        <g transform="translate(-1091.000000, -1034.000000)" id="编组-17备份">
            <g transform="translate(1091.000000, 1034.000000)">
                <rect id="蒙版" fill-opacity="0" fill="#FFFFFF" x="0" y="0" width="208" height="106" rx="4"></rect>
                <g id="编组-8" transform="translate(34.000000, 31.000000)">
                    <g id="github-fill">
                        <polygon id="路径" points="0 0 44 0 44 44 0 44"></polygon>
                        <path d="M21.4761918,3.14285714 C11.3470259,3.14285714 3.14285714,11.5547437 3.14285714,21.9403691 C3.1385952,30.0334659 8.18984555,37.2197344 15.6791923,39.7754484 C16.5958589,39.9389867 16.9386922,39.3750614 16.9386922,38.8806868 C16.9386922,38.4351858 16.9148588,36.9558216 16.9148588,35.3805901 C12.3095258,36.2509149 11.1178593,34.2301824 10.7511926,33.1718824 C10.544026,32.6305141 9.6511927,30.9631748 8.87202609,30.515794 C8.23035947,30.1642805 7.31369287,29.2939557 8.84819275,29.2713987 C10.2928593,29.246962 11.3231926,30.6342183 11.6678592,31.1981437 C13.3178591,34.0403275 15.9541922,33.2414332 17.0065255,32.7489384 C17.1678588,31.5271002 17.6481921,30.7056489 18.1761921,30.2357111 C14.0970257,29.7657733 9.83452602,28.143548 9.83452602,20.9534997 C9.83452602,18.9083304 10.544026,17.2184341 11.7136925,15.9007285 C11.5303592,15.4307907 10.8886926,13.5040457 11.8970259,10.9193878 C11.8970259,10.9193878 13.4315258,10.426893 16.9386922,12.8480126 C18.4311407,12.4233029 19.9731633,12.2095429 21.5220252,12.2126566 C23.0803584,12.2126566 24.6386916,12.4231888 26.1053582,12.8461328 C29.6106912,10.4024562 31.1470244,10.9212676 31.1470244,10.9212676 C32.1553577,13.5059255 31.5136911,15.4326704 31.3303578,15.9026082 C32.498191,17.2184341 33.2095243,18.8857734 33.2095243,20.9534997 C33.2095243,28.1679848 28.9250246,29.7657733 24.8458582,30.2357111 C25.5095249,30.8221935 26.0833582,31.9500442 26.0833582,33.7132508 C26.0833582,36.2264781 26.0595248,38.2472107 26.0595248,38.8825666 C26.0595248,39.3750614 26.4041915,39.9615438 27.3208581,39.7735686 C34.7829533,37.1903619 39.8073909,30.0157125 39.8095238,21.9403691 C39.8095238,11.5547437 31.6053577,3.14285714 21.4761918,3.14285714 Z" id="路径" fill="#000000" fill-rule="nonzero"></path>
                    </g>
                    <g id="GitHub-2" transform="translate(47.142857, 9.428571)" fill="#100E0F" fill-rule="nonzero">
                        <path d="M17.7363125,10.8190172 L9.98985817,10.8190172 C9.79811425,10.8190172 9.62554473,10.9738616 9.62554473,11.1867726 L9.62554473,14.9998156 C9.62554473,15.1933711 9.77893987,15.367571 9.98985817,15.367571 L13.0002377,15.367571 L13.0002377,20.1096803 C13.0002377,20.1096803 12.329134,20.3419469 10.4500436,20.3419469 C8.24498853,20.3419469 5.15791142,19.5290139 5.15791142,12.6771498 C5.15791142,5.82528578 8.37920925,4.915575 11.3895888,4.915575 C13.9973061,4.915575 15.1285952,5.38010817 15.8380477,5.61237472 C16.0681404,5.68979691 16.2790587,5.45753032 16.2790587,5.2446193 L17.1419063,1.54770959 C17.1419063,1.45093186 17.1035576,1.33479855 17.0076856,1.25737638 C16.7200697,1.06382089 14.9560257,0.0573323857 10.469218,0.0573323857 C5.29213217,0.0573323857 0,2.28322042 0,12.9481275 C0,23.6130346 6.05910783,25.2001895 11.1786705,25.2001895 C15.4162111,25.2001895 17.9855796,23.380768 17.9855796,23.380768 C18.100626,23.3227014 18.100626,23.167857 18.100626,23.1097903 L18.100626,11.1867726 C18.100626,10.9738616 17.9280564,10.8190172 17.7363125,10.8190172 Z M57.6190476,1.33479858 C57.6190476,1.14124309 57.4656525,0.96704314 57.2547342,0.96704314 L52.9021472,0.96704314 C52.7104033,0.96704314 52.5378338,1.12188754 52.5378338,1.33479858 L52.5378338,9.83188424 L45.750099,9.83188424 L45.750099,1.33479858 C45.750099,1.14124309 45.5967039,0.96704314 45.3857856,0.96704314 L41.0331986,0.96704314 C40.8414547,0.96704314 40.6688852,1.12188754 40.6688852,1.33479858 L40.6688852,24.3485454 C40.6688852,24.5421009 40.8222803,24.7163008 41.0331986,24.7163008 L45.3857856,24.7163008 C45.5775295,24.7163008 45.750099,24.5421009 45.750099,24.3485454 L45.750099,14.4965714 L52.5378338,14.4965714 L52.5186594,24.3485454 C52.5186594,24.5421009 52.6720545,24.7163008 52.8829728,24.7163008 L57.2547342,24.7163008 C57.4464781,24.7163008 57.6190476,24.5421009 57.6190476,24.3485454 L57.6190476,1.33479858 L57.6190476,1.33479858 Z" id="形状"></path>
                        <path d="M26.1904762,3.94986187 C26.1904762,2.3736277 25.0105639,1.10495143 23.5624898,1.10495143 C22.1144157,1.10495143 20.952381,2.37362772 20.952381,3.94986187 C20.952381,5.52609604 22.1322932,6.79477232 23.5624898,6.79477232 C25.0105639,6.79477232 26.1904762,5.52609604 26.1904762,3.94986187 Z M25.9044369,18.9817535 L25.9044369,8.4286736 C25.9044369,8.23644992 25.7614172,8.06344859 25.5647652,8.06344859 L21.5065822,8.06344859 C21.3278076,8.06344859 21.149033,8.27489464 21.149033,8.46711832 L21.149033,23.5758994 C21.149033,24.0180139 21.3993174,24.1525705 21.7389891,24.1525705 L25.3859906,24.1525705 C25.7792947,24.1525705 25.8865594,23.9411244 25.8865594,23.5758994 C25.9044369,22.76856 25.9044369,19.5968693 25.9044369,18.9817535 Z" id="形状"></path>
                        <path d="M74.2228797,8.63591715 L69.8991265,8.63591715 C69.7069597,8.63591715 69.5340096,8.80926418 69.5340096,9.001872 L69.5340096,20.2309078 C69.5340096,20.2309078 68.4386588,21.0398607 66.862891,21.0398607 C65.3063398,21.0398607 64.8835728,20.3272117 64.8835728,18.7863492 L64.8835728,9.001872 C64.8835728,8.80926418 64.7298394,8.63591715 64.5184559,8.63591715 L60.117836,8.63591715 C59.9256692,8.63591715 59.7527191,8.80926418 59.7527191,9.001872 L59.7527191,19.5375197 C59.7527191,24.0830642 62.2893209,25.2001895 65.7675402,25.2001895 C68.6308256,25.2001895 70.9368273,23.6208054 70.9368273,23.6208054 C70.9368273,23.6208055 71.0521274,24.4490191 71.0905607,24.545323 C71.1482108,24.6416269 71.2635108,24.7379308 71.4172443,24.7379308 L74.2228797,24.71867 C74.4150465,24.71867 74.5879966,24.545323 74.5879966,24.3527151 L74.5879966,8.98261122 C74.5879966,8.80926418 74.4342632,8.63591715 74.2228797,8.63591715 L74.2228797,8.63591715 Z M86.0795717,8.13513682 C83.6198366,8.13513682 81.9479853,9.23300138 81.9479854,9.23300138 L81.9479854,1.47090631 C81.9479854,1.27829849 81.7942519,1.10495143 81.5828684,1.10495143 L77.2014652,1.10495143 C77.0092984,1.10495143 76.8363483,1.2590377 76.8363483,1.47090631 L76.8363483,24.3719759 C76.8363483,24.5645837 76.9900817,24.7379308 77.2014652,24.7379308 L80.2377008,24.7379308 C80.3722175,24.7379308 80.4875176,24.6608876 80.5451676,24.545323 C80.6220344,24.4297583 80.7373345,23.48598 80.7373345,23.48598 C80.7373345,23.48598 82.5244858,25.1809288 85.9258383,25.1809288 C89.9036912,25.1809288 92.1904762,23.1585467 92.1904762,16.0898397 C92.1712595,9.04039356 88.5393069,8.1351368 86.0795717,8.13513682 L86.0795717,8.13513682 Z M84.3692871,21.0205999 C82.870386,20.9820783 81.8519019,20.2886902 81.8519019,20.2886902 L81.8519019,13.0466362 C81.8519019,13.0466362 82.8511693,12.4302912 84.1002536,12.3147265 C85.6568047,12.179901 87.1557058,12.6421598 87.1557058,16.3787515 C87.1364891,20.307951 86.4639053,21.097643 84.3692871,21.0205999 L84.3692871,21.0205999 Z M38.1531699,8.59739557 L34.8863342,8.59739557 L34.8863342,4.26371967 C34.8863342,4.09037264 34.8094674,4.01332951 34.6173006,4.01332951 L30.1590307,4.01332951 C29.9860806,4.01332951 29.8899972,4.09037264 29.8899972,4.26371967 L29.8899972,8.75148184 C29.8899972,8.75148184 27.6608622,9.29078372 27.5071288,9.3293053 C27.3533953,9.36782686 27.2380952,9.52191312 27.2380952,9.67599936 L27.2380952,12.4880735 C27.2380952,12.6999421 27.3918287,12.8540284 27.6032122,12.8540284 L29.8899972,12.8540284 L29.8899972,19.6338236 C29.8899972,24.6608876 33.4066498,25.161668 35.7895182,25.161668 C36.884869,25.161668 38.1723866,24.8149739 38.3837701,24.7379308 C38.5182868,24.6994092 38.5951536,24.5645837 38.5951536,24.4104975 L38.5951536,21.3095116 C38.5951536,21.1169038 38.4222034,20.9435568 38.2300366,20.9435568 C38.0378698,20.9435568 37.5574528,21.0205999 37.0386024,21.0205999 C35.4244012,21.0205999 34.8863342,20.2694294 34.8863342,19.3063903 L34.8863342,12.8732892 L38.1531699,12.8732892 C38.3453367,12.8732892 38.5182868,12.7192029 38.5182868,12.5073343 L38.5182868,8.96335045 C38.4990702,8.77074263 38.3453367,8.5973956 38.1531699,8.59739557 L38.1531699,8.59739557 Z" id="形状"></path>
                    </g>
                </g>
            </g>
        </g>
    </g>
</svg>