<?xml version="1.0" encoding="UTF-8"?>
<svg width="56px" height="56px" viewBox="0 0 56 56" version="1.1" xmlns="http://www.w3.org/2000/svg" xmlns:xlink="http://www.w3.org/1999/xlink">
    <title>github@1.5x</title>
    <defs>
        <rect id="path-1" x="0" y="0" width="54" height="54" rx="8"></rect>
    </defs>
    <g id="应用" stroke="none" stroke-width="1" fill="none" fill-rule="evenodd">
        <g id="应用市场" transform="translate(-1069.000000, -1426.000000)">
            <g id="编组-6备份-3" transform="translate(1039.000000, 1386.000000)">
                <g id="github" transform="translate(31.000000, 41.000000)">
                    <mask id="mask-2" fill="white">
                        <use xlink:href="#path-1"></use>
                    </mask>
                    <rect stroke="#EAEBEE" x="-0.5" y="-0.5" width="55" height="55" rx="8"></rect>
                    <g mask="url(#mask-2)" fill="#000000" fill-rule="nonzero" id="路径">
                        <g transform="translate(14.000000, 12.000000)">
                            <path d="M12.2503418,29.9840791 C10.739511,29.989263 9.50910087,28.7714295 9.4987793,27.260625 L9.48805664,25.3125 C4.07961914,26.488125 2.93915039,23.0179688 2.93915039,23.0179688 C2.05461914,20.7721875 0.779619141,20.175 0.779619141,20.175 C-0.983818359,18.9675 0.913212891,18.991875 0.913212891,18.991875 C2.86368164,19.1282813 3.89118164,20.9957813 3.89118164,20.9957813 C5.62508789,23.9667188 8.43946289,23.1079688 9.54758789,22.6120313 C9.72196289,21.3557813 10.2263379,20.4979688 10.7822754,20.0114063 C6.46508789,19.5210938 1.92665039,17.8528125 1.92665039,10.4062793 C1.92665039,8.28424805 2.68602539,6.55081055 3.93008789,5.1890918 C3.72852539,4.69831055 3.06290039,2.72206055 4.11758789,0.0454980469 C4.11758789,0.0454980469 5.75071289,-0.476689453 9.46461914,2.03768555 C11.0505981,1.60628572 12.6866419,1.38641278 14.3302441,1.3837793 C15.9806836,1.39081055 17.6447461,1.6059668 19.1986523,2.0381543 C22.9092773,-0.477158203 24.5400293,0.0450292969 24.5400293,0.0450292969 C25.5975293,2.72299805 24.932373,4.6997168 24.7308105,5.18862305 C25.9762793,6.54893555 26.7314355,8.2837793 26.7314355,10.4058105 C26.7314355,17.8720313 22.1831543,19.5154688 17.856123,19.9964355 C18.5526855,20.6001563 19.174248,21.782373 19.174248,23.5964355 C19.174248,26.197998 19.164873,27.2597168 19.164873,27.2597168 C19.154283,28.7696358 17.9256072,29.9871954 16.4156543,29.9840791 L12.2499023,29.9840791 L12.2503418,29.9840791 Z"></path>
                        </g>
                    </g>
                </g>
            </g>
        </g>
    </g>
</svg>