<svg width="208" height="106" viewBox="0 0 208 106" fill="none" xmlns="http://www.w3.org/2000/svg">
<path d="M204 0H4C1.79086 0 0 1.79086 0 4V102C0 104.209 1.79086 106 4 106H204C206.209 106 208 104.209 208 102V4C208 1.79086 206.209 0 204 0Z" fill="white"/>
<path d="M123.266 73.1198C122.819 73.1198 122.399 73.0497 122.006 72.9095C121.619 72.7627 121.283 72.549 120.996 72.2687C120.709 71.9883 120.483 71.6411 120.316 71.2272C120.156 70.8067 120.076 70.3227 120.076 69.7753C120.076 69.2345 120.159 68.7539 120.326 68.3333C120.493 67.906 120.719 67.5455 121.006 67.2518C121.299 66.958 121.639 66.7344 122.026 66.5809C122.413 66.4274 122.823 66.3506 123.256 66.3506C123.73 66.3506 124.136 66.4374 124.476 66.611C124.816 66.7845 125.093 66.9814 125.306 67.2017L124.536 68.143C124.37 67.9961 124.193 67.8727 124.006 67.7725C123.82 67.6724 123.586 67.6224 123.306 67.6224C123.053 67.6224 122.819 67.6724 122.606 67.7725C122.399 67.866 122.219 68.0028 122.066 68.183C121.913 68.3634 121.793 68.5837 121.706 68.844C121.626 69.1044 121.586 69.398 121.586 69.7252C121.586 70.3994 121.736 70.9235 122.036 71.2974C122.343 71.6645 122.803 71.848 123.416 71.848C123.549 71.848 123.68 71.8314 123.806 71.798C123.933 71.7647 124.036 71.7146 124.116 71.6478V70.5263H123.036V69.3247H125.416V72.3287C125.19 72.549 124.89 72.736 124.516 72.8895C124.143 73.043 123.726 73.1198 123.266 73.1198Z" fill="#8C929D"/>
<path d="M126.754 72.9999V66.4709H128.224V72.9999H126.754Z" fill="#8C929D"/>
<path d="M131.13 72.9999V67.7126H129.34V66.4709H134.401V67.7126H132.61V72.9999H131.13Z" fill="#8C929D"/>
<path d="M135.523 72.9999V66.4709H136.993V71.7582H139.573V72.9999H135.523Z" fill="#8C929D"/>
<path d="M142.848 69.6953L142.688 70.2962H144.079L143.928 69.6953C143.835 69.3683 143.745 69.0211 143.658 68.6539C143.572 68.2868 143.485 67.9329 143.398 67.5925H143.358C143.278 67.9396 143.195 68.2968 143.108 68.664C143.028 69.0244 142.942 69.3683 142.848 69.6953ZM140.488 72.9999L142.528 66.4709H144.299L146.339 72.9999H144.779L144.379 71.4477H142.388L141.988 72.9999H140.488Z" fill="#8C929D"/>
<path d="M147.357 72.9999V66.4709H149.587C149.927 66.4709 150.24 66.4976 150.527 66.5511C150.82 66.5978 151.074 66.6846 151.287 66.8114C151.507 66.9383 151.677 67.1052 151.797 67.3121C151.924 67.519 151.987 67.7794 151.987 68.0932C151.987 68.24 151.967 68.3869 151.927 68.5338C151.887 68.6806 151.83 68.8175 151.757 68.9443C151.684 69.0712 151.594 69.1846 151.487 69.2848C151.387 69.3849 151.27 69.4583 151.137 69.5051V69.5452C151.304 69.5852 151.457 69.6486 151.597 69.7354C151.737 69.8155 151.86 69.919 151.967 70.0458C152.074 70.1726 152.157 70.3229 152.217 70.4964C152.277 70.6633 152.307 70.8569 152.307 71.0773C152.307 71.411 152.24 71.6981 152.107 71.9384C151.98 72.1787 151.8 72.379 151.567 72.5393C151.34 72.6928 151.074 72.8096 150.767 72.8897C150.46 72.9632 150.13 72.9999 149.777 72.9999H147.357ZM148.827 69.0845H149.517C149.877 69.0845 150.137 69.0144 150.297 68.8743C150.464 68.734 150.547 68.5471 150.547 68.3135C150.547 68.0598 150.464 67.8796 150.297 67.7727C150.13 67.666 149.874 67.6125 149.527 67.6125H148.827V69.0845ZM148.827 71.8583H149.657C150.464 71.8583 150.867 71.5646 150.867 70.9771C150.867 70.69 150.767 70.4864 150.567 70.3663C150.367 70.2394 150.064 70.176 149.657 70.176H148.827V71.8583Z" fill="#8C929D"/>
<path d="M110.616 63.7693V54.171C110.385 54.5385 110.023 55.1368 109.691 55.4385C109.091 55.9844 108.304 56.4616 107.385 56.4616V54.3078C107.543 54.3078 107.832 54.2176 108.242 53.8452C108.638 53.485 109.044 52.9505 109.413 52.3092C110.169 50.9955 110.616 49.5113 110.616 48.6924H108.308V46.5385H110.616V42.6924H112.769V46.5385H115.077V48.6924H112.769C112.769 50.0352 113.331 51.1699 114.066 51.9768C114.845 52.8323 115.655 53.1539 116 53.1539V55.3078C114.922 55.3078 113.721 54.6598 112.769 53.7333V63.7693H110.616Z" fill="#8C929D"/>
<path fill-rule="evenodd" clip-rule="evenodd" d="M115.078 45.7693H117.231V49.7693C117.231 51.8469 116.922 54.9769 116.199 57.5555C115.836 58.8509 115.389 59.9302 114.878 60.6622C114.364 61.3986 113.912 61.6155 113.539 61.6155V63.7693C114.916 63.7693 115.936 62.9092 116.644 61.8956C117.354 60.8776 117.881 59.5339 118.273 58.1369C118.593 56.9949 118.837 55.7659 119.014 54.5596C119.489 55.6154 120.044 56.6564 120.656 57.631C120.975 58.1385 121.314 58.6339 121.67 59.1092C121.062 59.7189 120.445 60.2426 119.854 60.6532C118.869 61.3387 118.092 61.6155 117.616 61.6155V63.7693C118.755 63.7693 119.978 63.1903 121.084 62.4215C121.746 61.961 122.416 61.3977 123.064 60.7598C123.456 61.1674 123.862 61.5455 124.281 61.8862C125.644 62.994 127.224 63.7693 128.924 63.7693V61.6155C127.892 61.6155 126.78 61.1407 125.64 60.2148C125.259 59.9051 124.884 59.5518 124.518 59.1622C126.531 56.6942 128.231 53.4306 128.231 50.3847V50.077C128.231 49.6522 127.887 49.3078 127.462 49.3078H124.506L126.562 44.6979C126.789 44.1892 126.417 43.6155 125.859 43.6155H115.078V45.7693ZM123.127 57.4516C124.578 55.5817 125.678 53.422 125.989 51.4616H122.373C121.815 51.4616 121.443 50.8879 121.67 50.3791L123.726 45.7693H119.385V47.6155C119.385 49.8818 120.572 53.4516 122.48 56.4845C122.688 56.817 122.904 57.1401 123.127 57.4516Z" fill="#8C929D"/>
<path d="M133.834 49.5217C134.012 50.2508 134.16 51.0635 134.273 51.973C134.255 52.0904 134.179 52.3279 133.953 52.6798C133.706 53.0654 133.344 53.4862 132.921 53.8786C132.498 54.2703 132.043 54.6066 131.627 54.8387C131.184 55.0853 130.893 55.1539 130.77 55.1539V57.3077C131.434 57.3077 132.11 57.0349 132.675 56.7202C133.266 56.3909 133.859 55.9461 134.385 55.4579C134.432 55.4146 134.479 55.3706 134.525 55.3263C134.57 56.3419 134.588 57.2171 134.556 57.9738C134.512 59.0193 134.375 59.7439 134.147 60.2521C133.939 60.7176 133.646 61.0214 133.187 61.2346C132.686 61.4673 131.929 61.6154 130.77 61.6154V63.7693C132.072 63.7693 133.186 63.6096 134.093 63.1885C135.043 62.7478 135.701 62.0516 136.113 61.1326C136.506 60.256 136.66 59.2115 136.708 58.0646C136.756 56.9096 136.7 55.5539 136.614 54.0164C136.475 51.5446 136.133 49.5402 135.615 47.8903C136.693 46.7278 137.661 45.3299 138.163 43.9935L136.146 43.2373C135.862 43.9949 135.343 44.8429 134.703 45.6493C134.07 44.4293 133.3 43.4636 132.416 42.6633L130.97 44.2597C131.782 44.9952 132.522 45.9501 133.115 47.3268C132.676 47.714 132.244 48.036 131.848 48.2724C131.304 48.5972 130.942 48.6923 130.77 48.6923V50.8462C131.52 50.8462 132.288 50.5182 132.952 50.1218C133.245 49.947 133.54 49.745 133.834 49.5217Z" fill="#8C929D"/>
<path d="M144.475 43.5421C147.057 43.2984 149.811 43.0351 150.565 42.9507L150.805 45.0911C150.451 45.1308 149.682 45.2074 148.708 45.302C148.764 46.8739 148.979 50.6352 149.546 54.2226C149.881 56.3378 150.328 58.3226 150.905 59.7519C151.196 60.4702 151.492 60.9786 151.772 61.2901C152.044 61.5921 152.222 61.6162 152.307 61.6155V63.7693C151.402 63.7772 150.696 63.3153 150.17 62.7295C149.652 62.1533 149.243 61.3857 148.909 60.5595C148.238 58.8998 147.761 56.7218 147.419 54.5591C146.852 50.9701 146.625 47.2303 146.56 45.5081C146.024 45.5591 145.473 45.6113 144.929 45.6627C144.976 52.461 144.84 55.8995 143.567 60.4048L145.389 59.7892C145.024 58.8702 144.663 57.9385 144.398 57.2004L146.425 56.4729C146.818 57.5654 147.439 59.1282 147.968 60.4302C148.232 61.0785 148.47 61.6575 148.643 62.0745C148.729 62.2829 148.799 62.4508 148.847 62.5664C148.872 62.6242 148.89 62.6688 148.903 62.6991L148.922 62.7445V62.7447C148.922 62.7447 148.922 62.7447 147.928 63.1611C146.935 63.5775 146.935 63.5775 146.935 63.5775L146.915 63.5301C146.903 63.4992 146.884 63.4538 146.859 63.3954C146.811 63.2784 146.74 63.109 146.653 62.8989C146.529 62.6005 146.372 62.2196 146.196 61.7899L141.68 63.3157C141.078 63.5187 140.504 62.9479 140.703 62.3456L140.897 61.7602C142.625 56.5292 142.825 53.4448 142.776 45.8654C142.205 45.9189 141.68 45.9681 141.231 46.0101C141.039 46.028 140.862 46.0446 140.7 46.0597C140.721 50.1682 140.633 54.2266 140.208 57.349C139.98 59.0248 139.645 60.5212 139.127 61.6285C138.624 62.7038 137.775 63.7497 136.395 63.7618L136.377 61.608C136.478 61.6071 136.783 61.5565 137.175 60.7163C137.554 59.9082 137.855 58.6707 138.074 57.0588C138.509 53.8565 138.578 49.5319 138.54 45.0885L138.538 44.8056C138.534 44.4058 138.837 44.07 139.235 44.0329C140.982 43.8704 142.728 43.707 144.475 43.5421Z" fill="#8C929D"/>
<path d="M96.8789 48.3901L99.3041 55.8669C99.5243 56.5458 99.2865 57.2952 98.7052 57.7184L77.6914 73.0001L96.8789 48.3901Z" fill="#FCA326"/>
<path d="M58.515 48.3901L56.0811 55.8669C55.8608 56.5458 56.0987 57.2952 56.68 57.7184L77.6909 72.9999L58.515 48.3901Z" fill="#FCA326"/>
<path d="M77.6914 73.0001L85.684 48.3901H96.879L77.6914 73.0001Z" fill="#FC6D26"/>
<path d="M77.6915 73.0001L58.5156 48.3901H69.7105L77.6915 73.0001Z" fill="#FC6D26"/>
<path d="M96.8785 48.3901H85.6836L90.4927 33.5687C90.7393 32.8104 91.8139 32.8104 92.0694 33.5687L96.8785 48.3901Z" fill="#E24329"/>
<path d="M58.5156 48.3901H69.7105L64.8925 33.5687C64.646 32.8104 63.5713 32.8104 63.3159 33.5687L58.5156 48.3901Z" fill="#E24329"/>
<path d="M77.6899 73.0001L85.6825 48.3901H69.709L77.6899 73.0001Z" fill="#E24329"/>
</svg>
