<?xml version="1.0" encoding="UTF-8"?>
<svg width="208px" height="106px" viewBox="0 0 208 106" version="1.1" xmlns="http://www.w3.org/2000/svg" xmlns:xlink="http://www.w3.org/1999/xlink">
    <title>google workspace doce</title>
    <g id="应用集成" stroke="none" stroke-width="1" fill="none" fill-rule="evenodd">
        <g transform="translate(-508.000000, -1323.000000)" id="zabbix备份-6">
            <g transform="translate(508.000000, 1323.000000)">
                <rect id="蒙版" fill-opacity="0" fill="#FFFFFF" x="0" y="0" width="208" height="106" rx="4"></rect>
                <g id="编组-2备份" transform="translate(11.000000, 41.000000)" fill-rule="nonzero">
                    <g id="google-2">
                        <path d="M29.7725263,12.0572483 C29.7725263,15.3521014 27.1949553,17.7800237 24.0316898,17.7800237 C20.8684244,17.7800237 18.2908533,15.3521014 18.2908533,12.0572483 C18.2908533,8.73917381 20.8684244,6.33447286 24.0316898,6.33447286 C27.1949552,6.33447286 29.7725263,8.73917381 29.7725263,12.0572483 L29.7725263,12.0572483 Z M27.259459,12.0572483 C27.259459,9.99828759 25.7655515,8.58952504 24.0316898,8.58952504 C22.2978282,8.58952504 20.8039207,9.99828759 20.8039207,12.0572483 C20.8039207,14.0955678 22.2978282,15.5249716 24.0316898,15.5249716 C25.7655515,15.5249716 27.259459,14.0929876 27.259459,12.0572483 Z" id="形状" fill="#EA4335"></path>
                        <path d="M42.1572523,12.0572483 C42.1572523,15.3521014 39.5796812,17.7800237 36.4164158,17.7800237 C33.2531503,17.7800237 30.6755793,15.3521014 30.6755793,12.0572483 C30.6755793,8.74175395 33.2531503,6.33447286 36.4164158,6.33447286 C39.5796812,6.33447286 42.1572523,8.73917381 42.1572523,12.0572483 L42.1572523,12.0572483 Z M39.644185,12.0572483 C39.644185,9.99828759 38.1502774,8.58952504 36.4164158,8.58952504 C34.6825541,8.58952504 33.1886466,9.99828761 33.1886466,12.0572483 C33.1886466,14.0955678 34.6825541,15.5249716 36.4164158,15.5249716 C38.1502774,15.5249716 39.644185,14.0929876 39.644185,12.0572483 Z" id="形状" fill="#FBBC05"></path>
                        <path d="M54.0259479,6.68021311 L54.0259479,16.9543753 C54.0259479,21.180663 51.5335218,22.9067842 48.5869891,22.9067842 C45.8133265,22.9067842 44.1439687,21.0516555 43.5144118,19.5345266 L45.7023801,18.6237332 C46.0919829,19.5551678 47.0466388,20.6543122 48.584409,20.6543122 C50.4704995,20.6543122 51.639308,19.490664 51.639308,17.3001156 L51.639308,16.4770474 L51.5515829,16.4770474 C50.9891099,17.171108 49.9054464,17.7774436 48.5379663,17.7774436 C45.6765785,17.7774436 43.0551449,15.2850175 43.0551449,12.0778895 C43.0551449,8.84754017 45.6765785,6.33447286 48.5379663,6.33447286 C49.9028663,6.33447286 50.9865298,6.94080841 51.5515829,7.61422786 L51.639308,7.61422786 L51.639308,6.68279328 L54.0259479,6.68279328 L54.0259479,6.68021311 Z M51.8173385,12.0778895 C51.8173385,10.0627914 50.4730797,8.58952504 48.7624394,8.58952504 C47.0285778,8.58952504 45.5759527,10.0627914 45.5759527,12.0778895 C45.5759527,14.0723464 47.0285778,15.5249716 48.7624394,15.5249716 C50.4730797,15.5249716 51.8173385,14.0723464 51.8173385,12.0778895 L51.8173385,12.0778895 Z" id="形状" fill="#4285F4"></path>
                        <polygon id="路径" fill="#34A853" points="57.9606786 0.658140131 57.9606786 17.4291231 55.5095349 17.4291231 55.5095349 0.658140131"></polygon>
                        <path d="M67.5123984,13.9407587 L69.4629928,15.2411549 C68.8334359,16.1725895 67.3163069,17.7774436 64.6948733,17.7774436 C61.4438827,17.7774436 59.0159604,15.2643763 59.0159604,12.0546681 C59.0159604,8.65144866 61.4645239,6.3318927 64.4136368,6.3318927 C67.3833909,6.3318927 68.836016,8.69531123 69.3107638,9.97248609 L69.5713591,10.6226842 L61.9212107,13.7911099 C62.506905,14.9392772 63.4176984,15.5249716 64.6948733,15.5249716 C65.9746283,15.5249716 66.8622003,14.8954147 67.5123984,13.9407587 L67.5123984,13.9407587 Z M61.5083865,11.881798 L66.6222463,9.75833353 C66.3410098,9.04363165 65.4947202,8.54566247 64.4987818,8.54566247 C63.2216069,8.54566247 61.4438827,9.67318856 61.5083865,11.881798 L61.5083865,11.881798 Z" id="形状" fill="#EA4335"></path>
                        <path d="M9.01262951,10.568501 L9.01262951,8.14057871 L17.1942891,8.14057871 C17.2742738,8.56372351 17.3155562,9.06427287 17.3155562,9.60610462 C17.3155562,11.4276914 16.817587,13.6801634 15.2127329,15.2850175 C13.6517414,16.9105127 11.6572845,17.7774436 9.01520967,17.7774436 C4.11808264,17.7774436 0.000161270539,13.7885298 0.000161270539,8.89140272 C0.000161270539,3.99427568 4.11808264,0.00536186872 9.01520967,0.00536186872 C11.7243685,0.00536186872 13.6543216,1.06838417 15.1043666,2.45392539 L13.3911462,4.16714581 C12.3513452,3.19184865 10.9425826,2.43328417 9.01262951,2.4332842 C5.4365399,2.4332842 2.63965596,5.31531313 2.63965596,8.89140272 C2.63965596,12.4674923 5.4365399,15.3495213 9.01262951,15.3495213 C11.3321855,15.3495213 12.6532229,14.4180867 13.4995125,13.5717971 C14.1858327,12.8854768 14.6373592,11.9050194 14.8153896,10.5659209 L9.01262951,10.568501 L9.01262951,10.568501 Z" id="路径" fill="#4285F4"></path>
                    </g>
                    <path d="M145.495774,7.67315475 C146.947499,7.67315475 148.18301,8.24359221 149.202307,9.38446714 C150.252491,10.5253421 150.777583,11.9128927 150.777583,13.5471189 C150.777583,15.2121796 150.252491,16.6151474 149.202307,17.7560224 C148.18301,18.8968973 146.947499,19.4673347 145.495774,19.4673347 L145.449443,19.4673347 C144.646361,19.4673347 143.905054,19.2977452 143.225523,18.9585662 C142.545992,18.6193872 142.036344,18.1568703 141.696578,17.5710156 L141.603915,17.5710156 L141.696578,19.0973213 L141.696578,24 L139.611654,24 L139.611654,7.99691655 L141.603915,7.99691655 L141.603915,9.56947389 L141.696578,9.56947389 C142.036344,8.98361919 142.545992,8.52110233 143.225523,8.1819233 C143.905054,7.84274427 144.661804,7.67315475 145.495774,7.67315475 Z M133.76922,7.67632153 C134.412404,7.67632153 135.004426,7.73113835 135.545285,7.84077197 C136.086144,7.9504056 136.564878,8.14043722 136.981486,8.41086683 C137.398093,8.68129644 137.730649,9.04674187 137.979152,9.5072031 C138.227655,9.96766433 138.373833,10.5414136 138.417686,11.228451 L138.417686,11.228451 L136.553915,11.228451 C136.524679,10.8630056 136.429663,10.5596859 136.268867,10.3184919 C136.108071,10.077298 135.903422,9.88361188 135.654919,9.73743371 C135.406416,9.59125555 135.132332,9.48527637 134.832667,9.4194962 C134.533001,9.35371602 134.229682,9.32082593 133.922708,9.32082593 C133.644969,9.32082593 133.363576,9.34275266 133.078529,9.38660611 C132.793481,9.43045956 132.534015,9.5072031 132.30013,9.61683672 C132.066245,9.72647035 131.876213,9.87264852 131.730035,10.0553712 C131.583857,10.2380939 131.510768,10.4756335 131.510768,10.7679898 C131.510768,11.0895818 131.624056,11.3563569 131.850632,11.5683153 C132.077208,11.7802736 132.36591,11.9556874 132.716738,12.0945567 C133.067565,12.2334259 133.462246,12.3503685 133.900781,12.4453843 C134.339315,12.5404001 134.77785,12.6390704 135.216384,12.7413951 C135.684154,12.8437198 136.140961,12.9679712 136.586805,13.1141494 C137.032648,13.2603276 137.427329,13.4540137 137.770848,13.6952076 C138.114367,13.9364016 138.392105,14.2397213 138.604063,14.6051667 C138.816022,14.9706122 138.922001,15.4237645 138.922001,15.9646237 C138.922001,16.6516611 138.779477,17.221756 138.49443,17.6749083 C138.209382,18.1280606 137.836628,18.493506 137.376167,18.7712446 C136.915706,19.0489831 136.396773,19.2426691 135.819369,19.3523028 C135.241965,19.4619364 134.668216,19.5167532 134.098121,19.5167532 C133.469555,19.5167532 132.870225,19.450973 132.30013,19.3194127 C131.730035,19.1878523 131.22572,18.9722395 130.787186,18.6725743 C130.348651,18.372909 129.997824,17.978228 129.734703,17.4885311 C129.471582,16.9988343 129.325404,16.4031582 129.296168,15.701503 L129.296168,15.701503 L131.15994,15.701503 C131.174558,16.1108019 131.269574,16.457975 131.444988,16.7430225 C131.620401,17.0280699 131.850632,17.2546461 132.135679,17.4227509 C132.420727,17.5908558 132.742319,17.7114528 133.100455,17.7845419 C133.458592,17.857631 133.827692,17.8941755 134.207755,17.8941755 C134.500111,17.8941755 134.807085,17.8722488 135.128677,17.8283954 C135.450269,17.7845419 135.74628,17.7041439 136.01671,17.5872014 C136.287139,17.4702589 136.510061,17.2984995 136.685475,17.0719233 C136.860889,16.8453472 136.948596,16.5566453 136.948596,16.2058177 C136.948596,15.7234297 136.765873,15.3579843 136.400427,15.1094814 C136.034982,14.8609785 135.578175,14.6599836 135.030007,14.5064965 C134.481839,14.3530094 133.886163,14.2141401 133.242979,14.0898887 C132.599795,13.9656373 132.004119,13.7902234 131.455951,13.5636473 C130.907783,13.3370711 130.450976,13.0191336 130.085531,12.6098347 C129.720085,12.2005359 129.537362,11.630441 129.537362,10.8995502 C129.537362,10.3294553 129.665268,9.83975843 129.92108,9.43045956 C130.176892,9.02116069 130.505793,8.68860535 130.907783,8.43279356 C131.309773,8.17698176 131.762925,7.98695014 132.26724,7.8626987 C132.771554,7.73844725 133.272215,7.67632153 133.76922,7.67632153 Z M179.132545,7.67632153 C180.141175,7.67632153 180.978045,7.88462542 181.643155,8.3012332 C182.308266,8.71784099 182.841816,9.24773685 183.243806,9.89092079 C183.645796,10.5341047 183.923535,11.2357599 184.077022,11.9958864 C184.230509,12.7560129 184.292635,13.4795948 184.263399,14.1666322 L184.263399,14.1666322 L175.777756,14.1666322 C175.763139,14.663638 175.82161,15.1350626 175.95317,15.580906 C176.084731,16.0267494 176.296689,16.4214305 176.589045,16.7649492 C176.881402,17.1084679 177.254156,17.3825519 177.707308,17.5872014 C178.160461,17.7918508 178.694011,17.8941755 179.307959,17.8941755 C180.097321,17.8941755 180.74416,17.7114528 181.248474,17.3460074 C181.752789,16.980562 182.085344,16.4250849 182.24614,15.6795763 L182.24614,15.6795763 L184.087985,15.6795763 C183.839482,16.9513264 183.291314,17.9087934 182.443481,18.5519773 C181.595648,19.1951612 180.528547,19.5167532 179.242179,19.5167532 C178.335874,19.5167532 177.550167,19.370575 176.885056,19.0782187 C176.219945,18.7858624 175.660814,18.3765635 175.207662,17.8503221 C174.754509,17.3240807 174.414645,16.6955146 174.188069,15.9646237 C173.961493,15.2337329 173.833587,14.4370618 173.804351,13.5746106 C173.804351,12.7121595 173.935912,11.9227973 174.199032,11.2065243 C174.462153,10.4902513 174.831253,9.86899407 175.306332,9.34275266 C175.781411,8.81651125 176.344197,8.40721238 176.99469,8.11485604 C177.645183,7.8224997 178.357801,7.67632153 179.132545,7.67632153 Z M157.254139,7.67632153 C157.765762,7.67632153 158.273731,7.71286607 158.778046,7.78595516 C159.282361,7.85904424 159.739167,8.00887687 160.148466,8.23545303 C160.557765,8.46202919 160.886666,8.77996671 161.135169,9.18926558 C161.383672,9.59856445 161.507923,10.1321148 161.507923,10.7899165 L161.507923,10.7899165 L161.507923,19.5109662 L159.753785,19.5109662 L159.753785,19.5109662 L159.753785,17.7845419 C159.242162,18.3984902 158.646486,18.8406792 157.966757,19.1111088 C157.287029,19.3815384 156.552483,19.5167532 155.763121,19.5167532 C155.251498,19.5167532 154.765455,19.4582819 154.304994,19.3413394 C153.844533,19.2243969 153.446197,19.0416742 153.109988,18.7931713 C152.773778,18.5446684 152.507003,18.219422 152.309662,17.817432 C152.112322,17.415442 152.013651,16.9293996 152.013651,16.3593048 C152.013651,15.7161208 152.123285,15.1898794 152.342552,14.7805805 C152.561819,14.3712817 152.850521,14.0387263 153.208658,13.7829145 C153.566794,13.5271027 153.976093,13.3334167 154.436554,13.2018563 C154.897016,13.070296 155.36844,12.9606623 155.850828,12.8729554 C156.362452,12.7706307 156.848494,12.6938872 157.308955,12.6427248 C157.769417,12.5915625 158.175061,12.5184734 158.525889,12.4234576 C158.876716,12.3284418 159.154455,12.1895725 159.359104,12.0068498 C159.563754,11.8241271 159.666078,11.5573519 159.666078,11.2065243 C159.666078,10.7972254 159.589335,10.4683246 159.435848,10.2198217 C159.282361,9.97131878 159.08502,9.78128716 158.843826,9.64972681 C158.602632,9.51816646 158.332203,9.43045956 158.032537,9.38660611 C157.732872,9.34275266 157.436861,9.32082593 157.144505,9.32082593 C156.355143,9.32082593 155.936987,9.35707289 155.1711,9.7703238 C154.660508,10.0458244 154.380076,10.5515799 154.329802,11.2875903 L154.329802,11.2875903 L152.612016,10.3915018 C152.72089,10.0672571 152.813791,9.83461657 152.89072,9.69358026 C153.153841,9.21119231 153.504669,8.8201657 153.943203,8.52050046 C154.381738,8.22083521 154.882398,8.00522241 155.445184,7.87366206 C156.00797,7.74210171 156.610955,7.67632153 157.254139,7.67632153 Z M104.353264,7.67315475 C106.021204,7.67315475 107.380266,8.22817499 108.43045,9.33821546 C109.511522,10.4482559 110.052058,11.8512237 110.052058,13.5471189 C110.052058,15.2738485 109.511522,16.6922336 108.43045,17.802274 C107.349378,18.9123145 105.990316,19.4673347 104.353264,19.4673347 C102.716212,19.4673347 101.341707,18.9123145 100.229747,17.802274 C99.1486748,16.6922336 98.6081389,15.2738485 98.6081389,13.5471189 C98.6081389,11.8512237 99.1486748,10.4482559 100.229747,9.33821546 C101.310819,8.22817499 102.685325,7.67315475 104.353264,7.67315475 Z M168.568939,7.67315475 C169.711786,7.67315475 170.700195,7.95066487 171.534165,8.5056851 C172.368134,9.06070534 173.001334,9.846984 173.433762,10.8645211 L171.534165,11.6507998 C170.947297,10.2632492 169.912557,9.56947389 168.429944,9.56947389 C167.472423,9.56947389 166.638453,9.95490461 165.928034,10.725766 C165.248503,11.4966275 164.908738,12.4370784 164.908738,13.5471189 C164.908738,14.6571594 165.248503,15.6130276 165.928034,16.4147235 C166.638453,17.1855849 167.472423,17.5710156 168.429944,17.5710156 C169.943444,17.5710156 171.009073,16.8772403 171.626828,15.4896897 L173.526426,16.2759684 C173.093997,17.2935055 172.445354,18.0797842 171.580496,18.6348044 C170.715639,19.1898246 169.711786,19.4673347 168.568939,19.4673347 C166.900999,19.4673347 165.526493,18.9123145 164.445421,17.802274 C163.364349,16.6613991 162.823813,15.2430141 162.823813,13.5471189 C162.823813,11.8512237 163.364349,10.4482559 164.445421,9.33821546 C165.526493,8.22817499 166.900999,7.67315475 168.568939,7.67315475 Z M116.909143,7.67315475 C117.49601,7.67315475 118.005659,7.76565812 118.438087,7.95066487 L117.789444,9.98573906 C117.542342,9.89323569 117.140801,9.846984 116.584821,9.846984 C115.781739,9.846984 115.086764,10.1553286 114.499897,10.7720177 C113.913029,11.3887069 113.619595,12.1287339 113.619595,12.9920987 L113.619595,19.0973213 L111.534671,19.0973213 L111.534671,7.99691655 L113.526932,7.99691655 L113.526932,9.846984 L113.619595,9.846984 C113.83581,9.23029485 114.283682,8.72152631 114.963213,8.32067836 C115.642744,7.91983041 116.291387,7.70398921 116.909143,7.67315475 Z M121.495977,2.90923107 L121.495977,12.8995953 L126.314469,7.99691655 L128.955373,7.99691655 L128.955373,8.08941993 L124.646529,12.3908267 L129.187031,19.0048179 L129.187031,19.0973213 L126.63879,19.0973213 L123.210248,13.8708807 L121.495977,15.5821931 L121.495977,19.0973213 L119.411052,19.0973213 L119.411052,2.90923107 L121.495977,2.90923107 Z M80.7501054,2.18181818 L84.2212578,14.867995 L84.3150727,14.867995 L87.8800401,4.35000113 L89.8501536,4.35000113 L93.4151209,14.867995 L93.5089359,14.867995 L96.7924584,2.18181818 L98.9971093,2.18181818 L94.5878076,18.3278614 L92.4300642,18.3278614 L88.9120043,7.67147287 L88.8181894,7.67147287 L85.253222,18.3278614 L83.0954786,18.3278614 L78.5454545,2.18181818 L80.7501054,2.18181818 Z M159.644152,13.4211236 L159.49505,13.5206709 C159.284553,13.6457994 159.02728,13.7405229 158.723229,13.8048413 C158.343166,13.8852393 157.94483,13.9510194 157.528223,14.0021818 C157.111615,14.0533442 156.691353,14.1118154 156.267436,14.1775956 C155.843519,14.2433758 155.463456,14.3493549 155.127246,14.4955331 C154.791036,14.6417113 154.516952,14.8500152 154.304994,15.1204448 C154.093036,15.3908744 153.987057,15.7599743 153.987057,16.2277444 C153.987057,16.5347186 154.049182,16.7941848 154.173434,17.0061432 C154.297685,17.2181015 154.458481,17.3898609 154.655822,17.5214212 C154.853162,17.6529816 155.083393,17.7479974 155.346514,17.8064686 C155.609634,17.8649399 155.887373,17.8941755 156.179729,17.8941755 C156.793677,17.8941755 157.319919,17.8101231 157.758453,17.6420182 C158.196988,17.4739133 158.555124,17.261955 158.832863,17.0061432 C159.110601,16.7503314 159.315251,16.4725928 159.446811,16.1729276 C159.578371,15.8732624 159.644152,15.5918694 159.644152,15.3287487 L159.644152,15.3287487 L159.644152,13.4211236 Z M104.353264,9.56947389 C103.333968,9.56947389 102.46911,9.93948738 101.758691,10.6795144 C101.048273,11.4195413 100.693063,12.3754095 100.693063,13.5471189 C100.693063,14.7496627 101.048273,15.7209482 101.758691,16.4609751 C102.46911,17.2010021 103.333968,17.5710156 104.353264,17.5710156 C105.372561,17.5710156 106.237418,17.2010021 106.947837,16.4609751 C107.658256,15.7209482 107.998021,14.7496627 107.967133,13.5471189 C107.967133,12.3754095 107.627368,11.4195413 106.947837,10.6795144 C106.237418,9.93948738 105.372561,9.56947389 104.353264,9.56947389 Z M145.125121,9.56947389 C144.105825,9.56947389 143.256411,9.93948738 142.57688,10.6795144 C141.928237,11.4503758 141.603915,12.406244 141.603915,13.5471189 C141.603915,14.7496627 141.928237,15.7209482 142.57688,16.4609751 C143.256411,17.2010021 144.105825,17.5710156 145.125121,17.5710156 C146.144417,17.5710156 146.993831,17.2010021 147.673362,16.4609751 C148.352893,15.7209482 148.692658,14.7496627 148.692658,13.5471189 C148.692658,12.406244 148.352893,11.4503758 147.673362,10.6795144 C146.993831,9.90865292 146.144417,9.53863943 145.125121,9.56947389 Z M179.022912,9.32082593 C178.540524,9.32082593 178.105644,9.40487838 177.718272,9.57298327 C177.330899,9.74108817 176.998344,9.97131878 176.720606,10.2636751 C176.442867,10.5560315 176.2236,10.8958957 176.062804,11.2832679 C175.902008,11.67064 175.806992,12.0835933 175.777756,12.5221278 L175.777756,12.5221278 L182.289994,12.5221278 C182.260758,12.0835933 182.162088,11.6669855 181.993983,11.2723045 C181.825878,10.8776234 181.599302,10.5377592 181.314255,10.2527118 C181.029207,9.96766433 180.692997,9.74108817 180.305625,9.57298327 C179.918253,9.40487838 179.490682,9.32082593 179.022912,9.32082593 Z" id="形状结合" fill="#5F6368"></path>
                </g>
            </g>
        </g>
    </g>
</svg>