<?xml version="1.0" encoding="UTF-8"?>
<svg width="56px" height="56px" viewBox="0 0 56 56" version="1.1" xmlns="http://www.w3.org/2000/svg" xmlns:xlink="http://www.w3.org/1999/xlink">
    <title>google workspace@1.5x</title>
    <defs>
        <rect id="path-1" x="0" y="0" width="54" height="54" rx="8"></rect>
    </defs>
    <g id="应用" stroke="none" stroke-width="1" fill="none" fill-rule="evenodd">
        <g id="应用市场" transform="translate(-678.000000, -1500.000000)">
            <g id="google-workspace" transform="translate(679.000000, 1501.000000)">
                <g id="zabbix备份-2">
                    <mask id="mask-2" fill="white">
                        <use xlink:href="#path-1"></use>
                    </mask>
                    <rect stroke="#EAEBEE" x="-0.5" y="-0.5" width="55" height="55" rx="8"></rect>
                </g>
                <g id="编组-2备份" transform="translate(2.000000, 24.000000)" fill-rule="nonzero">
                    <g id="google-2">
                        <path d="M8.02690661,3.2507287 C8.02690661,4.13904695 7.33197323,4.79363385 6.47913206,4.79363385 C5.6262909,4.79363385 4.93135752,4.13904695 4.93135752,3.2507287 C4.93135752,2.3561498 5.6262909,1.70782357 6.47913206,1.70782357 C7.33197323,1.70782357 8.02690661,2.3561498 8.02690661,3.2507287 L8.02690661,3.2507287 Z M7.34936395,3.2507287 C7.34936395,2.69561675 6.94659476,2.31580332 6.47913206,2.31580332 C6.01166937,2.31580332 5.60890018,2.69561675 5.60890018,3.2507287 C5.60890018,3.80027562 6.01166937,4.1856541 6.47913206,4.1856541 C6.94659476,4.1856541 7.34936395,3.79958 7.34936395,3.2507287 Z" id="形状" fill="#EA4335"></path>
                        <path d="M11.3659259,3.2507287 C11.3659259,4.13904695 10.6709925,4.79363385 9.81815131,4.79363385 C8.96531014,4.79363385 8.27037676,4.13904695 8.27037676,3.2507287 C8.27037676,2.35684543 8.96531014,1.70782357 9.81815131,1.70782357 C10.6709925,1.70782357 11.3659259,2.3561498 11.3659259,3.2507287 L11.3659259,3.2507287 Z M10.6883832,3.2507287 C10.6883832,2.69561675 10.285614,2.31580332 9.81815131,2.31580332 C9.35068861,2.31580332 8.94791942,2.69561676 8.94791942,3.2507287 C8.94791942,3.80027562 9.35068861,4.1856541 9.81815131,4.1856541 C10.285614,4.1856541 10.6883832,3.79958 10.6883832,3.2507287 Z" id="形状" fill="#FBBC05"></path>
                        <path d="M14.5658193,1.80103785 L14.5658193,4.57103256 C14.5658193,5.71047288 13.8938417,6.17584869 13.0994333,6.17584869 C12.3516322,6.17584869 11.9015602,5.67569143 11.7318267,5.26666157 L12.3217201,5.02110453 C12.4267601,5.27222661 12.6841428,5.56856456 13.0987377,5.56856456 C13.6072425,5.56856456 13.9223625,5.25483588 13.9223625,4.66424685 L13.9223625,4.4423412 L13.8987111,4.4423412 C13.7470639,4.6294654 13.4548998,4.79293822 13.0862164,4.79293822 C12.3147638,4.79293822 11.6080048,4.12096059 11.6080048,3.25629374 C11.6080048,2.38536622 12.3147638,1.70782357 13.0862164,1.70782357 C13.4542041,1.70782357 13.7463683,1.87129638 13.8987111,2.05285555 L13.9223625,2.05285555 L13.9223625,1.80173348 L14.5658193,1.80173348 L14.5658193,1.80103785 Z M13.9703609,3.25629374 C13.9703609,2.71300748 13.6079382,2.31580332 13.1467361,2.31580332 C12.6792734,2.31580332 12.2876343,2.71300749 12.2876343,3.25629374 C12.2876343,3.79401496 12.6792734,4.1856541 13.1467361,4.1856541 C13.6079382,4.1856541 13.9703609,3.79401496 13.9703609,3.25629374 L13.9703609,3.25629374 Z" id="形状" fill="#4285F4"></path>
                        <polygon id="路径" fill="#34A853" points="15.6266535 0.177439741 15.6266535 4.6990283 14.965806 4.6990283 14.965806 0.177439741"></polygon>
                        <path d="M18.2018721,3.75853788 L18.7277677,4.1091349 C18.5580342,4.36025698 18.1490043,4.79293822 17.4422452,4.79293822 C16.5657527,4.79293822 15.9111658,4.11539556 15.9111658,3.25003308 C15.9111658,2.33249841 16.5713177,1.70712793 17.3664217,1.70712793 C18.1670907,1.70712793 18.5587298,2.34432411 18.6867255,2.68866047 L18.7569841,2.86395898 L16.6944441,3.7181914 C16.8523518,4.02774631 17.0979089,4.1856541 17.4422452,4.1856541 C17.7872772,4.1856541 18.0265736,4.01592062 18.2018721,3.75853788 L18.2018721,3.75853788 Z M16.5831434,3.20342593 L17.9618801,2.63092326 C17.8860566,2.43823402 17.6578902,2.30397763 17.3893774,2.30397763 C17.0450411,2.30397763 16.5657527,2.6079675 16.5831434,3.20342593 L16.5831434,3.20342593 Z" id="形状" fill="#EA4335"></path>
                        <path d="M2.4298756,2.84935076 L2.4298756,2.19476387 L4.63571519,2.19476387 C4.65727969,2.30884703 4.66840976,2.44379906 4.66840976,2.58988115 C4.66840976,3.08099523 4.53415336,3.68827935 4.10147211,4.12096059 C3.68061656,4.55920687 3.14289534,4.79293822 2.43057124,4.79293822 C1.11026738,4.79293822 4.34798021e-05,3.71749577 4.34798021e-05,2.39719191 C4.34798021e-05,1.07688805 1.11026738,0.00144560186 2.43057124,0.00144560186 C3.16098169,0.00144560186 3.68131219,0.288044752 4.0722557,0.661597531 L3.61035803,1.12349519 C3.33001955,0.860547431 2.95020611,0.656032497 2.4298756,0.656032504 C1.4657338,0.656032504 0.711671951,1.43305011 0.711671951,2.39719191 C0.711671951,3.36133371 1.4657338,4.13835132 2.4298756,4.13835132 C3.05524608,4.13835132 3.41140813,3.88722925 3.63957445,3.65906293 C3.82461177,3.47402561 3.94634684,3.20968659 3.99434525,2.84865514 L2.4298756,2.84935076 L2.4298756,2.84935076 Z" id="路径" fill="#4285F4"></path>
                    </g>
                    <path d="M39.2268019,2.0687427 C39.6181984,2.0687427 39.9513018,2.22253712 40.2261121,2.53012595 C40.50925,2.83771477 40.6508189,3.21180929 40.6508189,3.65240951 C40.6508189,4.10132293 40.50925,4.47957406 40.2261121,4.78716289 C39.9513018,5.09475172 39.6181984,5.24854613 39.2268019,5.24854613 L39.2143105,5.24854613 C38.9977933,5.24854613 38.7979312,5.20282347 38.6147244,5.11137814 C38.4315175,5.01993281 38.2941123,4.89523464 38.2025089,4.73728362 L38.1775261,4.73728362 L38.2025089,5.14878759 L38.2025089,6.47058824 L37.6403969,6.47058824 L37.6403969,2.15603142 L38.1775261,2.15603142 L38.1775261,2.58000521 L38.2025089,2.58000521 C38.2941123,2.42205419 38.4315175,2.29735602 38.6147244,2.20591069 C38.7979312,2.11446537 39.0019571,2.0687427 39.2268019,2.0687427 Z M36.065231,2.06959649 C36.2386384,2.06959649 36.3982521,2.08437553 36.544072,2.11393362 C36.6898919,2.14349171 36.8189622,2.19472572 36.9312829,2.26763567 C37.0436036,2.34054561 37.1332632,2.43907256 37.2002615,2.56321652 C37.2672598,2.68736048 37.3066706,2.8420478 37.3184938,3.02727847 L37.3184938,3.02727847 L36.8160064,3.02727847 C36.8081242,2.92875151 36.7825072,2.84697414 36.7391554,2.78194636 C36.6958035,2.71691857 36.6406284,2.66469928 36.5736301,2.6252885 C36.5066317,2.58587772 36.4327365,2.5573049 36.3519444,2.53957005 C36.2711523,2.5218352 36.189375,2.51296778 36.1066123,2.51296778 C36.0317318,2.51296778 35.9558661,2.51887939 35.8790151,2.53070263 C35.802164,2.54252586 35.7322099,2.56321652 35.6691527,2.59277461 C35.6060954,2.62233269 35.5548614,2.66174347 35.5154506,2.71100695 C35.4760398,2.76027043 35.4563344,2.82431294 35.4563344,2.90313451 C35.4563344,2.98983822 35.4868778,3.0617629 35.5479645,3.11890853 C35.6090512,3.17605416 35.6868875,3.2233471 35.7814734,3.26078734 C35.8760593,3.29822758 35.9824684,3.32975621 36.1007007,3.35537322 C36.218933,3.38099022 36.3371654,3.4075925 36.4553977,3.43518005 C36.5815122,3.46276759 36.7046709,3.49626676 36.8248738,3.53567754 C36.9450767,3.57508832 37.0514858,3.6273076 37.1441011,3.69233539 C37.2367165,3.75736318 37.3115969,3.83914055 37.3687426,3.9376675 C37.4258882,4.03619446 37.454461,4.15836788 37.454461,4.30418777 C37.454461,4.48941843 37.4160355,4.64312048 37.3391845,4.7652939 C37.2623335,4.88746732 37.161836,4.98599427 37.037692,5.06087476 C36.9135481,5.13575524 36.7736398,5.18797453 36.6179672,5.21753261 C36.4622946,5.2470907 36.3076073,5.26186974 36.1539053,5.26186974 C35.9844389,5.26186974 35.8228547,5.24413489 35.6691527,5.20866519 C35.5154506,5.17319548 35.3794834,5.11506458 35.2612511,5.03427248 C35.1430187,4.95348038 35.0484329,4.84707127 34.9774934,4.71504516 C34.906554,4.58301904 34.8671433,4.42242011 34.8592611,4.23324836 L34.8592611,4.23324836 L35.3617486,4.23324836 C35.3656896,4.34359855 35.3913066,4.43719915 35.4385996,4.51405017 C35.4858925,4.5909012 35.5479645,4.65198791 35.6248155,4.6973103 C35.7016665,4.7426327 35.7883703,4.7751466 35.8849267,4.79485199 C35.9814831,4.81455738 36.0809953,4.82441007 36.1834633,4.82441007 C36.2622849,4.82441007 36.3450475,4.81849845 36.4317513,4.80667522 C36.518455,4.79485199 36.5982618,4.77317606 36.6711718,4.74164743 C36.7440817,4.71011881 36.8041831,4.66381114 36.8514761,4.60272443 C36.898769,4.54163772 36.9224155,4.46380143 36.9224155,4.36921555 C36.9224155,4.23915998 36.873152,4.14063302 36.7746251,4.0736347 C36.6760981,4.00663637 36.5529394,3.95244655 36.405149,3.91106523 C36.2573586,3.86968391 36.0967596,3.83224366 35.9233522,3.7987445 C35.7499448,3.76524534 35.5893458,3.7179524 35.4415554,3.65686569 C35.293765,3.59577898 35.1706063,3.51006053 35.0720793,3.39971034 C34.9735524,3.28936016 34.9242889,3.13565811 34.9242889,2.93860421 C34.9242889,2.78490216 34.9587733,2.65287605 35.0277422,2.54252586 C35.0967111,2.43217568 35.1853853,2.34251615 35.293765,2.27354728 C35.4021446,2.20457842 35.524318,2.1533444 35.6602852,2.11984524 C35.7962524,2.08634607 35.9312343,2.06959649 36.065231,2.06959649 Z M48.2955392,2.06959649 C48.5674736,2.06959649 48.7931003,2.12575685 48.9724194,2.23807758 C49.1517384,2.35039831 49.2955878,2.49326239 49.4039674,2.66666982 C49.5123471,2.84007726 49.5872275,3.029249 49.6286089,3.23418507 C49.6699902,3.43912113 49.6867398,3.63420449 49.6788576,3.81943516 L49.6788576,3.81943516 L47.3910618,3.81943516 C47.3871207,3.95343182 47.402885,4.08053158 47.4383547,4.20073447 C47.4738244,4.32093735 47.5309701,4.42734646 47.6097916,4.51996179 C47.6886132,4.61257713 47.7891107,4.68647234 47.9112841,4.74164743 C48.0334575,4.79682253 48.1773069,4.82441007 48.3428321,4.82441007 C48.5556504,4.82441007 48.7300431,4.7751466 48.8660103,4.67661964 C49.0019775,4.57809269 49.091637,4.42833172 49.1349888,4.22733674 L49.1349888,4.22733674 L49.6315647,4.22733674 C49.5645663,4.57021054 49.4167759,4.82835115 49.1881934,5.00175859 C48.9596109,5.17516602 48.6719122,5.26186974 48.3250973,5.26186974 C48.0807505,5.26186974 47.8689175,5.22245896 47.6895985,5.1436374 C47.5102794,5.06481584 47.3595332,4.95446565 47.2373597,4.81258684 C47.1151863,4.67070803 47.0235563,4.50124167 46.9624695,4.30418777 C46.9013828,4.10713386 46.8668984,3.89234511 46.8590162,3.6598215 C46.8590162,3.42729789 46.8944859,3.21447967 46.9654254,3.02136685 C47.0363648,2.82825402 47.135877,2.6607582 47.263962,2.51887939 C47.3920471,2.37700058 47.5437786,2.2666504 47.7191565,2.18782883 C47.8945345,2.10900727 48.0866621,2.06959649 48.2955392,2.06959649 Z M42.3969491,2.06959649 C42.5348869,2.06959649 42.6718393,2.07944919 42.8078065,2.09915458 C42.9437737,2.11885997 43.0669324,2.15925602 43.1772826,2.22034273 C43.2876328,2.28142944 43.376307,2.36714789 43.4433054,2.47749807 C43.5103037,2.58784826 43.5438029,2.73169761 43.5438029,2.90904612 L43.5438029,2.90904612 L43.5438029,5.26030951 L43.0708735,5.26030951 L43.0708735,5.26030951 L43.0708735,4.79485199 C42.9329358,4.96037727 42.7723368,5.07959488 42.5890767,5.15250482 C42.4058166,5.22541477 42.2077774,5.26186974 41.9949592,5.26186974 C41.8570214,5.26186974 41.7259806,5.24610543 41.6018366,5.2145768 C41.4776927,5.18304818 41.3702983,5.1337847 41.2796535,5.06678637 C41.1890087,4.99978805 41.117084,4.91209906 41.0638795,4.80371941 C41.0106749,4.69533976 40.9840726,4.56429892 40.9840726,4.41059687 C40.9840726,4.23718944 41.0136307,4.09531063 41.0727469,3.98496044 C41.1318631,3.87461025 41.2096994,3.78495073 41.3062558,3.71598186 C41.4028122,3.64701299 41.5131624,3.59479371 41.6373063,3.55932401 C41.7614503,3.5238543 41.8885501,3.49429622 42.0186056,3.47064975 C42.1565434,3.4430622 42.2875842,3.42237154 42.4117282,3.40857777 C42.5358721,3.394784 42.6452371,3.37507861 42.7398229,3.3494616 C42.8344088,3.32384459 42.9092893,3.28640435 42.9644644,3.23714087 C43.0196395,3.1878774 43.047227,3.11595272 43.047227,3.02136685 C43.047227,2.91101666 43.0265364,2.82234241 42.985155,2.75534408 C42.9437737,2.68834575 42.8905692,2.63711174 42.8255414,2.60164203 C42.7605136,2.56617233 42.6876036,2.54252586 42.6068115,2.53070263 C42.5260194,2.51887939 42.4462126,2.51296778 42.367391,2.51296778 C42.1545728,2.51296778 42.0418347,2.52274024 41.8353455,2.63415593 C41.697686,2.70843305 41.6220792,2.8447887 41.6085251,3.04322287 L41.6085251,3.04322287 L41.1453964,2.80163038 C41.1747497,2.71421147 41.1997967,2.65148976 41.2205373,2.61346527 C41.2914767,2.48340969 41.3860626,2.37798585 41.5042949,2.29719375 C41.6225273,2.21640165 41.7575092,2.15827075 41.9092407,2.12280105 C42.0609722,2.08733134 42.2235417,2.06959649 42.3969491,2.06959649 Z M28.1344585,2.0687427 C28.5841481,2.0687427 28.9505618,2.21838051 29.2336997,2.51765613 C29.5251652,2.81693174 29.6708979,3.19518287 29.6708979,3.65240951 C29.6708979,4.11794936 29.5251652,4.50035709 29.2336997,4.79963271 C28.9422342,5.09890832 28.5758205,5.24854613 28.1344585,5.24854613 C27.6930965,5.24854613 27.3225189,5.09890832 27.0227259,4.79963271 C26.7312604,4.50035709 26.5855276,4.11794936 26.5855276,3.65240951 C26.5855276,3.19518287 26.7312604,2.81693174 27.0227259,2.51765613 C27.3141913,2.21838051 27.6847689,2.0687427 28.1344585,2.0687427 Z M45.447508,2.0687427 C45.7556286,2.0687427 46.0221113,2.14356161 46.2469561,2.29319942 C46.4718009,2.44283722 46.6425164,2.65482412 46.7591026,2.9291601 L46.2469561,3.141147 C46.088732,2.76705248 45.8097579,2.58000521 45.4100338,2.58000521 C45.1518787,2.58000521 44.9270339,2.68392036 44.7354994,2.89175065 C44.5522926,3.09958094 44.4606891,3.35313389 44.4606891,3.65240951 C44.4606891,3.95168513 44.5522926,4.20939468 44.7354994,4.42553819 C44.9270339,4.63336848 45.1518787,4.73728362 45.4100338,4.73728362 C45.8180855,4.73728362 46.1053872,4.55023636 46.2719389,4.17614184 L46.7840854,4.38812873 C46.6674992,4.66246472 46.4926199,4.87445161 46.2594475,5.02408942 C46.0262751,5.17372723 45.7556286,5.24854613 45.447508,5.24854613 C44.9978184,5.24854613 44.6272408,5.09890832 44.3357754,4.79963271 C44.0443099,4.49204388 43.8985771,4.10963615 43.8985771,3.65240951 C43.8985771,3.19518287 44.0443099,2.81693174 44.3357754,2.51765613 C44.6272408,2.21838051 44.9978184,2.0687427 45.447508,2.0687427 Z M31.5196218,2.0687427 C31.6778459,2.0687427 31.8152511,2.09368234 31.9318373,2.14356161 L31.756958,2.69223357 C31.6903373,2.66729394 31.5820787,2.65482412 31.4321822,2.65482412 C31.215665,2.65482412 31.0282943,2.73795623 30.8700702,2.90422047 C30.7118461,3.0704847 30.632734,3.27000178 30.632734,3.5027717 L30.632734,5.14878759 L30.070622,5.14878759 L30.070622,2.15603142 L30.6077513,2.15603142 L30.6077513,2.65482412 L30.632734,2.65482412 C30.6910271,2.48855989 30.8117771,2.3513919 30.994984,2.24332015 C31.1781908,2.13524839 31.3530701,2.07705591 31.5196218,2.0687427 Z M32.7562682,0.784351513 L32.7562682,3.47783207 L34.0553715,2.15603142 L34.76738,2.15603142 L34.76738,2.18097106 L33.6056819,3.34066407 L34.8298369,5.12384796 L34.8298369,5.14878759 L34.1428111,5.14878759 L33.2184492,3.73969823 L32.7562682,4.20108147 L32.7562682,5.14878759 L32.1941562,5.14878759 L32.1941562,0.784351513 L32.7562682,0.784351513 Z M21.7708617,0.588235294 L22.7067117,4.00852806 L22.7320049,4.00852806 L23.6931481,1.17279442 L24.2243061,1.17279442 L25.1854493,4.00852806 L25.2107425,4.00852806 L26.0960059,0.588235294 L26.6903971,0.588235294 L25.5016148,4.94133518 L24.9198702,4.94133518 L23.9713737,2.06828925 L23.9460805,2.06828925 L22.9849373,4.94133518 L22.4031928,4.94133518 L21.1764706,0.588235294 L21.7708617,0.588235294 Z M43.0413154,3.61844018 L42.9716897,3.66146361 C42.9208936,3.68729957 42.8613395,3.70744286 42.7930275,3.72189348 C42.6905595,3.74356941 42.5831651,3.76130426 42.4708443,3.77509803 C42.3585236,3.78889181 42.2452176,3.80465612 42.1309264,3.82239097 C42.0166351,3.84012582 41.9141671,3.86869864 41.8235223,3.90810942 C41.7328775,3.9475202 41.6589823,4.00368056 41.6018366,4.07659051 C41.544691,4.14950045 41.5161182,4.24901267 41.5161182,4.37512717 C41.5161182,4.45788981 41.5328678,4.52784395 41.5663669,4.58498958 C41.5998661,4.64213521 41.643218,4.68844288 41.6964225,4.72391258 C41.7496271,4.75938228 41.811699,4.78499929 41.8826384,4.8007636 C41.9535779,4.81652792 42.0284583,4.82441007 42.1072799,4.82441007 C42.2728052,4.82441007 42.414684,4.80174887 42.5329163,4.75642648 C42.6511487,4.71110408 42.7477051,4.65395844 42.8225856,4.58498958 C42.8974661,4.51602071 42.9526411,4.44114023 42.9881108,4.36034813 C43.0235806,4.27955603 43.0413154,4.20369027 43.0413154,4.13275087 L43.0413154,4.13275087 L43.0413154,3.61844018 Z M28.1344585,2.58000521 C27.8596482,2.58000521 27.6264758,2.67976375 27.4349413,2.87928083 C27.2434069,3.07879791 27.1476396,3.33650747 27.1476396,3.65240951 C27.1476396,3.97662476 27.2434069,4.23849093 27.4349413,4.438008 C27.6264758,4.63752508 27.8596482,4.73728362 28.1344585,4.73728362 C28.4092688,4.73728362 28.6424412,4.63752508 28.8339756,4.438008 C29.0255101,4.23849093 29.1171135,3.97662476 29.1087859,3.65240951 C29.1087859,3.33650747 29.0171825,3.07879791 28.8339756,2.87928083 C28.6424412,2.67976375 28.4092688,2.58000521 28.1344585,2.58000521 Z M39.1268709,2.58000521 C38.8520605,2.58000521 38.623052,2.67976375 38.4398451,2.87928083 C38.2649658,3.08711112 38.1775261,3.34482068 38.1775261,3.65240951 C38.1775261,3.97662476 38.2649658,4.23849093 38.4398451,4.438008 C38.623052,4.63752508 38.8520605,4.73728362 39.1268709,4.73728362 C39.4016812,4.73728362 39.6306898,4.63752508 39.8138966,4.438008 C39.9971035,4.23849093 40.0887069,3.97662476 40.0887069,3.65240951 C40.0887069,3.34482068 39.9971035,3.08711112 39.8138966,2.87928083 C39.6306898,2.67145054 39.4016812,2.571692 39.1268709,2.58000521 Z M48.2659811,2.51296778 C48.1359255,2.51296778 48.0186785,2.53562898 47.9142399,2.58095137 C47.8098013,2.62627377 47.7201418,2.68834575 47.6452613,2.76716731 C47.5703808,2.84598887 47.5112647,2.93761894 47.4679128,3.04205751 C47.4245609,3.14649608 47.3989439,3.25783153 47.3910618,3.37606388 L47.3910618,3.37606388 L49.1468121,3.37606388 C49.1389299,3.25783153 49.1123276,3.14551081 49.0670052,3.0391017 C49.0216828,2.93269259 48.9605961,2.84106253 48.8837451,2.7642115 C48.8068941,2.68736048 48.7162493,2.62627377 48.6118107,2.58095137 C48.5073722,2.53562898 48.3920956,2.51296778 48.2659811,2.51296778 Z" id="形状结合" fill="#5F6368"></path>
                </g>
            </g>
        </g>
    </g>
</svg>