<?xml version="1.0" encoding="UTF-8"?>
<svg width="208px" height="106px" viewBox="0 0 208 106" version="1.1" xmlns="http://www.w3.org/2000/svg" xmlns:xlink="http://www.w3.org/1999/xlink">
    <title>grafana_logo-web-dark@1x</title>
    <defs>
        <linearGradient x1="50.0009954%" y1="145.772024%" x2="50.0009954%" y2="4.48520511%" id="linearGradient-1">
            <stop stop-color="#FFF100" offset="0%"></stop>
            <stop stop-color="#F05A28" offset="100%"></stop>
        </linearGradient>
        <linearGradient x1="49.9927519%" y1="164.067502%" x2="49.9927519%" y2="-38.5298939%" id="linearGradient-2">
            <stop stop-color="#FFF100" offset="0%"></stop>
            <stop stop-color="#F05A28" offset="100%"></stop>
        </linearGradient>
        <linearGradient x1="49.9997584%" y1="146.722671%" x2="49.9997584%" y2="-0.970474517%" id="linearGradient-3">
            <stop stop-color="#FFF100" offset="0%"></stop>
            <stop stop-color="#F05A28" offset="100%"></stop>
        </linearGradient>
        <linearGradient x1="50.0176211%" y1="164.107065%" x2="50.0176211%" y2="-38.539185%" id="linearGradient-4">
            <stop stop-color="#FFF100" offset="0%"></stop>
            <stop stop-color="#F05A28" offset="100%"></stop>
        </linearGradient>
        <linearGradient x1="49.9586545%" y1="122.467936%" x2="49.9586545%" y2="31.122875%" id="linearGradient-5">
            <stop stop-color="#FFF100" offset="0%"></stop>
            <stop stop-color="#F05A28" offset="100%"></stop>
        </linearGradient>
    </defs>
    <g id="应用集成" stroke="none" stroke-width="1" fill="none" fill-rule="evenodd">
        <g transform="translate(-289.000000, -1932.000000)" id="xinrenxinshi_docs备份-5">
            <g transform="translate(289.000000, 1932.000000)">
                <rect id="矩形备份-8" fill-opacity="0" fill="#FFFFFF" x="0" y="0" width="208" height="106" rx="4"></rect>
                <g id="grafana_logo-web-dark" transform="translate(12.000000, 37.000000)" fill-rule="nonzero">
                    <g id="编组" transform="translate(32.903226, 5.806452)" fill="#0A0A0A">
                        <path d="M18.9322581,10.3645161 C18.7258065,15.5967742 14.6032258,19.6709677 9.47096774,19.6709677 C4.05806452,19.6709677 0.035483871,15.2903226 0.035483871,10.0032258 C0.035483871,4.66774194 4.39354839,0.283870968 9.70322581,0.283870968 C12.1,0.283870968 14.4451613,1.31612903 16.4322581,3.17096774 L14.8870968,5.07741935 C13.3677419,3.76129032 11.5354839,2.86129032 9.70645161,2.86129032 C5.81290323,2.86129032 2.61935484,6.05806452 2.61935484,10 C2.61935484,13.9967742 5.63548387,17.0903226 9.47741935,17.0903226 C12.9322581,17.0903226 15.6387097,14.5645161 16.1806452,11.316129 L8.34516129,11.316129 L8.34516129,9.02258065 L18.9387097,9.02258065 L18.9387097,10.3645161 L18.9322581,10.3645161 Z" id="路径"></path>
                        <path d="M27.9258065,9.10322581 L26.4806452,9.10322581 C24.8870968,9.10322581 23.5935484,10.3967742 23.5935484,11.9903226 L23.5935484,19.516129 L21.016129,19.516129 L21.016129,6.62903226 L23.1290323,6.62903226 L23.1290323,7.71290323 C23.8258065,7.01612903 24.9322581,6.62903226 26.1709677,6.62903226 L28.9548387,6.62903226 L27.9258065,9.10322581 Z" id="路径"></path>
                        <path d="M41.9741935,19.516129 L39.783871,19.516129 L39.783871,17.8935484 C38.0903226,19.5483871 35.416129,20.3419355 32.7096774,19.1548387 C30.7032258,18.2741935 29.2096774,16.4451613 28.8129032,14.2870968 C28.0451613,10.1193548 31.2516129,6.42258065 35.3483871,6.42258065 C37.0741935,6.42258065 38.6225806,7.11935484 39.7548387,8.2516129 L39.7548387,6.62903226 L41.9709677,6.62903226 L41.9709677,19.516129 L41.9741935,19.516129 Z M39.3354839,14 C39.9451613,11.3806452 37.9612903,9 35.3741935,9 C33.1322581,9 31.3258065,10.8290323 31.3258065,13.0483871 C31.3258065,15.5548387 33.5290323,17.4967742 36.0935484,17.0580645 C37.6741935,16.7870968 38.9741935,15.5612903 39.3354839,14 Z" id="形状"></path>
                        <path d="M47.1677419,5.90645161 L47.1677419,6.62903226 L51.2677419,6.62903226 L51.2677419,8.89677419 L47.1677419,8.89677419 L47.1677419,19.516129 L44.616129,19.516129 L44.616129,5.98387097 C44.616129,3.1483871 46.6516129,1.47419355 49.2032258,1.47419355 L52.2967742,1.47419355 L51.2645161,3.89677419 L49.2032258,3.89677419 C48.0709677,3.89677419 47.1677419,4.79677419 47.1677419,5.90645161 Z" id="路径"></path>
                        <path d="M64.9290323,19.516129 L62.7387097,19.516129 L62.7387097,17.8935484 C61.0451613,19.5483871 58.3709677,20.3419355 55.6645161,19.1548387 C53.6580645,18.2741935 52.1645161,16.4451613 51.7677419,14.2870968 C51,10.1193548 54.2064516,6.42258065 58.3032258,6.42258065 C60.0290323,6.42258065 61.5774194,7.11935484 62.7096774,8.2516129 L62.7096774,6.62903226 L64.9258065,6.62903226 L64.9258065,19.516129 L64.9290323,19.516129 Z M62.2935484,14 C62.9032258,11.3806452 60.9193548,9 58.3322581,9 C56.0903226,9 54.283871,10.8290323 54.283871,13.0483871 C54.283871,15.5548387 56.4870968,17.4967742 59.0516129,17.0580645 C60.6322581,16.7870968 61.9290323,15.5612903 62.2935484,14 Z" id="形状"></path>
                        <path d="M78.6967742,11.8870968 L78.6967742,19.516129 L76.1193548,19.516129 L76.1193548,11.8870968 C76.1193548,10.2903226 74.8032258,9 73.2322581,9 C71.6096774,9 70.3193548,10.2903226 70.3193548,11.8870968 L70.3193548,19.516129 L67.7419355,19.516129 L67.7419355,6.62903226 L69.8806452,6.62903226 L69.8806452,7.73870968 C70.8096774,6.91290323 72.0451613,6.42580327 73.3354839,6.42580327 C76.3258065,6.42258065 78.6967742,8.87096774 78.6967742,11.8870968 Z" id="路径"></path>
                        <path d="M93.8548387,19.516129 L91.6645161,19.516129 L91.6645161,17.8935484 C89.9709677,19.5483871 87.2967742,20.3419355 84.5903226,19.1548387 C82.583871,18.2741935 81.0903226,16.4451613 80.6935484,14.2870968 C79.9258065,10.1193548 83.1322581,6.42258065 87.2290323,6.42258065 C88.9548387,6.42258065 90.5032258,7.11935484 91.6354839,8.2516129 L91.6354839,6.62903226 L93.8516129,6.62903226 L93.8516129,19.516129 L93.8548387,19.516129 Z M91.2193548,14 C91.8290323,11.3806452 89.8451613,9 87.2580645,9 C85.016129,9 83.2096774,10.8290323 83.2096774,13.0483871 C83.2096774,15.5548387 85.4129032,17.4967742 87.9774194,17.0580645 C89.5580645,16.7870968 90.8548387,15.5612903 91.2193548,14 Z" id="形状"></path>
                    </g>
                    <g id="编组" transform="translate(134.516129, 6.129032)">
                        <polygon id="路径" fill="url(#linearGradient-1)" points="9.87096774 19.1935484 0.148387097 19.1935484 0.148387097 0.0064516129 2.74193548 0.0064516129 2.74193548 16.5741935 9.87096774 16.5741935 9.87096774 19.1935484"></polygon>
                        <path d="M23.6645161,19.1935484 L21.4612903,19.1935484 L21.4612903,17.5612903 C20.3193548,18.6774194 18.7387097,19.4032258 17.0032258,19.4032258 C13.2967742,19.4032258 10.3129032,16.3967742 10.3129032,12.6870968 C10.3129032,9.03225806 13.2935484,6.02258065 17.0032258,6.02258065 C18.7419355,6.02258065 20.2967742,6.72258065 21.4354839,7.86451613 L21.4354839,6.23225806 L23.6645161,6.23225806 L23.6645161,19.1935484 L23.6645161,19.1935484 Z M21.1225806,12.683871 C21.1225806,10.4548387 19.3064516,8.61290323 17.0258065,8.61290323 C14.7709677,8.61290323 12.9548387,10.4548387 12.9548387,12.683871 C12.9548387,14.9645161 14.7709677,16.7806452 17.0258065,16.7806452 C19.3096774,16.7806452 21.1225806,14.9677419 21.1225806,12.683871 Z" id="形状" fill="url(#linearGradient-2)"></path>
                        <path d="M39.1935484,12.7096774 C39.1935484,16.3903226 36.1870968,19.4 32.5064516,19.4 C30.7677419,19.4 29.1612903,18.6741935 28.0193548,17.5580645 L28.0193548,19.1903226 L25.8419355,19.1903226 L25.8419355,1.04516129 L28.4096774,1.04516129 L28.4096774,7.57741935 C29.4741935,6.61935484 30.9258065,6.02258065 32.5064516,6.02258065 C36.1870968,6.02258065 39.1935484,9.00322581 39.1935484,12.7096774 Z M36.5483871,12.7096774 C36.5483871,10.4548387 34.7064516,8.63870968 32.4774194,8.63870968 C30.2483871,8.63870968 28.4064516,10.4548387 28.4064516,12.7096774 C28.4064516,14.9387097 30.2483871,16.7548387 32.4774194,16.7548387 C34.7064516,16.7548387 36.5483871,14.9419355 36.5483871,12.7096774 Z" id="形状" fill="url(#linearGradient-3)"></path>
                        <path d="M48.0612903,7.16129032 L46.9193548,9.05483871 C46.3741935,8.71935484 45.4419355,8.2 44.4032258,8.2 C43.4193548,8.2 42.5354839,8.69354839 42.5354839,9.49677419 C42.5354839,10.3774194 43.5451613,10.716129 44.816129,11.1806452 C46.8903226,11.9064516 48.7064516,13.3064516 48.7064516,15.4322581 C48.7064516,17.583871 46.8645161,19.4 44.2225806,19.4 C42.616129,19.4 41.0064516,18.7516129 39.9193548,18.0774194 L40.9322581,15.9258065 C41.683871,16.3677419 43.083871,16.9096774 44.1483871,16.9096774 C45.4451613,16.9096774 46.016129,16.1322581 46.016129,15.3806452 C46.016129,14.5 45.2129032,14.0064516 43.4225806,13.3064516 C42.1258065,12.7870968 40.0258065,11.9322581 40.0258065,9.62580645 C40.0258065,7.47419355 41.8677419,6.02258065 44.3290323,6.02258065 C45.7806452,6.02258065 46.9709677,6.51290323 48.0612903,7.16129032 Z" id="路径" fill="url(#linearGradient-4)"></path>
                    </g>
                    <path d="M27.5580645,13.2258065 C27.5129032,12.7225806 27.4258065,12.1419355 27.2580645,11.5 C27.0903226,10.8612903 26.8419355,10.1612903 26.483871,9.43225806 C26.1193548,8.70967742 25.6451613,7.95483871 25.0322581,7.22580645 C24.7935484,6.93870968 24.5322581,6.65806452 24.2483871,6.38064516 C24.6709677,4.70322581 23.7354839,3.2516129 23.7354839,3.2516129 C22.1225806,3.1516129 21.0967742,3.7516129 20.716129,4.02903226 C20.6516129,4.00322581 20.5903226,3.97419355 20.5258065,3.9483871 C20.2516129,3.83548387 19.9677419,3.73225806 19.6774194,3.64193548 C19.3870968,3.5516129 19.0903226,3.46774194 18.7870968,3.39354839 C18.483871,3.32258065 18.1741935,3.26129032 17.8612903,3.21290323 C17.8064516,3.20322581 17.7516129,3.19677419 17.6967742,3.19032258 C16.9935484,0.938709677 14.9709677,0 14.9709677,0 C12.7193548,1.42903226 12.2903226,3.42903226 12.2903226,3.42903226 C12.2903226,3.42903226 12.2806452,3.47419355 12.2677419,3.5483871 C12.1419355,3.58387097 12.0193548,3.61935484 11.8935484,3.65806452 C11.7193548,3.70967742 11.5516129,3.77419355 11.3774194,3.83548387 C11.2064516,3.90322581 11.0354839,3.96774194 10.8645161,4.04193548 C10.5258065,4.18709677 10.1870968,4.3516129 9.85806452,4.53548387 C9.53870968,4.71612903 9.22580645,4.91290323 8.91935484,5.12580645 C8.87419355,5.10645161 8.84193548,5.09032258 8.84193548,5.09032258 C5.72258065,3.9 2.9516129,5.33225806 2.9516129,5.33225806 C2.7,8.6516129 4.19677419,10.7419355 4.49354839,11.1193548 C4.41935484,11.3258065 4.3516129,11.5322581 4.28709677,11.7419355 C4.05483871,12.4935484 3.88387097,13.2645161 3.77741935,14.0645161 C3.76129032,14.1774194 3.7483871,14.2935484 3.73548387,14.4096774 C0.85483871,15.8322581 0,18.7516129 0,18.7516129 C2.40645161,21.5193548 5.20967742,21.6903226 5.20967742,21.6903226 C5.21290323,21.6870968 5.21612903,21.6870968 5.21612903,21.683871 C5.57419355,22.3193548 5.98709677,22.9258065 6.4483871,23.4903226 C6.64193548,23.7258065 6.8483871,23.9548387 7.05806452,24.1741935 C6.18064516,26.6806452 7.18064516,28.7709677 7.18064516,28.7709677 C9.85806452,28.8709677 11.6193548,27.6 11.9870968,27.3064516 C12.2548387,27.3967742 12.5225806,27.4774194 12.7967742,27.5483871 C13.6193548,27.7612903 14.4612903,27.883871 15.3032258,27.9225806 C15.5129032,27.9322581 15.7225806,27.9354839 15.9354839,27.9354839 L16.0387097,27.9354839 L16.1064516,27.9322581 L16.2387097,27.9290323 L16.3709677,27.9225806 L16.3741935,27.9258065 C17.6354839,29.7258065 19.8548387,29.9806452 19.8548387,29.9806452 C21.4322581,28.316129 21.5225806,26.6677419 21.5225806,26.3096774 L21.5225806,26.3096774 C21.5225806,26.3096774 21.5225806,26.2967742 21.5225806,26.2870968 C21.5225806,26.2580645 21.5225806,26.2354839 21.5225806,26.2354839 C21.5225806,26.2354839 21.5225806,26.2354839 21.5225806,26.2354839 C21.5225806,26.2096774 21.5193548,26.1870968 21.5193548,26.1580645 C21.8516129,25.9258065 22.1677419,25.6774194 22.4645161,25.4096774 C23.0967742,24.8387097 23.6483871,24.1870968 24.1064516,23.4870968 C24.1483871,23.4225806 24.1903226,23.3548387 24.2322581,23.2870968 C26.0193548,23.3903226 27.2774194,22.1806452 27.2774194,22.1806452 C26.9806452,20.3193548 25.9193548,19.4129032 25.7,19.2387097 L25.7,19.2387097 C25.7,19.2387097 25.6903226,19.2322581 25.6774194,19.2225806 C25.6645161,19.2129032 25.6580645,19.2064516 25.6580645,19.2064516 C25.6580645,19.2064516 25.6580645,19.2064516 25.6580645,19.2064516 C25.6451613,19.2 25.6322581,19.1903226 25.6193548,19.1806452 C25.6290323,19.0677419 25.6387097,18.9580645 25.6451613,18.8451613 C25.6580645,18.6451613 25.6645161,18.4451613 25.6645161,18.2451613 L25.6645161,18.0967742 L25.6645161,18.0225806 L25.6645161,17.983871 C25.6645161,17.9322581 25.6645161,17.9516129 25.6645161,17.9322581 L25.6580645,17.8064516 L25.6483871,17.6387097 C25.6451613,17.5806452 25.6419355,17.5290323 25.6354839,17.4774194 C25.6322581,17.4258065 25.6258065,17.3741935 25.6193548,17.3225806 L25.6,17.1677419 L25.5774194,17.0129032 C25.5483871,16.8096774 25.5064516,16.6064516 25.4612903,16.4032258 C25.2741935,15.6 24.9612903,14.8387097 24.5483871,14.1548387 C24.1354839,13.4709677 23.6193548,12.8645161 23.0419355,12.3548387 C22.4612903,11.8419355 21.8129032,11.4322581 21.1322581,11.1258065 C20.4516129,10.8193548 19.7354839,10.6225806 19.0225806,10.5322581 C18.6677419,10.4870968 18.3096774,10.4677419 17.9580645,10.4709677 L17.8258065,10.4741935 L17.7935484,10.4741935 C17.783871,10.4741935 17.7451613,10.4741935 17.7483871,10.4741935 L17.6935484,10.4774194 L17.5645161,10.4870968 C17.516129,10.4903226 17.4645161,10.4935484 17.4193548,10.5 C17.2387097,10.516129 17.0580645,10.5419355 16.883871,10.5774194 C16.1774194,10.7096774 15.5096774,10.9645161 14.9193548,11.316129 C14.3322581,11.6677419 13.8193548,12.1096774 13.4032258,12.6064516 C12.9870968,13.1064516 12.6645161,13.6580645 12.4419355,14.2290323 C12.2193548,14.8 12.0967742,15.3903226 12.0612903,15.9645161 C12.0516129,16.1064516 12.0483871,16.2516129 12.0516129,16.3903226 C12.0516129,16.4258065 12.0516129,16.4612903 12.0548387,16.4967742 L12.0580645,16.6129032 C12.0645161,16.6806452 12.0677419,16.7516129 12.0741935,16.8193548 C12.1032258,17.1096774 12.1548387,17.3870968 12.2322581,17.6580645 C12.3870968,18.1935484 12.6354839,18.6806452 12.9451613,19.0935484 C13.2516129,19.5064516 13.6193548,19.8483871 14.0096774,20.116129 C14.4,20.383871 14.816129,20.5741935 15.2290323,20.6935484 C15.6419355,20.816129 16.0516129,20.8677419 16.4387097,20.8677419 C16.4870968,20.8677419 16.5354839,20.8677419 16.583871,20.8645161 C16.6096774,20.8645161 16.6354839,20.8612903 16.6612903,20.8612903 C16.6870968,20.8612903 16.7129032,20.8580645 16.7387097,20.8580645 C16.7806452,20.8548387 16.8193548,20.8483871 16.8612903,20.8451613 C16.8709677,20.8451613 16.883871,20.8419355 16.8967742,20.8419355 L16.9354839,20.8354839 C16.9612903,20.8322581 16.983871,20.8290323 17.0096774,20.8258065 C17.0612903,20.8193548 17.1032258,20.8096774 17.1516129,20.8 C17.1967742,20.7903226 17.2419355,20.783871 17.2870968,20.7709677 C17.3774194,20.7516129 17.4612903,20.7258065 17.5451613,20.6967742 C17.7129032,20.6419355 17.8709677,20.5741935 18.0193548,20.5 C18.1677419,20.4225806 18.3032258,20.3387097 18.4290323,20.2516129 C18.4645161,20.2258065 18.5,20.2 18.5354839,20.1709677 C18.6709677,20.0645161 18.6935484,19.8677419 18.583871,19.7354839 C18.4903226,19.6193548 18.3258065,19.5903226 18.1967742,19.6612903 C18.1645161,19.6774194 18.1322581,19.6967742 18.1,19.7129032 C17.9870968,19.7677419 17.8709677,19.816129 17.7451613,19.8580645 C17.6193548,19.8967742 17.4903226,19.9290323 17.3548387,19.9548387 C17.2870968,19.9645161 17.2193548,19.9741935 17.1483871,19.9806452 C17.1129032,19.983871 17.0774194,19.9870968 17.0451613,19.9870968 C17.0096774,19.9870968 16.9741935,19.9903226 16.9419355,19.9903226 C16.9096774,19.9903226 16.8741935,19.9903226 16.8419355,19.9870968 C16.8,19.983871 16.7580645,19.983871 16.716129,19.9806452 C16.716129,19.9806452 16.6935484,19.9806452 16.7129032,19.9806452 L16.7,19.9806452 L16.6709677,19.9774194 C16.6516129,19.9741935 16.6322581,19.9741935 16.616129,19.9709677 C16.5774194,19.9677419 16.5419355,19.9612903 16.5032258,19.9580645 C16.2,19.916129 15.8935484,19.8290323 15.6,19.6935484 C15.3032258,19.5612903 15.0193548,19.3741935 14.7645161,19.1451613 C14.5096774,18.916129 14.2870968,18.6387097 14.1129032,18.3258065 C13.9387097,18.0129032 13.816129,17.6677419 13.7580645,17.3032258 C13.7290323,17.1225806 13.716129,16.9322581 13.7225806,16.7483871 C13.7258065,16.6967742 13.7258065,16.6483871 13.7290323,16.5967742 C13.7290323,16.6096774 13.7290323,16.5903226 13.7290323,16.5870968 L13.7290323,16.5677419 L13.7322581,16.5290323 C13.7354839,16.5032258 13.7354839,16.4806452 13.7387097,16.4548387 C13.7483871,16.3548387 13.7645161,16.2548387 13.7806452,16.1548387 C13.9193548,15.3612903 14.316129,14.5870968 14.9322581,14 C15.0870968,13.8548387 15.2516129,13.716129 15.4290323,13.5967742 C15.6064516,13.4741935 15.7935484,13.3677419 15.9870968,13.2774194 C16.183871,13.1870968 16.3870968,13.1129032 16.5967742,13.0580645 C16.8064516,13.0032258 17.0225806,12.9645161 17.2387097,12.9451613 C17.3483871,12.9354839 17.4580645,12.9322581 17.5677419,12.9322581 C17.5967742,12.9322581 17.6193548,12.9322581 17.6419355,12.9322581 L17.7322581,12.9354839 L17.7870968,12.9387097 C17.8096774,12.9387097 17.7870968,12.9387097 17.7967742,12.9387097 L17.8193548,12.9387097 L17.9096774,12.9451613 C18.1451613,12.9645161 18.3806452,12.9967742 18.6129032,13.0516129 C19.0774194,13.1548387 19.5290323,13.3258065 19.9516129,13.5580645 C20.7935484,14.0258065 21.5129032,14.7548387 21.9516129,15.6354839 C22.1741935,16.0741935 22.3290323,16.5451613 22.4064516,17.0322581 C22.4258065,17.1548387 22.4387097,17.2774194 22.4483871,17.4 L22.4548387,17.4935484 L22.4580645,17.5870968 C22.4612903,17.6193548 22.4612903,17.6483871 22.4612903,17.6806452 C22.4612903,17.7129032 22.4645161,17.7451613 22.4612903,17.7677419 L22.4612903,17.8483871 L22.4580645,17.9387097 C22.4548387,18 22.4516129,18.0967742 22.4483871,18.1580645 C22.4387097,18.2935484 22.4258065,18.4258065 22.4096774,18.5612903 C22.3935484,18.6935484 22.3709677,18.8258065 22.3483871,18.9580645 C22.3225806,19.0903226 22.2935484,19.2193548 22.2612903,19.3483871 C22.1967742,19.6064516 22.1129032,19.8645161 22.0129032,20.1129032 C21.816129,20.6129032 21.5516129,21.0870968 21.2354839,21.5258065 C20.6,22.4 19.7322581,23.1129032 18.7451613,23.5645161 C18.2516129,23.7870968 17.7290323,23.9516129 17.1967742,24.0387097 C16.9290323,24.083871 16.6580645,24.1096774 16.3870968,24.1193548 L16.3354839,24.1225806 L16.2935484,24.1225806 L16.2064516,24.1225806 L16.0741935,24.1225806 L16.0064516,24.1225806 C16.0419355,24.1225806 16,24.1225806 16.0032258,24.1225806 L15.9774194,24.1225806 C15.8322581,24.1193548 15.6870968,24.1129032 15.5419355,24.1 C14.9612903,24.0580645 14.3903226,23.9548387 13.8354839,23.7935484 C13.2806452,23.6322581 12.7419355,23.416129 12.2322581,23.1451613 C11.2129032,22.6 10.3032258,21.8548387 9.59032258,20.9548387 C9.23225806,20.5064516 8.91935484,20.0258065 8.66129032,19.5193548 C8.40322581,19.0129032 8.2,18.4806452 8.0483871,17.9387097 C7.9,17.3935484 7.80645161,16.8387097 7.77096774,16.2774194 L7.76451613,16.1709677 L7.76129032,16.1451613 L7.76129032,16.1225806 L7.76129032,16.0774194 L7.75806452,15.983871 L7.75806452,15.9612903 L7.75806452,15.9290323 L7.75806452,15.8645161 L7.75483871,15.7354839 L7.75483871,15.7096774 C7.75483871,15.7129032 7.75483871,15.7129032 7.75483871,15.7 L7.75483871,15.6483871 C7.75483871,15.5806452 7.75806452,15.5129032 7.75806452,15.4419355 C7.76774194,15.1645161 7.79032258,14.8806452 7.82903226,14.5967742 C7.86451613,14.3129032 7.91290323,14.0258065 7.97096774,13.7419355 C8.02903226,13.4580645 8.1,13.1774194 8.17741935,12.9032258 C8.33548387,12.3516129 8.53225806,11.816129 8.76774194,11.3096774 C9.23548387,10.2967742 9.8483871,9.40322581 10.5870968,8.68709677 C10.7709677,8.50645161 10.9612903,8.33548387 11.1612903,8.17741935 C11.3580645,8.01935484 11.5645161,7.87096774 11.7774194,7.73225806 C11.9870968,7.59354839 12.2064516,7.46451613 12.4322581,7.3483871 C12.5419355,7.28709677 12.6580645,7.23548387 12.7709677,7.18064516 C12.8290323,7.15483871 12.8870968,7.12903226 12.9451613,7.10322581 C13.0032258,7.07741935 13.0612903,7.0516129 13.1193548,7.02903226 C13.3516129,6.92903226 13.5935484,6.8483871 13.8354839,6.77096774 C13.8967742,6.7516129 13.9580645,6.73548387 14.0193548,6.71612903 C14.0806452,6.69677419 14.1419355,6.68387097 14.2032258,6.66451613 C14.3258065,6.62903226 14.4516129,6.6 14.5741935,6.57096774 C14.6354839,6.55483871 14.7,6.54193548 14.7612903,6.52903226 C14.8225806,6.51612903 14.8870968,6.50322581 14.9483871,6.49032258 C15.0129032,6.47741935 15.0741935,6.46774194 15.1387097,6.45483871 L15.2322581,6.43870968 L15.3258065,6.42580645 C15.3903226,6.41612903 15.4516129,6.40645161 15.516129,6.39677419 C15.5870968,6.38387097 15.6580645,6.38064516 15.7290323,6.36774194 C15.7870968,6.36129032 15.883871,6.3483871 15.9419355,6.34193548 C15.9870968,6.33870968 16.0322581,6.33225806 16.0774194,6.32903226 L16.1677419,6.31935484 L16.2129032,6.31612903 L16.2645161,6.31290323 C16.3354839,6.30967742 16.4064516,6.30322581 16.4806452,6.3 L16.5870968,6.29354839 C16.5870968,6.29354839 16.6258065,6.29354839 16.5935484,6.29354839 L16.616129,6.29354839 L16.6612903,6.29032258 C16.7225806,6.28709677 16.783871,6.28387097 16.8451613,6.28064516 C17.0870968,6.27419355 17.3290323,6.27419355 17.5709677,6.28064516 C18.0516129,6.3 18.5225806,6.3516129 18.9806452,6.43870968 C19.8967742,6.60967742 20.7580645,6.90322581 21.5387097,7.29032258 C22.3193548,7.67096774 23.0193548,8.14193548 23.6258065,8.6516129 C23.6645161,8.68387097 23.7,8.71612903 23.7387097,8.7483871 C23.7741935,8.78064516 23.8129032,8.81290323 23.8483871,8.84516129 C23.9225806,8.90967742 23.9935484,8.97741935 24.0645161,9.04193548 C24.1354839,9.10645161 24.2032258,9.17419355 24.2709677,9.24193548 C24.3387097,9.30967742 24.4064516,9.37741935 24.4677419,9.44516129 C24.7258065,9.71935484 24.9645161,9.99354839 25.1774194,10.2709677 C25.6096774,10.8258065 25.9548387,11.3870968 26.2290323,11.916129 C26.2451613,11.9483871 26.2645161,11.9806452 26.2806452,12.016129 C26.2967742,12.0483871 26.3129032,12.0806452 26.3290323,12.116129 C26.3612903,12.1806452 26.3935484,12.2451613 26.4225806,12.3096774 C26.4516129,12.3741935 26.483871,12.4387097 26.5096774,12.5 C26.5387097,12.5645161 26.5645161,12.6258065 26.5903226,12.6870968 C26.6935484,12.9354839 26.7870968,13.1709677 26.8612903,13.3935484 C26.9870968,13.7516129 27.0806452,14.0774194 27.1516129,14.3612903 C27.1806452,14.4741935 27.2870968,14.5483871 27.4032258,14.5387097 C27.5225806,14.5290323 27.616129,14.4290323 27.6193548,14.3096774 C27.6,13.9870968 27.5935484,13.6322581 27.5580645,13.2258065 Z" id="路径" fill="url(#linearGradient-5)"></path>
                </g>
            </g>
        </g>
    </g>
</svg>