<?xml version="1.0" encoding="UTF-8"?>
<svg width="208px" height="106px" viewBox="0 0 208 106" version="1.1" xmlns="http://www.w3.org/2000/svg" xmlns:xlink="http://www.w3.org/1999/xlink">
    <title>huaweiyun</title>
    <g id="文档首页" stroke="none" stroke-width="1" fill="none" fill-rule="evenodd">
        <g id="应用集成" transform="translate(-616.000000, -679.000000)">
            <g id="编组-10" transform="translate(616.000000, 679.000000)">
                <rect id="矩形备份-8" fill-opacity="0" fill="#FFFFFF" x="0" y="0" width="208" height="106" rx="4"></rect>
                <g id="编组-26" transform="translate(46.000000, 35.000000)" fill-rule="nonzero">
                    <g id="huaweiyun">
                        <path d="M52.7770406,20.6052632 L61.293626,20.6052632 L61.293626,18.6513158 L63.3652764,18.6513158 L63.3652764,20.6052632 L72.1136423,20.6052632 L72.1136423,22.7763158 L63.3652764,22.7763158 L63.3652764,28.2039474 L61.293626,28.2039474 L61.293626,22.7763158 L52.7770406,22.7763158 L52.7770406,20.6052632 L52.7770406,20.6052632 Z M64.9769593,18.6513158 C63.5970569,18.6513158 62.677122,18 62.677122,16.4802632 L62.677122,15.1776316 C61.7553902,15.6118421 60.8336585,15.8289474 59.9137236,16.2631579 L58.7638049,14.5263158 C60.373691,13.875 61.5254065,13.4407895 62.6753252,13.006579 L62.6753252,8.0131579 L64.7469756,8.0131579 L64.7469756,12.1381579 C66.818626,11.0526316 68.6602927,9.96710525 69.8120081,8.66447368 L71.1919106,10.1842105 C69.3502439,11.7039474 67.0486098,13.2236842 64.5169919,14.3092105 L64.5169919,16.0460526 C64.5169919,16.4802632 64.7469756,16.6973684 65.2069431,16.6973684 L68.2003252,16.6973684 C68.6249335,16.6898225 69.0327699,16.5358231 69.3502439,16.2631579 C69.5820244,16.0460527 69.8120081,15.1776316 70.0419919,13.875 L72.1136423,14.5263158 C71.8836585,16.4802632 71.4218943,17.5657895 70.9637236,18 C70.5019594,18.4342105 69.8120081,18.6513158 68.6602927,18.6513158 L64.9769593,18.6513158 Z M55.540439,13.875 C54.6187073,14.5263158 53.9287561,15.1776315 53.0070244,15.6118421 L52.3170732,13.4407895 C55.0786748,11.9210526 57.1503252,9.96710529 58.3020407,7.57894737 L60.1437073,8.4473684 C59.4537561,9.74999997 58.7620081,10.8355263 57.6102927,11.9210526 L57.6102927,19.3026316 L55.540439,19.3026316 L55.540439,13.875 L55.540439,13.875 Z M77.868626,8.23026315 C79.0185447,9.53289472 80.1684634,10.618421 80.8602114,11.7039474 L79.2503252,12.7894737 C78.560374,11.7039474 77.4086586,10.618421 76.2587398,9.31578947 L77.8704228,8.23026315 L77.868626,8.23026315 Z M85.6952602,17.5657895 C87.0751626,19.3026316 88.4568618,20.6052632 89.146813,21.9078947 L87.3051463,23.2105263 C86.3072769,21.5881175 85.1515206,20.0614608 83.8535935,18.6513158 L85.6952602,17.5657895 L85.6952602,17.5657895 Z M82.4718943,7.79605262 L84.5435447,7.79605262 L84.5435447,13.006579 L93.5200976,13.006579 C93.5200976,19.5197368 93.2901138,23.6447369 92.6001626,25.381579 C91.9102114,27.1184211 90.9884797,27.9868421 89.3767968,27.9868421 C88.2268781,27.9868421 87.3051464,27.9868421 86.3852114,27.7697368 L85.9252439,25.8157895 C86.9901595,25.9816751 88.0683873,26.0543381 89.146813,26.0328947 C90.0685447,26.0328947 90.758496,24.7302632 90.9884797,22.5592105 C91.2184634,19.9539473 91.2184634,17.5657895 91.2184634,15.1776316 L84.0835772,15.1776316 C83.621813,18 83.1618455,20.1710526 82.2419106,22.125 C80.8602114,24.7302632 78.788561,26.6842105 75.7969756,28.2039474 L74.6452602,26.25 C77.6386423,24.7302631 79.7102927,22.7763158 80.6302277,20.6052632 C81.3201789,19.0855263 81.7801463,17.3486842 82.0119268,15.1776316 L75.3334147,15.1776316 L75.3334147,13.006579 L82.2401138,13.006579 L82.2401138,7.79605262 L82.4700976,7.79605262 L82.4718943,7.79605262 Z M99.0450976,8.88157893 L114.92835,8.88157893 L114.92835,10.8355263 L99.0450976,10.8355263 L99.0450976,8.88157893 L99.0450976,8.88157893 Z M96.9734472,14.9605263 L117,14.9605263 L117,17.1315789 L106.411764,17.1315789 C104.570098,21.0394737 102.728431,23.6447368 101.346732,25.381579 C105.030065,25.1644737 108.483415,24.7302632 112.166748,24.2960526 C111.475,22.9934211 110.555065,21.6907895 109.863317,20.3881579 L111.475,19.3026316 C113.54665,22.125 114.92835,24.7302631 116.080065,27.1184211 L114.238398,28.4210526 C113.776634,27.3355263 113.316667,26.6842105 113.08848,26.25 C108.713398,26.9013158 103.880146,27.3355263 98.5851301,27.7697368 L98.1251626,25.5986842 C98.3551464,25.5986842 98.5851301,25.381579 98.5851301,25.381579 C99.9668293,24.2960526 101.806699,21.6907895 103.880146,17.3486842 L96.7434634,17.3486842 L96.9734472,14.9605263 L96.9734472,14.9605263 Z" id="形状" fill="#56606F"></path>
                        <path d="M20.6334212,0 C18.1646865,0 15.9187489,1.13759107 14.3447958,2.95737679 C11.8760611,6.37194997 13.6728112,11.1509124 15.0203738,13.881491 C16.3679364,16.6120695 22.4301713,26.3967927 22.6565618,26.6235909 C22.8793588,26.8503891 23.1057493,26.8503891 23.1057493,26.6235909 C23.1057493,26.3967927 23.7777339,12.0617053 23.3285463,8.64713207 C22.7015581,5.6867987 21.7992444,2.79178465 20.6334212,0 L20.6334212,0 Z M7.38418586,6.59874816 C6.93499833,6.59874816 3.79068566,10.0115214 3.34149812,12.9706981 C2.89231059,15.9280749 4.46446694,18.205057 8.05796714,20.7070374 C11.8760611,23.437616 20.6352179,28.2165784 20.8580149,27.9897802 C21.0826087,27.5343837 17.4909052,21.1624338 14.3465925,16.3834713 C11.2022798,11.6045089 7.83337339,6.59874816 7.38418586,6.59874816 Z M8.50715468,35.7261194 C11.2022798,36.8637105 15.4695613,34.1331319 16.5925302,33.4509373 L19.7368429,31.1739552 L4.46446694,31.6293516 C5.36284201,33.2223391 6.71040458,34.5885284 8.50715468,35.7261194 Z M8.95634221,23.2108177 C6.26121704,21.8446285 0.648169726,18.6586535 0.421779205,18.6586535 C0.198982192,18.6586535 -0.699392876,22.7554213 1.09735722,25.714598 C2.89410733,28.6719748 6.26121704,29.5809677 7.83517013,29.8095659 C9.63192023,30.0363641 19.9596399,30.0363641 19.9596399,29.8095659 C19.7350461,29.5809677 11.6514674,24.575207 8.95634221,23.2108177 Z M34.109047,2.95737679 C32.5368906,1.13939104 30.290953,7.28306304e-14 27.8204216,7.28306304e-14 C26.6974528,2.73057856 25.7990777,5.46115712 25.3498902,8.42033388 C24.9007027,11.8331071 25.574484,26.3967927 25.574484,26.3967927 C25.574484,26.6235909 25.7990777,26.6235909 26.0236715,26.3967927 C26.2482652,26.1681945 32.5368906,16.1548731 33.6598595,13.6528928 C34.7828283,11.1509124 36.5777816,6.37194997 34.109047,2.95737679 L34.109047,2.95737679 Z M48.2566573,18.6586535 C48.0320636,18.6586535 42.4172195,21.8446285 39.7220943,23.2108177 C37.0269691,24.575207 28.9415937,29.5827677 28.7187967,29.8095659 C28.7187967,30.0363641 39.0501098,30.0363641 40.8468599,29.8095659 C42.4172194,29.5809677 45.7861259,28.6719748 47.582876,25.7127981 C49.1550324,22.7554213 48.2566573,18.6586535 48.2566573,18.6586535 Z M31.8631093,33.4509373 C32.9860781,34.1331319 37.2533597,36.8637105 39.9484848,35.7261194 C41.7452349,34.8153266 43.0927975,33.2241391 43.9893758,31.4025534 L28.7169999,30.947157 L31.8613126,33.4491373 L31.8631093,33.4509373 Z M45.1123447,12.9706981 C44.8877509,10.0115214 41.5188445,6.59874816 41.0696569,6.59874816 C40.6204693,6.59874816 36.8023754,11.6045089 33.8826565,16.3834713 C30.9647343,21.1624338 27.3712341,27.5343837 27.5958278,27.9897802 C27.8204216,28.4433766 36.5795784,23.4376159 40.3958756,20.7070374 C43.9893758,18.205057 45.3369384,16.1566731 45.1123447,12.9706981 Z" id="形状" fill="#EA020A"></path>
                    </g>
                </g>
            </g>
        </g>
    </g>
</svg>