<svg width="208" height="106" viewBox="0 0 208 106" fill="none" xmlns="http://www.w3.org/2000/svg">
<path d="M204 0H4C1.79086 0 0 1.79086 0 4V102C0 104.209 1.79086 106 4 106H204C206.209 106 208 104.209 208 102V4C208 1.79086 206.209 0 204 0Z" fill="white"/>
<path fill-rule="evenodd" clip-rule="evenodd" d="M44.4059 38.8722L60.2344 29V34.9993C60.2344 38.9568 58.1914 42.6352 54.8285 44.7327L39 54.6049V48.6056C39 44.6481 41.043 40.9697 44.4059 38.8722Z" fill="#262626"/>
<path fill-rule="evenodd" clip-rule="evenodd" d="M52.4706 60.1714L44.8255 56.01C42.9156 54.9704 40.5228 55.6727 39.481 57.5786C39.1654 58.156 39 58.8033 39 59.461C39 63.5431 41.2344 67.2992 44.8255 69.2539L58.4648 76.6781V70.2479C58.4648 66.0476 56.1658 62.1827 52.4706 60.1714Z" fill="#262626"/>
<path fill-rule="evenodd" clip-rule="evenodd" d="M66.2286 60.1714L73.8737 56.01C75.7836 54.9704 78.1765 55.6727 79.2182 57.5786C79.5338 58.156 79.6992 58.8033 79.6992 59.461C79.6992 63.5431 77.4648 67.2992 73.8737 69.2539L60.2344 76.6781V70.2479C60.2344 66.0476 62.5335 62.1827 66.2286 60.1714Z" fill="#262626"/>
<path fill-rule="evenodd" clip-rule="evenodd" d="M69.1079 35.0878L76.6279 40.144C78.5803 41.4568 79.7509 43.6525 79.7509 46.0019V54.6049L72.2309 49.5486C70.2785 48.2358 69.1079 46.0402 69.1079 43.6908V35.0878Z" fill="#FFDB41"/>
<mask id="mask0_420_5348" style="mask-type:alpha" maskUnits="userSpaceOnUse" x="98" y="36" width="71" height="34">
<path d="M168.745 36.6312H98.647V69.3361H168.745V36.6312Z" fill="white"/>
</mask>
<g mask="url(#mask0_420_5348)">
<path fill-rule="evenodd" clip-rule="evenodd" d="M100.832 39.3673H131.42V40.3666C131.42 41.5708 130.442 42.547 129.235 42.547H98.647V41.5476C98.647 40.3435 99.6252 39.3673 100.832 39.3673Z" fill="#262626"/>
<path fill-rule="evenodd" clip-rule="evenodd" d="M101.749 54.5998H99.2935L103.436 47.7278C103.831 47.0723 104.542 46.6714 105.308 46.6714H124.304C125.07 46.6714 125.781 47.0723 126.176 47.7278L130.319 54.5998H127.867C127.104 54.5998 126.396 54.2024 126 53.5514L123.748 49.851H105.866L103.617 53.5502C103.221 54.2019 102.513 54.5998 101.749 54.5998Z" fill="#262626"/>
<path fill-rule="evenodd" clip-rule="evenodd" d="M100.832 58.4816H131.42V58.9358C131.42 60.441 130.197 61.6612 128.689 61.6612H98.647V60.6619C98.647 59.4577 99.6252 58.4816 100.832 58.4816Z" fill="#262626"/>
<path fill-rule="evenodd" clip-rule="evenodd" d="M138.157 54.8113H168.745V55.8107C168.745 57.0148 167.767 57.991 166.56 57.991H135.972V56.9917C135.972 55.7875 136.95 54.8113 138.157 54.8113Z" fill="#262626"/>
<path fill-rule="evenodd" clip-rule="evenodd" d="M108.078 52.5765H122.808V53.5758C122.808 54.78 121.83 55.7561 120.623 55.7561H105.894V54.7568C105.894 53.5526 106.872 52.5765 108.078 52.5765Z" fill="#262626"/>
<path fill-rule="evenodd" clip-rule="evenodd" d="M101.833 69.3469V66.8563C101.833 66.4078 101.972 65.9703 102.23 65.6033L106.385 59.6987L109.144 61.2885L105.512 66.167H123.743L124.357 65.1926C124.756 64.5575 125.455 64.1721 126.207 64.1721H128.689L126.142 68.308C125.745 68.9535 125.04 69.3469 124.281 69.3469H101.833Z" fill="#262626"/>
<path fill-rule="evenodd" clip-rule="evenodd" d="M124.137 36.6312V45.0254H120.951V36.6312H124.137Z" fill="#262626"/>
<path fill-rule="evenodd" clip-rule="evenodd" d="M108.661 36.6312V45.0254H105.475V36.6312H108.661Z" fill="#262626"/>
<path fill-rule="evenodd" clip-rule="evenodd" d="M138.157 36.6419H151.903V37.6412C151.903 38.8454 150.925 39.8216 149.718 39.8216H135.972V38.8222C135.972 37.6181 136.95 36.6419 138.157 36.6419Z" fill="#262626"/>
<path fill-rule="evenodd" clip-rule="evenodd" d="M166.924 36.6419C167.93 36.6419 168.745 37.4554 168.745 38.4588V40.7409C168.745 41.8973 168.285 43.0064 167.465 43.8241L158.716 52.5562C158.375 52.897 157.912 53.0885 157.429 53.0885H153.638L164.916 41.8659C165.328 41.4569 165.559 40.9013 165.559 40.322V39.8216H152.813V36.6419H166.924Z" fill="#262626"/>
<path fill-rule="evenodd" clip-rule="evenodd" d="M149.138 60.7428L141.157 68.7081C140.747 69.1171 140.191 69.3469 139.612 69.3469L135.972 69.3469L143.993 61.3652C144.405 60.9557 144.963 60.7267 145.545 60.7289L149.138 60.7428Z" fill="#262626"/>
<path fill-rule="evenodd" clip-rule="evenodd" d="M144.806 58.9235L141.128 62.5948C140.718 63.0038 140.162 63.2336 139.582 63.2336L135.942 63.2336L139.633 59.5612C140.042 59.1539 140.597 58.9251 141.175 58.9249L144.806 58.9235Z" fill="#262626"/>
<path fill-rule="evenodd" clip-rule="evenodd" d="M168.596 60.7245L164.277 65.0346L161.946 62.8322L163.423 61.3622C163.832 60.9549 164.387 60.7261 164.965 60.7259L168.596 60.7245Z" fill="#262626"/>
<path fill-rule="evenodd" clip-rule="evenodd" d="M157.779 41.525L167.427 52.9974L164.262 52.9974C163.615 52.9974 163.002 52.7115 162.587 52.2167L152.973 40.7579L156.097 40.7463C156.746 40.7439 157.362 41.0292 157.779 41.525Z" fill="#262626"/>
<path fill-rule="evenodd" clip-rule="evenodd" d="M160.665 59.739L168.745 69.3469L165.58 69.3469C164.934 69.3469 164.32 69.061 163.905 68.5662L155.834 58.9466L159.001 58.9602C159.643 58.963 160.252 59.2478 160.665 59.739Z" fill="#262626"/>
<path d="M149.628 40.73H138.248V43.9097H149.628V40.73Z" fill="#262626"/>
<path d="M149.628 44.8181H138.248V47.9978H149.628V44.8181Z" fill="#262626"/>
<path fill-rule="evenodd" clip-rule="evenodd" d="M138.703 48.9062H151.903V49.9056C151.903 51.1097 150.925 52.0859 149.718 52.0859H135.972V51.6317C135.972 50.1265 137.194 48.9062 138.703 48.9062Z" fill="#262626"/>
<path d="M141.434 38.4589H138.248V52.0859H141.434V38.4589Z" fill="#262626"/>
<path d="M149.627 38.4589H146.441V52.9944H149.627V38.4589Z" fill="#262626"/>
<path fill-rule="evenodd" clip-rule="evenodd" d="M150.993 56.6283H154.179V67.1666C154.179 68.3707 153.201 69.3469 151.994 69.3469H150.993V56.6283Z" fill="#262626"/>
</g>
</svg>
