<?xml version="1.0" encoding="UTF-8"?>
<svg width="56px" height="56px" viewBox="0 0 56 56" version="1.1" xmlns="http://www.w3.org/2000/svg" xmlns:xlink="http://www.w3.org/1999/xlink">
    <title>jfrog</title>
    <defs>
        <rect id="path-1" x="0" y="0" width="54" height="54" rx="8"></rect>
    </defs>
    <g id="应用" stroke="none" stroke-width="1" fill="none" fill-rule="evenodd">
        <g id="应用市场" transform="translate(-797.000000, -1773.000000)">
            <g id="jfrog" transform="translate(798.000000, 1774.000000)">
                <mask id="mask-2" fill="white">
                    <use xlink:href="#path-1"></use>
                </mask>
                <rect stroke="#EAEBEE" x="-0.5" y="-0.5" width="55" height="55" rx="8"></rect>
                <g id="Jfrog-Logo" mask="url(#mask-2)" fill="#41BF47" fill-rule="nonzero">
                    <g transform="translate(11.000000, 12.000000)" id="形状">
                        <path d="M14.1373134,20.2156716 L12.4497512,20.6773632 C12.5930348,21.1072139 12.720398,21.8554726 12.720398,22.8902985 L12.720398,27.9211443 L14.6149254,27.9211443 L14.6149254,22.5878109 C14.9651741,22.1579602 15.3472637,21.950995 15.761194,21.950995 C15.9681592,21.950995 16.1273632,21.9987562 16.3024876,22.0942786 L16.8119403,20.3589552 C16.5253731,20.231592 16.3820896,20.1997512 16.1114428,20.1997512 C15.9044776,20.1997512 15.6656716,20.2475124 15.4905473,20.311194 C15.1402985,20.4863184 14.6945274,20.8843284 14.4238806,21.2664179 C14.4079602,20.8524876 14.3124378,20.5181592 14.1373134,20.2156716 L14.1373134,20.2156716 Z M7.64179104,17.7161692 L7.43482587,17.7161692 L7.43482587,27.9052239 L9.39303483,27.9052239 L9.39303483,23.3997512 L11.8606965,23.3997512 L11.8606965,21.7121891 L9.39303483,21.7121891 L9.39303483,19.3718905 L12.481592,19.3718905 L12.5930348,18.4803483 C10.7462687,18.3529851 9.05870647,18.0664179 7.64179104,17.7161692 Z M3.05671642,29.2584577 L3.9641791,30.309204 C4.839801,29.9589552 5.93830846,29.1629353 6.22487562,27.9052239 C6.32039801,27.4912935 6.35223881,27.2365672 6.35223881,25.8992537 L6.35223881,17.7161692 L4.39402985,17.7161692 L4.39402985,26.1062189 C4.39402985,27.2047264 4.34626866,27.6186567 4.20298507,28.0007463 C4.0119403,28.4465174 3.56616915,28.9400498 3.05671642,29.2584577 Z M20.8716418,24.1002488 C20.8716418,25.8833333 20.521393,26.6475124 19.7094527,26.6475124 C19.3432836,26.6475124 18.9293532,26.4405473 18.7542289,26.0266169 C18.6109453,25.6445274 18.5154229,25.0077114 18.5154229,24.1320896 C18.5154229,23.3838308 18.5950249,22.8584577 18.7064677,22.4445274 C18.8497512,21.9828358 19.2159204,21.6803483 19.6776119,21.6803483 C20.0119403,21.6803483 20.3144279,21.8236318 20.4895522,22.0783582 C20.7442786,22.428607 20.8716418,23.0972637 20.8716418,24.1002488 L20.8716418,24.1002488 Z M22.0179104,27.029602 C22.638806,26.2972637 22.9094527,25.4057214 22.9094527,24.1161692 C22.9094527,22.9062189 22.6547264,22.0624378 22.0975124,21.3619403 C21.4766169,20.5977612 20.6965174,20.231592 19.6616915,20.231592 C17.7353234,20.231592 16.4457711,21.791791 16.4457711,24.1639303 C16.4457711,26.5360697 17.719403,28.0485075 19.6616915,28.0485075 C20.760199,28.0803483 21.4766169,27.6664179 22.0179104,27.029602 L22.0179104,27.029602 Z M27.3830846,22.8106965 C27.3830846,23.4952736 26.9691542,23.8773632 26.2368159,23.8773632 C25.5840796,23.8773632 25.1383085,23.5748756 25.1383085,22.8106965 C25.1383085,22.110199 25.5522388,21.6962687 26.2527363,21.6962687 C26.9532338,21.6962687 27.3830846,22.110199 27.3830846,22.8106965 Z M30.6945274,21.2027363 L29.9144279,19.9609453 C29.4686567,20.3748756 28.9432836,20.5977612 28.4338308,20.5977612 C28.1950249,20.5977612 28.0676617,20.5659204 27.558209,20.4385572 C27.0487562,20.2952736 26.6825871,20.2475124 26.2686567,20.2475124 C24.4378109,20.2475124 23.2597015,21.2345771 23.2597015,22.7947761 C23.2597015,23.909204 23.7532338,24.6097015 24.7880597,24.8803483 C24.358209,24.9758706 23.9124378,25.1987562 23.7054726,25.4534826 C23.5621891,25.628607 23.4825871,25.8674129 23.4825871,26.1380597 C23.4825871,26.3768657 23.5462687,26.5838308 23.6258706,26.7589552 C23.721393,26.9181592 23.8646766,27.0455224 24.039801,27.1251244 C24.3741294,27.2524876 24.9154229,27.34801 25.759204,27.3639303 C26.2049751,27.3639303 26.4597015,27.3798507 26.5552239,27.3798507 C27.0646766,27.4116915 27.3353234,27.4912935 27.5422886,27.6027363 C27.7333333,27.7141791 27.8766169,27.9848259 27.8766169,28.271393 C27.8766169,28.5579602 27.7014925,28.8604478 27.4308458,29.0355721 C27.1761194,29.2106965 26.7781095,29.2902985 26.2527363,29.2902985 C25.3930348,29.2902985 24.8995025,28.9718905 24.8995025,28.3669154 C24.8995025,28.0962687 24.9313433,28.0485075 24.9950249,27.8893035 L23.2756219,27.8893035 C23.1960199,28.0325871 23.1164179,28.2395522 23.1164179,28.6534826 C23.1164179,29.1629353 23.3074627,29.6087065 23.7054726,29.990796 C24.3422886,30.6276119 25.4089552,30.8027363 26.4119403,30.8027363 C27.5263682,30.8027363 28.6089552,30.5320896 29.2298507,29.831592 C29.6278607,29.3858209 29.8029851,28.908209 29.8029851,28.2873134 C29.8029851,27.6186567 29.6119403,27.109204 29.1820896,26.6793532 C28.6885572,26.2017413 28.1154229,26.0266169 27.0169154,26.0106965 L26.0139303,25.9947761 C25.8228856,25.9947761 25.7114428,25.9151741 25.7114428,25.8196517 C25.7114428,25.6126866 25.9820896,25.4375622 26.4597015,25.1987562 C26.6029851,25.2146766 26.6507463,25.2146766 26.7303483,25.2146766 C28.2587065,25.2146766 29.3572139,24.2753731 29.3572139,22.9699005 C29.3572139,22.4763682 29.2139303,22.0942786 28.9273632,21.7440299 C29.1661692,21.7758706 29.2298507,21.791791 29.4049751,21.791791 C29.8985075,21.7599502 30.2965174,21.6007463 30.6945274,21.2027363 L30.6945274,21.2027363 Z M7.14825871,8.86442786 C4.8079602,9.43756219 3.2159204,10.5679104 3.2159204,11.8415423 C3.2159204,12.6534826 3.83681592,13.3699005 4.839801,13.9430348 C4.53731343,13.4654229 4.37810945,12.9400498 4.37810945,12.4146766 C4.37810945,11.0932836 5.41293532,9.85149254 7.14825871,8.86442786 Z M31.840796,13.911194 C31.840796,13.0674129 31.3154229,12.2873134 30.439801,11.6504975 C30.519403,11.9211443 30.5671642,12.1758706 30.5671642,12.4465174 C30.5671642,14.8664179 27.1920398,16.9360697 22.3840796,17.7957711 C22.9253731,17.8594527 23.4825871,17.8912935 24.0716418,17.8912935 C28.3542289,17.8753731 31.840796,16.0922886 31.840796,13.911194 Z M29.0706468,12.6057214 C29.0706468,11.7141791 28.3064677,10.8863184 27.000995,10.2176617 C27.3034826,10.5838308 27.4626866,10.9818408 27.4626866,11.3957711 C27.4626866,13.5450249 22.8935323,15.2803483 17.2577114,15.2803483 C11.6218905,15.2803483 7.05273632,13.5450249 7.05273632,11.3957711 C7.05273632,11.1251244 7.13233831,10.8544776 7.27562189,10.5997512 C6.3681592,11.2047264 5.85870647,11.8893035 5.85870647,12.6216418 C5.85870647,14.9460199 11.0487562,16.8405473 17.4646766,16.8405473 C23.880597,16.8405473 29.0706468,14.9141791 29.0706468,12.6057214 L29.0706468,12.6057214 Z M24.0079602,12.4783582 C21.6358209,14.0067164 14.3442786,14.5798507 11.2238806,12.6216418 C8.7721393,11.0932836 9.6159204,8.65746269 2.57910448,3.29228856 C1.65572139,2.59179104 2.75422886,1.84353234 3.43880597,2.32114428 C4.12338308,2.79875622 3.50248756,2.9261194 4.88756219,4.31119403 C7.68955224,7.11318408 7.67363184,4.5818408 8.10348259,5.55298507 C9.04278607,7.55895522 11.080597,9.58084577 11.080597,9.58084577 C13.1502488,10.9340796 14.7900498,11.2206468 17.8308458,9.15099502 C19.7572139,7.84552239 18.9771144,11.2206468 23.7054726,8.78482587 C25.4248756,7.89328358 25.361194,8.49825871 27.1124378,6.04651741 C27.8447761,5.04353234 29.2298507,6.82661692 27.6537313,7.06542289 C27.0169154,7.16094527 25.9502488,7.86144279 25.5044776,8.94402985 C24.8517413,10.5838308 25.1223881,11.7778607 24.0079602,12.4783582 L24.0079602,12.4783582 Z M10.8736318,8.35497512 C10.2845771,8.08432836 9.67960199,7.09726368 9.44079602,6.69925373 C10.0935323,6.06243781 9.83880597,4.97985075 9.45671642,4.40671642 C9.09054726,3.81766169 8.64477612,3.97686567 8.15124378,3.43557214 C7.65771144,2.89427861 8.34228856,1.49328358 8.96318408,2.57587065 C11.3353234,6.63557214 12.879602,4.94800995 14.7900498,4.69328358 C16.6368159,4.45447761 18.2766169,5.47338308 18.7701493,2.62363184 C18.8656716,2.1619403 19.3114428,2.05049751 19.359204,2.81467662 C19.4069652,3.59477612 19.6935323,5.45746269 20.7124378,5.69626866 C21.7154229,5.95099502 22.5432836,5.45746269 22.7820896,5.20273632 C23.0208955,4.93208955 23.1482587,4.96393035 23.2437811,5.64850746 C23.3393035,6.30124378 23.6099502,7.22462687 25.0268657,6.20572139 C27.9402985,4.13606965 27.0965174,3.32412935 28.2427861,2.78283582 C28.879602,2.48034826 29.9144279,3.46741294 28.4338308,4.21567164 C26.3323383,5.28233831 26.1094527,6.60373134 24.7721393,7.43159204 C22.5273632,8.83258706 23.2278607,7.49527363 19.6298507,6.9858209 C18.2447761,6.79477612 17.799005,8.33905473 16.7164179,7.89328358 C14.2328358,6.85845771 12.4975124,7.04950249 10.8736318,8.35497512 Z M18.6746269,0.856467662 C18.7701493,1.47736318 18.8656716,1.46144279 19.0885572,1.49328358 C19.3114428,1.55696517 19.5820896,1.20671642 19.5820896,0.87238806 C19.59801,0.538059701 19.438806,0.331094527 19.120398,0.347014925 C18.7701493,0.362935323 18.6587065,0.538059701 18.6746269,0.856467662 Z M29.5004975,1.95497512 C29.7711443,2.20970149 30.4716418,2.05049751 30.6308458,1.85945274 C31.0606965,1.39776119 31.0766169,1.11119403 30.8537313,0.79278607 C30.6308458,0.490298507 30.1850746,0.522139303 29.7233831,0.87238806 C29.2616915,1.19079602 29.3572139,1.81169154 29.5004975,1.95497512 Z M29.3094527,5.05945274 C29.0865672,5.3460199 29.0706468,5.56890547 29.2298507,5.72810945 C29.4049751,5.90323383 29.7552239,6.04651741 30.0099502,5.85547264 C30.2646766,5.64850746 30.2646766,5.3619403 30.0577114,5.10721393 C29.8348259,4.85248756 29.5482587,4.85248756 29.3094527,5.05945274 Z M7.10049751,1.39776119 C7.43482587,1.49328358 7.59402985,1.82761194 7.88059701,1.46144279 C8.0238806,1.28631841 8.039801,1.03159204 7.84875622,0.776865672 C7.73731343,0.617661692 7.1800995,0.506218905 6.94129353,0.729104478 C6.70248756,0.95199005 6.92537313,1.3340796 7.10049751,1.39776119 Z M0.23880597,1.19079602 C0.859701493,1.57288557 1.24179104,2.1460199 1.71940299,1.63656716 C1.87860697,1.46144279 2.06965174,1.15895522 1.73532338,0.538059701 C1.48059701,0.0922885572 0.684577114,-0.0987562189 0.39800995,0.0922885572 C0.111442786,0.235572139 -0.23880597,0.904228856 0.23880597,1.19079602 Z M5.90646766,4.10422886 C6.09751244,4.31119403 6.4318408,4.29527363 6.63880597,4.18383085 C6.82985075,4.07238806 6.79800995,3.7539801 6.60696517,3.49925373 C6.49552239,3.34004975 6.14527363,3.24452736 5.90646766,3.49925373 C5.66766169,3.7539801 5.76318408,3.96094527 5.90646766,4.10422886 Z"></path>
                    </g>
                </g>
            </g>
        </g>
    </g>
</svg>