<?xml version="1.0" encoding="UTF-8"?>
<svg width="208px" height="106px" viewBox="0 0 208 106" version="1.1" xmlns="http://www.w3.org/2000/svg" xmlns:xlink="http://www.w3.org/1999/xlink">
    <title>jfrog_docs</title>
    <g id="应用集成" stroke="none" stroke-width="1" fill="none" fill-rule="evenodd">
        <g transform="translate(-850.000000, -1307.000000)" id="zabbix备份-9">
            <g transform="translate(850.000000, 1307.000000)">
                <rect id="蒙版" fill-opacity="0" fill="#FFFFFF" x="0" y="0" width="208" height="106" rx="4"></rect>
                <g id="Jfrog-Logo" transform="translate(75.000000, 25.000000)" fill="#41BF47" fill-rule="nonzero">
                    <path d="M25.6329897,36.6539304 L22.5731959,37.4910438 C22.8329897,38.2704253 23.0639175,39.6271263 23.0639175,41.5034149 L23.0639175,50.6250644 L26.4989691,50.6250644 L26.4989691,40.9549613 C27.1340206,40.1755799 27.8268041,39.8003222 28.5773196,39.8003222 C28.9525773,39.8003222 29.2412371,39.8869201 29.5587629,40.060116 L30.4824742,36.9137242 C29.9628866,36.6827964 29.7030928,36.6250644 29.2123711,36.6250644 C28.8371134,36.6250644 28.4041237,36.7116624 28.0865979,36.8271263 C27.4515464,37.1446521 26.643299,37.8663015 26.1525773,38.5590851 C26.1237113,37.8085696 25.9505155,37.202384 25.6329897,36.6539304 L25.6329897,36.6539304 Z M13.8556701,32.1219716 L13.4804124,32.1219716 L13.4804124,50.5961985 L17.0309278,50.5961985 L17.0309278,42.4271263 L21.5051546,42.4271263 L21.5051546,39.3673325 L17.0309278,39.3673325 L17.0309278,35.1240335 L22.6309278,35.1240335 L22.8329897,33.5075387 C19.4845361,33.2766108 16.4247423,32.7570232 13.8556701,32.1219716 Z M5.54226804,53.0498067 L7.18762887,54.9549613 C8.77525773,54.3199098 10.7670103,52.8766108 11.2865979,50.5961985 C11.4597938,49.845683 11.5175258,49.3838273 11.5175258,46.9590851 L11.5175258,32.1219716 L7.96701031,32.1219716 L7.96701031,47.3343428 C7.96701031,49.3260954 7.88041237,50.0766108 7.62061856,50.7693943 C7.2742268,51.5776418 6.46597938,52.4724871 5.54226804,53.0498067 Z M37.843299,43.6972294 C37.843299,46.9302191 37.2082474,48.3157861 35.7360825,48.3157861 C35.0721649,48.3157861 34.3216495,47.9405284 34.0041237,47.1900129 C33.7443299,46.4972294 33.571134,45.3425902 33.571134,43.7549613 C33.571134,42.3982603 33.7154639,41.445683 33.9175258,40.6951675 C34.1773196,39.8580541 34.8412371,39.3096005 35.6783505,39.3096005 C36.2845361,39.3096005 36.8329897,39.5693943 37.1505155,40.03125 C37.6123711,40.6663015 37.843299,41.8786727 37.843299,43.6972294 L37.843299,43.6972294 Z M39.9216495,49.0085696 C41.0474227,47.6807345 41.5381443,46.0642397 41.5381443,43.7260954 C41.5381443,41.5322809 41.0762887,40.002384 40.0659794,38.7322809 C38.9402062,37.3467139 37.5257732,36.6827964 35.6494845,36.6827964 C32.156701,36.6827964 29.8185567,39.5116624 29.8185567,43.8126933 C29.8185567,48.1137242 32.1278351,50.8559923 35.6494845,50.8559923 C37.6412371,50.9137242 38.9402062,50.1632088 39.9216495,49.0085696 L39.9216495,49.0085696 Z M49.6494845,41.3590851 C49.6494845,42.6003222 48.8989691,43.2931057 47.571134,43.2931057 C46.3876289,43.2931057 45.5793814,42.7446521 45.5793814,41.3590851 C45.5793814,40.088982 46.3298969,39.3384665 47.6,39.3384665 C48.8701031,39.3384665 49.6494845,40.088982 49.6494845,41.3590851 Z M55.6536082,38.4436211 L54.2391753,36.1920747 C53.4309278,36.9425902 52.4783505,37.3467139 51.5546392,37.3467139 C51.1216495,37.3467139 50.8907216,37.288982 49.9670103,37.0580541 C49.043299,36.7982603 48.3793814,36.7116624 47.628866,36.7116624 C44.3092784,36.7116624 42.1731959,38.5013531 42.1731959,41.3302191 C42.1731959,43.3508376 43.0680412,44.6209407 44.9443299,45.1116624 C44.1649485,45.2848582 43.356701,45.688982 42.9814433,46.1508376 C42.7216495,46.4683634 42.5773196,46.9013531 42.5773196,47.3920747 C42.5773196,47.8250644 42.6927835,48.2003222 42.8371134,48.5178479 C43.0103093,48.8065077 43.2701031,49.0374356 43.5876289,49.1817655 C44.1938144,49.4126933 45.1752577,49.5858892 46.7051546,49.6147552 C47.5134021,49.6147552 47.9752577,49.6436211 48.1484536,49.6436211 C49.0721649,49.7013531 49.5628866,49.845683 49.9381443,50.0477448 C50.2845361,50.2498067 50.5443299,50.7405284 50.5443299,51.260116 C50.5443299,51.7797036 50.2268041,52.3281572 49.7360825,52.645683 C49.2742268,52.9632088 48.5525773,53.1075387 47.6,53.1075387 C46.0412371,53.1075387 45.1463918,52.5302191 45.1463918,51.4333119 C45.1463918,50.9425902 45.2041237,50.8559923 45.3195876,50.5673325 L42.2020619,50.5673325 C42.057732,50.8271263 41.9134021,51.202384 41.9134021,51.9528995 C41.9134021,52.8766108 42.2597938,53.6848582 42.9814433,54.3776418 C44.1360825,55.5322809 46.0701031,55.8498067 47.8886598,55.8498067 C49.9092784,55.8498067 51.8721649,55.3590851 52.9979381,54.088982 C53.7195876,53.2807345 54.0371134,52.4147552 54.0371134,51.288982 C54.0371134,50.0766108 53.6907216,49.1528995 52.9113402,48.373518 C52.0164948,47.5075387 50.9773196,47.1900129 48.985567,47.1611469 L47.1670103,47.1322809 C46.8206186,47.1322809 46.6185567,46.987951 46.6185567,46.8147552 C46.6185567,46.4394974 47.1092784,46.1219716 47.9752577,45.688982 C48.2350515,45.7178479 48.3216495,45.7178479 48.4659794,45.7178479 C51.2371134,45.7178479 53.228866,44.0147552 53.228866,41.6477448 C53.228866,40.7528995 52.9690722,40.060116 52.4494845,39.4250644 C52.8824742,39.4827964 52.9979381,39.5116624 53.3154639,39.5116624 C54.2103093,39.4539304 54.9319588,39.1652706 55.6536082,38.4436211 L55.6536082,38.4436211 Z M12.9608247,16.0724871 C8.71752577,17.1116624 5.83092784,19.1611469 5.83092784,21.4704253 C5.83092784,22.9425902 6.95670103,24.2415593 8.77525773,25.2807345 C8.22680412,24.4147552 7.93814433,23.4621778 7.93814433,22.5096005 C7.93814433,20.1137242 9.81443299,17.8621778 12.9608247,16.0724871 Z M57.7319588,25.2230026 C57.7319588,23.6931057 56.7793814,22.2786727 55.1917526,21.1240335 C55.3360825,21.6147552 55.4226804,22.0766108 55.4226804,22.5673325 C55.4226804,26.9549613 49.3030928,30.7075387 40.585567,32.2663015 C41.5670103,32.3817655 42.5773196,32.4394974 43.6453608,32.4394974 C51.4103093,32.4106314 57.7319588,29.1776418 57.7319588,25.2230026 Z M52.7092784,22.8559923 C52.7092784,21.2394974 51.3237113,19.7384665 48.956701,18.5260954 C49.5051546,19.1900129 49.7938144,19.9116624 49.7938144,20.6621778 C49.7938144,24.5590851 41.5092784,27.7054768 31.2907216,27.7054768 C21.0721649,27.7054768 12.7876289,24.5590851 12.7876289,20.6621778 C12.7876289,20.1714562 12.9319588,19.6807345 13.1917526,19.2188789 C11.5463918,20.3157861 10.6226804,21.5570232 10.6226804,22.8848582 C10.6226804,27.0992912 20.0329897,30.5343428 31.6659794,30.5343428 C43.2989691,30.5343428 52.7092784,27.0415593 52.7092784,22.8559923 L52.7092784,22.8559923 Z M43.5298969,22.6250644 C39.228866,25.3961985 26.0082474,26.4353737 20.3505155,22.8848582 C15.9051546,20.1137242 17.4350515,15.6972294 4.67628866,5.96939433 C3.00206186,4.69929124 4.99381443,3.34259021 6.23505155,4.20856959 C7.47628866,5.07454897 6.35051546,5.3054768 8.86185567,7.81681701 C13.942268,12.8972294 13.9134021,8.30753866 14.6927835,10.0683634 C16.3958763,13.7054768 20.0907216,17.3714562 20.0907216,17.3714562 C23.843299,19.8250644 26.8164948,20.3446521 32.3298969,16.5920747 C35.8226804,14.2250644 34.4082474,20.3446521 42.9814433,15.9281572 C46.0989691,14.3116624 45.9835052,15.4085696 49.1587629,10.9632088 C50.4865979,9.14465206 52.9979381,12.3776418 50.1402062,12.8106314 C48.985567,12.9838273 47.0515464,14.2539304 46.243299,16.216817 C45.0597938,19.1900129 45.5505155,21.3549613 43.5298969,22.6250644 L43.5298969,22.6250644 Z M19.7154639,15.1487758 C18.6474227,14.6580541 17.5505155,12.8683634 17.1175258,12.1467139 C18.3010309,10.9920747 17.8391753,9.02918814 17.1463918,7.99001289 C16.4824742,6.92197165 15.6742268,7.21063144 14.7793814,6.22918814 C13.8845361,5.24774485 15.1257732,2.70753866 16.2515464,4.67042526 C20.5525773,12.03125 23.3525773,8.97145619 26.8164948,8.50960052 C30.1649485,8.07661082 33.1381443,9.92403351 34.0329897,4.7570232 C34.2061856,3.91990979 35.014433,3.71784794 35.1010309,5.10341495 C35.1876289,6.51784794 35.7072165,9.89516753 37.5546392,10.3281572 C39.3731959,10.7900129 40.8742268,9.89516753 41.3072165,9.43331186 C41.7402062,8.94259021 41.971134,9.00032216 42.1443299,10.2415593 C42.3175258,11.4250644 42.8082474,13.0992912 45.3773196,11.2518686 C50.6597938,7.49929124 49.1298969,6.02712629 51.2082474,5.04568299 C52.3628866,4.49722938 54.2391753,6.2869201 51.5546392,7.64362113 C47.7443299,9.57764175 47.3402062,11.973518 44.9154639,13.474549 C40.8453608,16.0147552 42.1154639,13.5900129 35.5917526,12.6663015 C33.0804124,12.3199098 32.2721649,15.1199098 30.3092784,14.3116624 C25.8061856,12.4353737 22.6597938,12.7817655 19.7154639,15.1487758 Z M33.8597938,1.55289948 C34.0329897,2.67867268 34.2061856,2.6498067 34.6103093,2.70753866 C35.014433,2.82300258 35.5051546,2.18795103 35.5051546,1.58176546 C35.5340206,0.975579897 35.2453608,0.600322165 34.6680412,0.629188144 C34.0329897,0.658054124 33.8309278,0.975579897 33.8597938,1.55289948 Z M53.4886598,3.54465206 C53.9793814,4.00650773 55.2494845,3.71784794 55.5381443,3.37145619 C56.3175258,2.53434278 56.3463918,2.01475515 55.942268,1.43743557 C55.5381443,0.888981959 54.7298969,0.946713918 53.8927835,1.58176546 C53.0556701,2.15908505 53.228866,3.28485825 53.4886598,3.54465206 Z M53.142268,9.17351804 C52.7381443,9.69310567 52.7092784,10.0972294 52.9979381,10.3858892 C53.3154639,10.7034149 53.9505155,10.9632088 54.4123711,10.616817 C54.8742268,10.2415593 54.8742268,9.72197165 54.4989691,9.26011598 C54.0948454,8.79826031 53.5752577,8.79826031 53.142268,9.17351804 Z M12.8742268,2.53434278 C13.4804124,2.70753866 13.7690722,3.31372423 14.2886598,2.6498067 C14.5484536,2.33228093 14.5773196,1.87042526 14.2309278,1.40856959 C14.028866,1.11990979 13.0185567,0.917847938 12.585567,1.32197165 C12.1525773,1.72609536 12.556701,2.41887887 12.8742268,2.53434278 Z M0.432989691,2.15908505 C1.55876289,2.85186856 2.25154639,3.89104381 3.11752577,2.96733247 C3.40618557,2.6498067 3.75257732,2.10135309 3.14639175,0.975579897 C2.68453608,0.167332474 1.24123711,-0.179059278 0.721649485,0.167332474 C0.202061856,0.427126289 -0.432989691,1.63949742 0.432989691,2.15908505 Z M10.7092784,7.44155928 C11.0556701,7.81681701 11.6618557,7.78795103 12.0371134,7.58588918 C12.3835052,7.38382732 12.3257732,6.80650773 11.9793814,6.34465206 C11.7773196,6.05599227 11.142268,5.88279639 10.7092784,6.34465206 C10.2762887,6.80650773 10.4494845,7.18176546 10.7092784,7.44155928 Z" id="形状"></path>
                </g>
            </g>
        </g>
    </g>
</svg>