<?xml version="1.0" encoding="UTF-8"?>
<svg width="208px" height="106px" viewBox="0 0 208 106" version="1.1" xmlns="http://www.w3.org/2000/svg" xmlns:xlink="http://www.w3.org/1999/xlink">
    <title>jira</title>
    <g id="文档首页" stroke="none" stroke-width="1" fill="none" fill-rule="evenodd">
        <g id="应用集成" transform="translate(-1072.000000, -679.000000)">
            <g id="编组-12" transform="translate(1072.000000, 679.000000)">
                <g id="编组-13" fill="#0052CC" fill-rule="nonzero">
                    <g id="jira" transform="translate(49.000000, 36.000000)">
                        <g id="jira-2" transform="translate(46.000000, 4.000000)">
                            <path d="M8.40117601,-2.48689958e-14 C8.56783925,-2.48689958e-14 8.70116978,0.0677569433 8.86783302,0.169392457 C9.00116355,0.304906542 9.06782886,0.474299 9.06782886,0.643691556 L9.06782886,0.643691556 L9.06782886,21.4450935 C9.06782886,25.781542 5.80123004,29 1.86797846,29 C1.40132156,29 1.10132779,28.8306075 1.03466248,28.5595795 L1.03466248,28.5595795 L0.0346832576,25.1717289 C-0.0319820564,24.968458 0.00135055181,24.765187 0.101348474,24.5957944 C0.201346396,24.4602803 0.368009632,24.3586448 0.568005477,24.3247663 C1.83464586,24.2570093 3.66794106,23.4100467 3.66794106,20.8691589 L3.66794106,20.8691589 L3.66794106,0.643691556 C3.66794106,0.304906542 3.96793483,-2.48689958e-14 4.3012612,-2.48689958e-14 L4.3012612,-2.48689958e-14 Z M33.5673198,-2.48689958e-14 C39.3338667,-2.48689958e-14 41.9338126,2.30373825 41.9338126,7.48714948 L41.9338126,7.48714948 L41.9338126,10.9766355 C41.9338126,14.2628505 40.7005049,16.4988318 38.2672221,17.5490654 L38.2672221,17.5490654 L42.623,24.15 L49.7669832,0.474299 C49.8544814,0.237149525 50.0440607,0.0518764593 50.2910608,0.0092636535 L50.4003033,-4.97379915e-14 L56.5668419,-4.97379915e-14 C56.8668356,-4.97379915e-14 57.1001641,0.169392457 57.200162,0.474299 L57.200162,0.474299 L64.9666673,26.3235982 C65.0333327,26.5268692 65,26.7640187 64.8666694,26.9334112 C64.7333389,27.1028037 64.533343,27.2044392 64.3333472,27.2044392 L64.3333472,27.2044392 L60.1001018,27.2044392 C59.800108,27.2044392 59.5334469,27.0011683 59.4667816,26.7301402 L59.4667816,26.7301402 L57.9668128,21.682243 L52.2002659,21.682243 C52.0002701,21.682243 51.8002742,21.5806075 51.6669437,21.4112149 C51.5669458,21.2418224 51.5002805,21.0046729 51.5669458,20.8014018 L51.5669458,20.8014018 L52.5335924,17.2441588 C52.6002576,16.9392523 52.8669188,16.7359813 53.1669125,16.7359813 L53.1669125,16.7359813 L56.5668419,16.7359813 L54.0668938,7.72429907 C54.0668938,7.72429907 53.9668959,7.2161216 53.4669063,7.2161215 C52.9669167,7.2161214 52.8335862,7.6904205 52.8335862,7.6904205 L52.8335862,7.6904205 L47.467031,26.6962616 C47.4003658,27.0011682 47.1337046,27.2044392 46.8337108,27.2044392 L46.8337108,27.2044392 L43.6390387,27.205262 C43.5743122,27.2267122 43.5053156,27.2383178 43.4337815,27.2383178 L43.4337815,27.2383178 L38.5672159,27.2383178 C38.3672201,27.2383178 38.1672242,27.1028038 38.0338937,26.9334112 L38.0338937,26.9334112 L32.4006773,18.4299065 L28.2340973,18.4299065 L28.2340973,26.5268692 C28.2340973,26.8995327 27.9341035,27.2044392 27.5674445,27.2044392 L27.5674445,27.2044392 L23.5008623,27.2044392 C23.1342033,27.2044393 22.8342095,26.8995328 22.8342095,26.5268692 L22.8342095,26.5268692 L22.8342095,0.677570028 C22.8342095,0.304906542 23.1342032,-2.48689958e-14 23.5008623,-2.48689958e-14 L23.5008623,-2.48689958e-14 Z M17.9009786,-2.48689958e-14 C18.2676377,-2.48689958e-14 18.5676315,0.304906443 18.5676315,0.677570028 L18.5676315,0.677570028 L18.5676315,26.5268692 C18.5676315,26.8995327 18.2676377,27.2044392 17.9009786,27.2044392 L17.9009786,27.2044392 L13.8343965,27.2044392 C13.4677374,27.2044392 13.1677437,26.8995328 13.1677437,26.5268692 L13.1677437,26.5268692 L13.1677437,0.677570028 C13.1677437,0.304906542 13.4677374,-2.48689958e-14 13.8343965,-2.48689958e-14 L13.8343965,-2.48689958e-14 Z M33.3339913,5.01401866 L28.2007646,5.01401866 L28.2007646,13.4497663 L33.3339913,13.4497663 C35.7339415,13.4497663 36.5339248,12.7044393 36.5339248,10.5023364 L36.5339248,10.5023364 L36.5339248,7.85981306 C36.5339248,6.09813085 36.0006026,5.01401866 33.3339913,5.01401866 L33.3339913,5.01401866 Z" id="形状结合"></path>
                        </g>
                        <g id="形状">
                            <path d="M29.7706293,34.9857474 L24.2194383,34.9857474 C23.3516875,35.0767493 22.5263685,34.6082073 22.201349,33.8400576 L22.196723,33.8279977 C20.1427824,29.9326525 17.9095845,26.0976068 16.048779,22.0663137 C14.6713897,19.3166583 13.866467,16.0911853 13.866467,12.6870066 C13.866467,8.32571106 15.1871879,4.25714196 17.4712717,0.821169026 L17.4134468,0.913262749 C17.6690329,0.502130059 18.2149,0 18.6335523,0 C19.0522046,0 19.5483423,0.54817692 19.775016,0.97356221 C25.3716959,11.5862674 30.9733874,22.2029925 36.5800903,32.8237376 C37.4162384,34.3454768 37.0299681,34.9693021 35.184197,34.9857474 L29.7706293,34.9857474 Z M7.29871413,34.9857474 L1.59833485,34.9857474 C-0.00688455761,34.9857474 -0.359616487,34.3761747 0.345847372,33.0375266 C3.22398572,27.6405421 6.07629561,22.2537903 8.90277704,16.877271 C9.67416129,15.3555319 10.2824793,15.3555319 11.3580226,16.6185315 C14.292201,19.8520145 15.9020675,23.9778969 15.8938399,28.2431713 C15.8938399,29.9162072 15.6509436,31.5366182 15.1975964,33.0726099 L15.2288218,32.9465293 C14.6979892,34.8794011 14.4088646,35 12.354924,35 L7.29871413,34.9857474 Z"></path>
                        </g>
                    </g>
                </g>
                <rect id="矩形备份-8" fill-opacity="0" fill="#FFFFFF" x="0" y="0" width="208" height="106" rx="4"></rect>
            </g>
        </g>
    </g>
</svg>