<?xml version="1.0" encoding="UTF-8"?>
<svg width="208px" height="106px" viewBox="0 0 208 106" version="1.1" xmlns="http://www.w3.org/2000/svg" xmlns:xlink="http://www.w3.org/1999/xlink">
    <title>jumpserver_logo@1x</title>
    <g id="应用集成" stroke="none" stroke-width="1" fill="none" fill-rule="evenodd">
        <g transform="translate(-688.000000, -2112.000000)" id="xinrenxinshi_docs备份-7">
            <g transform="translate(688.000000, 2112.000000)">
                <rect id="矩形备份-8" fill-opacity="0" fill="#FFFFFF" x="0" y="0" width="208" height="106" rx="4"></rect>
                <g id="logo-dark-JumpServer" transform="translate(17.000000, 36.000000)" fill="#2B937C" fill-rule="nonzero">
                    <path d="M14.8,3.2 C13.7,3.9 12.5,4.5 11.3,5.1 C10,5.8 8.7,6.6 7.2,7.4 C10.3,9.4 13.3,11.3 16.5,13.3 C15.9,13.7 15.4,13.9 15,14.2 C14.5,14.5 14.2,14.5 13.7,14.2 C11.2,12.7 8.6,11.2 6.1,9.6 C5,8.9 4.2,8.8 3.2,9.5 C2.2,10.2 2.1,11.1 3.2,11.7 C3.7,12 4.2,12.3 4.7,12.7 C7.5,14.4 10.3,16.1 12.9,17.9 C14.6,19 16.1,19 17.7,18 C19.2,17.1 20.7,16.2 22.2,15.3 C22.8,15 23.3,14.6 24,14.2 C21,12.3 18.2,10.5 15.3,8.6 C15.8,8.2 16.2,8 16.6,7.7 C17.1,7.3 17.5,7.3 18.1,7.6 C20.6,9 23.1,10.4 25.6,11.8 C27.3,12.7 27.3,12.7 28.6,11.3 C29.1,10.7 29,10 28.3,9.6 C24.3,7.4 20.3,5.2 16.4,3 C15.7,2.9 15.3,2.9 14.8,3.2 Z" id="XMLID_127_"></path>
                    <path d="M17.5,20.8 C16.1,21.5 14.7,21.6 13.3,20.7 C10,18.7 6.8,16.8 3.5,14.8 C3.2,14.6 2.9,14.4 2.4,14.2 C2.4,15.5 2.4,16.6 2.4,17.7 C2.4,18.4 2.6,18.7 3.1,19 C6.6,21 10.1,23.1 13.6,25.1 C14.8,25.8 16.1,25.8 17.2,25.2 C19.5,24 26,20 28.2,18.7 C28.4,18.6 28.7,18.3 28.7,18.1 C28.7,16.8 28.7,15.5 28.7,14.1 C28.3,14.3 28,14.5 27.7,14.7 C25.8,15.9 19.5,19.8 17.5,20.8 Z" id="XMLID_128_"></path>
                    <path d="M19.8,25.4 C18.8,25.9 17.8,26.5 16.8,26.9 C15.7,27.4 14.5,27.4 13.4,26.7 C12.5,26.1 11.5,25.6 10.6,25.1 C9,24.1 7.3,23.1 5.7,22.1 C4.6,21.4 3.5,20.8 2.2,20.1 C2.2,21.5 2.2,22.7 2.2,24 C2.2,24.2 2.4,24.5 2.6,24.6 C6.2,26.8 9.8,28.9 13.5,31 C14.7,31.7 16.1,31.7 17.3,31 C19.5,29.8 26.3,25.7 28.4,24.5 C28.6,24.4 28.8,24.2 28.8,24 C28.8,22.7 28.8,21.4 28.8,20.1 C28.7,20.1 28.5,20.1 28.4,20.2 C27.2,21 21.2,24.6 19.8,25.4 Z" id="XMLID_129_"></path>
                    <path d="M16,0.2 L16,0.2 L0.6,9 L0.5,9 L0.5,25.5 L15.9,34.9 L31.2,25.5 L31.3,25.4 L31.3,9 L16,0.2 Z M30.9,25.4 L15.8,34.6 L0.7,25.4 L0.7,9.3 L15.8,0.6 L30.9,9.3 L30.9,25.4 Z" id="XMLID_132_"></path>
                    <g id="XMLID_139_" transform="translate(37.000000, 7.000000)">
                        <path d="M9.2,13 C9.2,14.7 9.2,16.5 8.6,17.5 C8.2,18.2 7.4,18.9 6.4,19.4 C5,20.1 3.1,20 1.2,20 L0.5,20 L0.9,16 C1.4,16 3.4,15.9 3.7,15.8 C4.5,15.4 4.7,14.8 4.7,13.7 L4.7,1.3 L9.3,0.9 L9.2,13 L9.2,13 Z" id="XMLID_141_"></path>
                        <path d="M44.5,12.4 L44.5,19.9 L40.5,19.9 L40.5,11.7 C40.5,10.9 40.1,10.4 39.4,10.3 C39,10.2 38.6,10.2 38.1,10.4 C37.7,10.5 37.3,10.7 37,10.9 L37,20 L33,20 L33,11.8 C33,11 32.6,10.5 31.9,10.4 C31.6,10.4 31.3,10.4 31.1,10.4 C30.8,10.4 30.5,10.5 30.3,10.6 C30,10.7 29.7,10.8 29.4,11 L29.4,11 L29.4,20.1 L25.5,20.1 L25.5,7 L29.1,7 C29.1,7 29.1,7.7 29.1,7.8 L29.2,7.7 C29.3,7.7 29.4,7.6 29.4,7.6 C29.6,7.5 29.9,7.4 30.1,7.3 C30.4,7.2 30.8,7.1 31.2,7 C31.6,6.9 32.1,6.8 32.5,6.8 L32.7,6.8 C33.3,6.8 33.9,6.9 34.3,7.1 C35.1,7.5 35.2,7.8 35.6,8.1 C35.6,8.1 35.7,8.1 35.7,8.1 C36,8 36.5,7.5 36.8,7.4 C37.2,7.2 37.6,7 37.9,6.9 C38.7,6.7 39,6.7 39.7,6.7 C42,6.7 43.4,7.3 43.9,8.5 C44.3,9.2 44.5,10.4 44.5,12.4 Z" id="XMLID_145_"></path>
                        <path d="M66.7,20.2 C65.8,20.2 64.8,20.1 63.7,20 C63.3,20 62.8,19.9 62.4,19.8 L61.4,19.6 L60.8,15.1 L61.9,15.6 L63.3,16 C63.9,16.1 64.4,16.2 64.8,16.2 C65.4,16.3 65.9,16.3 66.4,16.3 C68.1,16.3 69.1,15.9 69.3,15.2 C69.5,14.9 69.4,14 69.3,13.7 C69.1,13.4 68.8,13.1 68.3,12.8 C68.1,12.7 67.8,12.6 67.4,12.5 L66.4,12.2 C66,12.1 65.6,12 65.2,11.9 C64.8,11.8 64.3,11.6 64,11.5 C63.1,11.1 62.4,10.7 61.8,10.2 C61.3,9.7 61,9 60.9,8.3 C60.8,7.8 60.8,7.2 60.9,6.5 C61.1,4.5 62,3.2 63.4,2.4 C64,2.1 64.6,1.9 65.4,1.8 C65.7,1.8 66,1.7 66.4,1.7 L67.4,1.6 L68.1,1.6 C68.9,1.6 69.7,1.6 70.6,1.7 L71.7,1.8 L72.6,1.9 L73,6.3 C72.6,6 71.8,5.6 71,5.5 C70,5.4 69.1,5.3 68.3,5.3 C66.5,5.3 65.5,5.7 65.2,6.5 C65.1,6.8 65.1,7.2 65.2,7.5 C65.4,7.9 65.8,8.2 66.3,8.4 C66.5,8.5 66.9,8.6 67.2,8.8 L69.5,9.5 C69.9,9.6 70.3,9.8 70.7,9.9 C71.5,10.3 72.2,10.7 72.6,11.1 C73.1,11.6 73.4,12.2 73.6,13 C73.7,13.6 73.7,14.7 73.6,15.4 C73.4,17.4 72.5,18.7 71.1,19.5 C70.5,19.8 69.9,20 69.1,20.1 C68.8,20.1 68.5,20.2 68.1,20.2 L67.2,20.3 L66.7,20.2 L66.7,20.2 Z" id="XMLID_150_"></path>
                        <polygon id="XMLID_157_" points="108.9 19.8 103.9 19.8 99.4 7.1 104.1 7.1 106.4 16.4 108.7 7.1 113.3 7.1"></polygon>
                    </g>
                    <path d="M83.9,14 L87.1,14 L87.3,14.8 C87.7,14.6 88,14.5 88.3,14.3 C88.7,14.1 89.1,14 89.5,13.9 C90.5,13.7 91.5,13.7 92.4,14 C93,14.2 93.5,14.5 93.9,15 C94.1,15.2 94.2,15.4 94.3,15.6 L94.5,15.9 C94.5,16 94.6,16.1 94.6,16.1 C94.8,16.5 94.9,17 95,17.6 C95.1,18.2 95.1,19 95.1,19.9 L95.1,21.1 C95.1,23 94.9,23.7 94.6,24.3 C94.1,25.5 92.7,26.1 90.5,26.1 C90.1,26.1 89.7,26.1 89.4,26 L88.5,25.8 C88.2,25.7 87.9,25.6 87.7,25.6 L87.7,32.3 L83.8,32 L83.9,14 L83.9,14 Z M87.8,22.4 C88.5,22.8 89.1,22.9 89.6,22.9 L90.2,22.9 C90.9,22.7 91.3,22.3 91.3,21.5 L91.3,19 C91.3,18.6 91.3,18.4 91.2,18.2 C91,17.4 90.3,17.1 89.3,17.3 L88.9,17.4 L88.2,17.6 L87.9,17.7 L87.9,22.4 L87.8,22.4 Z" id="XMLID_164_"></path>
                    <path d="M124.6,19.3 L124.6,21.6 L117.4,21.6 L117.4,22 C117.4,22.9 117.7,23.4 118.2,23.6 C118.6,23.7 119.1,23.8 119.6,23.8 L119.9,23.8 C121.3,23.8 122.1,23.8 123.6,23.5 L123.6,23.5 L124.2,26.6 C124.2,26.6 123.5,26.8 122.2,27 C121.4,27.1 120.4,27.1 119.3,27.1 C116.5,27.1 114.7,26.2 113.9,24.3 C113.6,23.6 113.4,22.8 113.4,21.9 L113.4,18.8 C113.4,16.6 114.3,15.1 116.2,14.3 C117,14 117.9,13.9 118.9,13.9 C121.5,13.9 123.3,14.8 124,16.5 C124.5,17.1 124.6,18.1 124.6,19.3 Z M120.7,18.7 C120.7,17.8 120.5,17.3 120.1,17.1 C119.8,16.9 119.5,16.8 119,16.8 C117.9,16.8 117.4,17.3 117.4,18.3 L117.4,18.9 L120.6,18.9 L120.6,18.7 L120.7,18.7 Z" id="XMLID_14_"></path>
                    <path d="M163,19.3 L163,21.6 L155.8,21.6 L155.8,22 C155.8,22.9 156.1,23.4 156.6,23.6 C157,23.7 157.5,23.8 158,23.8 L158.3,23.8 C159.7,23.8 160.5,23.8 162,23.5 L162,23.5 L162.6,26.6 C162.6,26.6 161.9,26.8 160.6,27 C159.8,27.1 158.8,27.1 157.7,27.1 C154.9,27.1 153.1,26.2 152.3,24.3 C152,23.6 151.8,22.8 151.8,21.9 L151.8,18.8 C151.8,16.6 152.7,15.1 154.6,14.3 C155.4,14 156.3,13.9 157.3,13.9 C159.9,13.9 161.7,14.8 162.4,16.5 C162.8,17.1 163,18.1 163,19.3 Z M159,18.7 C159,17.8 158.8,17.3 158.4,17.1 C158.1,16.9 157.8,16.8 157.3,16.8 C156.2,16.8 155.7,17.3 155.7,18.3 L155.7,18.9 L158.9,18.9 L158.9,18.7 L159,18.7 Z" id="XMLID_7_"></path>
                    <path d="M135.4,14.4 L135.2,17.6 C134.6,17.6 134.4,17.5 133.7,17.5 L133.2,17.5 C132.7,17.6 131.9,17.7 130.8,18.1 L130.8,26.6 L127,26.6 L127,14 L130.3,14 C130.3,14 130.4,14.7 130.5,14.9 L131.4,14.6 C131.9,14.4 132.6,14.2 133.3,14.2 C134.6,14.2 135,14.3 135.4,14.4 Z" id="XMLID_224_"></path>
                    <path d="M174,14.4 L173.8,17.6 C173.2,17.6 173,17.5 172.3,17.5 L171.8,17.5 C171.3,17.6 170.5,17.7 169.4,18.1 L169.4,26.6 L165.6,26.6 L165.6,14 L168.9,14 C168.9,14 169,14.7 169.1,14.9 L170,14.6 C170.5,14.4 171.2,14.2 171.9,14.2 C173.1,14.2 173.5,14.3 174,14.4 Z" id="XMLID_89_"></path>
                    <path d="M48.5,21.4 L48.5,14.1 L52.5,14.4 L52.5,22.2 C52.5,23 52.9,23.5 53.6,23.7 C53.9,23.7 54.2,23.7 54.4,23.7 C55,23.7 55.5,23.6 56.1,23.4 L56.2,14.2 L60.1,14.6 L60.1,26.9 L56.6,26.9 C56.6,26.9 56.5,26.5 56.5,26.4 C56.5,26.4 54.7,26.9 54.3,26.9 C53.9,27 53.4,27.1 53,27.1 C52.1,27.1 51.4,27.1 50.8,26.9 C50.1,26.6 49.5,26.1 49,25.4 C48.7,24.5 48.5,23.2 48.5,21.4 Z" id="XMLID_228_"></path>
                </g>
            </g>
        </g>
    </g>
</svg>