<svg width="202" height="106" viewBox="0 0 202 106" fill="none" xmlns="http://www.w3.org/2000/svg">
<path d="M198.127 0H4.51674C2.37818 0 0.644531 1.79086 0.644531 4V102C0.644531 104.209 2.37818 106 4.51674 106H198.127C200.266 106 201.999 104.209 201.999 102V4C201.999 1.79086 200.266 0 198.127 0Z" fill="white"/>
<path fill-rule="evenodd" clip-rule="evenodd" d="M138.431 43.9445H136.984C136.668 43.9445 136.404 44.2106 136.404 44.5295V51.337H131.745V44.5295C131.745 44.2106 131.508 43.9445 131.166 43.9445H129.718C129.402 43.9445 129.139 44.2106 129.139 44.5295V60.8591C129.139 61.1787 129.402 61.4445 129.718 61.4445H131.166C131.508 61.4445 131.745 61.1787 131.745 60.8591V53.9699H136.404V60.8591C136.404 61.1787 136.668 61.4445 136.984 61.4445H138.431C138.774 61.4445 139.01 61.1787 139.01 60.8591V44.5295C139.01 44.2106 138.774 43.9445 138.431 43.9445Z" fill="#443D4E"/>
<path fill-rule="evenodd" clip-rule="evenodd" d="M103.079 59.3965C103.079 59.0773 102.811 58.8111 102.491 58.8111L95.853 58.8115V54.0107H102.491C102.811 54.0107 103.078 53.7717 103.078 53.4257V51.9632C103.078 51.6436 102.811 51.3778 102.49 51.3778H95.853V46.5774H102.49C102.811 46.5774 103.078 46.338 103.078 45.9924V44.5298C103.078 44.2102 102.811 43.9445 102.49 43.9445H95.2662C95.2659 43.9445 95.2655 43.9445 95.2651 43.9445H93.7953C93.4741 43.9445 93.207 44.2102 93.207 44.5295V60.8591C93.207 61.1783 93.4741 61.4445 93.7953 61.4445H94.4321H94.4332H102.491C102.811 61.4445 103.079 61.205 103.079 60.8591V59.3965Z" fill="#443D4E"/>
<path fill-rule="evenodd" clip-rule="evenodd" d="M151.25 59.3965C151.25 59.0773 150.983 58.8111 150.662 58.8111L144.025 58.8115V54.0107H150.662C150.983 54.0107 151.25 53.7717 151.25 53.4257V51.9632C151.25 51.6436 150.983 51.3778 150.662 51.3778H144.025V46.5774H150.662C150.983 46.5774 151.25 46.338 151.25 45.9924V44.5298C151.25 44.2102 150.983 43.9445 150.662 43.9445H143.438C143.438 43.9445 143.437 43.9445 143.437 43.9445H141.967C141.646 43.9445 141.379 44.2102 141.379 44.5295V60.8591C141.379 61.1783 141.646 61.4445 141.967 61.4445H142.604H142.605H150.662C150.983 61.4445 151.25 61.205 151.25 60.8591V59.3965Z" fill="#443D4E"/>
<path fill-rule="evenodd" clip-rule="evenodd" d="M176.522 59.3965C176.522 59.0773 176.254 58.8111 175.934 58.8111L169.296 58.8115V54.0107H175.934C176.254 54.0107 176.522 53.7717 176.522 53.4257V51.9632C176.522 51.6436 176.254 51.3778 175.934 51.3778H169.296V46.5774H175.934C176.254 46.5774 176.522 46.338 176.522 45.9924V44.5298C176.522 44.2102 176.254 43.9445 175.934 43.9445H168.71C168.709 43.9445 168.709 43.9445 168.708 43.9445H167.239C166.918 43.9445 166.65 44.2102 166.65 44.5295V60.8591C166.65 61.1783 166.918 61.4445 167.239 61.4445H167.875H167.877H175.934C176.254 61.4445 176.522 61.205 176.522 60.8591V59.3965Z" fill="#443D4E"/>
<path fill-rule="evenodd" clip-rule="evenodd" d="M107.606 48.5224V49.5281C107.606 50.2957 108.343 50.7453 109.186 51.0895L112.686 52.5712C114.003 53.1539 114.924 54.1853 114.924 55.7732V57.6519C114.924 59.2132 111.66 61.8333 109.922 61.8333C108.738 61.8333 106.948 60.9865 105.553 60.2189C105.237 60.0605 105.027 59.6894 105.211 59.2663L105.659 58.3664C105.843 57.9961 106.237 57.9165 106.58 58.1018C107.711 58.6841 109.212 59.3986 109.922 59.3986C110.712 59.3986 112.371 58.0491 112.371 57.2815V56.1174C112.371 55.2175 111.686 54.7149 110.739 54.3445L107.475 52.9681C106.211 52.439 105.053 51.3541 105.053 49.8723V48.1521C105.053 46.4319 108.501 43.9445 110.16 43.9445C111.265 43.9445 113.055 44.7648 114.24 45.4001C114.608 45.5854 114.713 46.0088 114.555 46.3261L114.134 47.226C114.003 47.5433 113.582 47.6494 113.213 47.4902C112.318 47.0672 110.818 46.3792 110.16 46.3792C109.396 46.3792 107.606 47.6494 107.606 48.5224Z" fill="#443D4E"/>
<path fill-rule="evenodd" clip-rule="evenodd" d="M158.933 46.2318H156.304V52.0831H158.96C160.071 52.0831 161.372 50.1417 161.372 49.1042C161.372 48.0938 160.016 46.2318 158.933 46.2318ZM158.824 54.3701H156.304V60.8598C156.304 61.2054 156.06 61.4445 155.68 61.4445H154.244C153.919 61.4445 153.621 61.2054 153.621 60.8598V45.1679C153.621 44.5566 154.353 43.9445 154.949 43.9445H159.285C161.263 43.9445 163.887 46.972 163.887 48.9665C163.887 50.2965 162.7 52.2954 161.426 53.0671C162.456 53.5987 163.865 55.0085 163.865 56.3118V60.8598C163.865 61.1787 163.594 61.4445 163.269 61.4445H161.778C161.453 61.4445 161.182 61.1787 161.182 60.8598V56.7105C161.182 55.7795 159.855 54.3701 158.824 54.3701Z" fill="#443D4E"/>
<path fill-rule="evenodd" clip-rule="evenodd" d="M122.461 46.2318H119.904V52.0831H122.487C123.568 52.0831 124.683 50.1417 124.683 49.1042C124.683 48.0938 123.515 46.2318 122.461 46.2318ZM122.355 54.3701H119.904V60.8598C119.904 61.2054 119.666 61.4445 119.297 61.4445H117.899C117.583 61.4445 117.293 61.2054 117.293 60.8598V45.1679C117.293 44.5566 118.005 43.9445 118.585 43.9445H122.804C124.728 43.9445 127.164 47.0663 127.164 49.0608C127.164 50.3908 126.188 52.1796 125.06 53.2141C124.505 53.7227 123.624 54.3701 122.355 54.3701Z" fill="#443D4E"/>
<path fill-rule="evenodd" clip-rule="evenodd" d="M73.2595 61.8333C71.5427 61.8333 68.3301 59.592 68.3301 57.6579V44.6772C68.3301 44.3549 68.6151 44.0883 68.9291 44.0883H70.3053C70.6415 44.0883 70.9014 44.3549 70.9014 44.6772V57.3101C70.9014 58.2505 72.4529 59.3904 73.2595 59.3904C74.066 59.3904 75.6281 58.1063 75.6281 57.1659V44.5333C75.6281 44.2107 75.8617 43.9445 76.1758 43.9445H77.6025C77.9166 43.9445 78.2016 44.2107 78.2016 44.5333V57.5141C78.2016 59.3904 74.9744 61.8333 73.2595 61.8333Z" fill="#443D4E"/>
<path fill-rule="evenodd" clip-rule="evenodd" d="M85.7656 59.1574H83.2406V53.306H85.7923C86.8984 53.306 88.1935 55.1454 88.1935 56.1825C88.1935 57.1933 86.8446 59.1574 85.7656 59.1574ZM83.2406 46.2315H85.7656C86.8446 46.2315 88.1935 47.7549 88.1935 48.7657C88.1935 49.8029 86.8984 51.4967 85.7923 51.4967H83.2406V46.2315ZM88.3693 52.4018C89.5985 51.6037 90.8367 50.0531 90.8367 48.7657C90.8367 46.7712 88.0854 43.9445 86.1165 43.9445H81.8917C81.2988 43.9445 80.5703 44.5562 80.5703 45.1676V51.5795V60.2209V60.8598C80.5703 61.2058 80.867 61.4445 81.1907 61.4445H81.8917H82.6202H86.2076C88.1765 61.4445 90.8367 58.1774 90.8367 56.1825C90.8367 54.8959 89.5985 53.2088 88.3693 52.4018Z" fill="#443D4E"/>
<path fill-rule="evenodd" clip-rule="evenodd" d="M60.0025 52.7913L65.8136 46.0856C66.023 45.8439 66.0159 45.4864 65.7533 45.2604L64.642 44.3045C64.3995 44.0955 64.0229 44.123 63.8135 44.3647L58.7322 50.2286V44.5298C58.7322 44.2106 58.4919 43.9445 58.1451 43.9445H56.677C56.3566 43.9445 56.0898 44.2106 56.0898 44.5298V60.8598C56.0898 61.1787 56.3566 61.4445 56.677 61.4445H58.1451C58.4919 61.4445 58.7322 61.1787 58.7322 60.8598V55.3541L63.8135 61.2184C64.0229 61.4597 64.3995 61.4871 64.642 61.2785L65.7533 60.3227C66.0159 60.0962 66.023 59.7388 65.8136 59.4975L60.0025 52.7913Z" fill="#443D4E"/>
<path fill-rule="evenodd" clip-rule="evenodd" d="M183.041 45.2764H182.315V46.223H183.041C183.276 46.223 183.533 46.0359 183.533 45.7605C183.533 45.4635 183.276 45.2764 183.041 45.2764ZM183.488 47.6207L182.784 46.5642H182.315V47.6207H181.935V44.9462H183.041C183.499 44.9462 183.924 45.2653 183.924 45.7605C183.924 46.355 183.387 46.5531 183.231 46.5531L183.957 47.6207H183.488ZM182.84 44.2966C181.722 44.2966 180.828 45.1665 180.828 46.2782C180.828 47.3674 181.722 48.2589 182.84 48.2589C183.957 48.2589 184.851 47.3674 184.851 46.2782C184.851 45.1665 183.957 44.2966 182.84 44.2966ZM182.84 48.6111C181.532 48.6111 180.471 47.5656 180.471 46.2782C180.471 44.9793 181.532 43.9445 182.84 43.9445C184.159 43.9445 185.209 44.9793 185.209 46.2782C185.209 47.5656 184.159 48.6111 182.84 48.6111Z" fill="#443D4E"/>
<path fill-rule="evenodd" clip-rule="evenodd" d="M42.6664 62.8627L35.1641 58.585V67.1405L42.6664 62.8627Z" fill="#00A971"/>
<path fill-rule="evenodd" clip-rule="evenodd" d="M42.6664 42.6406L35.1641 38.3628V46.9183L42.6664 42.6406Z" fill="#00A971"/>
<path fill-rule="evenodd" clip-rule="evenodd" d="M24.7697 52.7517L31.6095 48.8274V36.4183L17.3945 44.5745V60.9292L31.6095 69.085V56.6763L24.7697 52.7517Z" fill="#00A971"/>
<path fill-rule="evenodd" clip-rule="evenodd" d="M31.6094 52.7516L46.2192 60.9183V44.585L31.6094 52.7516Z" fill="#00A971"/>
</svg>
