<svg width="208" height="106" viewBox="0 0 208 106" fill="none" xmlns="http://www.w3.org/2000/svg">
<path d="M204 0H4C1.79086 0 0 1.79086 0 4V102C0 104.209 1.79086 106 4 106H204C206.209 106 208 104.209 208 102V4C208 1.79086 206.209 0 204 0Z" fill="white"/>
<g clip-path="url(#clip0_575_63)">
<path d="M63.8654 56.5817C63.3716 59.1212 59.4444 61.9003 54.9336 62.4389C52.5814 62.7199 50.2657 62.9775 47.7963 62.8644C43.7576 62.6794 40.5709 61.9003 40.5709 61.9003C40.5709 62.2936 40.5952 62.6679 40.6436 63.0179C41.1686 67.0034 44.5958 67.2424 47.8421 67.3537C51.1186 67.4658 54.0358 66.5457 54.0358 66.5457L54.1706 69.5082C54.1706 69.5082 51.8788 70.7387 47.7963 70.9649C45.5449 71.0887 42.7497 70.9083 39.4937 70.0468C32.4326 68.1776 31.2182 60.6509 31.0324 53.0135C30.9756 50.746 31.0107 48.6076 31.0107 46.8196C31.0107 39.0098 36.1274 36.7208 36.1274 36.7208C38.7074 35.5358 43.1345 35.0376 47.7369 35H47.85C52.4524 35.0376 56.8824 35.5358 59.4623 36.7208C59.4623 36.7208 64.5791 39.0098 64.5791 46.8196C64.5791 46.8196 64.643 52.5814 63.8654 56.5817Z" fill="#3088D4"/>
<path d="M38.0944 44.9267C38.0944 43.7898 39.016 42.8684 40.1526 42.8684C41.2895 42.8684 42.2109 43.7898 42.2109 44.9267C42.2109 46.0633 41.2895 46.9849 40.1526 46.9849C39.016 46.9849 38.0944 46.0633 38.0944 44.9267ZM67.6135 47.4252V56.8813H63.8672V47.7031C63.8672 45.7681 63.053 44.7863 61.4246 44.7863C59.6246 44.7863 58.7221 45.9513 58.7221 48.2547V53.2783H54.9979V48.2547C54.9979 45.9513 54.0954 44.7863 52.2953 44.7863C50.6669 44.7863 49.8527 45.7681 49.8527 47.7031V56.8813H46.1065V47.4252C46.1065 45.4926 46.5985 43.9568 47.587 42.8205C48.6064 41.6844 49.9413 41.102 51.5981 41.102C53.5153 41.102 54.9672 41.8387 55.9267 43.3125L56.8601 44.8769L57.7933 43.3125C58.7531 41.8387 60.2046 41.102 62.1222 41.102C63.7789 41.102 65.1136 41.6844 66.133 42.8205C67.1214 43.9568 67.6135 45.4926 67.6135 47.4252V47.4252ZM80.5193 52.1259C81.2923 51.3091 81.6646 50.2805 81.6646 49.04C81.6646 47.7995 81.2923 46.7709 80.5193 45.9844C79.775 45.1674 78.8298 44.7743 77.6845 44.7743C76.539 44.7743 75.594 45.1674 74.8497 45.9844C74.1051 46.7709 73.7328 47.7995 73.7328 49.04C73.7328 50.2805 74.1051 51.3091 74.8497 52.1259C75.594 52.9124 76.539 53.3057 77.6845 53.3057C78.8298 53.3057 79.775 52.9124 80.5193 52.1259ZM81.6646 41.4764H85.3587V56.6037H81.6646V54.8184C80.548 56.301 79.0015 57.0271 76.9972 57.0271C75.0787 57.0271 73.4465 56.2708 72.0719 54.7276C70.7263 53.1847 70.039 51.2787 70.039 49.04C70.039 46.8316 70.7263 44.9253 72.0719 43.3824C73.4465 41.8395 75.0787 41.0529 76.9972 41.0529C79.0015 41.0529 80.548 41.7791 81.6646 43.2614V41.4764V41.4764ZM97.7871 48.7678C98.8751 49.5845 99.4193 50.7342 99.3907 52.1862C99.3907 53.7294 98.8464 54.9395 97.7298 55.7867C96.6129 56.6037 95.2673 57.0271 93.635 57.0271C90.6856 57.0271 88.6811 55.8168 87.6215 53.4267L90.8289 51.521C91.2582 52.8216 92.2032 53.4874 93.635 53.4874C94.952 53.4874 95.6109 53.0636 95.6109 52.1862C95.6109 51.5509 94.7517 50.9762 93.0051 50.5226C92.3462 50.3409 91.8022 50.1595 91.3729 50.008C90.7716 49.7662 90.2562 49.4937 89.8266 49.161C88.767 48.3443 88.223 47.2548 88.223 45.8633C88.223 44.3808 88.7384 43.201 89.7693 42.3538C90.8289 41.4764 92.1172 41.0529 93.6637 41.0529C96.1262 41.0529 97.9304 42.1117 99.1041 44.2598L95.9545 46.075C95.4963 45.0466 94.7233 44.5323 93.6637 44.5323C92.5468 44.5323 92.0028 44.9558 92.0028 45.7725C92.0028 46.4078 92.8618 46.9825 94.6086 47.4365C95.9545 47.7389 97.0139 48.1928 97.7871 48.7678V48.7678ZM109.528 45.228H106.292V51.521C106.292 52.2773 106.579 52.731 107.123 52.9426C107.524 53.0941 108.325 53.1243 109.528 53.0636V56.6037C107.037 56.9061 105.233 56.664 104.173 55.847C103.114 55.0605 102.598 53.6084 102.598 51.521V45.228H100.107V41.4764H102.598V38.4207L106.292 37.2409V41.4764H109.528V45.228V45.228ZM121.298 52.0352C122.043 51.2483 122.415 50.2499 122.415 49.0399C122.415 47.8299 122.043 46.8314 121.298 46.0449C120.553 45.2581 119.637 44.8651 118.52 44.8651C117.404 44.8651 116.487 45.2581 115.743 46.0449C115.027 46.8616 114.654 47.8601 114.654 49.0399C114.654 50.22 115.027 51.2184 115.743 52.0352C116.487 52.8217 117.404 53.215 118.52 53.215C119.637 53.215 120.553 52.8217 121.298 52.0352V52.0352ZM113.137 54.7277C111.677 53.1848 110.961 51.309 110.961 49.0399C110.961 46.801 111.677 44.9254 113.137 43.3825C114.597 41.8396 116.401 41.053 118.52 41.053C120.639 41.053 122.443 41.8396 123.904 43.3825C125.364 44.9254 126.109 46.8314 126.109 49.0399C126.109 51.2788 125.364 53.1848 123.904 54.7277C122.443 56.2709 120.668 57.027 118.52 57.027C116.373 57.027 114.597 56.2709 113.137 54.7277ZM138.451 52.1259C139.196 51.3091 139.568 50.2805 139.568 49.04C139.568 47.7995 139.196 46.7709 138.451 45.9844C137.707 45.1674 136.761 44.7743 135.616 44.7743C134.471 44.7743 133.526 45.1674 132.753 45.9844C132.008 46.7709 131.636 47.7995 131.636 49.04C131.636 50.2805 132.008 51.3091 132.753 52.1259C133.526 52.9124 134.499 53.3057 135.616 53.3057C136.761 53.3057 137.707 52.9124 138.451 52.1259ZM139.568 35.4255H143.262V56.6037H139.568V54.8184C138.48 56.301 136.933 57.0271 134.929 57.0271C133.01 57.0271 131.35 56.2708 129.975 54.7276C128.629 53.1847 127.942 51.2787 127.942 49.04C127.942 46.8316 128.629 44.9253 129.975 43.3824C131.35 41.8395 133.01 41.0529 134.929 41.0529C136.933 41.0529 138.48 41.7791 139.568 43.2614V35.4255V35.4255ZM156.234 52.0352C156.979 51.2483 157.351 50.2499 157.351 49.0399C157.351 47.8299 156.979 46.8314 156.234 46.0449C155.49 45.2581 154.573 44.8651 153.456 44.8651C152.34 44.8651 151.423 45.2581 150.679 46.0449C149.963 46.8616 149.591 47.8601 149.591 49.0399C149.591 50.22 149.963 51.2184 150.679 52.0352C151.423 52.8217 152.34 53.215 153.456 53.215C154.573 53.215 155.49 52.8217 156.234 52.0352V52.0352ZM148.073 54.7277C146.613 53.1848 145.897 51.309 145.897 49.0399C145.897 46.801 146.613 44.9254 148.073 43.3825C149.534 41.8396 151.338 41.053 153.456 41.053C155.576 41.053 157.379 41.8396 158.84 43.3825C160.301 44.9254 161.045 46.8314 161.045 49.0399C161.045 51.2788 160.301 53.1848 158.84 54.7277C157.379 56.2709 155.604 57.027 153.456 57.027C151.309 57.027 149.534 56.2709 148.073 54.7277ZM177.024 47.3155V56.6035H173.33V47.7996C173.33 46.8012 173.072 46.0448 172.557 45.4701C172.07 44.9558 171.383 44.6833 170.495 44.6833C168.405 44.6833 167.345 45.9238 167.345 48.4349V56.6035H163.651V41.4764H167.345V43.1706C168.233 41.7487 169.636 41.053 171.612 41.053C173.187 41.053 174.475 41.5975 175.478 42.7169C176.508 43.8364 177.024 45.3491 177.024 47.3155" fill="black"/>
</g>
<defs>
<clipPath id="clip0_575_63">
<rect width="146.024" height="36" fill="white" transform="translate(31 35)"/>
</clipPath>
</defs>
</svg>
