<?xml version="1.0" encoding="UTF-8"?>
<svg width="208px" height="106px" viewBox="0 0 208 106" version="1.1" xmlns="http://www.w3.org/2000/svg" xmlns:xlink="http://www.w3.org/1999/xlink">
    <title>mulesoft_logo@1x</title>
    <g id="应用集成" stroke="none" stroke-width="1" fill="none" fill-rule="evenodd">
        <g transform="translate(-642.000000, -2296.000000)" id="xinrenxinshi_docs备份-10">
            <g transform="translate(642.000000, 2296.000000)">
                <rect id="矩形备份-8" fill-opacity="0" fill="#FFFFFF" x="0" y="0" width="208" height="106" rx="4"></rect>
                <g id="未命名" transform="translate(27.000000, 30.000000)" fill="#00A2DF" fill-rule="nonzero">
                    <path d="M32.0235487,8.49608205 C36.6244923,11.534441 39.6590769,16.7487179 39.6590769,22.6744615 C39.6590769,29.4947282 35.6374974,35.3732923 29.8381949,38.0757333 L28.3416615,32.4877949 C31.7272615,30.5289026 34.0069744,26.8696615 34.0069744,22.6744615 C34.0069744,20.7665231 33.5332923,18.9699282 32.699159,17.3922462 L25.0353231,28.336 L20.3154872,28.336 L12.6516513,17.3922462 C11.8175179,18.9699282 11.3438359,20.7665231 11.3438359,22.6744615 C11.3438359,26.8696615 13.6235487,30.5289026 17.0110359,32.4877949 L15.5126154,38.0757333 C9.71331282,35.3732923 5.68984615,29.4947282 5.68984615,22.6744615 C5.68984615,16.7487179 8.72820513,11.534441 13.3272615,8.49608205 L22.6744615,21.8441026 L32.0235487,8.49608205" id="Fill-1"></path>
                    <path d="M22.6744615,0.0283076923 C10.1681231,0.0283076923 0.0283076923,10.1681231 0.0283076923,22.6744615 C0.0283076923,35.1826872 10.1681231,45.3206154 22.6744615,45.3206154 C35.1826872,45.3206154 45.3206154,35.1826872 45.3206154,22.6744615 C45.3206154,10.1681231 35.1826872,0.0283076923 22.6744615,0.0283076923 L22.6744615,0.0283076923 Z M22.6744615,43.4334359 C11.2098462,43.4334359 1.91548718,34.1409641 1.91548718,22.6744615 C1.91548718,11.2098462 11.2098462,1.91548718 22.6744615,1.91548718 C34.1409641,1.91548718 43.4353231,11.2098462 43.4353231,22.6744615 C43.4353231,34.1409641 34.1409641,43.4334359 22.6744615,43.4334359 L22.6744615,43.4334359 Z" id="Fill-2"></path>
                    <polyline id="Fill-3" points="62.4845128 25.0296615 56.9097846 13.1593026 54.0167385 13.1593026 54.0167385 32.2386872 56.9097846 32.2386872 56.9097846 19.483241 61.4125949 28.7832615 63.5564308 28.7832615 67.9497846 19.483241 67.9497846 32.2386872 70.8447179 32.2386872 70.8447179 13.1593026 67.9497846 13.1593026 62.4845128 25.0296615"></polyline>
                    <path d="M81.7148718,26.9319385 C81.7148718,29.0248205 80.4278154,29.9608615 78.9010872,29.9608615 C77.374359,29.9608615 76.1684513,29.0474667 76.1684513,26.9319385 L76.1684513,18.6528821 L73.4358154,18.6528821 L73.4358154,27.3339077 C73.4358154,28.8644103 73.7566359,30.1495795 74.8002462,31.1686564 C75.6060718,31.9424 76.7572513,32.3990974 78.1499897,32.3990974 C79.5200821,32.3990974 80.8316718,31.8914462 81.7677128,30.8723692 L81.7677128,32.2386872 L84.4493949,32.2386872 L84.4493949,18.6528821 L81.7148718,18.6528821 L81.7148718,26.9319385" id="Fill-4"></path>
                    <path d="M89.8033231,28.3265641 L89.8033231,13.1593026 L87.0706872,13.1593026 L87.0706872,28.4850872 C87.0706872,30.4987077 88.193559,32.2386872 90.7940923,32.2386872 L92.4812308,32.2386872 L92.4812308,29.9080205 L91.2753231,29.9080205 C90.1769846,29.9080205 89.8033231,29.3701744 89.8033231,28.3265641" id="Fill-5"></path>
                    <path d="M99.0542769,18.494359 C95.5705436,18.494359 93.2946051,21.0401641 93.2946051,25.4316308 C93.2946051,30.6043897 96.0008205,32.3990974 99.4034051,32.3990974 C101.7888,32.3990974 103.10039,31.6744205 104.493128,30.2835692 L102.753149,28.6473846 C101.7888,29.6136205 100.984862,30.0401231 99.4562462,30.0401231 C97.2331487,30.0401231 96.0008205,28.5681231 96.0008205,26.2355692 L104.815836,26.2355692 L104.815836,25.0296615 C104.815836,21.1722667 102.700308,18.494359 99.0542769,18.494359 L99.0542769,18.494359 Z M96.0008205,24.3314051 C96.027241,23.5029333 96.0800821,23.1009641 96.3480615,22.4838564 C96.7783385,21.4647795 97.7691077,20.7702974 99.0542769,20.7702974 C100.343221,20.7702974 101.305682,21.4647795 101.735959,22.4838564 C102.003938,23.1009641 102.085087,23.5029333 102.109621,24.3314051 L96.0008205,24.3314051 L96.0008205,24.3314051 Z" id="Fill-6"></path>
                    <path d="M118.307282,22.8858256 C117.503344,22.1649231 116.512574,21.7346462 114.7424,21.4647795 L112.570256,21.1458462 C111.687056,21.0118564 110.911426,20.6910359 110.426421,20.2626462 C109.920656,19.8040615 109.705518,19.188841 109.705518,18.494359 C109.705518,16.8053333 110.935959,15.5182769 113.187364,15.5182769 C114.795241,15.5182769 116.163446,15.8655179 117.341046,16.9902769 L119.190482,15.1672615 C117.556185,13.6424205 115.787897,12.9988923 113.268513,12.9988923 C109.301662,12.9988923 106.889846,15.2748308 106.889846,18.5981538 C106.889846,20.1531897 107.348431,21.3590974 108.286359,22.2441846 C109.114831,23.0198154 110.347159,23.5576615 111.900308,23.7690256 L114.151713,24.0936205 C115.280246,24.2521436 115.761477,24.4408615 116.242708,24.897559 C116.752246,25.3504821 116.993805,26.0506256 116.993805,26.8809846 C116.993805,28.7285333 115.546338,29.7985641 113.055262,29.7985641 C111.098256,29.7985641 109.571528,29.3701744 108.17879,27.9774359 L106.248205,29.8797128 C108.069333,31.7310359 110.133908,32.3990974 113.000533,32.3990974 C116.993805,32.3990974 119.860431,30.3099897 119.860431,26.7998359 C119.860431,25.1636513 119.350892,23.7973333 118.307282,22.8858256" id="Fill-7"></path>
                    <path d="M127.069456,18.494359 C125.221908,18.494359 123.908431,19.188841 123.023344,20.1003487 C121.738174,21.438359 121.417354,23.1556923 121.417354,25.4316308 C121.417354,27.7377641 121.738174,29.4532103 123.023344,30.7912205 C123.908431,31.7027282 125.221908,32.3990974 127.069456,32.3990974 C128.918892,32.3990974 130.260677,31.7027282 131.143877,30.7912205 C132.429046,29.4532103 132.749867,27.7377641 132.749867,25.4316308 C132.749867,23.1556923 132.429046,21.438359 131.143877,20.1003487 C130.260677,19.188841 128.918892,18.494359 127.069456,18.494359 L127.069456,18.494359 Z M129.08119,29.1569231 C128.571651,29.6664615 127.873395,29.9608615 127.069456,29.9608615 C126.265518,29.9608615 125.595569,29.6664615 125.089805,29.1569231 C124.255672,28.3265641 124.14999,26.9055179 124.14999,25.4316308 C124.14999,23.9596308 124.255672,22.5385846 125.089805,21.7082256 C125.595569,21.1986872 126.265518,20.9288205 127.069456,20.9288205 C127.873395,20.9288205 128.571651,21.1986872 129.08119,21.7082256 C129.909662,22.5385846 130.019118,23.9596308 130.019118,25.4316308 C130.019118,26.9055179 129.909662,28.3265641 129.08119,29.1569231 L129.08119,29.1569231 Z" id="Fill-8"></path>
                    <path d="M135.514585,16.8053333 L135.514585,18.8925538 L133.957662,18.8925538 L133.957662,20.9854359 L135.514585,20.9854359 L135.514585,32.2386872 L138.247221,32.2386872 L138.247221,20.9854359 L140.953436,20.9854359 L140.953436,18.8925538 L138.247221,18.8925538 L138.247221,16.9374359 C138.247221,15.9466667 138.726564,15.3559795 139.745641,15.3559795 L140.953436,15.3559795 L140.953436,13.0253128 L139.236103,13.0253128 C136.690297,13.0253128 135.514585,14.8502154 135.514585,16.8053333" id="Fill-9"></path>
                    <path d="M146.926359,14.7690667 L144.19561,14.7690667 L144.19561,18.8925538 L142.640574,18.8925538 L142.640574,20.9854359 L144.19561,20.9854359 L144.19561,28.4586667 C144.19561,30.417559 145.37321,32.2386872 147.919015,32.2386872 L149.553313,32.2386872 L149.553313,29.9080205 L148.428554,29.9080205 C147.411364,29.9080205 146.926359,29.3192205 146.926359,28.3265641 L146.926359,20.9854359 L149.553313,20.9854359 L149.553313,18.8925538 L146.926359,18.8925538 L146.926359,14.7690667" id="Fill-10"></path>
                    <path d="M152.9408,16.8732718 C152.861538,16.6958769 152.755856,16.5430154 152.621867,16.4128 C152.489764,16.2825846 152.335015,16.1787897 152.157621,16.1051897 C151.980226,16.0297026 151.789621,15.9938462 151.589579,15.9938462 C151.387651,15.9938462 151.198933,16.0297026 151.019651,16.1051897 C150.840369,16.1787897 150.683733,16.2825846 150.549744,16.4128 C150.415754,16.5430154 150.308185,16.6958769 150.23081,16.8732718 C150.153436,17.0525538 150.113805,17.243159 150.113805,17.4488615 C150.113805,17.6602256 150.153436,17.8564923 150.23081,18.0357744 C150.308185,18.2131692 150.415754,18.3698051 150.549744,18.5000205 C150.683733,18.6321231 150.840369,18.7359179 151.019651,18.8076308 C151.198933,18.8812308 151.387651,18.9170872 151.589579,18.9170872 C151.789621,18.9170872 151.980226,18.8812308 152.157621,18.8076308 C152.335015,18.7359179 152.489764,18.6321231 152.621867,18.5000205 C152.755856,18.3698051 152.861538,18.2131692 152.9408,18.0357744 C153.018174,17.8564923 153.057805,17.6602256 153.057805,17.4488615 C153.057805,17.243159 153.018174,17.0525538 152.9408,16.8732718 L152.9408,16.8732718 Z M152.699241,17.9489641 C152.636964,18.1018256 152.552041,18.2339282 152.444472,18.347159 C152.335015,18.4585026 152.208574,18.5472 152.063262,18.6094769 C151.916062,18.6755282 151.759426,18.7057231 151.589579,18.7057231 C151.417846,18.7057231 151.257436,18.6755282 151.110236,18.6094769 C150.963036,18.5472 150.834708,18.4585026 150.725251,18.347159 C150.617682,18.2339282 150.532759,18.1018256 150.470482,17.9489641 C150.410092,17.7961026 150.379897,17.6300308 150.379897,17.4488615 C150.379897,17.275241 150.410092,17.1110564 150.470482,16.9600821 C150.532759,16.8091077 150.617682,16.6770051 150.725251,16.5675487 C150.834708,16.4562051 150.963036,16.3693949 151.110236,16.3052308 C151.257436,16.2410667 151.417846,16.2089846 151.589579,16.2089846 C151.759426,16.2089846 151.916062,16.2410667 152.063262,16.3052308 C152.208574,16.3693949 152.335015,16.4562051 152.444472,16.5675487 C152.552041,16.6770051 152.636964,16.8091077 152.699241,16.9600821 C152.759631,17.1110564 152.791713,17.275241 152.791713,17.4488615 C152.791713,17.6300308 152.759631,17.7961026 152.699241,17.9489641 L152.699241,17.9489641 Z" id="Fill-11"></path>
                    <path d="M152.148185,17.4281026 C152.234995,17.3563897 152.2784,17.243159 152.2784,17.0902974 C152.2784,16.9261128 152.229333,16.801559 152.1312,16.7222974 C152.033067,16.6411487 151.882092,16.5996308 151.678277,16.5996308 L151.017764,16.5996308 L151.017764,18.3113026 L151.283856,18.3113026 L151.283856,17.5753026 L151.565046,17.5753026 L152.031179,18.3113026 L152.318031,18.3113026 L151.827364,17.5545436 C151.955692,17.5432205 152.063262,17.4998154 152.148185,17.4281026 L152.148185,17.4281026 Z M151.561272,17.3601641 L151.283856,17.3601641 L151.283856,16.8147692 L151.636759,16.8147692 C151.680164,16.8147692 151.725456,16.8185436 151.770749,16.8260923 C151.816041,16.8317538 151.857559,16.8449641 151.893415,16.8619487 C151.927385,16.8808205 151.955692,16.907241 151.978338,16.9412103 C152.000985,16.9751795 152.012308,17.0204718 152.012308,17.0770872 C152.012308,17.1450256 151.999097,17.1978667 151.974564,17.2374974 C151.950031,17.2733538 151.916062,17.3016615 151.874544,17.3205333 C151.833026,17.3394051 151.785846,17.3507282 151.733005,17.3545026 C151.678277,17.3582769 151.621662,17.3601641 151.561272,17.3601641 L151.561272,17.3601641 Z" id="Fill-12"></path>
                </g>
            </g>
        </g>
    </g>
</svg>