<svg width="208" height="106" viewBox="0 0 208 106" fill="none" xmlns="http://www.w3.org/2000/svg">
<path d="M204 0H4C1.79086 0 0 1.79086 0 4V102C0 104.209 1.79086 106 4 106H204C206.209 106 208 104.209 208 102V4C208 1.79086 206.209 0 204 0Z" fill="white"/>
<g clip-path="url(#clip0_525_14)">
<path d="M80.2812 60.8788V53.0379L82.6143 60.8788H86.5454V43.6309H82.7954V51.3973L80.2812 43.6309H76.5312V60.8788H80.2812ZM92.6498 45.8788V43.6309H88.218V45.8788H92.6498ZM92.6498 60.8788V46.7417H88.218V60.8788H92.6498ZM98.6584 63.3184C99.7734 63.3184 100.698 63.1924 101.434 62.9402C102.169 62.6881 102.742 62.3223 103.154 61.8429C103.566 61.3635 103.806 60.909 103.873 60.4793C103.941 60.0496 103.974 59.0997 103.974 57.6295V46.7417H99.9687L99.6598 47.8071C99.3118 47.3667 98.9158 47.0365 98.4719 46.8163C98.028 46.5961 97.5362 46.486 96.9964 46.486C96.0092 46.486 95.2741 46.7808 94.7912 47.3703C94.3082 47.9598 94.0667 48.9257 94.0667 50.268V55.4029C94.0667 56.3404 94.1591 57.0631 94.3437 57.5709C94.5284 58.0787 94.8711 58.4889 95.3718 58.8014C95.8725 59.1139 96.5099 59.2701 97.2841 59.2701C97.7315 59.2701 98.1594 59.1849 98.5678 59.0145C98.9762 58.844 99.365 58.5919 99.7344 58.2581V59.3234C99.7344 59.9342 99.6811 60.3355 99.5746 60.5272C99.468 60.719 99.2514 60.8149 98.9247 60.8149C98.4702 60.8149 98.2429 60.5024 98.2429 59.8774H94.0667C94.0952 61.241 94.5248 62.1554 95.3558 62.6206C96.1868 63.0858 97.2876 63.3184 98.6584 63.3184ZM98.978 56.7559C98.7294 56.7559 98.566 56.6618 98.4879 56.4736C98.4098 56.2854 98.3707 55.8752 98.3707 55.2431V50.4917C98.3707 49.8951 98.4222 49.4956 98.5252 49.2932C98.6282 49.0908 98.804 48.9896 99.0525 48.9896C99.3082 48.9896 99.4733 49.0784 99.5479 49.2559C99.6225 49.4335 99.6598 49.8454 99.6598 50.4917V54.8703C99.6598 55.6728 99.6172 56.1877 99.5319 56.415C99.4467 56.6423 99.2621 56.7559 98.978 56.7559ZM109.812 60.8788V50.79C109.812 50.0727 109.859 49.5933 109.951 49.3518C110.043 49.1103 110.221 48.9896 110.484 48.9896C110.768 48.9896 110.951 49.1068 111.032 49.3412C111.114 49.5755 111.155 50.1046 111.155 50.9285V60.8788H115.459V51.1309C115.459 49.8028 115.4 48.8884 115.283 48.3877C115.166 47.887 114.843 47.4448 114.314 47.0613C113.784 46.6778 113.143 46.486 112.391 46.486C111.901 46.486 111.441 46.5713 111.011 46.7417C110.581 46.9122 110.182 47.1679 109.812 47.5088V43.6309H105.508V60.8788H109.812ZM122.82 60.8788V58.599C122.117 58.599 121.718 58.5457 121.622 58.4392C121.526 58.3326 121.478 57.8142 121.478 56.8838V49.3198H122.639V47.0826H121.478V44.8561H117.163V47.0826H116.236V49.3198H117.163L117.163 56.5751C117.165 57.9382 117.204 58.8064 117.281 59.1796C117.359 59.5596 117.557 59.8969 117.877 60.1917C118.197 60.4864 118.566 60.6746 118.985 60.7563C119.404 60.838 120.104 60.8788 121.084 60.8788H122.82ZM128.019 45.8788V43.6309H123.587V45.8788H128.019ZM128.019 60.8788V46.7417H123.587V60.8788H128.019ZM133.868 60.8788L133.868 51.258C133.869 50.2308 133.909 49.5972 133.985 49.3571C134.063 49.1121 134.255 48.9896 134.56 48.9896C134.852 48.9896 135.029 49.0961 135.093 49.3092C135.157 49.5223 135.189 50.1153 135.189 51.0883V60.8788H139.493V50.9711C139.493 49.7353 139.425 48.8529 139.29 48.3238C139.155 47.7946 138.854 47.3561 138.385 47.0081C137.916 46.66 137.312 46.486 136.574 46.486C135.984 46.486 135.464 46.6157 135.013 46.8749C134.562 47.1341 134.18 47.523 133.868 48.0414L133.942 46.7417H129.564V60.8788H133.868ZM145.437 63.3184C146.552 63.3184 147.478 63.1924 148.213 62.9402C148.948 62.6881 149.521 62.3223 149.933 61.8429C150.345 61.3635 150.585 60.909 150.652 60.4793C150.72 60.0496 150.753 59.0997 150.753 57.6295V46.7417H146.748L146.439 47.8071C146.091 47.3667 145.695 47.0365 145.251 46.8163C144.807 46.5961 144.315 46.486 143.776 46.486C142.788 46.486 142.053 46.7808 141.57 47.3703C141.087 47.9598 140.846 48.9257 140.846 50.268V55.4029C140.846 56.3404 140.938 57.0631 141.123 57.5709C141.307 58.0787 141.65 58.4889 142.151 58.8014C142.652 59.1139 143.289 59.2701 144.063 59.2701C144.511 59.2701 144.939 59.1849 145.347 59.0145C145.755 58.844 146.144 58.5919 146.513 58.2581V59.3234C146.513 59.9342 146.46 60.3355 146.354 60.5272C146.247 60.719 146.03 60.8149 145.704 60.8149C145.249 60.8149 145.022 60.5024 145.022 59.8774H140.846C140.874 61.241 141.304 62.1554 142.135 62.6206C142.966 63.0858 144.067 63.3184 145.437 63.3184ZM145.757 56.7559C145.508 56.7559 145.345 56.6618 145.267 56.4736C145.189 56.2854 145.15 55.8752 145.15 55.2431V50.4917C145.15 49.8951 145.201 49.4956 145.304 49.2932C145.407 49.0908 145.583 48.9896 145.832 48.9896C146.087 48.9896 146.252 49.0784 146.327 49.2559C146.402 49.4335 146.439 49.8454 146.439 50.4917V54.8703C146.439 55.6728 146.396 56.1877 146.311 56.415C146.226 56.6423 146.041 56.7559 145.757 56.7559ZM155.111 61.1345C155.686 61.1345 156.181 61.0084 156.597 60.7563C157.012 60.5042 157.352 60.126 157.614 59.6217V60.8788H161.801V53.6893C161.799 51.4054 161.724 49.8939 161.577 49.1547C161.428 48.4054 160.984 47.7733 160.246 47.2584C159.507 46.7435 158.41 46.486 156.954 46.486C155.739 46.486 154.752 46.7133 153.992 47.1679C153.232 47.6224 152.726 48.1462 152.474 48.7392C152.222 49.3323 152.096 50.1757 152.096 51.2694V52.2176H156.133V50.7368C156.133 49.9484 156.169 49.4601 156.24 49.2719C156.311 49.0837 156.492 48.9896 156.783 48.9896C157.039 48.9896 157.222 49.1015 157.332 49.3252C157.442 49.5489 157.497 50.0301 157.497 50.7687C157.497 51.3582 157.447 51.7488 157.348 51.9406C157.249 52.1323 156.492 52.5052 155.079 53.0592C153.758 53.5706 152.93 54.018 152.597 54.4015C152.263 54.785 152.096 55.5059 152.096 56.5642V57.7254C152.096 59.153 152.41 60.078 153.039 60.5006C153.667 60.9232 154.358 61.1345 155.111 61.1345ZM156.847 58.6309C156.563 58.6309 156.373 58.5244 156.277 58.3113C156.181 58.0983 156.133 57.626 156.133 56.8944C156.133 56.2552 156.189 55.7652 156.299 55.4243C156.409 55.0833 156.808 54.6608 157.497 54.1565V57.0649C157.497 57.7751 157.456 58.2137 157.375 58.3806C157.293 58.5475 157.117 58.6309 156.847 58.6309ZM167.714 60.8788V43.6309H163.282V60.8788H167.714ZM174.191 61.1345C175.128 61.1345 175.908 61.0013 176.529 60.735C177.151 60.4686 177.664 60.0691 178.069 59.5365C178.474 59.0038 178.731 58.5031 178.841 58.0343C178.951 57.5656 179.006 56.8944 179.006 56.0208V54.9768H174.926V56.8412C174.926 57.5443 174.871 58.0184 174.761 58.2634C174.651 58.5084 174.432 58.6309 174.106 58.6309C173.843 58.6309 173.665 58.5386 173.573 58.3539C173.481 58.1693 173.435 57.7574 173.435 57.1181V54.0606H179.006V52.1856C179.006 50.8149 178.848 49.7513 178.532 48.9949C178.216 48.2385 177.666 47.6313 176.881 47.1732C176.096 46.7151 175.1 46.486 173.893 46.486C172.905 46.486 172.032 46.676 171.272 47.056C170.512 47.436 169.965 47.9828 169.631 48.6966C169.298 49.4104 169.131 50.3852 169.131 51.621V55.7439C169.131 56.795 169.205 57.5958 169.354 58.1462C169.503 58.6966 169.772 59.2009 170.159 59.659C170.546 60.1171 171.087 60.4775 171.783 60.7403C172.479 61.0031 173.282 61.1345 174.191 61.1345ZM174.692 51.7595H173.435V50.7261C173.435 49.9306 173.47 49.4424 173.541 49.2613C173.612 49.0801 173.797 48.9896 174.095 48.9896C174.337 48.9896 174.496 49.0961 174.574 49.3092C174.653 49.5223 174.692 49.9946 174.692 50.7261V51.7595Z" fill="#40A9FF"/>
<path fill-rule="evenodd" clip-rule="evenodd" d="M62.8685 58.9522L68 60.9798L68 64.2727C68 69.0927 64.0927 73 59.2727 73H36.7273C31.9073 73 28 69.0927 28 64.2727L28 60.5059L34.2831 63.7526L34.5457 63.8866C43.1252 68.2129 52.0321 67.483 60.5235 61.8833L60.7807 61.7121L60.8533 61.6625C61.8168 60.9924 62.4914 60.058 62.845 59.0231L62.8671 58.9569L62.8685 58.9522ZM59.0664 49.47L59.317 49.7127L66.9027 57.1374L57.0308 53.2368C53.4684 51.8292 50.5566 51.771 47.9019 52.7949C47.5738 52.9214 47.2528 53.0613 46.935 53.2168L46.7989 53.2844C46.3913 53.49 45.988 53.7218 45.5806 53.9844L45.4446 54.0731C45.4219 54.0881 45.3992 54.1032 45.3765 54.1183L45.2399 54.2105L45.1029 54.3051L44.9654 54.4021C44.9194 54.4348 44.8734 54.4679 44.8272 54.5015L44.6883 54.6034L44.5488 54.7078L44.4084 54.8148C44.3849 54.8329 44.3614 54.851 44.3378 54.8693L44.1961 54.9802L44.0533 55.0938L43.9095 55.2101L43.7646 55.3291C43.7161 55.3692 43.6674 55.4098 43.6185 55.4509L43.4711 55.5755L43.3224 55.7029C43.2975 55.7244 43.2726 55.746 43.2476 55.7677L43.0967 55.8995L42.9444 56.0342L42.7905 56.1719C42.7648 56.1951 42.7389 56.2185 42.713 56.2419L42.5566 56.3842L42.3985 56.5295L42.2386 56.6779L42.0768 56.8295L41.8304 57.0629L41.6637 57.2225L41.4948 57.3854L41.1688 57.7034L40.621 58.2431L40.5285 58.3345L40.7092 58.3946C45.8987 60.0849 51.0783 59.1858 56.4299 55.6518L56.6234 55.5229C57.6058 54.8631 58.937 55.1245 59.5969 56.1068C60.2567 57.0892 59.9953 58.4205 59.013 59.0803C51.3715 64.2132 43.5873 64.8968 35.9693 61.0538L35.7385 60.936L33.001 59.5215L35.3274 57.4043L35.5196 57.2273L35.7176 57.0422L35.9238 56.8466L36.1411 56.6381L36.3718 56.4143L36.6833 56.1095L38.2251 54.5879L38.4293 54.3886L38.6225 54.2017L38.8136 54.0181L39.0028 53.838L39.19 53.6613C39.2211 53.6321 39.2521 53.603 39.283 53.5741L39.4676 53.4024L39.6505 53.2339L39.8318 53.0686L40.0116 52.9065L40.1899 52.7476L40.3669 52.5918C40.4257 52.5404 40.4843 52.4895 40.5427 52.4391L40.7172 52.2894L40.8907 52.1427C40.9195 52.1185 40.9483 52.0944 40.977 52.0705L41.149 51.9282C41.2062 51.8813 41.2632 51.8348 41.3201 51.7889L41.4903 51.6523C41.547 51.6073 41.6035 51.5628 41.6599 51.5187L41.8288 51.3878C43.3182 50.2436 44.7423 49.4204 46.3597 48.7965C47.0962 48.5125 47.8462 48.2885 48.6113 48.1262L48.6847 48.1109L48.6696 48.1074C44.8027 47.2441 40.9753 48.7353 36.9718 52.5811L36.7715 52.7753C35.9258 53.6031 34.5692 53.5885 33.7414 52.7428C32.9137 51.8971 32.9282 50.5405 33.7739 49.7127C42.0385 41.6235 50.792 41.5426 59.0664 49.47ZM59.2727 33C64.0927 33 68 36.9073 68 41.7273L68 53.7752L61.5346 47.447L61.2468 47.1685C51.7379 38.0708 41.041 38.1637 31.5563 47.447C29.4803 49.479 29.4242 52.7963 31.4148 54.8971L31.4757 54.9604L31.5377 55.0227C31.7854 55.2677 32.0513 55.4834 32.3312 55.6698L32.4078 55.7199L32.4433 55.7423L28 59.7859L28 41.7273C28 36.9073 31.9073 33 36.7273 33H59.2727Z" fill="#40A9FF"/>
</g>
<defs>
<clipPath id="clip0_525_14">
<rect width="151.03" height="40" fill="white" transform="translate(28 33)"/>
</clipPath>
</defs>
</svg>
