<?xml version="1.0" encoding="UTF-8"?>
<svg width="56px" height="56px" viewBox="0 0 56 56" version="1.1" xmlns="http://www.w3.org/2000/svg" xmlns:xlink="http://www.w3.org/1999/xlink">
    <title>odoo@1.5x</title>
    <defs>
        <rect id="path-1" x="0" y="0" width="54" height="54" rx="8"></rect>
    </defs>
    <g id="应用" stroke="none" stroke-width="1" fill="none" fill-rule="evenodd">
        <g id="应用市场" transform="translate(-882.000000, -1723.000000)">
            <g id="yingy备份" transform="translate(883.000000, 1724.000000)">
                <mask id="mask-2" fill="white">
                    <use xlink:href="#path-1"></use>
                </mask>
                <rect stroke="#EAEBEE" x="-0.5" y="-0.5" width="55" height="55" rx="8"></rect>
                <g id="odoo" mask="url(#mask-2)" fill-rule="nonzero">
                    <g transform="translate(6.000000, 19.791045)" id="形状">
                        <path d="M5.5228652,3.20895522 C6.26400592,3.20895522 6.96557116,3.35649836 7.62516241,3.65158463 C8.93603349,4.23133923 9.98188473,5.28171567 10.5561461,6.59525014 C10.8511633,7.26339264 10.9998711,7.9747185 10.9998711,8.73162678 C11.0049836,9.46244315 10.8579544,10.186323 10.5681387,10.8572076 C10.2891541,11.5044838 9.8917863,12.0939627 9.39646474,12.5953377 C8.37013731,13.6401033 6.96318262,14.2225024 5.49888006,14.2087159 C4.74094975,14.2087159 4.0285912,14.0731682 3.36300366,13.7996736 C2.04173855,13.2642978 0.987362323,12.2256407 0.43201999,10.9123863 C0.139564766,10.2225209 -0.00741114914,9.47971032 0.000287534225,8.73042725 C-0.0124021988,7.28397821 0.561813813,5.89419716 1.59170134,4.8787117 C2.64895821,3.85260377 4.05049964,3.25730096 5.5228652,3.20895522 L5.5228652,3.20895522 Z M5.49888006,5.45928794 C5.05995207,5.45928794 4.63901292,5.54205605 4.23726189,5.70999132 C3.84669787,5.86925327 3.4916455,6.10451526 3.19270919,6.40212457 C2.89574048,6.70020097 2.65663989,7.05080128 2.48754618,7.43612607 C2.31000033,7.84467492 2.22090247,8.28618055 2.2261082,8.73162678 C2.2261082,9.17185712 2.31245469,9.59289485 2.48754618,9.99473998 C2.66263768,10.3953856 2.89649276,10.7480497 3.19270919,11.0515327 C3.48772637,11.3550157 3.83551085,11.5937237 4.23726189,11.7676567 C4.63901292,11.9427892 5.05995207,12.0291559 5.49888006,12.0291559 C5.93780806,12.0291559 6.35874721,11.9427892 6.76049824,11.7676567 C7.16224928,11.5937237 7.51123301,11.3550157 7.80625019,11.0515327 C8.10126737,10.7480497 8.33632171,10.3953856 8.5114132,9.99473998 C8.68530544,9.59289485 8.77285119,9.17185712 8.77285119,8.73162678 C8.72727943,7.8379712 8.40827711,7.08466152 7.81824276,6.47049822 C7.22700914,5.85633492 6.46188329,5.51926483 5.5228652,5.45808841 L5.49888006,5.45808841 L5.49888006,5.45928794 L5.49888006,5.45928794 Z" fill="#A24689"></path>
                        <path d="M20.3136726,0.212441694 C20.5548972,0.198550643 20.781536,0.296945591 20.9935893,0.508784128 C21.2056425,0.721780252 21.3122301,0.952140191 21.3122301,1.20102153 L21.3122301,8.90013687 C21.3122301,9.61668361 21.1708612,10.2973451 20.8870017,10.9409639 C20.6031421,11.5845826 20.2205487,12.1471702 19.7392216,12.6298842 C19.2578945,13.1125983 18.7081269,13.4969174 18.0910408,13.7816839 C17.4739548,14.0664505 16.8265754,14.2088956 16.1466588,14.2088956 C15.4666128,14.2122897 14.7932024,14.0708105 14.1686175,13.7932598 C13.5572847,13.52422 13.0016043,13.1367684 12.5316565,12.6518784 C12.0605018,12.1658349 11.6818399,11.5929668 11.4152917,10.962958 C11.1376387,10.3136005 10.9961692,9.61102048 11.0000789,8.90129446 C11.0000789,8.1106621 11.1235783,7.41726711 11.3726566,6.81763672 C11.6401001,6.18779625 12.0186465,5.61471024 12.4890214,5.12755878 L12.4890214,5.15071053 C12.9905842,4.65418943 13.578261,4.25952486 14.2213503,3.98733496 C14.8388564,3.72666633 15.4996621,3.59259069 16.1668543,3.59259758 C16.5640333,3.59259758 17.0341407,3.65858007 17.5805424,3.79054506 C18.1258221,3.92135247 18.6688578,4.17717933 19.2074056,4.55802566 L19.2074056,1.31099236 C19.2074056,1.16513632 19.235455,1.02506821 19.2926757,0.894260809 C19.3487744,0.763453407 19.4228247,0.641906706 19.5148267,0.531935881 C19.6068286,0.421965056 19.7179041,0.337461158 19.8446872,0.279581777 C19.9646146,0.222677694 20.0969967,0.199514317 20.2284025,0.212441694 L20.3136726,0.212441694 L20.3136726,0.212441694 Z M19.2085276,8.90013687 C19.2085276,8.50539949 19.1266234,8.11760763 18.9639371,7.73791889 C18.8014729,7.35909398 18.5746258,7.01331526 18.2941183,6.7169266 C18.0132987,6.4194528 17.6816066,6.17809322 17.3157564,6.0050102 C16.9495266,5.82965938 16.5504002,5.73955449 16.1466588,5.74106117 C15.7348941,5.74106117 15.341081,5.82442653 14.9652195,5.99343433 C14.6009485,6.15450318 14.2694029,6.38503669 13.9879796,6.67293827 C13.7119738,6.95886241 13.4920668,7.29456282 13.3282585,7.68235468 C13.1644502,8.07014654 13.083668,8.4764598 13.083668,8.90013687 C13.083668,9.33886258 13.1644502,9.74749102 13.3282585,10.1294949 C13.4920668,10.5091837 13.7119738,10.8414113 13.9879796,11.1273355 C14.2639853,11.412102 14.5904799,11.6389892 14.9652195,11.8068394 C15.341081,11.9758472 15.7348941,12.0591935 16.1466588,12.0591935 C16.5573015,12.0591935 16.9466267,11.9758472 17.3157564,11.8068394 C17.683764,11.6389892 18.0102587,11.412102 18.2941183,11.1273355 C18.5768559,10.8414113 18.8001288,10.5091837 18.9639371,10.1294949 C19.1266234,9.7486486 19.2085276,9.33886258 19.2085276,8.90013687 L19.2085276,8.90013687 Z M27.0746918,3.59143999 C27.7691942,3.59143999 28.4244273,3.73382327 29.0415134,4.01858983 C30.2672026,4.57952795 31.2455676,5.59266315 31.7847414,6.85930987 C32.0607472,7.50408619 32.1987501,8.19053565 32.1987501,8.92097345 C32.1987501,9.65372642 32.0641131,10.3367031 31.7948392,10.9722187 C31.5255653,11.6077343 31.1609235,12.1680068 30.6997919,12.6495632 C30.2386604,13.1322773 29.6956246,13.5131236 29.0729287,13.7909446 C28.4502328,14.0687656 27.775926,14.2065186 27.0533743,14.2065186 C26.368265,14.2116621 25.6888822,14.0775302 25.0540155,13.8117812 C23.8172027,13.2962161 22.8304211,12.2935259 22.3119095,11.0254678 C22.0383006,10.3597282 21.900796,9.64289511 21.9079986,8.91981586 C21.8986039,7.52422056 22.4358936,6.1838602 23.3979809,5.20280197 C24.3864585,4.21227715 25.6974573,3.63771646 27.0746918,3.59143999 L27.0746918,3.59143999 Z M27.0544963,5.76307439 C26.6427316,5.76307439 26.2489185,5.84294793 25.874179,6.0050102 C25.5084395,6.15867716 25.1758953,6.38570528 24.8958171,6.67293827 C24.6183451,6.96089707 24.394701,7.29916301 24.236096,7.6707788 C24.0705084,8.06520741 23.9871746,8.4911578 23.9915055,8.92097345 C23.9915055,9.34580811 24.0734097,9.75212137 24.236096,10.1399132 C24.3999043,10.5265475 24.6198113,10.8668783 24.8958171,11.1597479 C25.1718228,11.4526176 25.4983175,11.6829775 25.874179,11.8508277 C26.2489185,12.0198355 26.6427316,12.1031818 27.0544963,12.1031818 C27.8671489,12.0996575 28.6444316,11.7597755 29.2120536,11.1597479 C29.4891813,10.8668783 29.7079663,10.5265475 29.8717746,10.1399132 C30.0355829,9.75212137 30.1163651,9.34580811 30.1163651,8.92097345 C30.0737301,8.05857066 29.7764068,7.33160563 29.2232733,6.73892076 C28.6712618,6.14623589 27.95432,5.82095377 27.0758138,5.7619168 L27.0544963,5.7619168 L27.0544963,5.76307439 L27.0544963,5.76307439 Z M37.8759418,3.59143999 C38.5704441,3.59143999 39.2256773,3.73382327 39.8427633,4.01858983 C41.0684526,4.57952795 42.0468175,5.59266315 42.5859914,6.85930987 C42.8619971,7.50408619 43,8.19053565 43,8.92097345 C43,9.65372642 42.865363,10.3367031 42.5960891,10.9722187 C42.3268152,11.6077343 41.9621735,12.1680068 41.5010419,12.6495632 C41.0357953,13.1354832 40.4832027,13.5231734 39.8741786,13.7909446 C39.2359203,14.0714998 38.5483656,14.2129814 37.8546243,14.2065186 C37.1698679,14.2117825 36.4908295,14.0776433 35.8563874,13.8117812 C34.6186646,13.2972367 33.6311989,12.2942618 33.1131594,11.0254678 C32.8399352,10.3596439 32.7028132,9.64281402 32.7103705,8.91981586 C32.6984985,7.52395183 33.2357111,6.18277402 34.1992309,5.20280197 C35.1877085,4.21227715 36.4987072,3.63771646 37.8759418,3.59143999 L37.8759418,3.59143999 Z M37.8557462,5.76307439 C37.4439815,5.76307439 37.0501684,5.84294793 36.6754289,6.0050102 C36.3096895,6.15867716 35.9771452,6.38570528 35.697067,6.67293827 C35.4195767,6.96063678 35.1962606,7.29898198 35.0384679,7.6707788 C34.8720107,8.06496383 34.7882728,8.49102538 34.7927555,8.92097345 C34.7927555,9.34580811 34.8746596,9.75212137 35.0384679,10.1399132 C35.2011542,10.5265475 35.4210613,10.8668783 35.697067,11.1597479 C35.9730728,11.4526176 36.2995674,11.6829775 36.6754289,11.8508277 C37.0501684,12.0198355 37.4439815,12.1031818 37.8557462,12.1031818 C38.6684024,12.0980306 39.4454511,11.7584275 40.0144255,11.1597479 C40.29196,10.8637191 40.51511,10.5181733 40.6730246,10.1399132 C40.8368329,9.75212137 40.9176151,9.34580811 40.9176151,8.92097345 C40.87498,8.05857066 40.5776567,7.33160563 40.0245232,6.73892076 C39.4725117,6.14623589 38.7555699,5.82095377 37.8770638,5.7619168 L37.8557462,5.7619168 L37.8557462,5.76307439 L37.8557462,5.76307439 Z" fill="#8F8F8F"></path>
                    </g>
                </g>
            </g>
        </g>
    </g>
</svg>