<?xml version="1.0" encoding="UTF-8"?>
<svg width="208px" height="106px" viewBox="0 0 208 106" version="1.1" xmlns="http://www.w3.org/2000/svg" xmlns:xlink="http://www.w3.org/1999/xlink">
    <title>perforce-logo@1x</title>
    <g id="应用集成" stroke="none" stroke-width="1" fill="none" fill-rule="evenodd">
        <g transform="translate(-888.000000, -2202.000000)" id="编组-8备份-19">
            <g transform="translate(888.000000, 2202.000000)">
                <rect id="矩形备份-8" fill-opacity="0" fill="#FFFFFF" x="0" y="0" width="208" height="106" rx="4"></rect>
                <g id="logo" transform="translate(19.000000, 43.000000)" fill="#404040" fill-rule="nonzero">
                    <path d="M2.42857143,11.3 C2.12857143,11.3 1.87857143,11.05 1.87857143,10.75 L1.87857143,2.86428571 C1.87857143,2.56428571 2.12857143,2.31428571 2.42857143,2.31428571 L5.94285714,2.31428571 C8.5,2.31428571 10.5642857,3.91428571 10.6642857,6.57857143 C10.5642857,9.3 8.5,11.3 5.97142857,11.3 L2.42857143,11.3 Z M1.3,19.4142857 C1.56428571,19.4142857 1.86428571,19.2785714 1.87857143,19.0428571 L1.87857143,13.4214286 C1.87857143,13.1214286 2.12857143,12.8714286 2.42857143,12.8714286 L6.68571429,12.8714286 C9.93571429,12.8714286 12.6285714,10.3642857 12.6285714,6.94285714 C12.6285714,6.87857143 12.6214286,6.82142857 12.6214286,6.75714286 C12.6214286,6.69285714 12.6285714,6.62857143 12.6285714,6.57142857 C12.6285714,3.2 9.93571429,0.714285714 6.65714286,0.714285714 L0.557142857,0.714285714 C0.25,0.714285714 0,0.964285714 0,1.26428571 L0,18.8285714 C0,19.1928571 0.357142857,19.4142857 0.664285714,19.4142857 L1.3,19.4142857 Z" id="SvgjsPath1035"></path>
                    <path d="M32.7928571,0.714285714 L32.1571429,0.714285714 L22.6142857,0.714285714 L21.9857143,0.714285714 C21.6785714,0.714285714 21.4285714,0.964285714 21.4285714,1.26428571 L21.4285714,1.63571429 L21.4285714,18.4571429 L21.4285714,18.8285714 C21.4285714,19.1357143 21.6785714,19.3785714 21.9857143,19.3785714 L22.6142857,19.3785714 L32.1571429,19.3785714 L32.7928571,19.3785714 C33.0928571,19.3785714 33.3428571,19.1357143 33.3428571,18.8285714 L33.3428571,18.65 L33.3428571,18.4571429 C33.3428571,18.1571429 33.0928571,17.9071429 32.7928571,17.9071429 L32.1571429,17.9071429 L23.8857143,17.9071429 C23.5785714,17.9071429 23.3285714,17.6642857 23.3285714,17.3571429 L23.3285714,11.1 C23.3285714,10.7928571 23.5785714,10.55 23.8857143,10.55 L30.8642857,10.55 L31.5,10.55 C31.8,10.55 32.05,10.3 32.05,10 L32.05,9.97142857 C32.05,9.91428571 32.05,9.97142857 32.0571429,9.82857143 C32.0428571,9.65 32.05,9.68571429 32.05,9.62857143 L32.05,9.6 C32.05,9.29285714 31.8,9.05 31.5,9.05 L30.8642857,9.05 L23.8857143,9.05 C23.5785714,9.05 23.3285714,8.80714286 23.3285714,8.5 L23.3285714,2.76428571 C23.3285714,2.45714286 23.5785714,2.21428571 23.8857143,2.21428571 L32.1571429,2.21428571 L32.7928571,2.21428571 C33.0928571,2.21428571 33.3428571,1.96428571 33.3428571,1.66428571 L33.3428571,1.63571429 L33.3428571,1.28571429 L33.3428571,1.26428571 C33.3428571,0.964285714 33.0928571,0.714285714 32.7928571,0.714285714" id="SvgjsPath1036"></path>
                    <path d="M44.6,10.75 C44.2928571,10.75 44.0428571,10.5 44.0428571,10.2 L44.0428571,2.84285714 C44.0428571,2.53571429 44.2928571,2.29285714 44.6,2.29285714 L48.9642857,2.29285714 C51.4571429,2.29285714 53.2214286,3.87857143 53.3285714,6.26428571 C53.2214286,8.75714286 51.4571429,10.75 48.9857143,10.75 L44.6,10.75 Z M43.5214286,19.3785714 C43.8285714,19.3785714 44.0214286,19.2214286 44.0214286,19.0428571 L44.0214286,12.8714286 C44.0214286,12.5714286 44.2642857,12.3214286 44.5714286,12.3214286 L48.9571429,12.3214286 C49.1357143,12.3428571 49.3,12.4428571 49.3928571,12.6 L53.0071429,19.0642857 C53.1357143,19.3 53.2428571,19.3785714 53.5571429,19.3785714 L54.9428571,19.3785714 C54.9428571,19.3785714 55.5071429,19.3785714 55.0642857,18.5357143 L51.5285714,12.3357143 L51.5571429,12.3785714 C51.3857143,12.0785714 51.8142857,11.9357143 51.8142857,11.9357143 C53.9071429,11.2571429 55.5214286,8.7 55.4357143,6.19285714 C55.5,4.19285714 54.5285714,2.16428571 51.8785714,1.09285714 C51.7428571,1.03571429 50.8714286,0.714285714 49.3857143,0.714285714 L42.4857143,0.714285714 C42.2714286,0.714285714 42.1428571,0.871428571 42.1428571,1.05 L42.1428571,18.8285714 C42.1428571,19.1357143 42.3928571,19.3785714 42.7,19.3785714 L43.5214286,19.3785714 Z" id="SvgjsPath1037"></path>
                    <path d="M66.1857143,19.3785714 L66.45,19.3785714 C66.7142857,19.3785714 66.8785714,19.2214286 66.8785714,19.0428571 L66.8785714,18.6642857 L66.8785714,11.8 C66.8785714,11.5 67.1285714,11.2571429 67.4285714,11.2571429 L74.6428571,11.2571429 L75.2785714,11.2571429 C75.6785714,11.2571429 75.6214286,10.7857143 75.6214286,10.4928571 C75.6214286,10.4928571 75.6214286,10.4857143 75.6214286,10.4785714 C75.6285714,10.3571429 75.6214286,10.2285714 75.6214286,10.1214286 C75.6214286,9.93571429 75.4642857,9.77857143 75.2785714,9.77857143 L74.6428571,9.77857143 L67.4285714,9.77857143 C67.1285714,9.77857143 66.8785714,9.53571429 66.8785714,9.22857143 L66.8785714,2.76428571 C66.8785714,2.45714286 67.1285714,2.21428571 67.4285714,2.21428571 L75.7285714,2.21428571 L76.3642857,2.21428571 C76.6642857,2.21428571 76.9142857,1.96428571 76.9142857,1.66428571 L76.9142857,1.63571429 L76.9142857,1.28571429 L76.9142857,1.26428571 C76.9142857,0.964285714 76.6642857,0.714285714 76.3642857,0.714285714 L75.7285714,0.714285714 L66.1857143,0.714285714 L65.5571429,0.714285714 C65.25,0.714285714 65,0.964285714 65,1.26428571 L65,1.63571429 L65,18.4571429 L65,18.8285714 C65,19.1357143 65.25,19.3785714 65.5571429,19.3785714 L65.8214286,19.3785714 L66.1857143,19.3785714 Z" id="SvgjsPath1038"></path>
                    <path d="M85.4071429,7.5 C85.55,7.12857143 85.7142857,6.77142857 85.9071429,6.43571429 C85.7214286,6.26428571 85.2571429,5.9 85.2857143,5.87142857 C87.7071429,2.97142857 90.8642857,2.1 93.6571429,2.60714286 C94.2285714,2.68571429 94.8,2.82142857 95.3642857,3.02857143 C99.3642857,4.51428571 101.385714,8.92142857 99.8857143,12.8785714 C99.7357143,13.2714286 99.55,13.65 99.35,14 C99.5714286,14.1928571 100.057143,14.55 100.028571,14.5785714 C97.3428571,17.7571429 93.7642857,18.4928571 90.7857143,17.6071429 C90.5,17.5357143 90.2142857,17.45 89.9285714,17.35 C85.9357143,15.8642857 83.9071429,11.4571429 85.4071429,7.5 L85.4071429,7.5 Z M99.05,0.714285714 C98.5428571,1.2 97.9357143,1.78571429 97.6357143,2.05 C97.1642857,1.78571429 96.6571429,1.54285714 96.1285714,1.35 C91.5857143,-0.335714286 86.8,1.57142857 84.1642857,5.12142857 C82.7857143,7.15714286 81.9714286,9.66428571 82.1714286,12.2428571 C82.1714286,12.2428571 82.1785714,17.0928571 86.6571429,19.95 C87.0214286,19.45 87.4857143,18.8071429 87.7928571,18.3928571 C88.2928571,18.6785714 88.8214286,18.9357143 89.3785714,19.1428571 C94.5214286,21.05 100.221429,18.6142857 102.085714,13.7071429 C102.085714,13.7071429 103.45,10.7142857 103,7.44285714 C103,7.44285714 102.65,3.02857143 99.05,0.714285714 L99.05,0.714285714 Z" id="SvgjsPath1039"></path>
                    <path d="M113.171429,10.75 C112.864286,10.75 112.614286,10.5 112.614286,10.2 L112.614286,2.84285714 C112.614286,2.53571429 112.864286,2.29285714 113.171429,2.29285714 L117.535714,2.29285714 C120.028571,2.29285714 121.792857,3.87857143 121.9,6.26428571 C121.792857,8.75714286 120.028571,10.75 117.557143,10.75 L113.171429,10.75 Z M112.092857,19.3785714 C112.4,19.3785714 112.592857,19.2214286 112.592857,19.0428571 L112.592857,12.8714286 C112.592857,12.5714286 112.842857,12.3214286 113.142857,12.3214286 L117.528571,12.3214286 C117.707143,12.3428571 117.871429,12.4428571 117.964286,12.6 L121.571429,19.0642857 C121.707143,19.3 121.814286,19.3785714 122.128571,19.3785714 L123.514286,19.3785714 C123.514286,19.3785714 124.078571,19.3785714 123.635714,18.5357143 L120.1,12.3357143 L120.128571,12.3785714 C119.957143,12.0785714 120.385714,11.9357143 120.385714,11.9357143 C122.478571,11.2571429 124.092857,8.7 124.007143,6.19285714 C124.071429,4.19285714 123.1,2.16428571 120.45,1.09285714 C120.314286,1.03571429 119.442857,0.714285714 117.957143,0.714285714 L111.057143,0.714285714 C110.842857,0.714285714 110.714286,0.871428571 110.714286,1.05 L110.714286,18.8285714 C110.714286,19.1357143 110.964286,19.3785714 111.271429,19.3785714 L112.092857,19.3785714 Z" id="SvgjsPath1040"></path>
                    <path d="M149.3,15.6214286 C149.514286,15.8142857 149.957143,16.3 149.507143,16.6571429 C147.542857,18.1928571 145.407143,19.1928571 143.057143,19.1928571 C142.942857,19.1928571 142.835714,19.1857143 142.728571,19.1785714 C142.628571,19.1857143 142.528571,19.1928571 142.421429,19.1928571 C137.135714,19.1928571 132.857143,15.0642857 132.857143,9.80714286 C132.857143,9.74285714 132.864286,9.68571429 132.864286,9.62142857 C132.864286,9.55714286 132.857143,9.5 132.857143,9.43571429 C132.857143,4.20714286 137.135714,2.0301221e-14 142.421429,2.0301221e-14 C142.507143,2.0301221e-14 142.578571,0.00714285714 142.657143,0.00714285714 C142.792857,0.00714285714 142.921429,2.0301221e-14 143.057143,2.0301221e-14 C145.75,2.0301221e-14 147.757143,0.885714286 149.478571,2.42857143 C150.014286,2.87857143 149.507143,3.27857143 149.507143,3.27857143 L149.1,3.66428571 C148.942857,3.82142857 148.507143,4.16428571 148.307143,3.97857143 C148.057143,3.73571429 148,3.69285714 148,3.69285714 L148.307143,3.97857143 C148.057143,3.75 148.178571,3.85714286 148,3.69285714 C146.571429,2.42857143 144.778571,1.64285714 142.75,1.56428571 C138.335714,1.72857143 134.914286,5.28571429 134.814286,9.62142857 C134.914286,13.9285714 138.335714,17.4571429 142.742857,17.6214286 C144.857143,17.5428571 146.485714,16.6857143 148,15.4428571 C148,15.4428571 148.65,14.9428571 149.3,15.6214286" id="SvgjsPath1041"></path>
                    <path d="M169.221429,0.714285714 L168.585714,0.714285714 L159.05,0.714285714 L158.414286,0.714285714 C158.107143,0.714285714 157.857143,0.964285714 157.857143,1.26428571 L157.857143,1.63571429 L157.857143,18.4571429 L157.857143,18.8285714 C157.857143,19.1357143 158.107143,19.3785714 158.414286,19.3785714 L159.05,19.3785714 L168.585714,19.3785714 L169.221429,19.3785714 C169.528571,19.3785714 169.778571,19.1357143 169.778571,18.8285714 L169.778571,18.65 L169.778571,18.4571429 C169.778571,18.1571429 169.528571,17.9071429 169.221429,17.9071429 L168.585714,17.9071429 L160.314286,17.9071429 C160.007143,17.9071429 159.757143,17.6642857 159.757143,17.3571429 L159.757143,11.1 C159.757143,10.7928571 160.007143,10.55 160.314286,10.55 L167.292857,10.55 L167.928571,10.55 C168.228571,10.55 168.478571,10.3 168.478571,10 L168.478571,9.97142857 C168.478571,9.91428571 168.478571,9.97142857 168.485714,9.82857143 C168.478571,9.65 168.478571,9.68571429 168.478571,9.62857143 L168.478571,9.6 C168.478571,9.29285714 168.228571,9.05 167.928571,9.05 L167.292857,9.05 L160.314286,9.05 C160.007143,9.05 159.757143,8.80714286 159.757143,8.5 L159.757143,2.76428571 C159.757143,2.45714286 160.007143,2.21428571 160.314286,2.21428571 L168.585714,2.21428571 L169.221429,2.21428571 C169.528571,2.21428571 169.778571,1.96428571 169.778571,1.66428571 L169.778571,1.63571429 L169.778571,1.28571429 L169.778571,1.26428571 C169.778571,0.964285714 169.528571,0.714285714 169.221429,0.714285714" id="SvgjsPath1042"></path>
                </g>
            </g>
        </g>
    </g>
</svg>