<?xml version="1.0" encoding="UTF-8"?>
<svg width="208px" height="106px" viewBox="0 0 208 106" version="1.1" xmlns="http://www.w3.org/2000/svg" xmlns:xlink="http://www.w3.org/1999/xlink">
    <title>bolyv-logo </title>
    <g id="应用集成" stroke="none" stroke-width="1" fill="none" fill-rule="evenodd">
        <g transform="translate(-382.000000, -2214.000000)" id="zabbix备份-14">
            <g transform="translate(382.000000, 2214.000000)">
                <rect id="蒙版" fill-opacity="0" fill="#FFFFFF" x="0" y="0" width="208" height="106" rx="4"></rect>
                <g id="4a4bc6a" transform="translate(25.000000, 43.000000)" fill="#023491" fill-rule="nonzero">
                    <path d="M27.5792537,7.27900498 C26.5809453,7.84104478 26.6123881,12.64 27.5792537,13.1037811 C28.4675124,13.5282587 32.6218905,11.2447264 32.6218905,10.191393 C32.6218905,9.05945274 28.5421891,6.74054726 27.5792537,7.27900498 Z" id="路径"></path>
                    <path d="M31.7493532,0.817510295 L27.0800995,0.817510295 C23.0925761,0.817510295 19.8600498,4.05003882 19.8600498,8.03756219 L19.8600498,12.3177114 C19.8600498,16.3052348 23.0925761,19.5377634 27.0800995,19.5377634 L31.7493532,19.5377634 C33.6645492,19.5388046 35.5016034,18.7784581 36.8558516,17.4242098 C38.2100999,16.0699616 38.9704464,14.2329074 38.9694052,12.3177114 L38.9694052,8.03756219 C38.9704464,6.12236625 38.2100999,4.28531204 36.8558516,2.93106381 C35.5016034,1.57681557 33.6645492,0.816469018 31.7493532,0.817510295 L31.7493532,0.817510295 Z M34.331592,12.3963184 C34.3294279,13.7737973 33.2132998,14.8899254 31.8358209,14.8920896 L26.9936318,14.8920896 C25.6167906,14.8899213 24.501791,13.7731613 24.501791,12.3963184 L24.501791,7.95895522 C24.501791,6.58211232 25.6167906,5.46535234 26.9936318,5.46318408 L31.8358209,5.46318408 C33.2132998,5.46534823 34.3294279,6.5814763 34.331592,7.95895522 L34.331592,12.3963184 Z" id="形状"></path>
                    <path d="M10.0145274,0.817512438 L0,0.817512438 L0,16.6843284 C0,18.2602358 1.2775254,19.5377612 2.85343284,19.5377612 L4.81860697,19.5377612 L4.81860697,5.64004975 L10.2189055,5.64004975 C14.039204,5.64004975 14.2828856,11.4962687 10.2189055,11.4962687 L7.64059701,11.4962687 L5.92696517,16.3816915 L10.0145274,16.3816915 C14.6287562,16.3816915 18.0324378,13.0526866 18.0324378,8.59174129 C18.0324378,4.13079602 14.6287562,0.817512438 10.0145274,0.817512438 Z" id="路径"></path>
                    <polygon id="路径" points="61.4195522 9.3581592 56.2354229 0.817512438 50.7172139 0.817512438 58.7469154 13.9095025 55.7362687 19.2036816 61.1090547 19.2036816 71.6030846 0.817512438 66.179204 0.817512438"></polygon>
                    <path d="M87.7293035,0.817512438 L85.7641294,0.817512438 L85.1195522,2.65691542 C85.1195522,2.69228856 85.0841791,2.72766169 85.0723881,2.76303483 L82.3840299,10.4665174 L81.5979602,12.7382587 L77.160597,0.817512438 L71.9528856,0.817512438 L77.1684577,14.4754726 L77.860199,16.2598507 C78.5461922,18.0293654 80.2464554,19.1977113 82.1442786,19.2036816 L84.439602,19.2036816 L90.9954229,0.817512438 L87.7293035,0.817512438 Z" id="路径"></path>
                    <path d="M50.4106468,14.7152239 L50.4106468,14.7152239 L46.2405473,14.7152239 L46.2405473,13.870199 C46.2405473,13.870199 46.2405473,13.8426866 46.2405473,13.8269652 L46.2405473,0.817512438 L41.429801,0.817512438 L41.429801,16.6843284 C41.429801,18.2602358 42.7073264,19.5377612 44.2832338,19.5377612 L52.501592,19.5377612 L55.4179104,14.7270149 L52.8867662,14.7270149 L50.4106468,14.7152239 Z" id="路径"></path>
                    <path d="M98.8954229,0.0235820896 L95.7118408,0.0235820896 L92.3160199,9.75119403 L94.5799005,9.75119403 L94.5799005,20.099801 L95.0908458,20.099801 C96.6103158,20.099801 97.8420896,18.8680272 97.8420896,17.3485572 L97.8420896,7.54626866 L96.2935323,7.54626866 L98.8954229,0.0235820896 Z" id="路径"></path>
                    <polygon id="路径" points="98.2469154 19.840398 101.395124 19.840398 103.883035 13.520398 100.809502 13.520398"></polygon>
                    <path d="M113.048607,12.7421891 L113.048607,9.94378109 C113.046524,9.90842291 113.017211,9.88083419 112.981791,9.88089552 L107.573632,9.88089552 C107.538901,9.88089552 107.510746,9.85274069 107.510746,9.81800995 L107.510746,8.85114428 C107.510746,8.81641354 107.538901,8.78825871 107.573632,8.78825871 L110.564627,8.78825871 C111.067741,8.78930251 111.550606,8.59017248 111.906731,8.23478514 C112.262856,7.8793978 112.462986,7.39694607 112.462985,6.89383085 L112.462985,0.45199005 C112.459907,0.422237092 112.43743,0.398154614 112.40796,0.393034826 L99.2923881,0.393034826 C99.2576573,0.393034826 99.2295025,0.421189656 99.2295025,0.455920398 L99.2295025,8.72537313 C99.2295025,8.76010388 99.2576573,8.78825871 99.2923881,8.78825871 L104.401841,8.78825871 C104.436572,8.78825871 104.464726,8.81641354 104.464726,8.85114428 L104.464726,9.82587065 C104.464726,9.86060139 104.436572,9.88875622 104.401841,9.88875622 L98.840398,9.88875622 C98.8056673,9.88875622 98.7775123,9.91691105 98.7775123,9.95164179 L98.7775123,12.7500498 C98.7775123,12.7854692 98.8050398,12.8147822 98.840398,12.8168657 L104.409701,12.8168657 C104.42638,12.8168657 104.442375,12.8234911 104.454168,12.8352844 C104.465962,12.8470778 104.472587,12.863073 104.472587,12.8797512 L104.472587,20.0447761 C104.472587,20.0614544 104.479212,20.0774496 104.491006,20.0892429 C104.502799,20.1010363 104.518794,20.1076617 104.535473,20.1076617 L107.447861,20.1076617 C107.464539,20.1076617 107.480534,20.1010363 107.492328,20.0892429 C107.504121,20.0774496 107.510746,20.0614544 107.510746,20.0447761 L107.510746,12.8718905 C107.510746,12.8552123 107.517372,12.8392171 107.529165,12.8274237 C107.540958,12.8156304 107.556954,12.809005 107.573632,12.809005 L112.981791,12.809005 C113.017852,12.8070515 113.046653,12.7782503 113.048607,12.7421891 Z M102.189055,5.71079602 C102.154324,5.71079602 102.126169,5.68264119 102.126169,5.64791045 L102.126169,3.53731343 C102.126169,3.50258269 102.154324,3.47442786 102.189055,3.47442786 L109.499502,3.47442786 C109.534233,3.47442786 109.562388,3.50258269 109.562388,3.53731343 L109.562388,5.01905473 C109.556081,5.39844973 109.250042,5.70448899 108.870647,5.71079602 L102.189055,5.71079602 Z" id="形状"></path>
                    <polygon id="路径" points="108.100299 13.8426866 110.305224 19.840398 113.473085 19.840398 111.228856 13.8426866"></polygon>
                    <polygon id="路径" points="122.79194 3.77706468 126.537562 3.63950249 126.537562 0.51880597 116.310796 0.931492537 116.310796 4.09935323 119.698756 3.96179104 119.698756 6.23746269 116.094627 6.23746269 116.094627 9.3581592 119.675174 9.3581592 119.698756 20.2295025 122.79194 20.2295025 122.79194 9.3581592 126.690846 9.3581592 126.690846 6.23746269 122.79194 6.23746269"></polygon>
                    <path d="M130.735174,13.9763184 L130.735174,2.61761194 L127.838507,2.61761194 L127.838507,15.6074129 L129.10408,15.6074129 C130.004908,15.6074129 130.735174,14.877147 130.735174,13.9763184 L130.735174,13.9763184 Z" id="路径"></path>
                    <path d="M116.094627,19.840398 L116.656667,19.840398 C117.94223,19.8275858 118.980644,18.7874243 118.991294,17.5018408 L118.991294,10.1874627 L116.094627,10.1874627 L116.094627,19.840398 Z" id="路径"></path>
                    <path d="M123.715572,19.840398 L124.277612,19.840398 C125.563176,19.8275858 126.601589,18.7874243 126.612239,17.5018408 L126.612239,10.1874627 L123.715572,10.1874627 L123.715572,19.840398 Z" id="路径"></path>
                    <path d="M131.81602,16.9987562 C131.817068,17.1224382 131.768669,17.2414149 131.681579,17.3292427 C131.594489,17.4170704 131.475925,17.4664721 131.352239,17.4664677 L127.956418,17.4664677 L126.985622,20.2177114 L132.527413,20.2177114 C133.829816,20.2177114 134.885622,19.1619053 134.885622,17.8595025 L134.885622,0.330149254 L131.831741,0.330149254 L131.81602,16.9987562 Z" id="路径"></path>
                    <rect id="矩形" x="141.52791" y="4.65353234" width="8.340199" height="2.57044776"></rect>
                    <path d="M149.325721,14.9824876 L149.443632,14.7309453 L149.443632,11.3036816 L150.347612,11.3036816 L150.347612,8.76860697 L149.443632,8.76860697 L149.443632,7.6641791 L146.908557,7.6641791 L146.908557,8.76860697 L144.943383,8.76860697 L144.943383,7.6720398 L142.404378,7.6720398 L142.404378,8.78039801 L141.335323,8.78039801 L141.335323,11.3154726 L142.396517,11.3154726 L142.396517,15.0610945 L144.039403,16.6843284 C143.190447,17.0487097 142.274848,17.2320971 141.351045,17.2227861 L141.351045,19.7578607 C142.959397,19.7843435 144.545179,19.3770363 145.941692,18.5787562 L146.995025,19.6202985 L150.347612,19.4552239 L147.930448,16.9476617 C148.489497,16.364657 148.959633,15.702494 149.325721,14.9824876 Z M146.908557,11.3036816 L146.908557,14.1492537 C146.696039,14.5020924 146.448485,14.8326032 146.169652,15.1357711 L144.90801,13.8269652 L144.90801,11.319403 L146.908557,11.3036816 Z" id="形状"></path>
                    <path d="M157.21393,11.39801 L157.21393,7.40084577 L154.773184,9.48393035 L153.464378,3.88711443 L156.478955,3.88711443 C156.920032,3.88753985 157.334878,3.67762259 157.595782,3.32198498 C157.856686,2.96634736 157.932377,2.5076179 157.799552,2.08701493 L157.21393,0.251542289 L154.340846,0.251542289 L154.580597,1.19482587 L152.929851,1.19482587 L152.650796,0.015721393 L149.353234,0.015721393 L149.636219,1.19482587 L139.460547,1.15159204 C138.491992,1.14719137 137.700893,1.92425698 137.68796,2.89273632 L137.45607,20.0447761 L138.242139,20.0447761 C139.444601,20.0667308 140.438797,19.112935 140.466716,17.910597 L140.769353,4.15437811 C140.771501,4.01265103 140.887013,3.8988892 141.028756,3.89890547 L150.123582,3.89890547 L151.994428,11.8853731 L150.32796,13.3081592 L150.371194,17.4075124 L152.792289,15.2890547 L153.896716,20.0447761 L157.21393,19.9740299 L155.555323,12.8522388 L157.21393,11.39801 Z" id="路径"></path>
                </g>
            </g>
        </g>
    </g>
</svg>