<svg width="208" height="106" viewBox="0 0 208 106" fill="none" xmlns="http://www.w3.org/2000/svg">
<path d="M204 0H4C1.79086 0 0 1.79086 0 4V102C0 104.209 1.79086 106 4 106H204C206.209 106 208 104.209 208 102V4C208 1.79086 206.209 0 204 0Z" fill="white"/>
<path d="M70.2424 45.8985L69.6124 42.1762C69.412 40.9735 68.9539 40 68.5816 40C68.2094 40 67.8944 41.0022 67.8944 42.2048V43.1783C67.8944 44.381 66.8922 45.3831 65.6896 45.3831H64.7161C64.6588 45.3831 64.5729 45.3831 64.5156 45.3831V48.0747C64.5729 48.0747 64.6588 48.0747 64.7161 48.0747H68.3812C69.6124 48.0747 70.4428 47.1012 70.2424 45.8985Z" fill="#2453FF"/>
<path d="M61.4522 42.7488H55.4964C55.4391 42.7488 55.4105 42.7488 55.3532 42.7488H49.2543C49.1684 42.7488 49.1111 42.7488 49.0538 42.7775V42.2048C49.0538 41.0022 48.7388 40 48.3666 40C47.9944 40 47.5362 40.9735 47.3358 42.1762L46.7059 45.8985C46.5054 47.1012 47.3358 48.0747 48.5384 48.0747H52.2035C52.5758 48.0747 52.948 48.0174 53.2343 47.9029C53.1198 48.5328 52.5758 48.991 51.9172 48.991H46.7631C45.9327 48.991 45.3028 48.2465 45.446 47.4161L45.9614 44.2951C46.1045 43.4647 45.4746 42.7202 44.6442 42.7202H19.1029C18.5589 42.7202 18.1008 43.0352 17.8717 43.5219L13.0612 50.8808C12.9753 50.9953 12.9753 51.1672 13.0899 51.2817L14.0348 52.3984C14.1493 52.5416 14.3497 52.5702 14.4929 52.4557L17.7572 49.8786V65.5699C17.7572 66.3144 18.3585 66.9157 19.1029 66.9157H26.3759C27.1204 66.9157 27.7217 66.3144 27.7217 65.5699V60.1295C27.7217 59.385 28.323 58.7837 29.0675 58.7837H47.1926C47.9371 58.7837 48.5384 59.385 48.5384 60.1295V65.5699C48.5384 66.3144 49.1397 66.9157 49.8842 66.9157H57.1572C57.9016 66.9157 58.5029 66.3144 58.5029 65.5699V59.6427H54.6374C53.4348 59.6427 52.4326 58.6406 52.4326 57.4379V53.6869C52.4326 52.9711 52.7762 52.3411 53.3202 51.9403V56.4358C53.3202 57.6384 54.3224 58.6406 55.525 58.6406H61.4522C62.6548 58.6406 63.657 57.6384 63.657 56.4358V44.9823C63.657 43.751 62.6548 42.7488 61.4522 42.7488Z" fill="#2453FF"/>
<path d="M75.1107 43.4933H83.2999C87.1941 43.4933 89.7998 45.3831 89.7998 49.0196C89.7998 51.9975 87.7668 53.7728 85.791 54.4027C86.3923 54.8895 86.8219 55.5767 87.1655 56.2926C87.9958 57.9819 88.5399 59.8145 90.2865 59.8145C90.716 59.8145 91.0883 59.6713 91.0883 59.6713L90.6874 63.1933C90.6874 63.1933 89.628 63.451 88.7117 63.451C86.3637 63.451 85.0179 62.5347 83.6149 59.385C83.0136 57.9819 82.2118 55.4908 81.1237 55.4908H80.007V63.3365H75.082V43.4933H75.1107ZM80.0357 47.0725V51.9402H81.811C83.214 51.9402 84.8748 51.5107 84.8748 49.3918C84.8748 47.6452 83.758 47.0725 82.4123 47.0725H80.0357V47.0725Z" fill="black"/>
<path d="M96.4422 43.4933H101.424L108.125 63.3365H103.142L101.911 59.5854H95.2682L94.0656 63.3365H89.7705L96.4422 43.4933ZM96.4422 55.949H100.709L99.3628 51.7684C98.9047 50.3654 98.6756 48.361 98.6756 48.361H98.5611C98.5611 48.361 98.2747 50.394 97.8166 51.7398L96.4422 55.949Z" fill="black"/>
<path d="M108.297 43.4933H113.565L118.777 53.3433C119.206 54.2023 119.808 55.6913 120.266 56.8652H120.38C120.323 55.7485 120.18 54.1737 120.18 52.9997V43.4933H124.217V63.3365H119.063L113.651 53.5151C113.165 52.6274 112.621 51.3389 112.22 50.2795H112.105C112.191 51.3962 112.334 52.7133 112.334 53.8014V63.3365H108.297V43.4933Z" fill="black"/>
<path d="M125.277 53.3146C125.277 46.1276 128.828 43.1783 134.326 43.1783C140.11 43.1783 142.429 46.3566 141.799 50.6517L137.218 51.0526C137.704 47.9028 136.473 46.643 134.24 46.643C132.092 46.643 130.346 48.2178 130.346 53.3433C130.346 58.755 132.235 60.1294 134.383 60.1294C136.416 60.1294 138.048 58.8696 137.704 56.2639L141.999 56.6934C142.314 60.7308 139.422 63.68 134.125 63.68C128.742 63.7087 125.277 60.5303 125.277 53.3146Z" fill="black"/>
<path d="M143.001 43.4933H147.926V50.9953H153.939V43.4933H158.864V63.3651H153.939V54.9468H147.926V63.3651H143.001V43.4933Z" fill="black"/>
<path d="M160.84 43.4933H173.983V47.1584H165.736V51.4248H172.637V55.0613H165.736V59.7H174.269V63.3651H160.84V43.4933Z" fill="black"/>
<path d="M175.214 43.4933H183.403C187.298 43.4933 189.903 45.3831 189.903 49.0196C189.903 51.9975 187.87 53.7728 185.895 54.4027C186.496 54.8895 186.925 55.5767 187.269 56.2926C188.099 57.9819 188.643 59.8145 190.39 59.8145C190.82 59.8145 191.192 59.6713 191.192 59.6713L190.791 63.1933C190.791 63.1933 189.731 63.451 188.815 63.451C186.467 63.451 185.121 62.5347 183.718 59.385C183.117 57.9819 182.315 55.4908 181.227 55.4908H180.111V63.3365H175.186V43.4933H175.214ZM180.111 47.0725V51.9402H181.886C183.289 51.9402 184.95 51.5107 184.95 49.3918C184.95 47.6452 183.833 47.0725 182.487 47.0725H180.111V47.0725Z" fill="black"/>
<path d="M191.793 44.753C191.793 43.6363 192.623 43.1495 193.396 43.1495C194.17 43.1495 195 43.6363 195 44.753C195 45.8411 194.17 46.3279 193.396 46.3279C192.652 46.3565 191.793 45.8697 191.793 44.753ZM194.628 44.753C194.628 43.8654 194.055 43.4931 193.425 43.4931C192.795 43.4931 192.194 43.8654 192.194 44.753C192.194 45.612 192.795 46.0129 193.425 46.0129C194.055 46.0129 194.628 45.6407 194.628 44.753ZM192.881 43.9513H193.454C193.74 43.9513 194.026 44.0372 194.026 44.4381C194.026 44.6671 193.855 44.8103 193.654 44.8676L194.026 45.5261H193.683L193.339 44.8962H193.196V45.5261H192.881V43.9513ZM193.482 44.6671C193.626 44.6671 193.74 44.5812 193.74 44.4381C193.74 44.2663 193.597 44.2376 193.482 44.2376H193.196V44.6671H193.482Z" fill="black"/>
</svg>
