<?xml version="1.0" encoding="UTF-8"?>
<svg width="208px" height="106px" viewBox="0 0 208 106" version="1.1" xmlns="http://www.w3.org/2000/svg" xmlns:xlink="http://www.w3.org/1999/xlink">
    <title>logo-color-rollbar@1x</title>
    <g id="应用集成" stroke="none" stroke-width="1" fill="none" fill-rule="evenodd">
        <g transform="translate(-1138.000000, -2164.000000)" id="编组-8备份-20">
            <g transform="translate(1138.000000, 2164.000000)">
                <rect id="矩形备份-8" fill-opacity="0" fill="#FFFFFF" x="0" y="0" width="208" height="106" rx="4"></rect>
                <g id="logo-color-rollbar" transform="translate(22.000000, 35.000000)">
                    <path d="M42.7953333,1.06220667 C42.7948,0.993390667 42.7878667,0.924773333 42.7748,0.8572 C42.7748,0.836698667 42.7645333,0.818248 42.7584,0.797746667 C42.7522667,0.777246667 42.7317333,0.705493333 42.7153333,0.660392 L42.6846667,0.594789333 C42.6656,0.55566 42.6436,0.517976 42.6190667,0.482034667 C42.6046667,0.459484 42.5904,0.436933333 42.574,0.414382667 L42.5452,0.375432 C42.5288,0.356981333 42.5104,0.342630667 42.494,0.326229333 L42.4529333,0.277028 L42.4201333,0.254477333 C42.3901333,0.228785333 42.3586667,0.204829333 42.3258667,0.182724 L42.2458667,0.131472267 C42.2106667,0.1129972 42.1744,0.0965693333 42.1373333,0.0822704 L42.0512,0.0474190667 C42.0122667,0.0351186667 41.9712,0.0289684 41.9322667,0.0207681333 L41.8441333,0.00231741333 C41.7956,-0.000772469333 41.7470667,-0.000772469333 41.6985333,0.00231741333 L41.6165333,0.00231741333 C41.0672,0.0515192 33.8078667,0.744445333 25.6485333,4.38333333 C20.7488,6.56256 16.9561333,9.90829333 14.5698667,13.9694667 L13.9549333,14.236 C5.21949333,18.1352 0,25.7144 0,34.5112 L0,34.6588 C0,34.8613333 0.0581866667,35.0596 0.167128,35.2302667 C0.276070667,35.4009333 0.431452,35.5369333 0.615022667,35.6224 C0.755909333,35.6869333 0.909016,35.7208105 1.06398933,35.7208105 L30.0622667,35.7208105 C30.1186667,35.7208105 30.1749333,35.7162667 30.2304,35.7064 L30.3042667,35.688 C30.3390667,35.6777333 30.374,35.6716 30.4088,35.6593333 C30.4436,35.6470667 30.46,35.6346667 30.4866667,35.6224 C30.5133333,35.6101333 30.5481333,35.5978667 30.5769333,35.5814667 C30.6310667,35.5494667 30.6824,35.5130667 30.7306667,35.4728 L42.4161333,25.6201333 C42.5356,25.5197333 42.6313333,25.3941333 42.6965333,25.2522667 C42.7617333,25.1105333 42.7948,24.9561333 42.7933333,24.8 L42.7933333,1.06220667 L42.7953333,1.06220667 Z M32.2292,31.4258667 L31.1078667,32.3709333 L31.1078667,11.4089467 L40.6694667,3.35009333 L40.6694667,24.3121333 L32.2292,31.4258667 Z M13.1389467,25.8681333 L28.9818667,25.8681333 L28.9818667,33.5949333 L3.971,33.5949333 L13.1389467,25.8681333 Z M26.5116,6.3268 C30.246,4.68254667 34.1524,3.46064 38.1581333,2.68381333 L29.6113333,9.88984 C25.6662667,10.3712 21.786,11.2848667 18.0406667,12.6143867 C20.1564,10.0312933 23.01,7.88896 26.5116,6.3268 Z M16.0090667,15.6710667 C20.1710667,13.9578667 24.5281333,12.7632267 28.9818667,12.1141733 L28.9818667,23.7422667 L13.836,23.7422667 C13.9452,20.9228 14.6878667,18.1641333 16.0090667,15.6710667 Z M13.0917867,17.0282667 C12.1960533,19.3525333 11.7198933,21.8173333 11.68544,24.308 L2.25508,32.2664 C2.96850667,25.8005333 6.80830667,20.3924 13.0917867,17.0282667 Z" id="形状" fill="#3569F3"></path>
                    <path d="M50.9525333,29.6097333 L50.9525333,5.53776 L60.9158667,5.53776 C63.4908,5.53776 65.5606667,6.2054 67.1254667,7.54068 C68.6904,8.87597333 69.4721333,10.84336 69.4708,13.4428 C69.5069333,14.8337333 69.1714667,16.2089333 68.4990667,17.4269333 C67.8266667,18.6449333 66.8416,19.6616 65.6453333,20.3721333 L70.8054667,29.6138667 L63.9478667,29.6138667 L59.8702667,21.4136 L57.1970667,21.4136 L57.1970667,29.6138667 L50.9525333,29.6097333 Z M57.1970667,16.4032 L60.3008,16.4032 C60.6772,16.4176 61.0525333,16.3562667 61.4048,16.2228 C61.7569333,16.0893333 62.0786667,15.8864 62.3509333,15.6261333 C62.6194667,15.354 62.8286667,15.0290667 62.9656,14.672 C63.1025333,14.3149333 63.164,13.9334667 63.1462667,13.5514667 C63.1462667,12.6371733 62.8934667,11.9148667 62.3878667,11.3845733 C61.8821333,10.8542933 61.1769333,10.5884667 60.2721333,10.5871067 L57.1970667,10.5871067 L57.1970667,16.4032 Z M71.6008,21.1184 C71.5802667,19.5182667 71.9714667,17.9397333 72.7365333,16.5344 C73.484,15.1745333 74.5893333,14.0452 75.9326667,13.2686 C77.37,12.4451733 79.0038667,12.0271333 80.6601333,12.0590533 C82.4656,12.0590533 84.0482667,12.46224 85.4081333,13.2686 C86.744,14.0517333 87.8417333,15.1834667 88.5837333,16.5425333 C89.3490667,17.9450667 89.7409333,19.5208 89.7214667,21.1184 C89.7425333,22.7188 89.3506667,24.2976 88.5837333,25.7022667 C87.8405333,27.0590667 86.7429333,28.1885333 85.4081333,28.9701333 C84.0413333,29.7765333 82.4588,30.1797333 80.6601333,30.1797333 C79.0038667,30.2116 77.37,29.7936 75.9326667,28.9701333 C74.5902667,28.1950667 73.4850667,27.0678667 72.7365333,25.7105333 C71.9697333,24.3028 71.5786667,22.7212 71.6008,21.1184 Z M80.6601333,24.8372 C81.1178667,24.8554667 81.5738667,24.7689333 81.9930667,24.5842667 C82.4124,24.3994667 82.7838667,24.1213333 83.0792,23.7712 C83.6929333,23.0262667 84.0137333,22.0829333 83.9812,21.1184 C84.0133333,20.1537333 83.6925333,19.2106667 83.0792,18.4656 C82.772,18.1302667 82.3982667,17.8625333 81.982,17.6794667 C81.5657333,17.4962667 81.116,17.4017333 80.6612,17.4017333 C80.2064,17.4017333 79.7565333,17.4962667 79.3402667,17.6794667 C78.924,17.8625333 78.5504,18.1302667 78.2430667,18.4656 C77.6281333,19.2098667 77.3066667,20.1533333 77.3390667,21.1184 C77.3032,22.0876 77.6249333,23.0361333 78.2430667,23.7834667 C78.5384,24.1329333 78.9097333,24.4104 79.3285333,24.5944 C79.7474667,24.7785333 80.2029333,24.8644 80.6601333,24.8453333 L80.6601333,24.8372 Z M92.5362667,29.6016 L98.6373333,29.6016 L98.6373333,5.53776 L92.5362667,5.53776 L92.5362667,29.6016 Z M102.1716,29.6016 L108.272667,29.6016 L108.272667,5.53776 L102.1736,5.53776 L102.1716,29.6016 Z M111.806933,28.8061333 L111.806933,5.53776 L117.908,5.53776 L117.908,14.0169333 C118.313067,13.556 118.8112,13.1864 119.369733,12.9323867 C119.876667,12.7037333 120.408533,12.5345067 120.9544,12.4280667 C121.3592,12.34312 121.770933,12.2950933 122.1844,12.28456 C123.7712,12.28456 125.112667,12.6809067 126.2088,13.4736 C127.304933,14.2712 128.165467,15.3498667 128.6996,16.5958667 C129.267067,17.9001333 129.555467,19.3085333 129.546267,20.7309333 C129.546267,23.7144 128.6804,26.0378667 126.9488,27.7012 C125.2172,29.3644 122.666267,30.1946667 119.295867,30.1920346 C117.905867,30.1946667 116.519733,30.0433333 115.162933,29.7409333 C114.028933,29.4958667 112.909867,29.1865333 111.811067,28.8144 L111.806933,28.8061333 Z M117.908,20.7574667 L117.908,24.8372 C118.208267,24.9433333 118.516,25.0276 118.828533,25.0893333 C119.226933,25.1661333 119.632267,25.2025333 120.038,25.198 C120.490133,25.2144 120.9404,25.1332 121.358133,24.9598667 C121.776,24.7865333 122.151467,24.5250667 122.4592,24.1934667 C123.086533,23.5182667 123.399467,22.4474667 123.398138,20.9809333 C123.3952,20.4341333 123.303867,19.8913333 123.127467,19.3737333 C122.963333,18.8582667 122.671333,18.3928 122.2788,18.0206667 C121.8644,17.6484 121.320267,17.454 120.763733,17.4794667 C119.7524,17.4794667 119.024533,17.7924 118.5804,18.4184 C118.114133,19.1101333 117.880133,19.9321333 117.912133,20.7657333 L117.908,20.7574667 Z M142.164,29.6016 L141.946667,28.0128 C141.306667,28.7461333 140.513333,29.3316 139.624,29.7286667 C138.693333,30.0661333 137.706667,30.2254667 136.717333,30.1981333 C135.916,30.1878667 135.124,30.0408 134.372,29.7634667 C133.537333,29.4625333 132.8084,28.9229333 132.276933,28.2116 C131.6988,27.4598667 131.409733,26.4102667 131.409733,25.0626667 C131.409733,23.696 131.782933,22.5526667 132.5292,21.6329333 C133.319333,20.6866667 134.348,19.9696 135.509333,19.5561333 C136.797333,19.0824 138.16,18.8476 139.532,18.8632 C140.085333,18.8632 140.530667,18.8756 140.869333,18.9001333 C141.205333,18.9226667 141.565333,18.9596 141.950667,19.0088 L141.950667,18.6726667 C141.950667,18.0726667 141.801333,17.6216 141.5,17.3196 C141.197333,17.0170667 140.816,16.8041333 140.4,16.7045333 C139.986667,16.5988 139.562667,16.5444 139.136,16.5425333 C138.176,16.5261333 137.22,16.6645333 136.304,16.9525333 C135.592,17.1710667 134.917333,17.4930667 134.3,17.9078667 L131.99,14.4125333 C132.7116,13.8357333 133.728,13.3068667 135.038667,12.8257867 C136.349333,12.3446933 138.004,12.1021067 140.001333,12.098 C142.36,12.098 144.268,12.7062 145.724,13.9225333 C147.178667,15.1389333 147.906667,16.9492 147.906667,19.3532 L147.906667,29.6036 L142.164,29.6016 Z M141.946667,23.3918667 L141.946667,22.2745333 C141.401333,22.1649333 140.844,22.1161333 140.286667,22.1290667 C139.274667,22.1290667 138.529333,22.3278667 138.049333,22.7256 C137.826667,22.892 137.644,23.1085333 137.518667,23.3576 C137.393333,23.6068 137.328,23.8817333 137.328,24.1606667 C137.328,25.414 138.002667,26.0398667 139.349333,26.0385355 C139.982667,26.0362667 140.598667,25.8409333 141.117333,25.4788 C141.673333,25.1044 141.950667,24.4114667 141.950667,23.4001333 L141.946667,23.3918667 Z M151.377333,29.6016 L151.377333,12.6433333 L157.261333,12.6433333 L157.466667,14.7733333 C157.952,14.0966667 158.557333,13.5156 159.253333,13.0594933 C160.025333,12.5731067 160.924,12.32824 161.834667,12.35632 C162.250667,12.3517467 162.666667,12.37572 163.08,12.4280667 C163.392,12.46452 163.701333,12.5332267 164,12.63308 L163.212,17.8382667 C162.633333,17.6981333 162.038667,17.6293333 161.444,17.6332 C158.796,17.6332 157.472,19.0894667 157.472,22.0018667 L157.472,29.618 L151.377333,29.6016 Z" id="形状" fill="#343F55"></path>
                </g>
            </g>
        </g>
    </g>
</svg>