<?xml version="1.0" encoding="UTF-8"?>
<svg width="208px" height="106px" viewBox="0 0 208 106" version="1.1" xmlns="http://www.w3.org/2000/svg" xmlns:xlink="http://www.w3.org/1999/xlink">
    <title>salesforce_docs</title>
    <g id="应用集成" stroke="none" stroke-width="1" fill="none" fill-rule="evenodd">
        <g transform="translate(-629.000000, -1309.000000)" id="zabbix备份-8">
            <g transform="translate(629.000000, 1309.000000)">
                <rect id="蒙版" fill-opacity="0" fill="#FFFFFF" x="0" y="0" width="208" height="106" rx="4"></rect>
                <g id="salesforce-2" transform="translate(70.000000, 29.000000)" fill-rule="nonzero">
                    <path d="M28.5259148,5.23859553 C30.7361662,2.93566439 33.8132581,1.50732572 37.21641,1.50732572 C41.7403629,1.50732572 45.6872452,4.02991684 47.7891758,7.77476963 C49.6157425,6.9586937 51.6375473,6.50469316 53.764723,6.50469316 C61.9241103,6.50469316 68.5391548,13.1773624 68.5391548,21.408026 C68.5391548,29.6396499 61.9241103,36.3123192 53.764723,36.3123192 C52.7874213,36.3128893 51.8125108,36.2157475 50.854537,36.0223433 C49.003617,39.3239659 45.4764347,41.5547289 41.4279545,41.5547289 C39.7331701,41.5547289 38.1301736,41.1632924 36.7029325,40.4671994 C34.8265616,44.8807734 30.4549712,47.9754272 25.3599162,47.9754272 C20.0540506,47.9754272 15.5320872,44.6181693 13.796348,39.9097487 C13.0378282,40.0708235 12.2519367,40.154791 11.4455335,40.154791 C5.12828534,40.1548596 0.00688752716,34.9807763 0.00688752716,28.5971225 C0.00688752716,24.319241 2.30789785,20.5840609 5.72669071,18.5857176 C5.0228458,16.9661883 4.63134065,15.1786555 4.63134065,13.2993347 C4.63134065,5.95801284 10.5913155,0.00688752716 17.9424473,0.00688752716 C22.2584023,0.00688752716 26.0940827,2.0589453 28.5259148,5.23859553" id="路径" fill="#00A1E0"></path>
                    <path d="M9.93315874,24.8822483 C9.8902146,24.9945479 9.94879974,25.0180094 9.96245131,25.0374921 C10.0912837,25.1312009 10.2221742,25.1986355 10.3539565,25.2737535 C11.0529307,25.6446784 11.7129397,25.7529991 12.403133,25.7529991 C13.808902,25.7529991 14.6816422,25.0052497 14.6816422,23.8015102 L14.6816422,23.7781174 C14.6816422,22.6651369 13.696671,22.2610092 12.7721371,21.9691125 L12.6520856,21.9300786 C11.9550321,21.7035585 11.3536769,21.508389 11.3536769,21.0495178 L11.3536769,21.0251645 C11.3536769,20.6326989 11.7051192,20.3436835 12.2498787,20.3436835 C12.8551441,20.3436835 13.5736696,20.5448212 14.0363825,20.8005653 C14.0363825,20.8005653 14.172075,20.888443 14.2218792,20.7566607 C14.2491824,20.6863448 14.4835229,20.055697 14.5079448,19.9873706 C14.5342876,19.9131444 14.4874332,19.8584695 14.4396184,19.829177 C13.9114603,19.5079877 13.181204,19.2883277 12.4256341,19.2883277 L12.2850709,19.2892881 C10.998393,19.2892881 10.1002705,20.0663988 10.1002705,21.1802711 L10.1002705,21.2037326 C10.1002705,22.3781108 11.0911414,22.7588457 12.0195855,23.0243996 L12.1689296,23.0702936 C12.8454714,23.2782228 13.4283044,23.4568595 13.4283044,23.9332925 L13.4283044,23.956754 C13.4283044,24.3921637 13.049559,24.7162342 12.4383938,24.7162342 C12.201172,24.7162342 11.4445731,24.7113636 10.6274681,24.1948676 C10.5288201,24.1372429 10.471264,24.0953278 10.395117,24.0494338 C10.3551227,24.0240515 10.2545538,23.9800783 10.2106493,24.1128896 L9.93315874,24.8822483 L9.93315874,24.8822483 Z M30.513282,24.8822483 C30.4703378,24.9945479 30.528923,25.0180094 30.5425746,25.0374921 C30.671407,25.1312009 30.8022974,25.1986355 30.9340111,25.2737535 C31.6329854,25.6446784 32.2930629,25.7529991 32.9831876,25.7529991 C34.3889566,25.7529991 35.2617655,25.0052497 35.2617655,23.8015102 L35.2617655,23.7781174 C35.2617655,22.6651369 34.2767256,22.2610092 33.3521917,21.9691125 L33.2321402,21.9300786 C32.5350868,21.7035585 31.933663,21.508389 31.933663,21.0495178 L31.933663,21.0251645 C31.933663,20.6326989 32.2851052,20.3436835 32.8298647,20.3436835 C33.4351302,20.3436835 34.1536557,20.5448212 34.6164371,20.8005653 C34.6164371,20.8005653 34.7521296,20.888443 34.8018653,20.7566607 C34.8291684,20.6863448 35.063509,20.055697 35.0879309,19.9873706 C35.1143422,19.9131444 35.0674192,19.8584695 35.0196044,19.829177 C34.4914463,19.5079877 33.7611901,19.2883277 33.0056201,19.2883277 L32.8649883,19.2892881 C31.5783105,19.2892881 30.6801879,20.0663988 30.6801879,21.1802711 L30.6801879,21.2037326 C30.6801879,22.3781108 31.6710588,22.7588457 32.599503,23.0243996 L32.7488471,23.0702936 C33.4253888,23.2782228 34.0092508,23.4568595 34.0092508,23.9332925 L34.0092508,23.956754 C34.0092508,24.3921637 33.6294764,24.7162342 33.0183113,24.7162342 C32.7811581,24.7162342 32.0245591,24.7113636 31.2074542,24.1948676 C31.1088061,24.1372429 31.0502896,24.0972486 30.976132,24.0494338 C30.9506811,24.0328324 30.83159,23.9869384 30.7905667,24.1128896 L30.513282,24.8822483 L30.513282,24.8822483 Z M44.5628084,22.5244365 C44.5628084,23.2048885 44.4358968,23.7407985 44.1859838,24.1196125 C43.9389521,24.4945162 43.5650774,24.6770631 43.043848,24.6770631 C42.5215896,24.6770631 42.1496356,24.4954766 41.9065142,24.1196125 C41.6604429,23.7418275 41.5355893,23.2048885 41.5355893,22.5244365 C41.5355893,21.8450135 41.6604429,21.3099953 41.9065142,20.9350916 C42.1496356,20.5641667 42.5215896,20.3835406 43.043848,20.3835406 C43.565146,20.3835406 43.9390207,20.5641667 44.1870128,20.9350916 C44.4359654,21.3099267 44.5628084,21.8449449 44.5628084,22.5244365 M45.7362948,21.2631409 C45.6210454,20.8735566 45.4414483,20.5299348 45.2023057,20.2439378 C44.9630944,19.9569118 44.660496,19.7265501 44.3011647,19.5586152 C43.9428623,19.3917092 43.519252,19.3067814 43.043848,19.3067814 C42.5674149,19.3067814 42.143736,19.3917092 41.7854336,19.5586152 C41.4261709,19.7265501 41.1235725,19.9569804 40.8834008,20.2439378 C40.6452186,20.5309639 40.4655529,20.8745856 40.3494117,21.2631409 C40.2351912,21.6506672 40.1775665,22.0743462 40.1775665,22.5244365 C40.1775665,22.9745268 40.2351912,23.3991662 40.3494117,23.785732 C40.4655529,24.1742874 40.6442582,24.5179777 40.8844298,24.8049351 C41.1235725,25.0919612 41.4271999,25.3213625 41.7855022,25.4843581 C42.1446964,25.6474224 42.5674149,25.7303609 43.0439166,25.7303609 C43.5193206,25.7303609 43.9420391,25.6474224 44.3012333,25.4843581 C44.6595356,25.3213625 44.9630944,25.0918926 45.2023743,24.8049351 C45.4415169,24.5188695 45.621114,24.1752478 45.7363634,23.785732 C45.8516129,23.3982057 45.909169,22.9734978 45.909169,22.5244365 C45.909169,22.0753752 45.8514757,21.6506672 45.7362948,21.2631409 M55.372453,24.4953394 C55.3334191,24.381119 55.2231089,24.4240631 55.2231089,24.4240631 C55.0522927,24.4895084 54.8706376,24.5500143 54.677389,24.5802673 C54.4811219,24.6104517 54.2653722,24.6261613 54.0339814,24.6261613 C53.4658977,24.6261613 53.0148469,24.4572659 52.6917369,24.1233855 C52.3675978,23.7895051 52.1860113,23.2496849 52.1879321,22.5194286 C52.1899215,21.8546176 52.3499673,21.3547231 52.6380224,20.9740569 C52.924088,20.5953115 53.3594977,20.4009652 53.9403413,20.4009652 C54.4245948,20.4009652 54.7935989,20.4566005 55.1800961,20.5786415 C55.1800961,20.5786415 55.2728445,20.6186358 55.3167491,20.4976238 C55.4192388,20.2125186 55.4953857,20.0084996 55.6047355,19.6951309 C55.6360175,19.6062928 55.5598706,19.5682193 55.5324988,19.5574489 C55.3802049,19.4979034 55.0209421,19.4013134 54.7495571,19.36029 C54.4957339,19.3212562 54.1989665,19.3007445 53.8689964,19.3007445 C53.3758933,19.3007445 52.936642,19.384712 52.5608464,19.5526469 C52.1859427,19.7195528 51.8677032,19.9499145 51.6158694,20.2370091 C51.3639671,20.5240352 51.1726392,20.8675883 51.0447672,21.2561436 C50.9178556,21.6436699 50.8534394,22.0693383 50.8534394,22.5194286 C50.8534394,23.4927377 51.1160435,24.2795211 51.6344603,24.8555626 C52.1537688,25.4335249 52.9338293,25.7273424 53.9511116,25.7273424 C54.5524668,25.7273424 55.169463,25.6053701 55.6126932,25.4305751 C55.6126932,25.4305751 55.6976211,25.3895517 55.660508,25.2910409 L55.372453,24.4953394 L55.372453,24.4953394 Z M57.4256084,21.872591 C57.4812437,21.4948061 57.5857228,21.1804083 57.7467976,20.9354346 C57.9899191,20.5634807 58.360844,20.3594617 58.8822106,20.3594617 C59.4035772,20.3594617 59.7481594,20.5644411 59.9951225,20.9354346 C60.1591472,21.1804083 60.2304235,21.5085262 60.2587556,21.872591 L57.4256084,21.872591 Z M61.3764696,21.0417659 C61.2769297,20.6659018 61.029898,20.2861274 60.8678627,20.1123614 C60.6120501,19.8370661 60.3622057,19.6447778 60.1142136,19.5373489 C59.7900745,19.3987065 59.4015192,19.3069872 58.9759194,19.3069872 C58.4800037,19.3069872 58.0299134,19.3899942 57.6648196,19.5617708 C57.2987654,19.733616 56.9912963,19.9679565 56.7500956,20.2598532 C56.508895,20.5507209 56.3273771,20.8972925 56.2121276,21.2907185 C56.0959863,21.6822236 56.0374012,22.1088524 56.0374012,22.5588055 C56.0374012,23.0167163 56.0979758,23.4433451 56.2180273,23.8269612 C56.3391078,24.2135957 56.5323565,24.5542676 56.7940002,24.8363543 C57.0546149,25.1204991 57.3904847,25.343109 57.7926916,25.4982155 C58.1920173,25.6524989 58.6772312,25.7325561 59.2346133,25.7315369 C60.381757,25.7276168 60.9859934,25.4718728 61.234946,25.3341908 C61.2789191,25.3098375 61.3209029,25.2668934 61.2680802,25.143892 L61.0084259,24.416517 C60.9694606,24.3081963 60.8590818,24.3481906 60.8590818,24.3481906 C60.574937,24.4536301 60.1708779,24.6430371 59.2287136,24.6411163 C58.6127464,24.6401559 58.155796,24.4585694 57.8697304,24.1744246 C57.5759129,23.8835569 57.4323998,23.4558991 57.4070175,22.852623 L61.3793508,22.8565333 C61.3793508,22.8565333 61.4837613,22.8546125 61.4946003,22.7530146 C61.4985105,22.7102076 61.6313218,21.9370073 61.3764696,21.0417659 M25.6129848,21.872591 C25.6695805,21.4948061 25.7730992,21.1804083 25.934174,20.9354346 C26.1772269,20.5634807 26.5482204,20.3594617 27.0695184,20.3594617 C27.5908164,20.3594617 27.9354672,20.5644411 28.1833907,20.9354346 C28.3463864,21.1804083 28.4176627,21.5085262 28.4459948,21.872591 L25.6129848,21.872591 L25.6129848,21.872591 Z M29.562817,21.0417659 C29.4632771,20.6659018 29.2172744,20.2861274 29.0552391,20.1123614 C28.7994265,19.8370661 28.5495135,19.6447778 28.30159,19.5373489 C27.9774509,19.3987065 27.5889642,19.3069872 27.1632958,19.3069872 C26.6683405,19.3069872 26.2172898,19.3899942 25.852196,19.5617708 C25.4861418,19.733616 25.1786041,19.9679565 24.937472,20.2598532 C24.69634,20.5507209 24.5147535,20.8972925 24.3995726,21.2907185 C24.2843918,21.6822236 24.2248462,22.1088524 24.2248462,22.5588055 C24.2248462,23.0167163 24.2853522,23.4433451 24.4054723,23.8269612 C24.5265528,24.2135957 24.7198701,24.5542676 24.9814452,24.8363543 C25.2421285,25.1204991 25.5779297,25.343109 25.9801366,25.4982155 C26.3794623,25.6524989 26.8646076,25.7325561 27.4220583,25.7315369 C28.5691334,25.7276168 29.1734384,25.4718728 29.422391,25.3341908 C29.4663641,25.3098375 29.5082793,25.2668934 29.4555938,25.143892 L29.1968999,24.416517 C29.156837,24.3081963 29.0465954,24.3481906 29.0465954,24.3481906 C28.7625192,24.4536301 28.3592833,24.6430371 27.4152668,24.6411163 C26.80026,24.6401559 26.3433782,24.4585694 26.0573126,24.1744246 C25.7634265,23.8835569 25.6199821,23.4558991 25.5945311,22.852623 L29.5668644,22.8565333 C29.5668644,22.8565333 29.6712749,22.8546125 29.6820453,22.7530146 C29.6858183,22.7102076 29.818561,21.9370073 29.562817,21.0417659 M17.0268315,24.473593 C16.8715877,24.3495626 16.8501157,24.3183492 16.7974302,24.238292 C16.7192938,24.116251 16.6792995,23.942485 16.6792995,23.7218646 C16.6792995,23.3723432 16.7944804,23.1214698 17.0336916,22.9525745 C17.0308104,22.9536035 17.3753925,22.6548467 18.1856374,22.6655485 C18.7547502,22.673369 19.263357,22.7573364 19.263357,22.7573364 L19.263357,24.5633915 L19.2643174,24.5633915 C19.2643174,24.5633915 18.7596208,24.6717123 18.1914685,24.7058755 C17.3831444,24.7547193 17.0238817,24.4726325 17.0268315,24.473593 M18.6073269,21.682498 C18.4462521,21.6707673 18.2372938,21.6639072 17.9873809,21.6639072 C17.646709,21.6639072 17.3176992,21.7068513 17.0092011,21.7898584 C16.6987822,21.8727968 16.4195766,22.0027269 16.179405,22.1744349 C15.9395978,22.3455983 15.7424987,22.5697645 15.6034321,22.8295045 C15.4628689,23.0911483 15.3915926,23.3996464 15.3915926,23.7452575 C15.3915926,24.0966998 15.4520986,24.4022481 15.5731791,24.6522296 C15.6942597,24.903103 15.8689861,25.1119926 16.0915273,25.2731361 C16.3121477,25.4342109 16.5845617,25.552273 16.9008117,25.6235493 C17.2122597,25.6948256 17.5656227,25.7309097 17.9522572,25.7309097 C18.3593348,25.7309097 18.7654519,25.6977754 19.1588779,25.6303408 C19.5483936,25.5639352 20.0267475,25.4672765 20.1594902,25.4370921 C20.2525739,25.4146623 20.3453318,25.3909011 20.4377353,25.3658158 C20.5363833,25.3414625 20.5285628,25.2359544 20.5285628,25.2359544 L20.5265734,21.6034012 C20.5265734,20.8067393 20.3137735,20.2160859 19.8949652,19.8500316 C19.4780777,19.4849378 18.8640314,19.3003329 18.0703879,19.3003329 C17.7725916,19.3003329 17.2932773,19.3414248 17.0062513,19.3989809 C17.0062513,19.3989809 16.1383817,19.5669159 15.7810397,19.8461214 C15.7810397,19.8461214 15.702972,19.8949652 15.7459161,20.004315 L16.0271111,20.7599536 C16.0622347,20.8575726 16.1569725,20.8243698 16.1569725,20.8243698 C16.1569725,20.8243698 16.1872255,20.812639 16.2224177,20.7921274 C16.9868372,20.3762689 17.9532862,20.3889601 17.9532862,20.3889601 C18.3828649,20.3889601 18.7128351,20.4748483 18.9353763,20.6456645 C19.1520864,20.81161 19.2623966,21.0624834 19.2623966,21.5916019 L19.2623966,21.7595368 C18.9206957,21.7107616 18.6073269,21.682498 18.6073269,21.682498 M50.6459218,19.6357225 C50.6761061,19.5458554 50.6127189,19.5029112 50.5863076,19.4931699 C50.5190102,19.4668272 50.1812195,19.3955509 49.9205362,19.3789495 C49.4217393,19.3486965 49.1445232,19.432664 48.8964624,19.5439346 C48.6504597,19.6552052 48.3771539,19.8348022 48.2247913,20.0388898 L48.2247913,19.5556653 C48.2247913,19.4882993 48.1769765,19.4345848 48.1105709,19.4345848 L47.0923282,19.4345848 C47.0259912,19.4345848 46.9781763,19.4882307 46.9781763,19.5556653 L46.9781763,25.4804479 C46.9781763,25.5468535 47.0328512,25.6015284 47.0991883,25.6015284 L48.1428133,25.6015284 C48.2093607,25.6011506 48.2630549,25.5469962 48.2628648,25.4804479 L48.2628648,22.5205262 C48.2628648,22.12319 48.306838,21.7268828 48.3947157,21.4779302 C48.480604,21.2318589 48.5977742,21.0347 48.7422477,20.8931078 C48.8876815,20.7525447 49.0526666,20.6539652 49.2332927,20.5983299 C49.4177604,20.5416656 49.6217794,20.5231434 49.7663214,20.5231434 C49.9742507,20.5231434 50.2026916,20.5767892 50.2026916,20.5767892 C50.2787699,20.5855702 50.3217827,20.5387158 50.3470964,20.4694289 C50.4154914,20.2878424 50.6088087,19.7440433 50.6459218,19.6357225" id="形状" fill="#FFFFFF"></path>
                    <path d="M40.8500608,16.889767 C40.7231492,16.8507331 40.6079683,16.8243218 40.4575952,16.7960582 C40.3052327,16.768755 40.1237148,16.7550349 39.917775,16.7550349 C39.1991809,16.7550349 38.6329493,16.9580934 38.2356817,17.3583109 C37.8402663,17.7566762 37.5717625,18.362902 37.4370304,19.1605243 L37.3881866,19.4289595 L36.4862224,19.4289595 C36.4862224,19.4289595 36.3768726,19.4250493 36.3534111,19.544209 L36.2060564,20.3710552 C36.1952861,20.4491916 36.2295179,20.4989273 36.3348889,20.4989273 L37.2125684,20.4989273 L36.3221977,25.469952 C36.2528422,25.870238 36.172785,26.1992478 36.0839469,26.4490922 C35.9970296,26.6951635 35.9121703,26.8796312 35.8067308,27.0143633 C35.7052015,27.1432643 35.6095033,27.2388939 35.4434892,27.2945293 C35.3068362,27.3404232 35.1487112,27.3618953 34.9759057,27.3618953 C34.8802074,27.3618953 34.752404,27.3461857 34.6576662,27.3267031 C34.5639574,27.3081122 34.5141532,27.2876692 34.4428769,27.2573476 C34.4428769,27.2573476 34.3403872,27.2183823 34.2993639,27.320872 C34.2671215,27.4057999 34.0328495,28.0490702 34.0045174,28.1282356 C33.9772142,28.2072638 34.0162481,28.2687988 34.0659837,28.287321 C34.183154,28.3283443 34.2700027,28.3556475 34.4291567,28.393721 C34.6498457,28.4455146 34.8362343,28.4483959 35.0109607,28.4483959 C35.3760545,28.4483959 35.7099349,28.3966708 35.9862592,28.2971309 C36.263544,28.1965621 36.5055678,28.0217671 36.7203571,27.7855743 C36.9517479,27.5297616 37.0971817,27.2622868 37.2358927,26.8962326 C37.373506,26.5349804 37.4917053,26.0859192 37.5853455,25.5627003 L38.4805868,20.4989273 L39.7887368,20.4989273 C39.7887368,20.4989273 39.8989784,20.5028375 39.921548,20.382786 L40.0698631,19.5569001 C40.079673,19.4778719 40.0464702,19.4290281 39.9400017,19.4290281 L38.6699252,19.4290281 C38.6767853,19.4007646 38.7343414,18.9535555 38.8798439,18.532895 C38.9423393,18.3542583 39.0594409,18.2087559 39.158089,18.1091474 C39.2557766,18.0115284 39.3680076,17.9422415 39.4910776,17.9021786 C39.6169602,17.8611553 39.7605418,17.8416726 39.9177064,17.8416726 C40.0367975,17.8416726 40.1548596,17.8553242 40.2436977,17.8738464 C40.3666991,17.9002578 40.4145139,17.9139093 40.4468249,17.9237193 C40.5766863,17.9627532 40.5941796,17.9246797 40.6196305,17.8622529 L40.9232579,17.0285465 C40.9544713,16.9385422 40.8773639,16.9004687 40.8500608,16.889767 M23.1043882,25.4807223 C23.1043882,25.5471279 23.0565734,25.6008424 22.9901678,25.6008424 L21.9368015,25.6008424 C21.8703958,25.6008424 21.8235414,25.5471279 21.8235414,25.4807223 L21.8235414,17.003027 C21.8235414,16.93669 21.8703958,16.8829755 21.9368015,16.8829755 L22.9901678,16.8829755 C23.0565734,16.8829755 23.1043882,16.93669 23.1043882,17.003027 L23.1043882,25.4807223 Z" id="形状" fill="#FFFFFF"></path>
                </g>
            </g>
        </g>
    </g>
</svg>