<?xml version="1.0" encoding="UTF-8"?>
<svg width="208px" height="106px" viewBox="0 0 208 106" version="1.1" xmlns="http://www.w3.org/2000/svg" xmlns:xlink="http://www.w3.org/1999/xlink">
    <title>sap_logo@1x</title>
    <defs>
        <linearGradient x1="50.000616%" y1="-0.00041506693%" x2="50.000616%" y2="99.9995849%" id="linearGradient-1">
            <stop stop-color="#00B8F1" offset="0%"></stop>
            <stop stop-color="#01B6F0" offset="1.64%"></stop>
            <stop stop-color="#0D90D9" offset="30.79%"></stop>
            <stop stop-color="#1775C8" offset="57.82%"></stop>
            <stop stop-color="#1C65BF" offset="81.73%"></stop>
            <stop stop-color="#1E5FBB" offset="100%"></stop>
        </linearGradient>
    </defs>
    <g id="应用集成" stroke="none" stroke-width="1" fill="none" fill-rule="evenodd">
        <g transform="translate(-898.000000, -2202.000000)" id="xinrenxinshi_docs备份-8">
            <g transform="translate(898.000000, 2202.000000)">
                <rect id="矩形备份-8" fill-opacity="0" fill="#FFFFFF" x="0" y="0" width="208" height="106" rx="4"></rect>
                <g id="sap-logo-china-svg" transform="translate(18.000000, 33.000000)">
                    <path d="M58.6639175,31.7319588 L58.6639175,32.556701 L78.6515464,32.556701 C80.028866,32.556701 81.142268,31.4391753 81.142268,30.0659794 L81.142268,27.9216495 L81.142268,25.4309278 L81.142268,23.2865979 L81.142268,20.7958763 L58.6639175,20.7958763 L58.6639175,31.7319588 Z M61.814433,23.2824742 L77.9876289,23.2824742 L77.9876289,25.4268041 L61.814433,25.4268041 L61.814433,23.2824742 Z M61.814433,27.9175258 L77.9876289,27.9175258 L77.9876289,30.0618557 L61.814433,30.0618557 L61.814433,27.9175258 Z M4.47010309,22.0206186 L11.3484536,22.0206186 L11.3484536,22.0206186 L14.4989691,22.0206186 L14.4989691,22.0206186 L22.0371134,22.0206186 C23.414433,22.0206186 24.5278351,20.9030928 24.5278351,19.5298969 L24.5278351,15.8226804 L24.5278351,13.3319588 L24.5278351,9.62474227 L24.5278351,7.13402062 L1.31958763,7.13402062 L1.31958763,22.0247423 L4.47010309,22.0206186 L4.47010309,22.0206186 Z M14.4989691,9.62061856 L21.3773196,9.62061856 L21.3773196,13.3278351 L14.4989691,13.3278351 L14.4989691,9.62061856 Z M14.4989691,15.8185567 L21.3773196,15.8185567 L21.3773196,19.5257732 L14.4989691,19.5257732 L14.4989691,15.8185567 Z M4.47010309,9.62061856 L11.3484536,9.62061856 L11.3484536,13.3278351 L4.47010309,13.3278351 L4.47010309,9.62061856 L4.47010309,9.62061856 Z M4.47010309,15.8185567 L11.3484536,15.8185567 L11.3484536,19.5257732 L4.47010309,19.5257732 L4.47010309,15.8185567 L4.47010309,15.8185567 Z M0,32.5525773 L3.15051546,32.5525773 L4.7257732,23.142268 L1.57525773,23.142268 L0,32.5525773 Z M61.3814433,12.3134021 L58.2309278,12.3134021 L59.4020619,16.057732 L62.5525773,16.057732 L61.3814433,12.3134021 Z M77.2,16.0536082 L80.3505155,16.0536082 L81.5216495,12.3092784 L78.371134,12.3092784 L77.2,16.0536082 Z M21.2041237,23.142268 L22.7793814,32.5525773 L25.9298969,32.5525773 L24.3546392,23.142268 L21.2041237,23.142268 Z M14.956701,29.142268 L18.1072165,29.142268 L17.1010309,23.1463918 L13.9505155,23.1463918 L14.956701,29.142268 Z M51.2907216,10.643299 L48.1402062,10.643299 L47.6371134,12.428866 L43.4103093,12.428866 L42.8494845,10.643299 L39.6989691,10.643299 L40.2597938,12.428866 L35.2371134,12.428866 L34.6762887,10.643299 L31.5257732,10.643299 L32.0865979,12.428866 L29.1917526,12.428866 L29.1917526,16.1278351 L32.342268,16.1278351 L32.342268,14.9195876 L50.4948454,14.9195876 L50.4948454,16.1278351 L53.6453608,16.1278351 L53.6453608,12.428866 L50.7876289,12.428866 L51.2907216,10.643299 Z M53.4721649,7.12989691 L29.3525773,7.12989691 L29.3525773,9.62061856 L50.9773196,9.62061856 C52.3546392,9.62061856 53.4721649,8.50309278 53.4721649,7.12989691 Z M75.6041237,17.1917526 L75.6041237,11.171134 L79.6412371,11.171134 C81.0185567,11.171134 82.1319588,10.0536082 82.1319588,8.68041237 L77.8721649,8.68041237 L78.3092784,7.1257732 L75.1587629,7.1257732 L74.7216495,8.68041237 L65.0639175,8.68041237 L64.5773196,7.1257732 L61.4268041,7.1257732 L61.9134021,8.68041237 L57.6164948,8.68041237 L57.6164948,11.171134 L64.1525773,11.171134 L64.1525773,17.1917526 L57.2247423,17.1917526 L57.2247423,19.6824742 L80.028866,19.6824742 C81.4061856,19.6824742 82.5195876,18.5649485 82.5195876,17.1917526 L75.6041237,17.1917526 Z M72.4536082,17.1917526 L67.3072165,17.1917526 L67.3072165,11.171134 L72.4536082,11.171134 L72.4536082,17.1917526 Z M51.1546392,19.6865979 C52.5319588,19.6865979 53.6453608,18.5690722 53.6453608,17.1958763 L37.5134021,17.1958763 L37.9257732,16.0701031 L34.7752577,16.0701031 L34.3628866,17.1958763 L29.1917526,17.1958763 L29.1917526,19.6865979 L33.4515464,19.6865979 L28.7340206,32.556701 L31.8845361,32.556701 L34.1938144,26.2556701 L40.1484536,28.9649485 L37.7360825,30.0618557 L35.7195876,30.0618557 L34.8412371,32.5525773 L39.3237113,32.5525773 C39.6907216,32.5525773 40.0371134,32.4742268 40.3505155,32.3298969 L40.3505155,32.3298969 L43.9463918,30.6927835 L47.5175258,32.3175258 C47.8391753,32.4659794 48.1938144,32.5484536 48.5690722,32.5484536 L53.6412371,32.5484536 L53.6412371,30.057732 L50.1608247,30.057732 L47.7484536,28.9608247 L50.8989691,27.5257732 C51.7484536,27.1298969 52.3340206,26.2680412 52.3340206,25.2701031 L52.3340206,21.7979381 L35.8185567,21.7979381 L36.5938144,19.6824742 L51.1546392,19.6824742 L51.1546392,19.6865979 Z M49.1876289,24.2927835 L49.1876289,24.8453608 L43.9463918,27.228866 L37.4927835,24.2886598 L49.1876289,24.2886598 L49.1876289,24.2927835 Z M10.0247423,30.0618557 L10.0247423,23.142268 L6.8742268,23.142268 L6.8742268,30.0618557 C6.8742268,31.4391753 7.99175258,32.5525773 9.36494845,32.5525773 L19.8597938,32.5525773 L19.3443299,30.0618557 L10.0247423,30.0618557 Z" id="形状" fill="#000000" fill-rule="nonzero"></path>
                    <g id="编组" transform="translate(91.546392, 0.000000)">
                        <polyline id="路径" fill="url(#linearGradient-1)" points="0.367010309 39.8226804 40.9649485 39.8226804 80.6969072 0.0824742268 0.367010309 0.0824742268 0.367010309 39.8226804"></polyline>
                        <path d="M48.0371134,7.55463918 L40.1278351,7.55051546 L40.1278351,26.3505155 L33.2206186,7.55051546 L26.371134,7.55051546 L20.4742268,23.2742268 C19.8474227,19.3072165 15.7443299,17.9381443 12.5195876,16.9154639 C10.3876289,16.2309278 8.12783505,15.2247423 8.14845361,14.1113402 C8.16494845,13.2 9.36082474,12.3505155 11.7278351,12.4783505 C13.3195876,12.5608247 14.7216495,12.6927835 17.5134021,14.0371134 L20.2597938,9.25360825 C17.7113402,7.95463918 14.1896907,7.13814433 11.3030928,7.13402062 L11.2865979,7.13402062 C7.92164948,7.13402062 5.11752577,8.22268041 3.37731959,10.0206186 C2.16494845,11.2742268 1.51340206,12.8701031 1.48453608,14.6350515 C1.43917526,17.0597938 2.32989691,18.7835052 4.19793814,20.156701 C5.77731959,21.3154639 7.79381443,22.0659794 9.57525773,22.614433 C11.7690722,23.2948454 13.5628866,23.8845361 13.542268,25.1463918 C13.5257732,25.6041237 13.3525773,26.0329897 13.0226804,26.3793814 C12.4783505,26.9443299 11.6371134,27.1546392 10.4742268,27.1793814 C8.23505155,27.2247423 6.57319588,26.8742268 3.9257732,25.3113402 L1.48453608,30.1608247 C4.12371134,31.6618557 7.24948454,32.5443299 10.4371134,32.5443299 L10.8494845,32.5402062 C13.6247423,32.4907216 15.8639175,31.6989691 17.6536082,30.2597938 C17.756701,30.1773196 17.8474227,30.0948454 17.942268,30.0082474 L17.1505155,32.1278351 L24.3340206,32.1278351 L25.5381443,28.4618557 C26.8,28.8948454 28.2350515,29.1298969 29.7608247,29.1298969 C31.2453608,29.1298969 32.643299,28.9030928 33.8804124,28.4989691 L35.043299,32.1278351 L46.7587629,32.1278351 L46.7587629,24.5360825 L49.3113402,24.5360825 C55.4886598,24.5360825 59.1422716,21.3896907 59.1422716,16.1195876 C59.1463918,10.2474227 55.5958763,7.55463918 48.0371134,7.55463918 Z M29.7608247,23.6412371 C28.8371134,23.6412371 27.9752577,23.4804124 27.228866,23.2 L29.7360825,15.2907216 L29.7814433,15.2907216 L32.243299,23.2206186 C31.5051546,23.4845361 30.6597938,23.6412371 29.7608247,23.6412371 Z M48.5030928,19.0969072 L46.7628866,19.0969072 L46.7628866,12.7257732 L48.5030928,12.7257732 C50.8247423,12.7257732 52.6804124,13.4969072 52.6804124,15.8680412 C52.6804124,18.3257732 50.8247423,19.0969072 48.5030928,19.0969072" id="形状" fill="#FFFFFF"></path>
                    </g>
                </g>
            </g>
        </g>
    </g>
</svg>