<?xml version="1.0" encoding="UTF-8"?>
<svg width="56px" height="56px" viewBox="0 0 56 56" version="1.1" xmlns="http://www.w3.org/2000/svg" xmlns:xlink="http://www.w3.org/1999/xlink">
    <title>slack@1.5x</title>
    <defs>
        <rect id="path-1" x="0" y="0" width="54" height="54" rx="8"></rect>
    </defs>
    <g id="应用" stroke="none" stroke-width="1" fill="none" fill-rule="evenodd">
        <g id="应用市场" transform="translate(-807.000000, -1878.000000)">
            <g id="slack" transform="translate(808.000000, 1879.000000)">
                <mask id="mask-2" fill="white">
                    <use xlink:href="#path-1"></use>
                </mask>
                <rect stroke="#EAEBEE" x="-0.5" y="-0.5" width="55" height="55" rx="8"></rect>
                <g id="slack-new-logo" mask="url(#mask-2)" fill-rule="nonzero">
                    <g transform="translate(12.000000, 12.000000)" id="形状">
                        <path d="M10.997549,-4.4408921e-16 C9.33946078,0.0012254902 7.99754902,1.34681373 7.99877367,3.00490196 C7.99754902,4.6629902 9.34068627,6.00857843 10.9987737,6.00980392 L13.9987737,6.00980392 L13.9987737,3.00612745 C14,1.34803922 12.6568627,0.00245098039 10.997549,-4.4408921e-16 C10.9987737,-4.4408921e-16 10.9987737,-4.4408921e-16 10.997549,-4.4408921e-16 M10.997549,8.01470588 L2.99999665,8.01470588 C1.34191176,8.01593137 -0.0012254902,9.36151961 -3.34911285e-06,11.0196078 C-0.00245098039,12.6776961 1.34068627,14.0232843 2.99877451,14.0257353 L10.997549,14.0257353 C12.6556373,14.0245098 13.9987745,12.6789216 13.9975499,11.0208333 C13.9987745,9.36151961 12.6556373,8.01593137 10.997549,8.01470588 Z" fill="#36C5F0"></path>
                        <path d="M29.9950972,11.0196078 C29.9963235,9.36151961 28.6531863,8.01593137 26.9950972,8.01470588 C25.3370098,8.01593137 23.9938725,9.36151961 23.9950972,11.0196078 L23.9950972,14.0257353 L26.9950972,14.0257353 C28.6531863,14.0245098 29.9963235,12.6789216 29.9950972,11.0196078 Z M21.9963244,11.0196078 L21.9963244,3.00490196 C21.9975457,1.34803922 20.6556373,0.00245098039 18.9975457,8.8817842e-16 C17.3394608,0.0012254902 15.9963235,1.34681373 15.9975457,3.00490196 L15.9975457,11.0196078 C15.995098,12.6776961 17.3382353,14.0232843 18.9963235,14.0257353 C20.6544118,14.0245098 21.9975457,12.6789216 21.9963244,11.0196078 Z" fill="#2EB67D"></path>
                        <path d="M18.9963227,30.0551471 C20.6544118,30.0539216 21.997549,28.7083333 21.9963227,27.0502451 C21.997549,25.3921569 20.6544118,24.0465686 18.9963227,24.0453431 L15.9963227,24.0453431 L15.9963227,27.0502451 C15.995098,28.7071078 17.3382353,30.0526961 18.9963227,30.0551471 Z M18.9963235,22.0392157 L26.995098,22.0392157 C28.6531863,22.0379902 29.9963235,20.692402 29.9951014,19.0343137 C29.9975482,17.3762255 28.6544118,16.0306373 26.9963235,16.0281863 L18.9975482,16.0281863 C17.3394608,16.0294118 15.9963235,17.375 15.9975482,19.0330882 C15.9963235,20.692402 17.3382353,22.0379902 18.9963235,22.0392157 L18.9963235,22.0392157 Z" fill="#ECB22E"></path>
                        <path d="M-8.37944031e-07,19.0343137 C-0.0012254902,20.692402 1.34191176,22.0379902 2.99999916,22.0392157 C4.65808824,22.0379902 6.00122549,20.692402 5.99999916,19.0343137 L5.99999916,16.0294118 L2.99999916,16.0294118 C1.34191176,16.0306373 -0.0012254902,17.3762255 -8.37944031e-07,19.0343137 Z M7.99877116,19.0343137 L7.99877116,27.0490196 C7.99632353,28.7071078 9.33946078,30.0526961 10.997549,30.0551471 C12.6556373,30.0539216 13.9987712,28.7083333 13.9975524,27.0502451 L13.9975524,19.0367647 C14,17.3786765 12.6568627,16.0330882 10.9987712,16.0306373 C9.33946078,16.0306373 7.99754902,17.3762255 7.99877116,19.0343137 C7.99877116,19.0343137 7.99877116,19.0355392 7.99877116,19.0343137" fill="#E01E5A"></path>
                    </g>
                </g>
            </g>
        </g>
    </g>
</svg>