<?xml version="1.0" encoding="UTF-8"?>
<svg width="208px" height="106px" viewBox="0 0 208 106" version="1.1" xmlns="http://www.w3.org/2000/svg" xmlns:xlink="http://www.w3.org/1999/xlink">
    <title>sonarqube_docs@1x</title>
    <g id="应用集成" stroke="none" stroke-width="1" fill="none" fill-rule="evenodd">
        <g transform="translate(-822.000000, -1709.000000)" id="编组-8备份-15">
            <g transform="translate(822.000000, 1709.000000)">
                <rect id="矩形备份-8" fill-opacity="0" fill="#FFFFFF" x="0" y="0" width="208" height="106" rx="4"></rect>
                <g id="logo-31ad3115b1b4b120f3d1efd63e6b13ac9f1f89437f0cf6881cc4d8b5603a52b4" transform="translate(29.000000, 34.000000)">
                    <path d="M79.4340693,30.1488664 C76.9851785,31.81292 73.6409275,31.1746188 71.975632,28.725728 C70.3103366,26.2768371 70.9498795,22.9313442 73.3987704,21.2635651 C75.8464194,19.5995115 79.1919123,20.2390545 80.8572077,22.6879454 C82.523745,25.1355944 81.8854439,28.4823291 79.4340693,30.1488664 M82.7572093,21.3964411 C80.3791028,17.8919938 75.6079879,16.9854571 72.1072661,19.3660473 C68.6040607,21.7466374 67.6950403,26.5165105 70.0768723,30.0172323 C72.1830178,33.1193263 76.1606027,34.1823336 79.4738079,32.7380841 L82.4405423,37.5563886 L84.795054,35.9569102 L81.8295615,31.1386057 C84.3927008,28.5891266 84.8670802,24.4948096 82.7572093,21.3964411" id="形状" fill="#070707"></path>
                    <path d="M145.747848,32.9181496 L143.914905,32.9181496 C143.914905,18.1540202 131.732543,6.14303016 116.759785,6.14303016 L116.759785,4.31008752 C132.744635,4.31008752 145.747848,17.140686 145.747848,32.9181496" id="路径" fill="#499CD2" fill-rule="nonzero"></path>
                    <path d="M147.014516,23.0704293 C144.815233,13.8088533 137.309606,6.07845495 127.89901,3.37623057 L128.321233,1.90714442 C138.253397,4.75963037 146.175038,12.9259114 148.499746,22.7165075 L147.014516,23.0704293 Z" id="路径" fill="#489CD2" fill-rule="nonzero"></path>
                    <path d="M149.078439,14.3788537 C146.810855,9.43388247 142.943793,5.1210032 138.198757,2.23622965 L138.833333,1.19184973 C143.788238,4.20453188 147.81798,8.70368581 150.187394,13.8684612 L149.078439,14.3788537 Z" id="路径" fill="#489CD2" fill-rule="nonzero"></path>
                    <g id="编组" transform="translate(0.979107, 17.730866)" fill="#070707" fill-rule="nonzero">
                        <path d="M0.00447059181,14.405439 C1.10721657,15.0015179 2.80604146,15.4485771 4.71349397,15.4485771 C8.88604632,15.4485771 11.0021264,13.4517127 11.0021264,10.7097497 C10.9723225,8.59366962 9.83977258,7.19288419 7.06800565,6.23915793 C5.27976893,5.64307902 4.71349397,5.25562773 4.71349397,4.57013699 C4.71349397,3.8548423 5.33937682,3.40778312 6.4421228,3.40778312 C7.66408456,3.40778312 8.94565422,3.88464624 9.60134101,4.21248964 L10.3762436,1.11287932 C9.48212523,0.66582014 7.99192796,0.248564905 6.29310307,0.248564905 C2.68682568,0.248564905 0.362117937,2.30503714 0.362117937,5.04700012 C0.332313991,6.745825 1.49466786,8.385042 4.53467029,9.39837615 C6.20369124,9.93484716 6.65075042,10.3222985 6.65075042,11.0673971 C6.65075042,11.8124957 6.08447546,12.2595549 4.71349397,12.2595549 C3.37231642,12.2595549 1.64368759,11.6932799 0.809177118,11.1866129 L0.00447059181,14.405439 Z" id="路径"></path>
                        <path d="M19.0193878,15.478381 C22.8939007,15.478381 26.6790017,13.0344575 26.6790017,7.7293552 C26.6790017,3.31837128 23.6986072,0.248564905 19.2578193,0.248564905 C14.548796,0.248564905 11.4491856,3.25876339 11.4491856,7.96778677 C11.4491856,12.6768101 14.7276196,15.478381 18.9895838,15.478381 L19.0193878,15.478381 Z M19.0789957,12.229751 C17.1715431,12.229751 16.1284051,10.3521024 16.1284051,7.87837493 C16.1284051,5.70268692 16.9629155,3.49719495 19.1087996,3.49719495 C21.1652718,3.49719495 21.9997823,5.70268692 21.9997823,7.84857098 C21.9997823,10.4713182 20.8970363,12.229751 19.1087996,12.229751 L19.0789957,12.229751 Z" id="形状"></path>
                        <path d="M27.9903753,15.1505376 L32.520575,15.1505376 L32.520575,6.745825 C32.520575,6.32856977 32.550379,5.91131453 32.6695948,5.61327508 C32.9974382,4.77876461 33.7425368,3.91445019 34.9943025,3.91445019 C36.6335195,3.91445019 37.2892063,5.19601984 37.2892063,7.0736684 L37.2892063,15.1505376 L41.819406,15.1505376 L41.819406,6.53719739 C41.819406,2.24542925 39.5841101,0.248564905 36.6037156,0.248564905 C34.159792,0.248564905 32.6993987,1.64935034 32.1033198,2.60307659 L32.013908,2.60307659 L31.8052803,0.576408304 L27.8711596,0.576408304 C27.9307674,1.8877819 27.9903753,3.40778312 27.9903753,5.22582379 L27.9903753,15.1505376 Z" id="路径"></path>
                        <path d="M56.0954959,6.53719739 C56.0954959,3.10974366 54.5754946,0.248564905 49.7174515,0.248564905 C47.0649004,0.248564905 45.0680361,0.99366354 44.0547019,1.5599385 L44.8892124,4.45092121 C45.8429386,3.88464624 47.4225477,3.37797917 48.912745,3.37797917 C51.1480409,3.37797917 51.5652962,4.48072515 51.5652962,5.25562773 L51.5652962,5.43445141 C46.4092136,5.43445141 43.0115638,7.22268813 43.0115638,11.0077892 C43.0115638,13.3324969 44.7699966,15.478381 47.7205872,15.478381 C49.449216,15.478381 50.9394133,14.8524982 51.8931396,13.6901443 L51.9825514,13.6901443 L52.2507869,15.1505376 L56.3339274,15.1505376 C56.1551037,14.3458311 56.0954959,13.0046535 56.0954959,11.6336721 L56.0954959,6.53719739 Z M51.7143159,9.84543533 C51.7143159,10.1136708 51.6845119,10.3819063 51.624904,10.6203379 C51.3268646,11.5442602 50.3731383,12.2893589 49.2703924,12.2893589 C48.2570582,12.2893589 47.4821556,11.7230839 47.4821556,10.56073 C47.4821556,8.83210118 49.3300002,8.26582622 51.7143159,8.26582622 L51.7143159,9.84543533 Z" id="形状"></path>
                        <path d="M58.211576,15.1505376 L62.7417757,15.1505376 L62.7417757,7.78896309 C62.7417757,7.4015118 62.7715796,7.0736684 62.8311875,6.77562895 C63.129227,5.34503957 64.2617769,4.48072515 65.9307978,4.48072515 C66.4374649,4.48072515 66.7951123,4.54033304 67.1527596,4.59994093 L67.1527596,0.337976741 C66.8249162,0.27836885 66.6162886,0.248564905 66.1990334,0.248564905 C64.768444,0.248564905 63.0100112,1.14268327 62.2649126,3.28856734 L62.1456968,3.28856734 L61.9668731,0.576408304 L58.0923602,0.576408304 C58.181772,1.82817401 58.211576,3.22895945 58.211576,5.37484352 L58.211576,15.1505376 Z" id="路径"></path>
                    </g>
                    <g id="编组" transform="translate(85.535918, 11.631526)" fill="#070707" fill-rule="nonzero">
                        <path d="M12.1683548,6.90557415 L9.54560764,6.90557415 L9.54560764,15.727542 C9.54560764,16.2342091 9.4561958,16.7110722 9.30717607,17.0687195 C8.83031295,18.2608774 7.60835118,19.4828391 5.84991841,19.4828391 C3.49540672,19.4828391 2.6310923,17.6051906 2.6310923,14.8632276 L2.6310923,6.90557415 L0.00834510472,6.90557415 L0.00834510472,15.3400907 C0.00834510472,20.3769575 2.72050414,21.6585271 4.98560399,21.6585271 C7.54874329,21.6585271 9.09854846,20.1385259 9.75423525,18.976172 L9.81384315,18.976172 L9.96286287,21.3306837 L12.2875706,21.3306837 C12.1981588,20.1981338 12.1683548,18.8867602 12.1683548,17.366759 L12.1683548,6.90557415 Z" id="路径"></path>
                        <path d="M15.0295336,17.6051906 C15.0295336,18.8867602 14.9997296,20.3471535 14.9103178,21.3306837 L17.1754177,21.3306837 L17.3244374,18.9463681 L17.3840453,18.9463681 C18.4867913,20.8538206 20.1260083,21.6585271 22.2122844,21.6585271 C25.4311105,21.6585271 28.7095445,19.0953878 28.7095445,13.9095013 C28.7095445,9.55812529 26.2060131,6.57773075 22.6295397,6.57773075 C20.3048319,6.57773075 18.635811,7.5910649 17.7118887,9.20047795 L17.6522808,9.20047795 L17.6522808,0.169882489 L15.0295336,0.169882489 L15.0295336,17.6051906 Z M17.6522808,12.9557751 C17.6522808,12.5385198 17.7118887,12.1808725 17.8013005,11.8530291 C18.3079676,9.88596869 19.9769885,8.63420299 21.7652253,8.63420299 C24.5667961,8.63420299 26.0569934,11.1079305 26.0569934,14.0287171 C26.0569934,17.336955 24.4475803,19.572251 21.6758134,19.572251 C19.7981649,19.572251 18.2483597,18.3204852 17.7416926,16.5024446 C17.6820847,16.2044051 17.6522808,15.8765617 17.6522808,15.5487183 L17.6522808,12.9557751 Z" id="形状"></path>
                        <path d="M42.091516,14.5949921 C42.1511239,14.2969526 42.1809279,13.9095013 42.1809279,13.3730303 C42.1809279,10.7204792 40.9589661,6.57773075 36.2499427,6.57773075 C32.0475864,6.57773075 29.4546432,10.0051845 29.4546432,14.3565605 C29.4546432,18.6781326 32.1369983,21.6287232 36.5479822,21.6287232 C38.842886,21.6287232 40.452299,21.1220561 41.3762213,20.7048009 L40.8993582,18.8271523 C39.945632,19.2444076 38.7832781,19.572251 36.9056295,19.572251 C34.2828823,19.572251 32.0475864,18.1118576 31.9879785,14.5949921 L42.091516,14.5949921 Z M32.0177825,12.7173435 C32.2264101,10.8993028 33.35896,8.45537931 36.0413151,8.45537931 C38.9621018,8.45537931 39.6773964,11.0483226 39.6475925,12.7173435 L32.0177825,12.7173435 Z" id="形状"></path>
                    </g>
                </g>
            </g>
        </g>
    </g>
</svg>