<?xml version="1.0" encoding="UTF-8"?>
<svg width="208px" height="106px" viewBox="0 0 208 106" version="1.1" xmlns="http://www.w3.org/2000/svg" xmlns:xlink="http://www.w3.org/1999/xlink">
    <title>tengxunyun</title>
    <g id="文档首页" stroke="none" stroke-width="1" fill="none" fill-rule="evenodd">
        <g id="应用集成" transform="translate(-388.000000, -679.000000)">
            <g id="编组-9" transform="translate(388.000000, 679.000000)">
                <rect id="矩形备份-8" fill-opacity="0" fill="#FFFFFF" x="0" y="0" width="208" height="106" rx="4"></rect>
                <g id="编组-25" transform="translate(43.000000, 34.000000)" fill-rule="nonzero">
                    <g id="tengxunyun">
                        <path d="M98.1316572,12.7011848 L86.1386968,12.7011848 L86.1386968,14.3636848 L89.9011942,14.3636848 L89.9011942,21.0136848 L85.4332286,21.0136848 L85.4332286,22.9136848 L89.9011942,22.9136848 L89.9011942,33.6011848 L91.7824429,33.6011848 L91.7824429,22.9136848 L96.4855646,22.9136848 L96.4855646,33.3636848 L100.248062,33.3636848 L100.248062,31.4636848 L98.6019694,31.4636848 L98.6019694,12.7011848 L98.1316572,12.7011848 Z M91.7824429,20.7761848 L91.7824429,14.3636848 L96.4855646,14.3636848 L96.4855646,21.0136848 L91.7824429,21.0136848 L91.7824429,20.7761848 L91.7824429,20.7761848 Z M64.5043369,28.6136848 L74.1457364,28.6136848 L74.1457364,30.5136848 L64.5043369,30.5136848 L64.5043369,28.6136848 L64.5043369,28.6136848 Z M57.6848104,25.2886848 C57.6848104,28.6136848 57.4496543,30.9886848 56.744186,33.1261848 C56.744186,33.3636848 56.744186,33.3636848 56.9793421,33.3636848 L58.8605908,33.3636848 C59.5660591,30.2761848 59.5660591,27.9011848 59.5660591,26.0011848 L62.152776,26.0011848 L62.152776,31.4636848 L60.5066834,31.4636848 C60.2715273,31.4636848 60.2715273,31.4636848 60.2715273,31.7011848 L60.7418395,33.3636848 L64.0340247,33.3636848 L64.0340247,12.7011848 L57.9199665,12.7011848 L57.6848104,25.2886848 Z M59.8012152,24.5761848 L59.8012152,20.3011848 L62.3879321,20.3011848 L62.3879321,24.8136848 L59.8012152,24.8136848 L59.8012152,24.5761848 Z M62.152776,14.3636848 L62.152776,18.6386848 L59.5660591,18.6386848 L59.5660591,14.3636848 L62.152776,14.3636848 Z" id="形状" fill="#56606F"></path>
                        <path d="M74.5607662,20.1511848 L76.9446473,20.1511848 L76.9446473,18.4711848 L70.0313921,18.4711848 C70.0313921,17.9911848 70.0313921,17.2711848 70.5081684,16.7911848 L76.7062592,16.7911848 L76.7062592,15.1111848 L75.0375424,15.1111848 C75.2759306,14.1511848 75.7527068,12.9511848 75.7527068,12.9511848 C75.7527068,12.7111848 75.7527068,12.7111848 75.5143187,12.7111848 L74.08399,12.7111848 L73.3688257,15.1111848 L71.2233327,15.1111848 C71.4617208,14.1511848 71.4617208,13.1911848 71.7001089,11.9911848 C71.7001089,11.7511848 71.7001089,11.7511848 71.4617208,11.7511848 L70.0313921,11.7511848 C69.793004,12.9511848 69.793004,14.1511848 69.3162278,15.1111848 L68.1242873,15.1111848 L67.4091229,12.7111848 L65.9787943,12.7111848 C65.7404062,12.7111848 65.7404062,12.7111848 65.7404062,12.9511848 C65.7404062,13.1911848 65.9787943,14.1511848 66.4555705,15.1111848 L64.7868537,15.1111848 L64.7868537,16.7911848 L68.8394516,16.7911848 C68.6010635,17.2711848 68.6010635,17.9911848 68.1242873,18.4711848 L64.3100775,18.4711848 L64.3100775,20.1511848 L67.1707348,20.1511848 C65.9787943,21.8311848 64.7868537,22.5511848 64.3100775,22.7911848 L64.3100775,24.7111848 C64.3100775,24.9511848 65.7404062,24.2311848 66.2171824,23.7511848 L73.1304376,23.7511848 L73.1304376,26.3911848 L67.6475111,26.3911848 L67.8858992,24.9511848 C67.8858992,24.7111848 67.8858992,24.7111848 67.6475111,24.7111848 L65.9787943,24.7111848 L65.7404062,27.8311848 C65.7404062,28.0711848 65.7404062,28.0711848 65.9787943,28.0711848 L75.2759306,28.0711848 L75.2759306,32.6311848 L71.2233327,32.6311848 C70.9849446,32.6311848 70.9849446,32.6311848 70.9849446,32.8711848 L71.4617208,34.5511848 L77.1830354,34.5511848 L77.1830354,26.6311848 L75.0375424,26.6311848 L75.0375424,22.5511848 C75.6732441,23.0311848 76.4989516,23.5899958 77.5146652,24.2276178 C77.7703549,24.3899958 77.8981998,24.3911848 77.8981998,24.2311848 L77.8981998,22.5511848 C76.9446473,22.3111848 75.7527068,21.5911848 74.5607662,20.1511848 Z M72.4152732,20.1511848 C72.6536613,20.8711848 73.3688257,21.5911848 73.8456019,22.0711848 L67.8858992,22.0711848 C68.3626754,21.5911848 68.8394516,20.8711848 69.3162278,20.1511848 L72.4152732,20.1511848 Z M87.195336,27.5911848 L83.8579025,30.2311848 L83.8579025,18.4711848 L79.3285284,18.4711848 L79.3285284,20.3911848 L81.9507976,20.3911848 L81.9507976,31.6711848 C81.2356333,32.1511848 80.7588571,32.3911848 80.7588571,32.3911848 L81.9507976,33.8311848 L87.4337241,29.7511848 L87.195336,27.5911848 C87.4337241,27.5911848 87.195336,27.5911848 87.195336,27.5911848 Z M84.0962906,16.5511848 C84.3346787,16.5511848 84.3346787,16.3111848 84.3346787,16.3111848 L81.4740214,11.9911848 C80.3149363,11.9786207 79.6792347,11.9786207 79.5669165,11.9911848 C79.4545983,12.003749 79.3751356,12.083749 79.3285284,12.2311848 C79.5669165,12.4711848 82.1891857,16.5511848 82.1891857,16.5511848 L84.0962906,16.5511848 Z M104.120892,12.9511848 L119.616119,12.9511848 L119.616119,14.8711848 L104.120892,14.8711848 L104.120892,12.9511848 Z M109.842206,22.5511848 L122,22.5511848 L122,20.6311848 L102.213787,20.6311848 L102.213787,22.5511848 L107.696713,22.5511848 C106.504773,25.6711848 103.644116,33.1111848 103.644116,33.3511848 C103.644116,33.5911848 103.644116,33.5911848 103.882504,33.5911848 L121.046448,33.5911848 C121.284836,33.5911848 121.284836,33.3511848 121.284836,33.3511848 L118.662566,26.6311848 L116.755462,26.6311848 C116.517073,26.6311848 116.517073,26.8711848 116.517073,26.8711848 C116.517073,27.1111848 118.424178,31.6711848 118.424178,31.6711848 L106.981549,31.6711848 C106.743161,31.4311848 109.842206,22.5511848 109.842206,22.5511848 L109.842206,22.5511848 Z" id="形状" fill="#56606F"></path>
                        <path d="M25.5421586,0.351184834 C17.3797257,0.351184834 10.8977937,6.52353389 9.45736434,13.9902006 C9.93750745,13.9902006 10.6577221,13.7568672 11.3779368,13.7568672 C12.0981515,13.7568672 13.2985092,13.9902006 14.0187239,13.9902006 C15.2190817,8.85686723 19.7804413,5.0178515 25.0620155,5.0178515 C29.6233751,5.0178515 33.7045915,7.58451817 35.625164,11.5511848 C35.625164,11.5511848 39.2262373,10.6178515 40.6666667,10.6178515 C38.5060227,4.55118483 32.2641622,0.351184834 25.5421586,0.351184834 Z" id="路径" fill="#006EFF"></path>
                        <path d="M11.8370542,13.6511848 C8.46380942,13.6511848 5.33151072,15.0761848 3.40394228,17.4511848 C-1.17403275,22.2011848 -1.17403275,29.8011848 3.64488833,34.5511848 C5.57245677,36.4511848 8.16955159,37.4008865 10.5790121,37.4008865 L14.9693529,32.8886848 C14.9693529,33.0470182 14.085884,33.0470182 12.3189463,32.8886848 C9.6685397,32.6511848 7.98191731,31.7011848 6.77718704,30.7511848 C3.88583439,27.9011848 3.88583439,23.3886848 6.77718704,20.3011848 C8.22286337,18.8761848 9.6685397,18.1636848 12.0780002,18.1636848 C13.5236766,18.1636848 15.4138036,19.0285013 16.7471847,20.1063079 C17.6361054,20.8248456 18.8907479,21.9981379 20.5111121,23.6261848 L23.6434109,20.3011848 C22.0122815,18.4036767 20.5666051,16.9786767 19.3063819,16.0261848 C17.416047,14.597447 14.7284068,13.6511848 11.8370542,13.6511848 Z" id="路径" fill="#00C8DC"></path>
                        <path d="M44.3750452,30.3786358 C43.6672963,31.1051064 42.0158823,32.5580476 38.9489707,32.5580476 L21.491166,32.5580476 C26.9172404,27.2305966 30.5118109,23.497413 31.635566,22.3874593 C32.7593211,21.2775056 33.0788825,20.8860601 33.9947288,20.2080476 C34.9105751,19.5300351 37.533473,17.786479 39.184887,17.786479 C41.3081335,17.786479 42.9595475,18.5129495 44.3750452,19.9658907 C47.2060405,22.6296162 47.2060405,27.7149103 44.3750452,30.3786358 Z M39.6567195,12.7011848 C36.5898079,12.7011848 33.278845,14.7401493 32.1454241,15.5298262 C31.3898101,16.0562775 30.2474606,17.0600456 28.7183755,18.5411307 C16.5081924,31.1145001 10.4031008,37.4011848 10.4031008,37.4011848 L36.1179753,37.4011848 C37.7693893,37.4011848 39.184887,37.4011848 40.1285521,37.159028 C42.7236312,36.9168711 45.5546266,35.7060868 47.6778731,33.7688319 C52.1602824,28.9256946 52.1602824,21.176675 47.9137894,16.5756946 C45.7905428,14.3962829 42.7236312,12.7011848 39.6567195,12.7011848 Z" id="形状" fill="#00A3FF"></path>
                    </g>
                </g>
            </g>
        </g>
    </g>
</svg>