<?xml version="1.0" encoding="UTF-8"?>
<svg width="54px" height="54px" viewBox="0 0 54 54" version="1.1" xmlns="http://www.w3.org/2000/svg" xmlns:xlink="http://www.w3.org/1999/xlink">
    <title>wordpress@1.5x</title>
    <defs>
        <rect id="path-1" x="0" y="0" width="54" height="54" rx="8"></rect>
        <polygon id="path-3" points="0 0 31.9872051 0 31.9872051 31.9874662 0 31.9874662"></polygon>
    </defs>
    <g id="应用" stroke="none" stroke-width="1" fill="none" fill-rule="evenodd">
        <g id="应用市场" transform="translate(-1133.000000, -1878.000000)">
            <g id="wordpress" transform="translate(1133.000000, 1878.000000)">
                <mask id="mask-2" fill="white">
                    <use xlink:href="#path-1"></use>
                </mask>
                <use id="蒙版" fill="#00AADC" xlink:href="#path-1"></use>
                <g id="wordpress-blue" mask="url(#mask-2)">
                    <g transform="translate(11.000000, 11.000000)">
                        <mask id="mask-4" fill="white">
                            <use xlink:href="#path-3"></use>
                        </mask>
                        <g id="a" stroke="none" fill="none"></g>
                        <g id="编组" stroke="none" stroke-width="1" fill="none" fill-rule="evenodd" mask="url(#mask-4)">
                            <path d="M81.7655015,12.5907751 L76.2158694,12.5907751 L76.2158694,13.179495 C77.9517448,13.179495 78.230832,13.5515243 78.230832,15.752632 L78.230832,19.7214661 C78.230832,21.9225739 77.952267,22.3259319 76.2158694,22.3259319 C74.883352,22.1397868 73.9836939,21.426796 72.7435964,20.0624277 L71.3176149,18.5124364 C73.2393744,18.1709527 74.2625201,16.962184 74.2625201,15.5978157 C74.2625201,13.893008 72.8057319,12.5907751 70.0772563,12.5907751 L64.6208274,12.5907751 L64.6208274,13.179495 C66.3567028,13.179495 66.63579,13.5515243 66.63579,15.752632 L66.63579,19.7214661 C66.63579,21.9225739 66.3569639,22.3259319 64.6208274,22.3259319 L64.6208274,22.914913 L70.7902471,22.914913 L70.7902471,22.3259319 C69.0546328,22.3259319 68.7752845,21.9225739 68.7752845,19.7214661 L68.7752845,18.6059005 L69.3023912,18.6059005 L72.7438575,22.914913 L81.7657625,22.914913 C86.1990458,22.914913 88.1215885,20.5589888 88.1215885,17.7373102 C88.1210664,14.9158926 86.1990458,12.5907751 81.7655015,12.5907751 L81.7655015,12.5907751 Z M68.7755456,17.643846 L68.7755456,13.5209787 L70.0464497,13.5209787 C71.4413635,13.5209787 72.0616734,14.481989 72.0616734,15.5980767 C72.0616734,16.6833578 71.4413635,17.644107 70.0464497,17.644107 L68.7755456,17.643846 Z M81.8587046,21.9536416 L81.6414917,21.9536416 C80.5256651,21.9536416 80.3705876,21.6750766 80.3705876,20.2488339 L80.3705876,13.5209787 L81.8587046,13.5209787 C85.0829581,13.5209787 85.671417,15.8769029 85.671417,17.7062425 C85.671678,19.5971953 85.082697,21.9536416 81.8587046,21.9536416 L81.8587046,21.9536416 Z M47.3529267,18.7915236 L49.4918991,12.4662432 C50.1122089,10.6371646 49.8333828,10.1105801 47.8489657,10.1105801 L47.8489657,9.49027026 L53.6774239,9.49027026 L53.6774239,10.1105801 C51.7245967,10.1105801 51.2593644,10.5752903 50.4844992,12.8385335 L46.9498298,23.4417586 L46.5469939,23.4417586 L43.3843537,13.7376694 L40.1603613,23.4417586 L39.7570033,23.4417586 L36.315798,12.8387946 C35.5717395,10.5755514 35.0757005,10.1108412 33.2774287,10.1108412 L33.2774287,9.49053134 L40.1601002,9.49053134 L40.1601002,10.1108412 C38.3304996,10.1108412 37.8344606,10.5447447 38.4858381,12.4665042 L40.5629361,18.7917846 L43.6939865,9.49053134 L44.2834897,9.49053134 L47.3529267,18.7915236 L47.3529267,18.7915236 Z M57.8934943,23.3174878 C54.4833568,23.3174878 51.6930069,20.8064862 51.6930069,17.736788 C51.6930069,14.6984186 54.4833568,12.187156 57.8934943,12.187156 C61.3036319,12.187156 64.0939817,14.6984186 64.0939817,17.736788 C64.0939817,20.8064862 61.3038929,23.3174878 57.8934943,23.3174878 Z M57.8934943,13.1489495 C55.0415312,13.1489495 54.048931,15.7215643 54.048931,17.7370491 C54.048931,19.7836016 55.0415312,22.3256709 57.8934943,22.3256709 C60.7770473,22.3256709 61.7691253,19.7836016 61.7691253,17.7370491 C61.7691253,15.7215643 60.7770473,13.1489495 57.8934943,13.1489495 Z" id="形状" fill="#00749A" fill-rule="nonzero"></path>
                            <g fill="#FFFFFF" fill-rule="nonzero" id="形状">
                                <path d="M2.27342097,15.9933415 C2.27342097,21.4244463 5.42953841,26.1174974 10.0061508,28.3418407 L3.46130789,10.4095088 C2.67672935,12.166426 2.27194055,14.0692003 2.27342097,15.9933415 Z M25.256217,15.3009755 C25.256217,13.6053053 24.6471334,12.4309983 24.124726,11.5169812 C23.4292271,10.3867955 22.7775885,9.42970129 22.7775885,8.2995156 C22.7775885,7.03827119 23.7338995,5.86422521 25.081298,5.86422521 C25.1421281,5.86422521 25.1998252,5.87179633 25.2593499,5.87519028 C22.8180548,3.63883764 19.5658665,2.27342504 15.9938636,2.27342504 C11.2005605,2.27342504 6.98344583,4.73273416 4.53014139,8.45772593 C4.85204459,8.46738564 5.15567267,8.47391247 5.4130908,8.47391247 C6.84820993,8.47391247 9.06968141,8.29977668 9.06968141,8.29977668 C9.80930166,8.25617746 9.89650009,9.34250286 9.15792414,9.42996236 C9.15792414,9.42996236 8.41438779,9.51742187 7.58730804,9.56076002 L12.5837261,24.4223494 L15.5865895,15.417153 L13.4486614,9.56049894 C12.7098244,9.5171608 12.0098873,9.42970129 12.0098873,9.42970129 C11.2705281,9.38636315 11.3572044,8.25591639 12.0965636,8.2995156 C12.0965636,8.2995156 14.3624175,8.4736514 15.7105993,8.4736514 C17.1454573,8.4736514 19.3671899,8.2995156 19.3671899,8.2995156 C20.1073323,8.25591639 20.1942696,9.34224178 19.4551715,9.42970129 C19.4551715,9.42970129 18.7103298,9.5171608 17.8848165,9.56049894 L22.8431179,24.3095658 L24.2114023,19.7363473 C24.8048215,17.8386065 25.256217,16.4755436 25.256217,15.3009755 L25.256217,15.3009755 Z"></path>
                                <path d="M16.2345731,17.1934948 L12.1179716,29.1553446 C13.3765221,29.5262478 14.6817971,29.7145633 15.9938636,29.7145633 C17.5916313,29.7145633 19.1238697,29.4380868 20.5501123,28.9368264 C20.511854,28.8769389 20.4791699,28.8136682 20.452471,28.7478094 L16.2345731,17.1934948 Z M28.0329911,9.41064295 C28.0919936,9.84767941 28.125411,10.3170889 28.125411,10.8214823 C28.125411,12.2137854 27.8653821,13.778919 27.0821627,15.7359234 L22.8911553,27.8531117 C26.9701623,25.4744742 29.7137973,21.0552889 29.7137973,15.9933415 C29.7174392,13.6924978 29.1392568,11.4280848 28.0329911,9.41064295 L28.0329911,9.41064295 Z"></path>
                                <path d="M15.9938636,0 C7.17507352,0 0,7.17455138 0,15.9933415 C0,24.8131759 7.17481245,31.9877273 15.9938636,31.9877273 C24.8123927,31.9877273 31.9885105,24.813437 31.9885105,15.9933415 C31.9885105,7.17455138 24.8123927,0 15.9938636,0 Z M15.9938636,31.2543728 C7.57947584,31.2543728 0.733354493,24.4082514 0.733354493,15.9933415 C0.733354493,7.57921477 7.57921477,0.733615566 15.9938636,0.733615566 C24.4079904,0.733615566 31.2535896,7.57921477 31.2535896,15.9933415 C31.2535896,24.4082514 24.4077293,31.2543728 15.9938636,31.2543728 Z"></path>
                            </g>
                        </g>
                    </g>
                </g>
            </g>
        </g>
    </g>
</svg>