<svg width="208" height="106" viewBox="0 0 208 106" fill="none" xmlns="http://www.w3.org/2000/svg">
<path d="M204 0H4C1.79086 0 0 1.79086 0 4V102C0 104.209 1.79086 106 4 106H204C206.209 106 208 104.209 208 102V4C208 1.79086 206.209 0 204 0Z" fill="white"/>
<g clip-path="url(#clip0_462_40)">
<mask id="mask0_462_40" style="mask-type:alpha" maskUnits="userSpaceOnUse" x="33" y="34" width="421" height="38">
<path d="M33 72H453.082V34H33V72Z" fill="white"/>
</mask>
<g mask="url(#mask0_462_40)">
<path fill-rule="evenodd" clip-rule="evenodd" d="M164.597 46.094C164.597 46.1363 164.59 46.179 164.584 46.2237C164.579 46.2574 164.575 46.2911 164.566 46.3248C164.558 46.3638 164.546 46.4027 164.531 46.4403C164.519 46.4759 164.508 46.5129 164.491 46.5467C164.487 46.5609 164.482 46.5714 164.477 46.5856L157.185 61.2061C157.084 61.4636 156.895 61.6859 156.631 61.8189C156.587 61.8417 156.539 61.8559 156.493 61.8735C156.479 61.8792 156.465 61.8844 156.455 61.8877C156.403 61.9039 156.354 61.9129 156.303 61.9238C156.274 61.9286 156.248 61.9338 156.22 61.9357C156.183 61.9395 156.148 61.9395 156.111 61.9395C156.066 61.9414 156.022 61.9395 155.979 61.9357C155.957 61.9338 155.938 61.9305 155.919 61.9253C155.86 61.9181 155.802 61.9039 155.744 61.8863C155.74 61.8844 155.739 61.8825 155.733 61.8811C155.679 61.8649 155.626 61.8474 155.575 61.8203C155.309 61.6859 155.118 61.4598 155.018 61.199L152.697 56.5449L153.996 53.9225L155.888 57.7153C155.888 57.7153 156.104 58.1471 156.317 57.7153C156.532 57.2836 161.333 47.662 161.333 47.662C161.333 47.662 161.544 47.2302 161.068 47.2302H157.157C156.691 47.2302 156.464 47.662 156.464 47.662L154.54 51.5204L154.534 51.5147L152.369 55.8904L152.363 55.8795L149.707 61.2061C149.607 61.4636 149.418 61.6859 149.154 61.8189C149.11 61.8417 149.064 61.8559 149.018 61.8716C149.004 61.8773 148.989 61.8844 148.976 61.8877C148.926 61.9039 148.877 61.9129 148.829 61.9219C148.799 61.9272 148.771 61.9338 148.743 61.9357C148.706 61.9395 148.671 61.9395 148.634 61.9395C148.589 61.9414 148.547 61.9395 148.503 61.9357C148.482 61.9338 148.461 61.9305 148.441 61.9253C148.383 61.9162 148.327 61.9039 148.269 61.8863C148.263 61.8844 148.258 61.8825 148.253 61.8811C148.202 61.863 148.149 61.8474 148.097 61.8203C147.833 61.6859 147.644 61.4617 147.544 61.2061L140.25 46.5842H140.251C140.246 46.5714 140.242 46.5609 140.239 46.55C140.222 46.5129 140.208 46.474 140.195 46.435C140.183 46.3994 140.169 46.3638 140.162 46.3267C140.153 46.2911 140.149 46.2574 140.144 46.2218C140.139 46.179 140.132 46.1348 140.132 46.0921C140.132 46.0797 140.128 46.0707 140.128 46.0565C140.128 46.0337 140.134 46.0123 140.135 45.989C140.137 45.9482 140.141 45.9059 140.146 45.865C140.153 45.8275 140.162 45.7905 140.17 45.7548C140.181 45.7178 140.193 45.6836 140.204 45.6484C140.218 45.6109 140.234 45.5753 140.251 45.5397C140.268 45.5078 140.283 45.476 140.303 45.4456C140.324 45.4119 140.345 45.382 140.368 45.3501C140.391 45.3216 140.414 45.2931 140.439 45.2646C140.465 45.238 140.493 45.2081 140.525 45.1815C140.55 45.1601 140.576 45.1369 140.602 45.1155C140.64 45.0889 140.68 45.0642 140.719 45.0428C140.736 45.0324 140.751 45.0176 140.77 45.011C140.779 45.0053 140.79 45.0039 140.798 44.9982C140.841 44.9787 140.886 44.963 140.93 44.9488C140.959 44.9378 140.99 44.9274 141.02 44.9222C141.059 44.9093 141.102 44.906 141.14 44.9008C141.179 44.8956 141.214 44.8884 141.253 44.8884C141.267 44.8884 141.278 44.8846 141.292 44.8846H148.768C148.792 44.8846 148.815 44.8918 148.84 44.8937C148.88 44.8956 148.921 44.897 148.962 44.9041C148.995 44.9093 149.029 44.9184 149.062 44.9274C149.103 44.9378 149.145 44.9521 149.186 44.9663C149.212 44.9768 149.238 44.9896 149.265 45.0039C149.309 45.0233 149.351 45.0447 149.392 45.0694C149.411 45.0837 149.429 45.096 149.448 45.1103C149.492 45.1421 149.533 45.1758 149.573 45.2148C149.586 45.2276 149.598 45.2418 149.612 45.2556C149.651 45.295 149.686 45.3392 149.72 45.3853C149.732 45.4014 149.741 45.4195 149.752 45.4371C149.773 45.4689 149.794 45.4974 149.812 45.5311V45.533L152.036 49.9914L150.73 52.6067L148.265 47.662C148.265 47.662 148.048 47.2302 147.572 47.2302H143.66C143.191 47.2302 143.396 47.662 143.396 47.662L148.41 57.7168C148.41 57.7168 148.625 58.1485 148.84 57.7168C149.055 57.2855 150.866 53.656 150.866 53.656L153.002 49.3715L154.917 45.533C154.933 45.5007 154.955 45.4722 154.973 45.4442C154.987 45.4228 154.998 45.3995 155.012 45.382C155.042 45.3392 155.074 45.3003 155.111 45.2627C155.127 45.2452 155.143 45.2276 155.162 45.2095C155.197 45.1758 155.232 45.1459 155.271 45.1174C155.294 45.0998 155.319 45.0837 155.344 45.0675C155.379 45.0447 155.416 45.0252 155.455 45.0053C155.485 44.9915 155.516 44.9768 155.55 44.963C155.585 44.9521 155.62 44.9397 155.659 44.9293C155.696 44.9184 155.731 44.9093 155.771 44.9041C155.807 44.897 155.845 44.8956 155.883 44.8937C155.91 44.8918 155.933 44.8846 155.961 44.8846H163.436C163.45 44.8846 163.463 44.8884 163.477 44.8884C163.512 44.8899 163.547 44.8956 163.581 44.8989C163.627 44.906 163.669 44.9093 163.712 44.9222C163.738 44.9274 163.764 44.9378 163.792 44.9469C163.84 44.9611 163.888 44.9787 163.932 45.002C163.94 45.0053 163.949 45.0053 163.956 45.011C163.973 45.0176 163.985 45.0305 164.001 45.039C164.045 45.0623 164.089 45.0889 164.129 45.1193C164.152 45.1369 164.175 45.1563 164.196 45.1758C164.23 45.2062 164.265 45.238 164.293 45.2703C164.315 45.2931 164.336 45.3197 164.353 45.3425C164.38 45.3782 164.405 45.4119 164.427 45.4508C164.445 45.4779 164.459 45.5064 164.471 45.5344C164.492 45.572 164.51 45.6128 164.526 45.6537C164.537 45.6855 164.546 45.7178 164.556 45.7477C164.565 45.7867 164.575 45.8275 164.583 45.8665C164.59 45.9073 164.59 45.9482 164.593 45.9871C164.595 46.0104 164.6 46.0337 164.6 46.0565C164.6 46.0707 164.597 46.0816 164.597 46.094ZM152.365 34.0005C142.56 34.0005 134.612 42.0028 134.612 51.8752C134.612 61.7462 142.56 69.7485 152.365 69.7485C162.169 69.7485 170.116 61.7462 170.116 51.8752C170.116 42.0028 162.169 34.0005 152.365 34.0005ZM174.951 67.594C174.951 68.8865 173.91 69.9343 172.626 69.9343C171.343 69.9343 170.301 68.8865 170.301 67.594C170.301 66.3011 171.343 65.2537 172.626 65.2537C173.91 65.2537 174.951 66.3011 174.951 67.594ZM129.476 58.0105C129.476 53.8343 126.116 50.4462 121.968 50.4462V50.4533H108.238V50.4462C105.855 50.4462 103.926 48.5058 103.926 46.1066C103.926 43.713 105.855 41.7617 108.238 41.7617H126.927C127.807 41.7617 128.523 41.0445 128.523 40.1548C128.523 39.2656 127.807 38.5479 126.927 38.5479H108.238C104.096 38.5479 100.732 41.9323 100.732 46.1066C100.732 50.2775 104.096 53.6638 108.238 53.6638H121.968V53.669C124.351 53.669 126.28 55.6113 126.28 58.0105C126.28 60.4112 124.351 62.3549 121.968 62.3549H103.284C102.401 62.3549 101.685 63.0726 101.685 63.9623C101.685 64.8515 102.401 65.5692 103.284 65.5692H121.968H121.977C126.118 65.5635 129.476 62.1791 129.476 58.0105ZM98.4873 46.107C98.4873 41.9322 95.1274 38.5479 90.9797 38.5479V38.5536H71.9748C71.0949 38.5536 70.3802 39.2708 70.3802 40.1619C70.3802 41.0445 71.0949 41.7707 71.9748 41.7707H90.9797C90.9816 41.7707 90.9815 41.7622 90.9815 41.7622C93.3644 41.7707 95.2916 43.7135 95.2916 46.107C95.2916 48.5058 93.3588 50.4466 90.9797 50.4466V50.4537H75.0483C75.036 50.4537 75.0257 50.4466 75.0134 50.4466C72.4541 50.4466 70.384 52.5399 70.384 55.1125H70.3802V63.9622C70.3802 64.8519 71.0949 65.5692 71.9748 65.5692C72.8584 65.5692 73.574 64.8519 73.574 63.9622V59.5234L73.5797 59.5253V55.1125C73.5797 54.3155 74.2199 53.669 75.0134 53.669H79.3975H90.9797C90.9853 53.669 90.9872 53.6642 90.9872 53.6642C95.1293 53.6604 98.4873 50.278 98.4873 46.107ZM65.2505 40.1725C65.2524 39.7996 65.1481 39.4358 64.8962 39.1265C64.3334 38.443 63.3266 38.3523 62.6492 38.9228L51.0703 48.4009L53.6027 50.4729L62.0727 43.5407V60.5799L58.4048 57.5755C58.3463 57.5451 58.2812 57.529 58.2264 57.4777L49.1059 50.0007L46.5947 52.0603H46.5999L43.8505 54.3118L40.0905 57.3941C40.0816 57.4045 40.0731 57.4045 40.066 57.414L36.1952 60.5799V43.5445L44.6369 50.4586L47.15 48.39L35.772 39.061C35.7664 39.0558 35.7612 39.0448 35.7579 39.0396L35.6079 38.9228C34.9323 38.3523 33.9275 38.443 33.3613 39.1265C33.1108 39.4267 33.0085 39.7944 33.0085 40.162H32.9995V40.2684V40.3145V63.9695L33.0207 63.9567C33.0188 64.3229 33.1212 64.6901 33.3698 64.9941C33.9364 65.6771 34.9483 65.7698 35.6272 65.1945L49.1318 54.1356L62.6388 65.1945C63.3215 65.7645 64.3301 65.6724 64.8962 64.9941C65.1467 64.6901 65.2453 64.3229 65.2453 63.9567L65.2665 63.9624V40.162L65.2505 40.1725Z" fill="black"/>
</g>
</g>
<defs>
<clipPath id="clip0_462_40">
<rect width="142" height="38" fill="white" transform="translate(33 34)"/>
</clipPath>
</defs>
</svg>
