<?xml version="1.0" encoding="UTF-8"?>
<svg width="208px" height="106px" viewBox="0 0 208 106" version="1.1" xmlns="http://www.w3.org/2000/svg" xmlns:xlink="http://www.w3.org/1999/xlink">
    <title>zendesk_doce</title>
    <g id="应用集成" stroke="none" stroke-width="1" fill="none" fill-rule="evenodd">
        <g transform="translate(-508.000000, -1457.000000)" id="zabbix备份-7">
            <g transform="translate(508.000000, 1457.000000)">
                <rect id="蒙版" fill-opacity="0" fill="#FFFFFF" x="0" y="0" width="208" height="106" rx="4"></rect>
                <g id="编组-15" transform="translate(25.000000, 38.000000)" fill="#03363D" fill-rule="nonzero">
                    <g id="zendesk-1" transform="translate(45.000000, 3.750000)">
                        <path d="M74.4594521,18.6118461 C75.9393915,18.6426782 77.3884989,18.0877009 78.4676214,17.0702425 L80.440874,19.1976555 C79.145927,20.5542666 77.3268348,21.5408929 74.4902842,21.5408929 C69.649649,21.5408929 66.5356098,18.3343575 66.5356098,13.9870354 C66.4431136,9.88636994 69.7113132,6.52567417 73.7811466,6.43317796 L74.0278031,6.43317796 C78.8376062,6.43317796 81.5508285,10.0713624 81.3041719,15.1586541 L69.9888018,15.1586541 C70.3896187,17.286067 71.8695581,18.6426782 74.4594521,18.6118461 M77.9126441,12.7845846 C77.6043234,10.8113321 76.4327047,9.36222473 74.0894673,9.36222473 C71.9003902,9.36222473 70.3896187,10.5955076 69.9888018,12.7845846 L77.9126441,12.7845846 L77.9126441,12.7845846 Z M0,18.4576858 L8.72547617,9.57804923 L0.215824499,9.57804923 L0.215824499,6.80316282 L12.7644775,6.80316282 L12.7644775,9.63971337 L4.03900134,18.5193499 L12.8878058,18.5193499 L12.8878058,21.2942363 L0,21.2942363 L0,18.4576858 Z M22.6924045,18.6118461 C24.1723439,18.6426782 25.6214512,18.0877009 26.6697417,17.0702425 L28.6429942,19.1976555 C27.3480472,20.5542666 25.528955,21.5408929 22.6924045,21.5408929 C17.8517693,21.5408929 14.7377301,18.3343575 14.7377301,13.9870354 C14.6452339,9.88636994 17.9134334,6.52567417 21.9832668,6.43317796 L22.2299234,6.43317796 C27.0397265,6.43317796 29.7529488,10.0713624 29.5062922,15.1586541 L18.2217541,15.1586541 C18.622571,17.286067 20.1025105,18.6426782 22.6924045,18.6118461 M26.1455964,12.7845846 C25.8372757,10.8113321 24.665657,9.36222473 22.3224196,9.36222473 C20.1333425,9.36222473 18.622571,10.5955076 18.2217541,12.7845846 L26.1455964,12.7845846 Z M48.4063519,14.0178675 C48.4063519,9.3930568 51.8595439,6.4948421 55.6827207,6.4948421 C57.532645,6.46401003 59.2900731,7.26564388 60.5233559,8.65308709 L60.5233559,0.112603349 L63.606563,0.112603349 L63.606563,21.2634042 L60.5233559,21.2634042 L60.5233559,19.2593196 C59.3209051,20.708427 57.532645,21.571725 55.6518886,21.5408929 C51.9520401,21.5408929 48.4063519,18.6118461 48.4063519,14.0178675 M60.6775163,13.9870354 C60.6158521,11.4588056 58.4884392,9.45472095 55.9602094,9.51638509 C53.4319795,9.57804923 51.4278949,11.7054621 51.489559,14.233692 C51.5512232,16.7310898 53.5861399,18.7043423 56.0835376,18.7043423 C58.7350958,18.7043423 60.6775163,16.6077615 60.6775163,13.9870354 M83.3390887,18.1801971 L86.1448071,16.7310898 C86.8847768,18.0877009 88.3338842,18.8893348 89.8754878,18.8585027 C91.6329158,18.8585027 92.5270459,17.9643726 92.5270459,16.9469143 C92.5270459,15.7752956 90.831282,15.528639 89.0121898,15.1586541 C86.5456241,14.6345089 83.9865622,13.8328751 83.9865622,10.8421642 C83.9865622,8.56059088 86.1756392,6.43317796 89.5979991,6.46401003 C92.3112214,6.46401003 94.315306,7.54313253 95.4560927,9.26972852 L92.8661987,10.6880038 C92.126229,9.6088813 90.8929461,8.99223988 89.5979991,9.02307195 C87.9330673,9.02307195 87.1006013,9.8247058 87.1006013,10.7496679 C87.1006013,11.7979584 88.4263804,12.075447 90.5229613,12.5379281 C92.8970307,13.0620733 95.610253,13.8328751 95.610253,16.8544181 C95.610253,18.8585027 93.852825,21.5408929 89.7213274,21.5100608 C86.6997844,21.5408929 84.5723715,20.3384421 83.3390887,18.1801971 M103.965744,14.8195013 L101.530011,17.5018915 L101.530011,21.2634042 L98.4468036,21.2634042 L98.4468036,0.112603349 L101.530011,0.112603349 L101.530011,13.9562034 L108.06641,6.77233074 L111.827923,6.77233074 L106.154821,12.9695771 L111.982083,21.2634042 L108.498059,21.2634042 L103.965744,14.8195013 Z M39.0950664,6.46401003 C35.4260499,6.46401003 32.3428428,8.83807952 32.3428428,12.7845846 L32.3428428,21.2634042 L35.487714,21.2634042 L35.487714,13.1854016 C35.487714,10.8113321 36.8443252,9.3930568 39.1875626,9.3930568 C41.5308,9.3930568 42.6715866,10.8113321 42.6715866,13.1854016 L42.6715866,21.2634042 L45.7856258,21.2634042 L45.7856258,12.7845846 C45.8164579,8.83807952 42.7332508,6.46401003 39.0950664,6.46401003" id="形状"></path>
                    </g>
                    <g id="zendesk-2" transform="translate(-0.000000, 0.000000)">
                        <path d="M18.2392754,7.91307432 L18.2392754,29.9019346 L0.0260833051,29.9019346 L18.2392754,7.91307432 Z M18.2392754,0.0203201227 C18.2392754,5.04977483 14.162134,9.12691618 9.13267933,9.12691618 C4.10322462,9.12691618 0.0260833051,5.04977483 0.0260833051,0.0203201227 L18.2392754,0.0203201227 Z M21.2394997,29.9019346 C21.2394997,24.8724799 25.3166411,20.7953385 30.3460958,20.7953385 C35.3755505,20.7953385 39.4526918,24.8724799 39.4526918,29.9019346 L21.2394997,29.9019346 L21.2394997,29.9019346 Z M21.2394997,22.0091804 L21.2394997,0.0203201227 L39.4544804,0.0203201227 L21.2394997,22.0091804 Z" id="形状"></path>
                    </g>
                </g>
            </g>
        </g>
    </g>
</svg>