<?xml version="1.0" encoding="UTF-8"?>
<svg width="208px" height="106px" viewBox="0 0 208 106" version="1.1" xmlns="http://www.w3.org/2000/svg" xmlns:xlink="http://www.w3.org/1999/xlink">
    <title>zoom1</title>
    <g id="应用集成" stroke="none" stroke-width="1" fill="none" fill-rule="evenodd">
        <g transform="translate(-827.000000, -1312.000000)" id="zabbix备份-5">
            <g transform="translate(827.000000, 1312.000000)">
                <rect id="蒙版" fill-opacity="0" fill="#FFFFFF" x="0" y="0" width="208" height="106" rx="4"></rect>
                <g id="zoom" transform="translate(29.000000, 35.000000)" fill="#2D8CFF" fill-rule="nonzero">
                    <path d="M31.7127836,28.217975 L15.559602,28.217975 L34.9424471,8.93727298 L34.9424471,7.20813839 C34.9424471,4.73725125 32.7074616,2.5119936 30.2219826,2.5119936 L4.12931697,2.5119936 L4.12931697,4.24112818 C4.37251449,6.96007686 6.36430247,8.93727298 8.84978145,8.93727298 L25.2510245,8.93727298 L5.86817949,28.217975 L5.86817949,29.9471096 C5.86817949,32.4204287 8.10559694,34.6432544 10.5910759,34.6432544 L36.6837415,34.6432544 L36.6837415,32.9141198 C36.1851865,30.1951712 34.4463241,28.217975 31.7127836,28.217975 L31.7127836,28.217975 Z M135.344125,2.26393206 C131.618339,2.26393206 128.138182,3.74743716 125.652703,6.71444728 C123.169656,3.9954986 119.689499,2.26393206 115.96128,2.26393206 C113.22774,2.26393206 110.742261,3.00568461 108.755337,4.48918972 C107.512597,3.00568461 104.779057,2.26393206 103.040194,2.26393206 L103.040194,34.3976249 L104.779057,34.3976249 C107.512597,34.1544274 109.501953,32.4204288 109.501953,29.7014801 L109.501953,14.8664293 C109.483347,13.7500053 109.738874,12.6460598 110.246138,11.6513576 C111.126587,10.157637 112.570601,9.08060783 114.253343,8.66255228 C115.936085,8.24449673 117.716248,8.5205209 119.193376,9.42853204 C120.185622,9.91492718 120.932238,10.9120371 121.428361,11.6513576 C121.937125,12.6456042 122.193529,13.7497274 122.174978,14.8664293 L122.174978,29.7014801 C122.174978,32.1723673 124.409963,34.3976249 126.895442,34.3976249 L128.636737,34.3976249 L128.636737,14.8712933 C128.61813,13.7548694 128.873658,12.6509238 129.380921,11.6562217 C130.26137,10.162501 131.705384,9.0854718 133.388126,8.66741624 C135.070869,8.24936067 136.851031,8.52538483 138.328159,9.43339595 C139.299246,9.90569938 140.085551,10.6877266 140.563145,11.6562217 C141.071157,12.6507431 141.327517,13.7546761 141.309761,14.8712933 L141.309761,29.7063441 C141.552959,32.4252927 143.296685,34.4024889 146.030226,34.4024889 L147.769088,34.4024889 L147.769088,15.1169228 C148.260347,8.19795238 142.545205,2.26393206 135.344125,2.26393206 L135.344125,2.26393206 Z M73.7081373,6.96007686 C70.6037567,9.89770869 68.8050393,13.95616 68.713648,18.2291575 C68.6222568,22.5021549 70.2458037,26.6338019 73.2217421,29.7014801 C79.4052672,36.1370232 89.6306542,36.3545847 96.0823123,30.1878753 L96.5687073,29.7014801 C99.5458749,26.634427 101.17026,22.5025182 101.07886,18.2291135 C100.98746,13.9557087 99.1878941,9.89703166 96.0823123,6.96007686 C89.6229853,1.27655003 79.9218348,1.27655003 73.7081373,6.96007686 Z M92.0987363,25.248533 C90.332109,27.1175604 87.8874014,28.1966391 85.3159929,28.2423937 C82.7445843,28.2881483 80.2630351,27.2967254 78.4310337,25.4917305 C76.5533076,23.7451711 75.4666409,21.3100588 75.4207729,18.7460344 C75.3749048,16.18201 76.3737802,13.7095892 78.1878362,11.8969872 L78.4310337,11.6537896 C82.233341,7.94795764 88.296429,7.94795764 92.0987363,11.6537896 C95.8271479,15.4184721 95.8271479,21.4838505 92.0987363,25.248533 L92.0987363,25.248533 Z" id="形状"></path>
                    <path d="M51.0956287,2.26393206 C42.1508226,2.02073454 34.6943856,8.93727298 34.4463241,17.8285756 C34.3168105,22.1032719 35.8954673,26.2534704 38.8332075,29.3614416 C41.7709477,32.4694128 45.8257395,34.2791001 50.1009507,34.390329 L51.0956287,34.390329 C55.3718876,34.2828991 59.4290459,32.4758078 62.3693272,29.3689319 C65.3096084,26.2620561 66.890585,22.111559 66.7624151,17.8358715 C66.5021937,9.44069193 59.5443117,2.5119936 51.0956287,2.26393206 L51.0956287,2.26393206 Z M58.0535107,25.248533 C56.2868834,27.1175604 53.8421758,28.1966391 51.2707672,28.2423937 C48.6993587,28.2881483 46.2178094,27.2967254 44.3858081,25.4917305 C42.508082,23.7451711 41.4214153,21.3100588 41.3755473,18.7460344 C41.3296792,16.18201 42.3285546,13.7095892 44.1426105,11.8969872 L44.3858081,11.6537896 C48.362088,7.94745889 54.3252922,7.94745889 58.0535107,11.8969872 C61.5371855,15.6657842 61.5371855,21.479736 58.0535107,25.248533 L58.0535107,25.248533 Z" id="形状"></path>
                </g>
            </g>
        </g>
    </g>
</svg>