<svg width="40" height="40" viewBox="0 0 40 40" fill="none" xmlns="http://www.w3.org/2000/svg">
<path d="M20 40C31.0457 40 40 31.0457 40 20C40 8.95431 31.0457 0 20 0C8.95431 0 0 8.95431 0 20C0 31.0457 8.95431 40 20 40Z" fill="url(#paint0_linear_7457_106766)"/>
<path d="M15.7865 13.976C16.9818 13.0183 18.4684 12.4976 20 12.5C21.5938 12.5 23.0585 13.052 24.2135 13.976L25.3032 12.8863L26.3638 13.9468L25.274 15.0365C26.2317 16.2318 26.7524 17.7184 26.75 19.25V20H13.25V19.25C13.25 17.6563 13.802 16.1915 14.726 15.0365L13.6363 13.9475L14.6967 12.887L15.7865 13.9768V13.976ZM13.25 21.5H26.75V26.75C26.75 26.9489 26.671 27.1397 26.5303 27.2803C26.3897 27.421 26.1989 27.5 26 27.5H14C13.8011 27.5 13.6103 27.421 13.4697 27.2803C13.329 27.1397 13.25 26.9489 13.25 26.75V21.5ZM17.75 17.75C17.9489 17.75 18.1397 17.671 18.2803 17.5303C18.421 17.3897 18.5 17.1989 18.5 17C18.5 16.8011 18.421 16.6103 18.2803 16.4697C18.1397 16.329 17.9489 16.25 17.75 16.25C17.5511 16.25 17.3603 16.329 17.2197 16.4697C17.079 16.6103 17 16.8011 17 17C17 17.1989 17.079 17.3897 17.2197 17.5303C17.3603 17.671 17.5511 17.75 17.75 17.75ZM22.25 17.75C22.4489 17.75 22.6397 17.671 22.7803 17.5303C22.921 17.3897 23 17.1989 23 17C23 16.8011 22.921 16.6103 22.7803 16.4697C22.6397 16.329 22.4489 16.25 22.25 16.25C22.0511 16.25 21.8603 16.329 21.7197 16.4697C21.579 16.6103 21.5 16.8011 21.5 17C21.5 17.1989 21.579 17.3897 21.7197 17.5303C21.8603 17.671 22.0511 17.75 22.25 17.75Z" fill="white"/>
<defs>
<linearGradient id="paint0_linear_7457_106766" x1="3.75781" y1="32.1771" x2="37.1771" y2="9.61719" gradientUnits="userSpaceOnUse">
<stop stop-color="#60827E"/>
<stop offset="1" stop-color="#6AD3C0"/>
</linearGradient>
</defs>
</svg>
