<svg width="41" height="40" viewBox="0 0 41 40" fill="none" xmlns="http://www.w3.org/2000/svg">
<g clip-path="url(#clip0_7457_106787)">
<mask id="mask0_7457_106787" style="mask-type:alpha" maskUnits="userSpaceOnUse" x="0" y="0" width="41" height="40">
<path d="M20.2501 40C31.1658 40 40.0148 31.0457 40.0148 20C40.0148 8.95431 31.1658 0 20.2501 0C9.33431 0 0.485352 8.95431 0.485352 20C0.485352 31.0457 9.33431 40 20.2501 40Z" fill="white"/>
</mask>
<g mask="url(#mask0_7457_106787)">
<path d="M20.2501 40C31.1658 40 40.0148 31.0457 40.0148 20C40.0148 8.95431 31.1658 0 20.2501 0C9.33431 0 0.485352 8.95431 0.485352 20C0.485352 31.0457 9.33431 40 20.2501 40Z" fill="#7F3687"/>
<path fill-rule="evenodd" clip-rule="evenodd" d="M46.0349 34.5118L7.32399 10.0346L-4.79865 29.1584L33.9123 53.6357L46.0349 34.5118Z" fill="#66207A"/>
<path fill-rule="evenodd" clip-rule="evenodd" d="M-11.4636 11.7077L28.0679 -11.3876L39.5236 8.15278L-0.00794984 31.248L-11.4636 11.7077Z" fill="#A0609D"/>
<path fill-rule="evenodd" clip-rule="evenodd" d="M19.7796 9.04785C23.6828 9.04785 27.1035 11.1386 29.0076 14.2737L24.8837 16.5864C23.7886 14.9132 21.9114 13.8098 19.7796 13.8098C16.4009 13.8098 13.6619 16.5813 13.6619 20.0002C13.6619 23.4191 16.4009 26.1907 19.7796 26.1907C21.9329 26.1907 23.8264 25.065 24.9166 23.3633L29.0346 25.682C27.136 28.842 23.7014 30.9526 19.7796 30.9526C13.8019 30.9526 8.95605 26.0491 8.95605 20.0002C8.95605 13.9514 13.8019 9.04785 19.7796 9.04785Z" fill="white"/>
<path d="M33.4265 17.8564H28.25V18.8088H33.4265V17.8564Z" fill="white"/>
<path d="M33.4265 20.7139H28.25V21.6663H33.4265V20.7139Z" fill="white"/>
<path fill-rule="evenodd" clip-rule="evenodd" d="M32.4854 16.9043V22.6186H31.5442V16.9043H32.4854Z" fill="white"/>
<path fill-rule="evenodd" clip-rule="evenodd" d="M30.1323 16.9043V22.6186H29.1911V16.9043H30.1323Z" fill="white"/>
</g>
</g>
<defs>
<clipPath id="clip0_7457_106787">
<rect width="40" height="40" fill="white" transform="translate(0.25)"/>
</clipPath>
</defs>
</svg>
