<svg width="40" height="40" viewBox="0 0 40 40" fill="none" xmlns="http://www.w3.org/2000/svg">
<path d="M20 40C31.0457 40 40 31.0457 40 20C40 8.95431 31.0457 0 20 0C8.95431 0 0 8.95431 0 20C0 31.0457 8.95431 40 20 40Z" fill="url(#paint0_linear_7457_106953)"/>
<path d="M13.8088 20.7594C13.8355 21.3038 14.3847 21.0519 14.6334 20.8818C14.8695 20.7202 14.9386 20.8545 14.9593 20.5356C14.9729 20.326 14.9973 20.1164 14.9853 19.906C14.6282 19.874 14.2398 19.9582 13.9471 20.1688C13.7963 20.2773 13.5136 20.6235 13.8088 20.7594Z" fill="#F6D2A2" stroke="black" stroke-width="0.265934" stroke-linecap="round"/>
<path d="M13.8088 20.7587C13.8874 20.7295 13.9707 20.7087 14.024 20.6377Z" fill="#C6B198"/>
<path d="M13.8088 20.7587C13.8874 20.7295 13.9707 20.7087 14.024 20.6377" stroke="black" stroke-width="0.265934" stroke-linecap="round"/>
<path d="M15.0779 14.2739C12.9734 13.6879 14.5383 11.0366 16.2283 12.1271L15.0779 14.2739ZM24.4284 11.9282C26.0942 10.7695 27.5995 13.3836 25.6635 14.0414L24.4284 11.9282Z" fill="#6AD7E5" stroke="black" stroke-width="0.265934" stroke-linecap="round"/>
<path d="M24.7868 27.459C25.2099 27.7182 25.9834 28.5022 25.3486 28.8823C24.7387 29.4353 24.3974 28.2753 23.8621 28.1146C24.0926 27.8046 24.3848 27.5219 24.7868 27.459Z" fill="#F6D2A2" stroke="black" stroke-width="0.265934" stroke-linecap="round"/>
<path d="M25.3485 28.8829C25.2544 28.6976 25.2228 28.4814 25.0657 28.332" stroke="black" stroke-width="0.265934" stroke-linecap="round"/>
<path d="M17.2274 28.3451C16.7308 28.4212 16.4513 28.8649 16.0373 29.0902C15.6471 29.3206 15.4979 29.0165 15.4627 28.9547C15.4016 28.9271 15.4067 28.9805 15.3123 28.8863C14.9507 28.3211 15.6892 27.9079 16.0737 27.6271C16.6093 27.5199 16.945 27.9798 17.2274 28.3451Z" fill="#F6D2A2" stroke="black" stroke-width="0.265934" stroke-linecap="round"/>
<path d="M15.4626 28.9549C15.4816 28.7395 15.6541 28.5952 15.7362 28.4131" stroke="black" stroke-width="0.265934" stroke-linecap="round"/>
<path d="M15.1658 13.5424C14.8881 13.3969 14.6844 13.1994 14.8543 12.8814C15.0115 12.587 15.3036 12.619 15.5813 12.7644L15.1658 13.5424ZM25.2249 13.2659C25.5026 13.1204 25.7063 12.9229 25.5364 12.6049C25.3792 12.3105 25.0871 12.3425 24.8094 12.4879L25.2249 13.2659Z" fill="black"/>
<path d="M27.1362 20.6901C27.1096 21.2345 26.5604 20.9826 26.3116 20.8124C26.0755 20.6508 26.0065 20.7852 25.9857 20.4663C25.9722 20.2567 25.9478 20.0471 25.9598 19.8367C26.3168 19.8046 26.7052 19.8888 26.9979 20.0994C27.1487 20.2079 27.4314 20.5542 27.1362 20.6901Z" fill="#F6D2A2" stroke="black" stroke-width="0.265934" stroke-linecap="round"/>
<path d="M27.1324 20.6894C27.0538 20.6602 26.9705 20.6394 26.9172 20.5684Z" fill="#C6B198"/>
<path d="M27.1324 20.6894C27.0538 20.6602 26.9705 20.6394 26.9172 20.5684" stroke="black" stroke-width="0.265934" stroke-linecap="round"/>
<path d="M20.2617 10.8271C22.3686 10.8271 24.3437 11.1255 25.3733 13.13C26.2974 15.3768 25.9688 17.7996 26.1097 20.1742C26.2308 22.2131 26.4991 24.5687 25.544 26.4582C24.5391 28.446 22.0282 28.9461 19.9595 28.8728C18.3346 28.8152 16.3717 28.2903 15.4546 26.8202C14.3787 25.0955 14.888 22.531 14.9662 20.6119C15.0588 18.3387 14.3444 16.0585 15.0985 13.8341C15.8809 11.5265 17.9908 11.005 20.2617 10.8271Z" fill="#6AD7E5" stroke="black" stroke-width="0.265934" stroke-linecap="round"/>
<path d="M20.6336 13.6276C21.0119 15.8051 24.6063 15.2294 24.09 13.0332C23.6271 11.0638 20.5079 11.6089 20.6336 13.6276Z" fill="white" stroke="black" stroke-width="0.265934" stroke-linecap="round"/>
<path d="M16.3382 13.98C16.8285 15.8757 19.8935 15.3904 19.778 13.4887C19.6396 11.2112 15.8694 11.6507 16.3382 13.98Z" fill="white" stroke="black" stroke-width="0.265934" stroke-linecap="round"/>
<path d="M21.0672 16.2409C21.0688 16.524 21.1321 16.8419 21.0781 17.1431C21.0051 17.2796 20.8619 17.2941 20.7385 17.3493C20.5678 17.3228 20.4243 17.2118 20.3559 17.0537C20.3121 16.7099 20.3722 16.3771 20.3833 16.0332L21.0672 16.2409Z" fill="white" stroke="black" stroke-width="0.265934" stroke-linecap="round"/>
<path d="M17.1836 14.2265C17.4694 14.2265 17.7012 13.978 17.7012 13.6714C17.7012 13.3648 17.4694 13.1162 17.1836 13.1162C16.8977 13.1162 16.666 13.3648 16.666 13.6714C16.666 13.978 16.8977 14.2265 17.1836 14.2265Z" fill="black"/>
<path d="M17.4169 14.2727C17.6799 14.2727 17.8931 14.0595 17.8931 13.7965C17.8931 13.5335 17.6799 13.3203 17.4169 13.3203C17.1539 13.3203 16.9407 13.5335 16.9407 13.7965C16.9407 14.0595 17.1539 14.2727 17.4169 14.2727Z" fill="white"/>
<path d="M21.5202 14.0878C21.8013 14.0878 22.0291 13.8393 22.0291 13.5327C22.0291 13.2261 21.8013 12.9775 21.5202 12.9775C21.2391 12.9775 21.0112 13.2261 21.0112 13.5327C21.0112 13.8393 21.2391 14.0878 21.5202 14.0878Z" fill="black"/>
<path d="M21.7494 14.134C22.0124 14.134 22.2256 13.9208 22.2256 13.6578C22.2256 13.3948 22.0124 13.1816 21.7494 13.1816C21.4864 13.1816 21.2732 13.3948 21.2732 13.6578C21.2732 13.9208 21.4864 14.134 21.7494 14.134Z" fill="white"/>
<path d="M19.5881 16.2098C19.3623 16.7517 19.714 17.8355 20.3267 17.0361C20.2829 16.6924 20.3431 16.3595 20.3541 16.0156L19.5881 16.2098Z" fill="white" stroke="black" stroke-width="0.265934" stroke-linecap="round"/>
<path d="M19.6653 15.1665C19.2444 15.202 18.9004 15.6976 19.1192 16.0896C19.409 16.6089 20.0559 16.0437 20.4587 16.0967C20.9224 16.1061 21.3023 16.5822 21.6748 16.1827C22.0889 15.7384 21.4964 15.3058 21.0333 15.1123L19.6653 15.1665Z" fill="#F6D2A2" stroke="#231F20" stroke-width="0.265934" stroke-linecap="round"/>
<path d="M19.6124 15.1448C19.5812 14.4227 20.9715 14.3324 21.1356 14.9368C21.2994 15.5398 19.6809 15.6799 19.6124 15.1448C19.6124 15.1448 19.5578 14.7175 19.6124 15.1448Z" fill="black"/>
<defs>
<linearGradient id="paint0_linear_7457_106953" x1="40" y1="40" x2="0" y2="0" gradientUnits="userSpaceOnUse">
<stop stop-color="#5DCDD5"/>
<stop offset="1" stop-color="#DDF8FF"/>
</linearGradient>
</defs>
</svg>
