<svg width="40" height="41" viewBox="0 0 40 41" fill="none" xmlns="http://www.w3.org/2000/svg">
<g clip-path="url(#clip0_7457_106845)">
<path d="M20 40.5C31.0457 40.5 40 31.5457 40 20.5C40 9.45431 31.0457 0.5 20 0.5C8.95431 0.5 0 9.45431 0 20.5C0 31.5457 8.95431 40.5 20 40.5Z" fill="url(#paint0_linear_7457_106845)"/>
<path d="M12.3684 16.455C12.3684 16.6312 12.2596 16.7615 12.0729 16.7615C11.9174 16.7615 11.8008 16.6312 11.8008 16.455C11.8008 16.2863 11.9252 16.1484 12.0885 16.1484C12.2596 16.1484 12.3684 16.2863 12.3684 16.455ZM11.9381 25.6664V18.6203H12.2311V25.6664H11.9381Z" fill="white" stroke="white" stroke-width="1.1194"/>
<path d="M21.9775 20.6463C21.9775 24.1987 19.9767 25.8134 17.7866 25.8134C15.5494 25.8134 13.7377 24.0667 13.7377 20.7932C13.7377 17.4317 15.6125 15.626 17.9442 15.626C20.2286 15.6258 21.9775 17.4021 21.9775 20.6463ZM14.0346 20.7196C14.0346 23.4132 15.3591 25.5057 17.8005 25.5057C20.2589 25.5057 21.6689 23.3488 21.6689 20.689C21.6689 18.2225 20.5391 15.9715 17.961 15.9715C15.383 15.9715 14.0346 18.0909 14.0346 20.7196Z" fill="white" stroke="white" stroke-width="1.1194"/>
<path d="M23.0529 24.9033C23.5445 25.2262 24.393 25.5381 25.1228 25.5381C26.5079 25.5381 27.7397 24.583 27.7397 23.1773C27.7397 21.8727 26.9191 21.1921 25.526 20.6073C24.2791 20.084 23.1581 19.516 23.1581 18.1215C23.1581 16.6683 24.3196 15.6406 25.8983 15.6406C26.7472 15.6406 27.3876 15.8755 27.6854 16.081L27.567 16.3344C27.3138 16.1584 26.6296 15.9341 25.8851 15.9341C24.2167 15.9341 23.4899 17.1767 23.4899 18.0915C23.4899 19.3549 24.4836 19.7774 25.7644 20.3793C27.2537 21.0986 28.0429 21.7326 28.0429 23.1126C28.0429 24.5953 26.9707 25.7989 25.0644 25.7989C24.2749 25.7989 23.3666 25.5346 22.9198 25.197L23.0529 24.9033Z" fill="white" stroke="white" stroke-width="1.1194"/>
</g>
<defs>
<linearGradient id="paint0_linear_7457_106845" x1="3.75781" y1="32.6771" x2="37.1771" y2="10.1172" gradientUnits="userSpaceOnUse">
<stop stop-color="#5C666F"/>
<stop offset="1" stop-color="#648AAC"/>
</linearGradient>
<clipPath id="clip0_7457_106845">
<rect width="40" height="40" fill="white" transform="translate(0 0.5)"/>
</clipPath>
</defs>
</svg>
