<svg width="40" height="40" viewBox="0 0 40 40" fill="none" xmlns="http://www.w3.org/2000/svg">
<path d="M20 40C31.0457 40 40 31.0457 40 20C40 8.95431 31.0457 0 20 0C8.95431 0 0 8.95431 0 20C0 31.0457 8.95431 40 20 40Z" fill="url(#paint0_linear_7457_106868)"/>
<path d="M21.9261 22.3038C22.3576 23.0315 22.919 23.5663 23.9119 23.5663C24.746 23.5663 25.2788 23.1358 25.2788 22.5408C25.2788 21.8279 24.7314 21.5754 23.8133 21.1606L23.31 20.9376C21.8574 20.2985 20.8924 19.4977 20.8924 17.805C20.8924 16.2456 22.0428 15.0586 23.8405 15.0586C25.1204 15.0586 26.0405 15.5187 26.7035 16.7233L25.136 17.7628C24.7909 17.1236 24.4185 16.8718 23.8405 16.8718C23.2509 16.8718 22.8772 17.2581 22.8772 17.7628C22.8772 18.3865 23.2512 18.639 24.1149 19.0254L24.6181 19.248C26.3285 20.0056 27.2942 20.7778 27.2942 22.5142C27.2942 24.386 25.8705 25.4115 23.9585 25.4115C22.089 25.4115 20.8812 24.4914 20.2903 23.2854L21.9261 22.3038ZM14.8151 22.484C15.1313 23.0634 15.419 23.5533 16.1106 23.5533C16.772 23.5533 17.1892 23.2861 17.1892 22.2469V15.1773H19.2022V22.275C19.2022 24.4278 17.9801 25.4077 16.1963 25.4077C14.5846 25.4077 13.6512 24.5462 13.1765 23.5086L14.8151 22.484Z" fill="black"/>
<defs>
<linearGradient id="paint0_linear_7457_106868" x1="40" y1="16.6624" x2="2.71284" y2="30.766" gradientUnits="userSpaceOnUse">
<stop stop-color="#FCF140"/>
<stop offset="1" stop-color="#F7DF1E"/>
</linearGradient>
</defs>
</svg>
