<svg width="40" height="40" viewBox="0 0 40 40" fill="none" xmlns="http://www.w3.org/2000/svg">
<path d="M40 20C40 8.95431 31.0457 0 20 0C8.95431 0 0 8.95431 0 20C0 31.0457 8.95431 40 20 40C31.0457 40 40 31.0457 40 20Z" fill="url(#paint0_linear_7457_106854)"/>
<path d="M16.9488 25.5088C16.9488 25.5088 16.279 25.9278 17.4256 26.0696C18.8146 26.24 19.5246 26.2156 21.0554 25.9039C21.0554 25.9039 21.4578 26.1754 22.0199 26.4104C18.5883 27.9923 14.2535 26.3188 16.9488 25.5088Z" fill="white"/>
<path d="M16.7486 23.3828C16.7486 23.3828 15.9973 23.981 17.1448 24.1086C18.6286 24.2733 19.8004 24.2867 21.8281 23.8668C21.8281 23.8668 22.1086 24.1726 22.5496 24.3398C18.4006 25.6447 13.7794 24.4428 16.7486 23.3828Z" fill="white"/>
<path d="M20.1936 20.043C21.0392 21.0901 19.9715 22.0323 19.9715 22.0323C19.9715 22.0323 22.1184 20.8402 21.1324 19.3474C20.2115 17.9554 19.5053 17.2637 23.3284 14.8789C23.3284 14.8789 17.3274 16.4909 20.1936 20.043Z" fill="white"/>
<path d="M24.6124 26.8831C24.6124 26.8831 25.1081 27.3224 24.0664 27.6623C22.0857 28.3076 15.8223 28.5025 14.0824 27.688C13.4569 27.3953 14.6298 26.9892 14.9988 26.904C15.3836 26.8142 15.6035 26.831 15.6035 26.831C14.9079 26.3039 11.1075 27.8658 13.6731 28.3131C20.6697 29.5335 26.4272 27.7636 24.6124 26.8831Z" fill="white"/>
<path d="M17.3779 21.2599C17.3779 21.2599 14.1919 22.0738 16.2497 22.3693C17.1185 22.4945 18.8505 22.4661 20.4638 22.3208C21.7823 22.2011 23.1062 21.9468 23.1062 21.9468C23.1062 21.9468 22.6413 22.1609 22.3049 22.408C19.0697 23.3231 12.8197 22.8974 14.619 21.9613C16.1407 21.1702 17.3779 21.2599 17.3779 21.2599Z" fill="white"/>
<path d="M23.0971 24.5712C26.3859 22.7331 24.8653 20.9667 23.8039 21.2047C23.5438 21.2629 23.4278 21.3134 23.4278 21.3134C23.4278 21.3134 23.5244 21.1507 23.7088 21.0802C25.8085 20.2863 27.4234 23.4219 23.031 24.6639C23.031 24.6639 23.0819 24.615 23.0971 24.5712Z" fill="white"/>
<path d="M21.0616 10.9307C21.0616 10.9307 22.883 12.8903 19.3341 15.9037C16.4882 18.321 18.6852 19.6992 19.3329 21.274C17.6718 19.6619 16.4527 18.2429 17.2705 16.9221C18.4709 14.9834 21.7965 14.0435 21.0616 10.9307Z" fill="white"/>
<path d="M17.6813 29.6656C20.8381 29.883 25.6858 29.5451 25.8006 27.9385C25.8006 27.9385 25.5799 28.5475 23.1916 29.0312C20.4972 29.5766 17.174 29.5129 15.203 29.1634C15.203 29.1633 15.6065 29.5225 17.6813 29.6656Z" fill="white"/>
<defs>
<linearGradient id="paint0_linear_7457_106854" x1="40" y1="40" x2="0" y2="0" gradientUnits="userSpaceOnUse">
<stop stop-color="#A11818"/>
<stop offset="1" stop-color="#F83F3F"/>
</linearGradient>
</defs>
</svg>
