<svg width="40" height="40" viewBox="0 0 40 40" fill="none" xmlns="http://www.w3.org/2000/svg">
<path d="M20 40C31.0457 40 40 31.0457 40 20C40 8.95431 31.0457 0 20 0C8.95431 0 0 8.95431 0 20C0 31.0457 8.95431 40 20 40Z" fill="url(#paint0_linear_7457_106874)"/>
<path d="M19.9999 29.6468C19.7442 29.6468 19.5055 29.5776 19.2838 29.4565L17.0161 28.0904C16.6751 27.9002 16.8456 27.831 16.9479 27.7964C17.4083 27.6408 17.4935 27.6062 17.971 27.3295C18.0221 27.2949 18.0903 27.3122 18.1415 27.3468L19.8806 28.4017C19.9488 28.4363 20.034 28.4363 20.0852 28.4017L26.8883 24.407C26.9565 24.3724 26.9906 24.3032 26.9906 24.2167V16.2446C26.9906 16.1582 26.9565 16.089 26.8883 16.0544L20.0852 12.077C20.017 12.0424 19.9317 12.0424 19.8806 12.077L13.0775 16.0544C13.0093 16.089 12.9752 16.1755 12.9752 16.2446V24.2167C12.9752 24.2859 13.0093 24.3724 13.0775 24.407L14.936 25.4964C15.942 26.0152 16.5728 25.41 16.5728 24.8047V16.9363C16.5728 16.8326 16.6581 16.7288 16.7774 16.7288H17.647C17.7493 16.7288 17.8516 16.8153 17.8516 16.9363V24.8047C17.8516 26.1709 17.1184 26.9663 15.8397 26.9663C15.4475 26.9663 15.1406 26.9663 14.271 26.534L12.4808 25.4964C12.0375 25.237 11.7646 24.7528 11.7646 24.234V16.2619C11.7646 15.7431 12.0375 15.2589 12.4808 14.9995L19.2838 11.0048C19.7101 10.7627 20.2898 10.7627 20.7161 11.0048L27.5191 14.9995C27.9624 15.2589 28.2352 15.7431 28.2352 16.2619V24.234C28.2352 24.7528 27.9624 25.237 27.5191 25.4964L20.7161 29.4911C20.4944 29.5949 20.2386 29.6468 19.9999 29.6468ZM22.0971 24.1649C19.1133 24.1649 18.4995 22.7814 18.4995 21.6055C18.4995 21.5017 18.5848 21.398 18.7041 21.398H19.5907C19.693 21.398 19.7783 21.4671 19.7783 21.5709C19.9147 22.4874 20.3068 22.9371 22.1142 22.9371C23.5464 22.9371 24.1602 22.6085 24.1602 21.8303C24.1602 21.3807 23.9897 21.0521 21.7561 20.8273C19.8976 20.6371 18.7382 20.222 18.7382 18.7175C18.7382 17.3168 19.8976 16.4867 21.8414 16.4867C24.0238 16.4867 25.098 17.2476 25.2344 18.9078C25.2344 18.9596 25.2173 19.0115 25.1832 19.0634C25.1491 19.098 25.098 19.1326 25.0468 19.1326H24.1602C24.075 19.1326 23.9897 19.0634 23.9727 18.9769C23.7681 18.0258 23.2395 17.7145 21.8414 17.7145C20.2727 17.7145 20.0852 18.2679 20.0852 18.683C20.0852 19.1845 20.3068 19.3401 22.4211 19.6168C24.5183 19.8935 25.5072 20.2912 25.5072 21.7784C25.4901 23.3002 24.2625 24.1649 22.0971 24.1649Z" fill="white"/>
<defs>
<linearGradient id="paint0_linear_7457_106874" x1="22.0859" y1="15.888" x2="2.29948" y2="48.2695" gradientUnits="userSpaceOnUse">
<stop stop-color="#566B32"/>
<stop offset="1" stop-color="#4AE20D"/>
</linearGradient>
</defs>
</svg>
