<svg width="40" height="40" viewBox="0 0 40 40" fill="none" xmlns="http://www.w3.org/2000/svg">
<path d="M20 40C31.0457 40 40 31.0457 40 20C40 8.95431 31.0457 0 20 0C8.95431 0 0 8.95431 0 20C0 31.0457 8.95431 40 20 40Z" fill="url(#paint0_linear_7457_106880)"/>
<path d="M10.7522 16.9639H14.0938C15.0747 16.9722 15.7854 17.2534 16.2259 17.8076C16.6665 18.3618 16.812 19.1187 16.6623 20.0781C16.6041 20.5166 16.4753 20.9467 16.2758 21.3685C16.0846 21.7904 15.8186 22.1709 15.4778 22.51C15.0622 22.9401 14.6175 23.2131 14.1437 23.3289C13.6699 23.4447 13.1794 23.5026 12.6724 23.5026H11.1762L10.7024 25.86H8.96924L10.7522 16.9639ZM12.2111 18.3783L11.4629 22.1006C11.5128 22.1088 11.5627 22.113 11.6126 22.113H11.7871C12.5851 22.1212 13.2501 22.0427 13.7821 21.8772C14.3141 21.7035 14.6715 21.0997 14.8544 20.0657C15.004 19.1972 14.8544 18.6968 14.4055 18.5644C13.965 18.4321 13.4122 18.3701 12.7472 18.3783C12.6475 18.3866 12.5519 18.3907 12.4604 18.3907C12.3773 18.3907 12.29 18.3907 12.1986 18.3907L12.2111 18.3783Z" fill="white"/>
<path d="M18.637 14.5947H20.3577L19.8714 16.9646H21.4175C22.2654 16.9811 22.8971 17.1548 23.3127 17.4857C23.7367 17.8166 23.8613 18.4452 23.6868 19.3716L22.8514 23.5033H21.1058L21.9038 19.5577C21.9869 19.1442 21.962 18.8505 21.829 18.6768C21.696 18.5031 21.4092 18.4162 20.9686 18.4162L19.5846 18.4038L18.5622 23.5033H16.8416L18.637 14.5947Z" fill="white"/>
<path d="M25.5347 16.9639H28.8763C29.8571 16.9722 30.5678 17.2534 31.0084 17.8076C31.4489 18.3618 31.5944 19.1187 31.4448 20.0781C31.3866 20.5166 31.2578 20.9467 31.0583 21.3685C30.8671 21.7904 30.6011 22.1709 30.2603 22.51C29.8447 22.9401 29.4 23.2131 28.9262 23.3289C28.4524 23.4447 27.9619 23.5026 27.4549 23.5026H25.9586L25.4848 25.86H23.7517L25.5347 16.9639ZM26.9935 18.3783L26.2454 22.1006C26.2953 22.1088 26.3452 22.113 26.395 22.113H26.5696C27.3676 22.1212 28.0326 22.0427 28.5646 21.8772C29.0966 21.7035 29.454 21.0997 29.6369 20.0657C29.7865 19.1972 29.6369 18.6968 29.188 18.5644C28.7474 18.4321 28.1947 18.3701 27.5297 18.3783C27.4299 18.3866 27.3343 18.3907 27.2429 18.3907C27.1598 18.3907 27.0725 18.3907 26.9811 18.3907L26.9935 18.3783Z" fill="white"/>
<defs>
<linearGradient id="paint0_linear_7457_106880" x1="3.13542" y1="34.6146" x2="36.4818" y2="7.75521" gradientUnits="userSpaceOnUse">
<stop stop-color="#3B2862"/>
<stop offset="1" stop-color="#6D7BCE"/>
</linearGradient>
</defs>
</svg>
