<svg width="40" height="40" viewBox="0 0 40 40" fill="none" xmlns="http://www.w3.org/2000/svg">
<path d="M20 40C31.0457 40 40 31.0457 40 20C40 8.95431 31.0457 0 20 0C8.95431 0 0 8.95431 0 20C0 31.0457 8.95431 40 20 40Z" fill="url(#paint0_linear_7457_106891)"/>
<path d="M20.1188 10.3527C19.3128 10.3565 18.5431 10.4246 17.8657 10.5435C15.8702 10.8932 15.5079 11.6248 15.5079 12.9744V14.7565H20.2232V15.3507H13.7384C12.3679 15.3507 11.1681 16.1674 10.7928 17.7214C10.3598 19.5026 10.3406 20.6141 10.7928 22.4739C11.128 23.8584 11.9283 24.8448 13.2988 24.8448H14.92V22.7083C14.92 21.1648 16.2666 19.8034 17.8657 19.8034H22.5752C23.8864 19.8034 24.9329 18.7329 24.9329 17.4271V12.9744C24.9329 11.707 23.8549 10.7551 22.5754 10.5435C21.7654 10.4097 20.9249 10.349 20.1188 10.3527ZM17.5688 11.7861C18.056 11.7861 18.4536 12.1871 18.4536 12.68C18.4536 13.1711 18.056 13.5684 17.569 13.5684C17.0801 13.5684 16.6841 13.1711 16.6841 12.68C16.6841 12.1871 17.0801 11.7861 17.5688 11.7861Z" fill="url(#paint1_linear_7457_106891)"/>
<path d="M25.521 15.3506V17.4271C25.521 19.0368 24.1448 20.392 22.5754 20.392H17.8657C16.5756 20.392 15.5079 21.4869 15.5079 22.7683V27.221C15.5079 28.4883 16.6192 29.2337 17.8657 29.5973C19.3582 30.0326 20.7895 30.1113 22.5752 29.5973C23.7624 29.2565 24.933 28.5704 24.933 27.221V25.4388H20.2233V24.8447H27.2905C28.661 24.8447 29.1717 23.8968 29.6483 22.4739C30.1405 21.009 30.1196 19.6003 29.6483 17.7213C29.3096 16.3684 28.6628 15.3506 27.2905 15.3506H25.5212H25.521ZM22.8721 26.627C23.361 26.627 23.757 27.0241 23.757 27.5154C23.757 28.0083 23.361 28.4093 22.8721 28.4093C22.3849 28.4093 21.9875 28.0081 21.9875 27.5154C21.9875 27.0241 22.3849 26.627 22.8721 26.627Z" fill="url(#paint2_linear_7457_106891)"/>
<defs>
<linearGradient id="paint0_linear_7457_106891" x1="40" y1="40" x2="0" y2="0" gradientUnits="userSpaceOnUse">
<stop stop-color="#91ADFF"/>
<stop offset="1" stop-color="#CBEAFF"/>
</linearGradient>
<linearGradient id="paint1_linear_7457_106891" x1="10.4608" y1="10.3526" x2="21.2583" y2="19.6288" gradientUnits="userSpaceOnUse">
<stop stop-color="#5A9FD4"/>
<stop offset="1" stop-color="#306998"/>
</linearGradient>
<linearGradient id="paint2_linear_7457_106891" x1="22.7587" y1="27.3655" x2="18.8717" y2="21.9351" gradientUnits="userSpaceOnUse">
<stop stop-color="#FFD43B"/>
<stop offset="1" stop-color="#FFE873"/>
</linearGradient>
</defs>
</svg>
