<svg width="40" height="40" viewBox="0 0 40 40" fill="none" xmlns="http://www.w3.org/2000/svg">
<path d="M20 40C31.0457 40 40 31.0457 40 20C40 8.95431 31.0457 0 20 0C8.95431 0 0 8.95431 0 20C0 31.0457 8.95431 40 20 40Z" fill="url(#paint0_linear_7457_106899)"/>
<path d="M30.9548 19.9632C30.9548 18.5337 29.1701 17.179 26.434 16.3389C27.0654 13.5414 26.7848 11.3158 25.5482 10.6033C25.2632 10.4361 24.93 10.3569 24.566 10.3569V11.3378C24.7677 11.3378 24.93 11.3774 25.0659 11.4522C25.6622 11.7952 25.9209 13.1016 25.7192 14.7818C25.671 15.1953 25.5921 15.6307 25.4956 16.0749C24.6362 15.8638 23.6978 15.7011 22.7112 15.5955C22.1192 14.7818 21.5054 14.0429 20.8871 13.3963C22.3166 12.0635 23.6583 11.3334 24.5704 11.3334V10.3525C23.3645 10.3525 21.786 11.2146 20.1899 12.7101C18.5938 11.2234 17.0152 10.3701 15.8094 10.3701V11.351C16.717 11.351 18.0632 12.0767 19.4927 13.4007C18.8788 14.0473 18.2649 14.7818 17.6817 15.5955C16.6907 15.7011 15.7524 15.8638 14.8929 16.0793C14.7921 15.6395 14.7175 15.2128 14.6649 14.8038C14.4588 13.1236 14.7131 11.8172 15.3051 11.4698C15.4367 11.3906 15.6077 11.3554 15.8094 11.3554V10.3745C15.441 10.3745 15.1078 10.4537 14.8184 10.6208C13.5862 11.3334 13.31 13.5546 13.9458 16.3433C11.2184 17.1878 9.4425 18.5381 9.4425 19.9632C9.4425 21.3927 11.2272 22.7474 13.9633 23.5875C13.3319 26.385 13.6125 28.6106 14.8491 29.3231C15.1341 29.4903 15.4674 29.5695 15.8357 29.5695C17.0415 29.5695 18.6201 28.7074 20.2162 27.2119C21.8123 28.6986 23.3909 29.5519 24.5967 29.5519C24.965 29.5519 25.2983 29.4727 25.5877 29.3055C26.8198 28.593 27.0961 26.3718 26.4603 23.5831C29.1789 22.743 30.9548 21.3883 30.9548 19.9632ZM25.2457 17.0294C25.0834 17.5968 24.8817 18.1818 24.6537 18.7668C24.4739 18.4149 24.2854 18.0631 24.0793 17.7112C23.8776 17.3593 23.6627 17.0162 23.4479 16.6819C24.0705 16.7743 24.6712 16.8887 25.2457 17.0294ZM23.2374 21.7138C22.8954 22.3076 22.5446 22.8706 22.1806 23.394C21.5273 23.4512 20.8652 23.482 20.1987 23.482C19.5365 23.482 18.8744 23.4512 18.2254 23.3984C17.8615 22.875 17.5063 22.3164 17.1643 21.727C16.8311 21.1508 16.5285 20.5658 16.2522 19.9764C16.5241 19.387 16.8311 18.7976 17.1599 18.2214C17.5019 17.6276 17.8527 17.0646 18.2167 16.5412C18.87 16.484 19.5321 16.4532 20.1987 16.4532C20.8608 16.4532 21.5229 16.484 22.1719 16.5368C22.5358 17.0602 22.891 17.6188 23.233 18.2082C23.5663 18.7844 23.8688 19.3694 24.1451 19.9588C23.8688 20.5482 23.5663 21.1376 23.2374 21.7138ZM24.6537 21.142C24.8905 21.7314 25.0922 22.3208 25.2588 22.8926C24.6844 23.0333 24.0793 23.1521 23.4522 23.2445C23.6671 22.9058 23.882 22.5583 24.0837 22.202C24.2854 21.8501 24.4739 21.4939 24.6537 21.142ZM20.2074 25.8352C19.7996 25.4129 19.3918 24.9423 18.9884 24.4276C19.3831 24.4452 19.7865 24.4584 20.1943 24.4584C20.6064 24.4584 21.0142 24.4496 21.4133 24.4276C21.0186 24.9423 20.6108 25.4129 20.2074 25.8352ZM16.9451 23.2445C16.3224 23.1521 15.7217 23.0377 15.1473 22.897C15.3095 22.3296 15.5112 21.7446 15.7392 21.1596C15.919 21.5115 16.1075 21.8633 16.3136 22.2152C16.5197 22.5671 16.7302 22.9102 16.9451 23.2445ZM20.1855 14.0912C20.5933 14.5135 21.0011 14.9841 21.4045 15.4987C21.0099 15.4812 20.6064 15.468 20.1987 15.468C19.7865 15.468 19.3787 15.4768 18.9797 15.4987C19.3743 14.9841 19.7821 14.5135 20.1855 14.0912ZM16.9407 16.6819C16.7258 17.0206 16.511 17.3681 16.3093 17.7244C16.1075 18.0763 15.919 18.4281 15.7392 18.78C15.5024 18.1906 15.3007 17.6012 15.1341 17.0294C15.7085 16.8931 16.3136 16.7743 16.9407 16.6819ZM12.9723 22.1888C11.4201 21.5247 10.416 20.6538 10.416 19.9632C10.416 19.2726 11.4201 18.3973 12.9723 17.7376C13.3494 17.5748 13.7616 17.4297 14.187 17.2933C14.4369 18.1554 14.7658 19.0527 15.1736 19.972C14.7702 20.8869 14.4457 21.7798 14.2001 22.6375C13.766 22.5011 13.3538 22.3516 12.9723 22.1888ZM15.3314 28.4742C14.7351 28.1312 14.4764 26.8248 14.6781 25.1446C14.7263 24.7311 14.8052 24.2957 14.9017 23.8514C15.7611 24.0626 16.6995 24.2253 17.6861 24.3309C18.2781 25.1446 18.892 25.8835 19.5102 26.5301C18.0807 27.8628 16.739 28.593 15.8269 28.593C15.6296 28.5886 15.463 28.549 15.3314 28.4742ZM25.7324 25.1226C25.9385 26.8028 25.6842 28.1092 25.0922 28.4566C24.9606 28.5358 24.7896 28.571 24.5879 28.571C23.6803 28.571 22.3341 27.8453 20.9046 26.5213C21.5185 25.8747 22.1324 25.1402 22.7156 24.3265C23.7066 24.2209 24.6449 24.0582 25.5044 23.8426C25.6052 24.2869 25.6842 24.7135 25.7324 25.1226ZM27.4206 22.1888C27.0435 22.3516 26.6313 22.4967 26.206 22.6331C25.956 21.771 25.6272 20.8737 25.2194 19.9544C25.6228 19.0395 25.9473 18.1466 26.1928 17.2889C26.6269 17.4253 27.0391 17.5748 27.425 17.7376C28.9772 18.4017 29.9814 19.2726 29.9814 19.9632C29.977 20.6538 28.9728 21.529 27.4206 22.1888Z" fill="white"/>
<path d="M20.1942 21.9733C21.3009 21.9733 22.1981 21.0734 22.1981 19.9632C22.1981 18.8531 21.3009 17.9531 20.1942 17.9531C19.0875 17.9531 18.1903 18.8531 18.1903 19.9632C18.1903 21.0734 19.0875 21.9733 20.1942 21.9733Z" fill="white"/>
<defs>
<linearGradient id="paint0_linear_7457_106899" x1="40" y1="40" x2="0" y2="0" gradientUnits="userSpaceOnUse">
<stop stop-color="#338BBC"/>
<stop offset="1" stop-color="#05A5D1"/>
</linearGradient>
</defs>
</svg>
