<svg width="40" height="40" viewBox="0 0 40 40" fill="none" xmlns="http://www.w3.org/2000/svg">
<path d="M20 40C31.0457 40 40 31.0457 40 20C40 8.95431 31.0457 0 20 0C8.95431 0 0 8.95431 0 20C0 31.0457 8.95431 40 20 40Z" fill="url(#paint0_linear_7457_106914)"/>
<path fill-rule="evenodd" clip-rule="evenodd" d="M11.7646 25.3885C11.8559 25.1234 11.9883 24.8647 12.0289 24.5919C12.0903 24.1775 12.3006 24.1133 12.6511 24.2047C12.9371 24.2792 13.2299 24.3262 13.5769 24.3971L13.3022 25.8208L11.7646 25.5918V25.3885ZM22.5107 11.7646C22.605 11.7912 22.703 11.8498 22.7929 11.8391C23.3353 11.7739 23.4089 12.1272 23.4471 12.537C22.5156 12.6562 22.4053 12.5794 22.3098 11.7646H22.5107ZM27.9688 15.4587C27.4914 15.2598 27.0304 15.0077 26.5379 14.8739C25.1672 14.5018 23.9031 14.6835 22.7794 15.6575C21.1283 17.0887 20.4414 18.9561 20.3082 21.079C20.167 23.3276 20.6021 25.4932 21.3014 27.6143C21.349 27.7587 21.3995 27.9023 21.4434 28.0478C21.4517 28.0751 21.4349 28.1103 21.4237 28.177H13.7973C13.7973 27.5804 13.7627 26.9938 13.8029 26.4127C14.0428 22.9443 14.8713 19.6648 16.892 16.7803C18.2483 14.8444 19.9552 13.4237 22.3514 13.0604C24.4681 12.7396 26.3179 13.3706 27.9372 14.7502C28.2305 15.0002 28.2192 15.0139 27.9688 15.4587ZM14.4893 20.7787L13.2522 20.2876L13.6652 19.0373L14.9198 19.6082L14.4893 20.7787ZM17.1616 15.7159L16.5891 16.6248L15.4939 15.8966L16.1938 15.007L17.1616 15.7159Z" fill="white"/>
<path fill-rule="evenodd" clip-rule="evenodd" d="M22.7254 26.7187C21.4274 26.7355 21.3545 26.6865 21.1462 25.6818C22.3005 25.6726 22.4964 25.7976 22.7254 26.7187ZM19.5911 12.3408L20.2159 13.1832L19.4295 13.7069L18.6774 12.8774L19.5911 12.3408ZM20.6604 22.0187C21.564 22.2794 21.6934 22.4242 21.744 23.2313C20.7791 23.0637 20.5823 22.8436 20.6604 22.0187ZM21.6522 20.4848C20.7715 19.8586 20.7653 19.8423 21.1199 19.1466C21.8782 19.6555 21.9202 19.7557 21.6522 20.4848ZM22.4544 17.8965L21.9062 17.124L22.2847 16.6466C22.9071 17.3001 22.9209 17.3821 22.4544 17.8965ZM23.9418 16.1585L23.6845 15.4941L24.222 15.3C24.5713 15.9123 24.564 15.9372 23.9418 16.1585ZM27.0894 13.6631C26.7616 13.4665 26.2382 13.4863 26.2313 12.7773C26.5912 13.0956 27.0175 13.1832 27.0894 13.6631ZM26.22 15.1473L26.8556 15.4083C26.7631 15.4739 26.6753 15.5857 26.5773 15.5958C26.347 15.6194 26.079 15.6297 26.22 15.1473Z" fill="white"/>
<defs>
<linearGradient id="paint0_linear_7457_106914" x1="40" y1="40" x2="0" y2="0" gradientUnits="userSpaceOnUse">
<stop stop-color="#951A3C"/>
<stop offset="1" stop-color="#FF0046"/>
</linearGradient>
</defs>
</svg>
