<svg t="1651039861414" class="icon" viewBox="0 0 1024 1024" version="1.1" xmlns="http://www.w3.org/2000/svg" p-id="1460" width="32" height="32" xmlns:xlink="http://www.w3.org/1999/xlink"><defs><style type="text/css"></style></defs><path d="M512 0C229.674667 0 0 229.674667 0 512s229.674667 512 512 512c282.282667 0 512-229.674667 512-512S794.282667 0 512 0z m0 48.810667c255.786667 0 463.189333 207.36 463.189333 463.189333 0 255.786667-207.36 463.189333-463.189333 463.189333-255.829333 0-463.189333-207.36-463.189333-463.189333C48.810667 256.170667 256.170667 48.810667 512 48.810667zM357.12 250.368a286.165333 286.165333 0 0 0-18.048 0.213333c-41.941333 2.389333-67.114667 22.058667-74.026667 62.805334-4.906667 28.373333-4.096 57.514667-6.101333 86.058666-0.554667 14.933333-2.133333 29.738667-4.906667 44.288-5.717333 25.984-16.938667 34.048-43.349333 35.413334a113.066667 113.066667 0 0 0-10.410667 1.792v62.421333c48.042667 2.346667 54.528 19.285333 58.453334 69.504 1.408 18.304-0.554667 36.608 0.64 54.912 0.768 17.322667 3.114667 34.474667 6.656 51.2 11.050667 45.866667 55.765333 61.226667 109.866666 51.968v-54.741333c-8.661333 0-16.341333 0.213333-23.808 0-18.346667-0.554667-25.216-5.12-26.965333-22.826667-2.389333-22.826667-1.792-46.08-3.2-69.12-2.730667-42.709333-7.466667-84.821333-49.194667-112 21.461333-15.786667 37.034667-34.645333 41.941334-59.648 3.541333-17.493333 5.717333-35.029333 7.082666-52.778667 1.194667-17.706667-0.981333-35.84 0.597334-53.333333 2.56-28.373333 4.352-39.978667 38.4-38.826667 5.12 0 10.026667-0.725333 15.744-1.152v-55.893333c-6.826667 0-13.226667-0.170667-19.370667-0.256z m323.968 0.384a181.205333 181.205333 0 0 0-34.688 2.56v54.357333c10.453333 0 18.517333 0 26.581333 0.213334 13.994667 0.170667 24.618667 5.546667 26.026667 21.077333 1.365333 14.165333 1.322667 28.544 2.730667 42.922667 2.773333 28.544 4.309333 57.472 9.258666 85.632 4.352 23.210667 20.266667 40.533333 40.149334 54.741333-34.858667 23.424-45.098667 56.874667-46.848 94.506667-0.981333 25.770667-1.578667 51.754667-2.944 77.738666-1.194667 23.637333-9.472 31.317333-33.28 31.914667-6.698667 0.170667-13.226667 0.768-20.650667 1.194667v55.68c13.952 0 26.752 0.810667 39.552 0 39.765333-2.346667 63.786667-21.632 71.68-60.245334 3.328-21.248 5.290667-42.666667 5.888-64.170666 1.365333-19.669333 1.194667-39.552 3.157333-59.050667 2.944-30.506667 16.938667-43.093333 47.445334-45.098667a41.472 41.472 0 0 0 8.490666-1.962666v-62.421334c-5.12-0.597333-8.704-1.152-12.416-1.365333-22.869333-0.981333-34.304-8.661333-39.978666-30.293333a219.562667 219.562667 0 0 1-6.485334-42.368c-1.578667-26.368-1.408-52.949333-3.157333-79.36-3.413333-50.858667-33.877333-74.794667-80.512-76.202667z m-293.973333 225.28a36.010667 36.010667 0 0 0-3.541334 71.850667h2.346667a35.413333 35.413333 0 0 0 37.418667-33.28v-1.962667a36.053333 36.053333 0 0 0-35.413334-36.608z m124.202666 0a34.474667 34.474667 0 0 0-35.584 33.28c0 1.152 0 2.133333 0.170667 3.328 0 21.461333 14.592 35.242667 36.650667 35.242667 21.632 0 35.242667-14.165333 35.242666-36.394667-0.213333-21.461333-14.592-35.669333-36.48-35.456z m126.421334 0a36.736 36.736 0 0 0-37.376 35.626667c0 20.053333 16.128 36.224 36.224 36.224h0.384c18.133333 3.157333 36.394667-14.378667 37.589333-35.413334 0.981333-19.498667-16.725333-36.437333-36.821333-36.437333z" p-id="1461" fill="#2c2c2c"></path></svg>
