<svg width="40" height="40" viewBox="0 0 40 40" fill="none" xmlns="http://www.w3.org/2000/svg">
<path d="M20 40C31.0457 40 40 31.0457 40 20C40 8.95431 31.0457 0 20 0C8.95431 0 0 8.95431 0 20C0 31.0457 8.95431 40 20 40Z" fill="url(#paint0_linear_7457_106945)"/>
<path d="M25.5058 13.6475H29.1764L20 29.633L10.8235 13.6475H17.8435L20 17.3542L22.1105 13.6475H25.5058Z" fill="#41B883"/>
<path d="M10.8235 13.6475L20 29.633L29.1764 13.6475H25.5058L20 23.2388L14.4482 13.6475H10.8235Z" fill="#41B883"/>
<path d="M14.4482 13.6475L20 23.2851L25.5059 13.6475H22.1106L20 17.3542L17.8435 13.6475H14.4482Z" fill="#35495E"/>
<defs>
<linearGradient id="paint0_linear_7457_106945" x1="40" y1="40" x2="0" y2="0" gradientUnits="userSpaceOnUse">
<stop stop-color="#C4DCD2"/>
<stop offset="1" stop-color="#F3F3F3"/>
</linearGradient>
</defs>
</svg>
