<?xml version="1.0" encoding="UTF-8"?>
<svg width="24px" height="24px" viewBox="0 0 24 24" version="1.1" xmlns="http://www.w3.org/2000/svg" xmlns:xlink="http://www.w3.org/1999/xlink">
    <title>React备份</title>
    <defs>
        <linearGradient x1="16.4305461%" y1="16.9681909%" x2="83.7370133%" y2="92.1183401%" id="linearGradient-1">
            <stop stop-color="#E2F5FF" offset="0%"></stop>
            <stop stop-color="#9CDFF1" offset="100%"></stop>
        </linearGradient>
    </defs>
    <g id="文档首页" stroke="none" stroke-width="1" fill="none" fill-rule="evenodd">
        <g id="文档" transform="translate(-588.000000, -543.000000)" fill-rule="nonzero">
            <g id="编组-25" transform="translate(0.000000, 63.000000)">
                <g id="React备份" transform="translate(588.000000, 480.000000)">
                    <circle id="Oval-7" fill="url(#linearGradient-1)" cx="12" cy="12" r="12"></circle>
                    <g id="React-icon" transform="translate(5.647059, 6.211765)" fill="#0FA0CD">
                        <path d="M12.9257908,5.76639289 C12.9257908,4.90869143 11.8549997,4.09585437 10.2132953,3.5917898 C10.5921502,1.91333403 10.4237702,0.577958829 9.68184614,0.150427641 C9.51083531,0.0501425469 9.31088414,0.00263908142 9.0925164,0.00263908142 L9.0925164,0.591154237 C9.21353949,0.591154237 9.31088414,0.614905971 9.39244317,0.659770354 C9.75025051,0.865618703 9.90547574,1.64942589 9.78445269,2.65755499 C9.75551237,2.90562863 9.70815551,3.16689769 9.65027491,3.43344491 C9.1346114,3.30676903 8.571591,3.209123 7.97963029,3.14578503 C7.62445386,2.65755499 7.25612277,2.21418931 6.88516071,1.82624434 C7.742846,1.02660267 8.54791257,0.588515157 9.09514734,0.588515157 L9.09514734,0 C9.09514734,0 9.09514734,0 9.09514734,0 C8.37163983,0 7.42450269,0.517259957 6.46684183,1.41454764 C5.50918094,0.52253812 4.5620438,0.0105563257 3.83853629,0.0105563257 L3.83853629,0.599071483 C4.38314014,0.599071483 5.19083763,1.03451991 6.04852291,1.82888342 C5.6801918,2.21682839 5.31186071,2.65755499 4.96194614,3.14578503 C4.36735451,3.209123 3.80433411,3.30676903 3.28867057,3.436084 C3.22815903,3.17217586 3.18343311,2.91618497 3.15186189,2.67075039 C3.02820789,1.66262129 3.1808022,0.878814114 3.5359786,0.67032668 C3.61490669,0.622823214 3.7175132,0.601710563 3.83853629,0.601710563 L3.83853629,0.0131954071 C3.83853629,0.0131954071 3.83853629,0.0131954071 3.83853629,0.0131954071 C3.61753763,0.0131954071 3.41758646,0.0606988726 3.24394463,0.160983967 C2.50465151,0.588515157 2.33890251,1.92125127 2.7203883,3.59442889 C1.08394582,4.10113254 0.0184165552,4.91133051 0.0184165552,5.76639289 C0.0184165552,6.62409437 1.08920769,7.43693146 2.73091205,7.940996 C2.35205719,9.61945177 2.52043713,10.954827 3.2623612,11.3823582 C3.43337206,11.4826432 3.63332323,11.5301467 3.85432191,11.5301467 C4.57782943,11.5301467 5.52496657,11.0128867 6.48262743,10.1155991 C7.44028831,11.0076086 8.38742543,11.5195904 9.11093297,11.5195904 C9.33193163,11.5195904 9.5318828,11.4720869 9.70552457,11.3718018 C10.4448177,10.9442706 10.6105667,9.61153451 10.2290809,7.93835689 C11.8602615,7.43429234 12.9257908,6.62145526 12.9257908,5.76639289 Z M9.50031157,4.0061256 C9.40296691,4.34656709 9.28194383,4.69756491 9.14513514,5.04856274 C9.03726674,4.83743626 8.92413649,4.62630971 8.80048246,4.4151832 C8.6794594,4.20405671 8.55054351,3.99820834 8.4216276,3.79763817 C8.7952206,3.85305889 9.15565889,3.921675 9.50031157,4.0061256 Z M8.29534266,6.81674731 C8.09012963,7.17302329 7.87965471,7.51082571 7.66128697,7.8248764 C7.26927743,7.85918446 6.87200603,7.87765803 6.47210369,7.87765803 C6.07483229,7.87765803 5.67756089,7.85918446 5.28818229,7.82751549 C5.06981454,7.5134648 4.85670869,7.17830146 4.65149566,6.82466454 C4.45154449,6.47894489 4.27000986,6.12794706 4.10426086,5.77431011 C4.26737891,5.42067323 4.45154449,5.06703631 4.64886471,4.72131666 C4.85407777,4.36504066 5.06455269,4.02723823 5.2829204,3.71318757 C5.67492994,3.67887951 6.07220134,3.66040594 6.47210369,3.66040594 C6.86937509,3.66040594 7.26664651,3.67887951 7.65602511,3.71054846 C7.87439283,4.02459917 8.08749869,4.35976249 8.29271171,4.71339943 C8.49266289,5.05911909 8.67419751,5.41011691 8.83994651,5.76375383 C8.67419751,6.11739071 8.49266289,6.47102763 8.29534266,6.81674731 Z M9.14513514,6.47366671 C9.28720571,6.82730363 9.4082288,7.18094051 9.50820437,7.52402111 C9.16355169,7.60847171 8.80048246,7.67972694 8.42425854,7.73514763 C8.55317443,7.53193834 8.68209031,7.32345094 8.8031134,7.10968534 C8.92413649,6.8985588 9.03726674,6.68479323 9.14513514,6.47366671 Z M6.47736557,9.28956657 C6.23268846,9.0362148 5.98801137,8.75383309 5.74596523,8.44506054 C5.98274951,8.45561686 6.22479566,8.46353409 6.46947274,8.46353409 C6.71678077,8.46353409 6.96145789,8.45825594 7.20087309,8.44506054 C6.9640888,8.75383309 6.71941171,9.0362148 6.47736557,9.28956657 Z M4.51994883,7.73514763 C4.14635586,7.67972694 3.78591754,7.6111108 3.44126489,7.5266602 C3.53860951,7.18621869 3.6596326,6.83522086 3.79644129,6.48422303 C3.90430969,6.69534954 4.01743997,6.90647609 4.14109397,7.11760257 C4.264748,7.32872909 4.39103294,7.53457746 4.51994883,7.73514763 Z M6.46421089,2.2432192 C6.70888797,2.49657102 6.95356506,2.77895273 7.19561123,3.08772526 C6.95882694,3.07716891 6.71678077,3.06925169 6.47210369,3.06925169 C6.22479566,3.06925169 5.98011857,3.07452986 5.74070334,3.08772526 C5.97748763,2.77895273 6.22216471,2.49657102 6.46421089,2.2432192 Z M4.51731789,3.79763817 C4.388402,4.00084743 4.25948611,4.20933486 4.13846303,4.42310043 C4.01743997,4.63422697 3.90430969,4.84535349 3.79644129,5.05648 C3.65437074,4.70284309 3.53334766,4.34920617 3.43337206,4.0061256 C3.77802474,3.92431406 4.14109397,3.85305889 4.51731789,3.79763817 Z M2.13632041,7.10176809 C1.2049689,6.7032668 0.602484449,6.18072866 0.602484449,5.76639289 C0.602484449,5.35205711 1.2049689,4.82687991 2.13632041,4.43101771 C2.36258094,4.33337169 2.60988897,4.246282 2.86508983,4.16447049 C3.0150532,4.68173043 3.2123734,5.22010303 3.45705049,5.77167106 C3.21500434,6.3206 3.02031506,6.85633351 2.87298263,7.3709544 C2.6125199,7.28914286 2.36521188,7.19941411 2.13632041,7.10176809 Z M3.5517642,10.8730154 C3.19395686,10.6671671 3.03873163,9.88335989 3.15975471,8.8752308 C3.18869497,8.62715714 3.23605183,8.36588809 3.29393243,8.09934089 C3.80959597,8.22601677 4.3726164,8.32366277 4.96457709,8.38700074 C5.31975351,8.8752308 5.68808463,9.31859646 6.05904666,9.70654146 C5.20136137,10.5061831 4.3962948,10.9442706 3.84906003,10.9442706 C3.73066789,10.9416316 3.63069231,10.9178798 3.5517642,10.8730154 Z M9.79234549,8.8620354 C9.91599951,9.87016449 9.7634052,10.6539717 9.4082288,10.8624591 C9.32930069,10.9099626 9.22669417,10.9310752 9.10567109,10.9310752 C8.56106726,10.9310752 7.75336974,10.4956268 6.89568446,9.70126329 C7.26401557,9.31331834 7.63234669,8.87259174 7.98226123,8.38436166 C8.57685286,8.32102371 9.13987326,8.22337771 9.6555368,8.09406271 C9.71604834,8.36060994 9.7634052,8.61660083 9.79234549,8.8620354 Z M10.805256,7.10176809 C10.5789955,7.19941411 10.3316875,7.2865038 10.0764866,7.36831531 C9.92652326,6.85105537 9.729203,6.31268277 9.48452594,5.76111474 C9.72657209,5.2121858 9.92126137,4.67645226 10.0685938,4.1618314 C10.3290565,4.24364291 10.5763645,4.33337169 10.807887,4.43101771 C11.7392385,4.82951897 12.3417229,5.35205711 12.3417229,5.76639289 C12.339092,6.18072866 11.7366075,6.70590589 10.805256,7.10176809 Z" id="Shape"></path>
                        <ellipse id="Oval" cx="6.46947274" cy="5.76639289" rx="1.20233796" ry="1.20606021"></ellipse>
                    </g>
                </g>
            </g>
        </g>
    </g>
</svg>