<?xml version="1.0" encoding="UTF-8"?>
<svg width="98px" height="94px" viewBox="0 0 98 94" version="1.1" xmlns="http://www.w3.org/2000/svg" xmlns:xlink="http://www.w3.org/1999/xlink">
    <title>kongzhuangtai</title>
    <g id="文档首页" stroke="none" stroke-width="1" fill="none" fill-rule="evenodd">
        <g id="应用集成备份" transform="translate(-675.000000, -786.000000)" fill-rule="nonzero">
            <g id="kongzhuangtai" transform="translate(675.000000, 786.000000)">
                <path d="M0,86 C0,90.418278 18.6141007,94 41.5757576,94 C64.5374144,94 83.1515152,90.418278 83.1515152,86 C83.1515152,81.581722 64.5374144,78 41.5757576,78 C18.6141007,78 0,81.581722 0,86 L0,86 Z" id="路径" fill-opacity="0.8" fill="#F5F5F7"></path>
                <path d="M74.2424242,62.5193374 L59.6137399,44.3711794 C58.9115807,43.5169657 57.8858559,43 56.805103,43 L25.3543121,43 C24.2735591,43 23.2478344,43.5169657 22.5456751,44.3711794 L7.91919192,62.5193374 L7.91919192,72 L74.2424242,72 L74.2424242,62.5193374 Z" id="路径" fill="#AEB8C2"></path>
                <path d="M70.2828283,72.543439 L57.3981974,57.1456993 C56.7783936,56.4141161 55.8639113,55.9943678 54.9022509,56 L27.258256,56 C26.308687,56 25.3801949,56.4051155 24.7623094,57.1456993 L11.8787879,72.5423353 L11.8787879,81 L70.2828283,81 L70.2828283,72.543439 L70.2828283,72.543439 Z" id="路径" fill="#000000"></path>
                <path d="M20.2687949,19 L61.8928213,19 C63.2460626,19 64.3434343,20.1133707 64.3434343,21.4863415 L64.3434343,79.5136582 C64.3434343,80.8868267 63.2462575,82 61.8928213,82 L20.2698977,82 C19.6197637,82 18.9961573,81.7384746 18.5363396,81.2721629 C18.076522,80.8058513 17.8181818,80.1732709 17.8181818,79.5136582 L17.8181818,21.4863415 C17.8181818,20.1133707 18.9155535,19 20.2687949,19 Z" id="路径" fill="#F5F5F7"></path>
                <path d="M25.7230007,26.0022222 L56.439716,26.0022222 C57.1143612,26.0022222 57.661341,26.5544345 57.661341,27.2355334 L57.661341,42.641924 C57.661341,43.3230229 57.1143612,43.8752352 56.439716,43.8752352 L25.7230007,43.8752352 C25.0481376,43.8752352 24.5008826,43.3232427 24.5002751,42.641924 L24.5002751,27.2355334 C24.5002751,26.5533234 25.047255,26 25.7230007,26 L25.7230007,26.0022222 Z M25.8836829,50.5773373 L56.2790338,50.5773373 C57.0430688,50.5773373 57.6624416,51.2026351 57.6624416,51.973979 C57.6624416,52.7453228 57.0430688,53.3706206 56.2790338,53.3706206 L25.8836829,53.3706206 C25.1196479,53.3706206 24.5002751,52.7453228 24.5002751,51.973979 C24.5002751,51.2026351 25.1196479,50.5773373 25.8836829,50.5773373 Z M25.8836829,57.8383183 L56.2790338,57.8383183 C57.0430688,57.8383183 57.6624416,58.4636161 57.6624416,59.2349599 C57.6624416,60.0063038 57.0430688,60.6316016 56.2790338,60.6316016 L25.8836829,60.6316016 C25.1196479,60.6316016 24.5002751,60.0063038 24.5002751,59.2349599 C24.5002751,58.4636161 25.1196479,57.8383183 25.8836829,57.8383183 Z M74.1081555,84.6911704 C73.6349134,86.586692 71.9697615,88 69.9898485,88 L12.1717676,88 C10.1918547,88 8.52890386,86.586692 8.05566174,84.6911704 C7.96525579,84.3301148 7.91919192,83.9591588 7.91919192,83.5867458 L7.91919192,62.866006 L24.009424,62.866006 C25.7879339,62.866006 27.2208671,64.37709 27.2208671,66.2115016 L27.2208671,66.2370567 C27.2208671,68.0703572 28.6692081,69.5514417 30.4466174,69.5514417 L51.7149988,69.5514417 C53.4924081,69.5514417 54.9418497,68.0570241 54.9418497,66.2226125 L54.9418497,66.2148349 C54.9418497,64.3815344 56.3747828,62.866006 58.1521922,62.866006 L74.2424242,62.866006 L74.2424242,83.5878568 C74.2424242,83.96785 74.1962006,84.3378434 74.1081555,84.6911704 Z" id="形状" fill="#DCE0E6"></path>
                <path d="M76.6110858,20.2352298 L72.4231547,21.8468271 C72.2034098,21.9314073 71.9542082,21.8837617 71.781969,21.7242367 C71.6097299,21.5647118 71.5448949,21.3215023 71.6151511,21.0984683 L72.8028722,17.3260394 C71.2155646,15.536105 70.2828283,13.3544858 70.2828283,11 C70.2828283,4.92450766 76.4885606,0 84.142518,0 C91.7953715,0 98,4.92341357 98,11 C98,17.0743982 91.7964753,22 84.1414141,22 C81.3652816,22 78.7801118,21.3512035 76.6110858,20.2352298 Z" id="路径" fill="#DCE0E6"></path>
                <path d="M88.1010101,11.5 C88.1010101,12.3284271 88.9873958,13 90.0808081,13 C91.1742203,13 92.0606061,12.3284271 92.0606061,11.5 C92.0606061,10.6715729 91.1742203,10 90.0808081,10 C88.9873958,10 88.1010101,10.6715729 88.1010101,11.5 Z" id="路径" fill="#FFFFFF"></path>
                <path d="M80.7762079,13 L77.2121212,13 L79.0245595,10 L80.7762079,12.9989043 L80.7762079,13 Z M83.0029177,10 L86.1212121,10 L86.1212121,12.9989043 L83.0029177,12.9989043 L83.0029177,10 Z" id="形状" fill="#FFFFFF"></path>
            </g>
        </g>
    </g>
</svg>