<?xml version="1.0" encoding="UTF-8"?><svg t="1613703911608" class="icon" viewBox="0 0 1097 1024" version="1.1" xmlns="http://www.w3.org/2000/svg" p-id="11028" width="200" height="200"><path d="M484.571429 64a384 384 0 1 1 0 768 384 384 0 0 1 0-768z m0 64a320 320 0 1 0 0 640 320 320 0 0 0 0-640z m286.866285 560.420571l179.346286 182.710858a31.963429 31.963429 0 0 1-0.146286 45.056l-3.437714 3.437714a32.036571 32.036571 0 0 1-45.494857-0.219429l-179.419429-182.637714a31.963429 31.963429 0 0 1 0.219429-45.056l3.437714-3.437714a32.036571 32.036571 0 0 1 45.494857 0.146285z" p-id="11029" fill="#9BA1A7"></path></svg>
